<?xml version="1.0" encoding="utf-8"?>
<!-- Generator: Adobe Illustrator 16.0.0, SVG Export Plug-In . SVG Version: 6.00 Build 0)  -->
<!DOCTYPE svg PUBLIC "-//W3C//DTD SVG 1.1//EN" "http://www.w3.org/Graphics/SVG/1.1/DTD/svg11.dtd">
<svg version="1.1" id="Layer_1" xmlns="http://www.w3.org/2000/svg" xmlns:xlink="http://www.w3.org/1999/xlink" x="0px" y="0px"
	 width="512px" height="512px" viewBox="0 0 512 512" enable-background="new 0 0 512 512" xml:space="preserve">
<g>
	<path d="M272.354,162.232l53.402,54.879L86.967,481.11c-10.381,11.128-28.938,11.128-40.065,0l-28.91-29.655
		c-11.127-10.382-11.127-28.908,0-40.037L272.354,162.232z M496.346,218.588l-40.066,40.797c-8.146,8.159-20.764,8.159-29.654,0
		l-8.892-9.636c-6.683-5.937-9.665-17.064-5.938-22.255c6.654-4.445,4.445-17.796-8.173-29.669
		c-17.782-18.542-40.783-19.274-49.674-9.638c-3.699,2.97-15.573,15.574-15.573,15.574l-54.894-54.133l8.92-8.905
		c0,0,2.208-2.223,6.653-7.414c17.064-17.064-0.746-36.337-0.746-36.337c-48.183-47.466-115.667-46.721-115.667-46.721
		l-0.745-17.064c135.713-34.861,186.879,24.479,205.435,43.02c17.036,17.049,34.847,34.846,39.292,39.306
		c9.636,9.637,0,37.069,14.081,52.657c6.682,6.668,15.573,9.636,22.256,9.636c7.428-6.668,19.272-4.445,25.21,2.223l8.174,8.906
		C504.49,197.093,504.49,209.698,496.346,218.588z"/>
</g>
</svg>
