<svg width="768" height="555" viewBox="0 0 768 555" fill="none" xmlns="http://www.w3.org/2000/svg">
<path d="M87.539 462.664C88.2963 462.229 88.9491 461.501 89.8106 461.361C90.1963 461.298 90.3185 461.997 90.6777 462.15C91.2979 462.417 91.9826 462.591 92.6574 462.582C93.7082 462.568 94.7269 461.962 95.7699 462.087C96.4932 462.173 96.9338 463.175 97.6623 463.179C99.0848 463.189 100.376 462.194 101.797 462.126C102.215 462.106 102.342 462.992 102.755 462.936C108.328 462.179 113.825 460.923 119.324 459.745C120.601 459.472 121.835 459.027 123.064 458.587C127.09 457.148 131.121 455.72 135.083 454.113C137.301 453.212 139.555 452.332 141.589 451.069C142.69 450.385 143.222 448.961 144.362 448.346C144.703 448.162 144.941 449.303 145.263 449.085C148.947 446.596 151.973 443.217 155.651 440.718C157.897 439.191 160.596 438.446 162.938 437.071C164.481 436.165 165.848 434.985 167.267 433.896C167.606 433.636 168.076 433.434 168.207 433.028C168.303 432.732 167.602 432.394 167.824 432.176C168.755 431.26 170.23 431.04 171.16 430.124C173.201 428.112 174.707 425.614 176.635 423.492C177.947 422.048 179.617 420.947 180.861 419.446C183.996 415.66 187.016 411.764 189.74 407.673C192.055 404.197 194.103 400.537 195.947 396.791C196.092 396.496 195.362 396.172 195.537 395.893C195.928 395.269 197.029 395.268 197.325 394.594C197.571 394.034 196.666 393.383 196.889 392.814C197.79 390.509 199.596 388.637 200.548 386.352C200.708 385.966 199.934 385.598 200.057 385.199C200.659 383.243 201.903 381.537 202.62 379.619C202.864 378.968 202.964 378.247 202.915 377.553C202.887 377.151 202.24 376.832 202.397 376.46C202.835 375.428 204.196 374.909 204.492 373.827C204.857 372.495 204.172 371.07 204.251 369.69C204.346 368.028 204.57 366.357 205.009 364.751C205.203 364.045 206.101 363.588 206.122 362.856C206.171 361.123 205.16 359.469 205.209 357.736C205.23 357.004 206.116 356.544 206.322 355.84C206.604 354.872 206.686 353.839 206.641 352.832C206.624 352.441 206.087 352.159 206.142 351.772C206.199 351.37 206.946 351.244 206.926 350.838C206.529 342.722 205.801 334.623 204.907 326.546C204.848 326.014 204.094 325.704 204.082 325.169C204.074 324.765 204.876 324.642 204.859 324.239C204.724 321.123 204.174 318.036 203.646 314.962C203.006 311.229 202.192 307.525 201.355 303.831C201.112 302.763 200.875 301.676 200.408 300.687C200.088 300.01 199.24 299.631 199.029 298.912C198.94 298.61 199.552 298.522 199.688 298.239C199.843 297.914 199.926 297.527 199.863 297.172C199.446 294.811 198.932 292.462 198.262 290.16C197.574 287.793 196.476 285.559 195.797 283.19C194.989 280.366 194.642 277.423 193.811 274.606C193.081 272.129 191.802 269.832 191.126 267.341C188.058 256.022 185.631 244.538 182.593 233.212C182.26 231.974 181.298 230.951 181.03 229.697C180.961 229.377 181.721 229.286 181.681 228.961C181.597 228.27 180.901 227.781 180.713 227.112C180.622 226.793 180.959 226.455 180.883 226.132C180.801 225.785 180.359 225.598 180.275 225.252C178.396 217.523 176.921 209.701 175.011 201.981C174.409 199.546 173.306 197.25 172.742 194.806C172.197 192.447 172.213 189.985 171.698 187.618C171.092 184.839 169.846 182.211 169.387 179.404C169.319 178.991 170.251 178.861 170.197 178.446C169.921 176.296 168.74 174.329 168.461 172.18C168.409 171.783 169.087 171.648 169.266 171.291C169.429 170.966 169.496 170.577 169.446 170.217C169.069 167.47 168.613 164.729 167.995 162.026C167.66 160.561 166.815 159.228 166.591 157.742C166.543 157.42 167.326 157.325 167.24 157.01C167.048 156.299 165.949 155.977 165.914 155.241C165.871 154.304 167.012 153.598 167.038 152.661C167.083 151.006 166.631 149.355 166.12 147.781C165.571 146.088 165.337 143.957 163.881 142.932C163.06 142.356 162.02 143.733 161.218 144.335C160.436 144.922 159.341 145.49 159.19 146.455C159.056 147.312 160.522 147.813 160.538 148.682C160.557 149.726 159.449 150.522 159.285 151.554C159.172 152.259 159.855 152.94 159.746 153.646C159.636 154.355 158.892 154.828 158.673 155.511C158.467 156.154 158.425 156.859 158.501 157.53C158.549 157.935 159.147 158.243 159.031 158.634C158.443 160.599 157.084 162.276 156.497 164.241C156.38 164.632 156.979 164.94 157.025 165.345C157.103 166.015 157.067 166.721 156.856 167.361C156.007 169.95 154.61 172.347 153.867 174.968C153.757 175.359 154.319 175.668 154.388 176.068C154.451 176.427 154.362 176.806 154.249 177.152C152.706 181.909 150.524 186.479 149.428 191.358C149.28 192.02 150.653 192.265 150.702 192.941C150.738 193.411 149.865 193.442 149.613 193.839C148.724 195.239 147.831 196.677 147.328 198.257C147.205 198.645 147.808 198.954 147.854 199.358C147.931 200.028 147.918 200.741 147.685 201.375C146.38 204.918 144.48 208.229 143.268 211.806C143.139 212.188 143.714 212.502 143.781 212.898C143.842 213.258 143.788 213.649 143.639 213.98C142.931 215.557 141.776 216.934 141.232 218.575C141.104 218.958 141.681 219.274 141.749 219.671C141.811 220.031 141.751 220.42 141.608 220.754C138.244 228.658 134.473 236.39 131.244 244.349C130.857 245.303 130.785 246.376 130.799 247.405C130.805 247.795 131.374 248.082 131.299 248.466C131.16 249.169 130.397 249.633 130.225 250.329C129.822 251.963 129.154 253.716 129.604 255.337C129.782 255.98 130.673 254.429 131.332 254.324C131.644 254.274 131.736 255.013 132.045 254.947C132.643 254.82 133.264 254.413 133.52 253.857C133.688 253.493 132.902 253.115 133.058 252.747C133.497 251.712 134.692 251.12 135.124 250.083C135.283 249.701 134.485 249.322 134.643 248.94C135.076 247.903 136.269 247.31 136.709 246.276C136.866 245.908 136.184 245.562 136.248 245.166C136.31 244.782 136.857 244.649 137.027 244.3C137.182 243.984 137.239 243.605 137.185 243.257C137.124 242.873 136.587 242.571 136.696 242.197C136.79 241.874 137.417 242.056 137.616 241.784C138.988 239.9 140.356 237.975 141.32 235.852C141.487 235.486 140.874 235.156 140.807 234.758C140.744 234.4 140.781 234 140.948 233.677C142.081 231.484 143.609 229.504 144.669 227.275C144.966 226.649 145.017 225.908 144.969 225.217C144.941 224.812 144.308 224.501 144.446 224.119C145.501 221.198 147.356 218.609 148.41 215.688C148.554 215.29 147.762 214.92 147.908 214.523C148.972 211.61 150.831 209.031 151.905 206.122C152.376 204.844 152.474 203.442 152.501 202.081C152.509 201.691 151.927 201.403 152.004 201.02C152.061 200.736 152.689 200.915 152.789 200.643C155.387 193.498 157.943 186.325 160.008 179.009C160.208 178.302 159.489 177.599 159.499 176.865C159.514 175.856 159.741 174.846 160.08 173.896C160.213 173.527 160.809 173.416 160.87 173.03C160.935 172.629 160.262 172.29 160.398 171.909C160.926 170.431 161.174 168.002 162.732 167.823C164.031 167.673 163.985 170.179 164.163 171.474C164.217 171.872 163.533 172.006 163.355 172.366C163.198 172.68 163.051 173.09 163.2 173.406C163.61 174.278 164.726 174.777 164.934 175.717C165.048 176.235 163.958 176.47 163.993 176.998C164.036 177.679 164.977 178.036 165.124 178.701C165.273 179.369 165.065 180.092 164.82 180.73C164.675 181.106 163.907 181.23 164.003 181.622C164.655 184.297 166.208 186.69 166.923 189.349C167.576 191.784 167.551 194.359 168.086 196.822C169.637 203.956 171.244 211.082 173.172 218.122C173.71 220.083 175.011 221.792 175.472 223.771C175.56 224.15 174.863 224.289 174.692 224.639C174.537 224.954 174.434 225.345 174.536 225.682C174.695 226.212 175.273 226.551 175.43 227.082C176.083 229.292 176.312 231.611 176.942 233.828C178.311 238.647 180.065 243.353 181.42 248.177C182.246 251.113 182.646 254.159 183.48 257.093C183.951 258.749 184.856 260.261 185.326 261.918C186.856 267.302 187.976 272.796 189.471 278.19C189.715 279.071 190.314 279.832 190.539 280.718C190.962 282.382 190.973 284.134 191.404 285.795C192.908 291.583 194.967 297.223 196.341 303.042C197.967 309.925 199.242 316.891 200.395 323.869C201.098 328.123 201.204 332.461 201.904 336.716C201.993 337.25 202.725 337.57 202.738 338.111C202.747 338.499 202.131 338.628 201.959 338.976C201.797 339.302 201.741 339.69 201.775 340.052C201.959 342.085 202.651 344.079 202.608 346.12C202.593 346.858 201.593 347.355 201.604 348.093C201.652 351.535 203.192 354.937 202.78 358.354C202.02 364.669 199.395 370.627 198.143 376.863C197.999 377.577 198.852 378.299 198.634 378.994C197.607 382.262 195.636 385.172 194.517 388.41C194.384 388.793 195.118 389.146 194.989 389.531C194.818 390.045 194.039 390.141 193.784 390.617C191.831 394.259 190.365 398.147 188.418 401.79C187.784 402.975 186.957 404.057 186.063 405.06C185.572 405.611 184.73 405.803 184.305 406.407C182.974 408.289 182.17 410.503 180.872 412.407C179.367 414.613 177.681 416.697 175.917 418.7C173.551 421.388 171.127 424.038 168.496 426.465C165.506 429.223 162.404 431.886 159.081 434.232C157.363 435.444 155.245 435.982 153.452 437.082C151.721 438.145 150.115 439.407 148.546 440.697C148.222 440.964 148.15 441.47 147.812 441.717C145.361 443.517 142.893 445.318 140.235 446.797C137.099 448.541 133.815 450.023 130.484 451.356C128.646 452.092 126.597 452.214 124.773 452.984C123.349 453.584 122.276 454.877 120.832 455.428C120.523 455.545 120.424 454.754 120.093 454.767C118.372 454.83 116.678 455.259 114.998 455.642C112.595 456.19 110.201 456.8 107.856 457.557C107.332 457.726 106.988 458.39 106.438 458.404C106.032 458.415 105.911 457.627 105.504 457.62C103.136 457.584 100.797 458.205 98.4291 458.279C97.1742 458.318 95.924 457.817 94.6777 457.96C94.1013 458.027 93.7808 458.892 93.2009 458.882C92.6522 458.872 92.4011 458.062 91.8739 457.91C91.3642 457.762 90.7986 458.174 90.2852 458.037C89.91 457.937 89.8037 457.313 89.4188 457.257C89.0319 457.201 88.7487 457.751 88.3587 457.756C87.329 457.77 86.2806 457.634 85.3026 457.312C83.0515 456.573 81.0129 455.251 78.7358 454.597C78.3306 454.482 77.9565 455.273 77.5746 455.096C72.5407 452.759 67.4974 450.342 62.8939 447.242C60.9173 445.911 59.8365 443.567 58.0727 441.964C57.1439 441.121 55.7787 440.846 54.8849 439.966C53.6174 438.72 52.839 437.053 51.696 435.693C51.4256 435.373 50.9245 435.296 50.6749 434.96C49.8447 433.838 49.4136 432.437 48.5018 431.382C47.504 430.225 46.0142 429.562 45.0176 428.404C44.8652 428.228 45.6328 428.1 45.5068 427.903C44.5504 426.404 43.0235 425.323 42.085 423.813C41.232 422.441 40.952 420.775 40.1909 419.35C39.4407 417.946 38.5413 416.62 37.5681 415.361C37.3057 415.022 36.7787 414.955 36.5254 414.61C36.127 414.065 35.8937 413.412 35.6742 412.775C35.231 411.495 35.0583 410.125 34.5443 408.872C34.3053 408.29 33.695 407.917 33.444 407.341C31.9621 403.942 30.5484 400.506 29.367 396.99C29.1835 396.443 29.5903 395.797 29.3834 395.257C29.1169 394.563 28.2374 394.199 28.0254 393.485C27.9363 393.184 28.7486 393.074 28.6468 392.777C27.2644 388.737 25.0536 385.007 23.7342 380.945C23.6107 380.563 24.517 380.421 24.5027 380.019C24.4838 379.467 23.7817 379.133 23.6524 378.595C22.6232 374.298 22.0731 369.896 21.0461 365.598C20.9202 365.071 20.226 364.745 20.2135 364.204C20.2024 363.801 20.9955 363.679 20.9876 363.275C20.9152 359.528 20.0486 355.823 19.9793 352.075C19.9719 351.668 20.7236 351.545 20.7643 351.14C20.8374 350.427 20.2325 349.758 20.2877 349.042C20.4679 346.699 20.4466 344.21 21.4599 342.089C23.3128 338.209 26.0569 334.804 28.706 331.418C30.2214 329.482 32.0075 327.75 33.9047 326.186C35.9279 324.518 38.5098 323.571 40.413 321.766C40.9086 321.296 41.0407 320.332 40.7046 319.737C40.4795 319.338 39.7757 319.983 39.3344 319.857C38.9483 319.749 38.8104 319.067 38.4096 319.089C37.4699 319.144 36.5841 319.613 35.7577 320.064C33.3571 321.371 30.8844 322.62 28.7629 324.343C26.9111 325.847 25.4398 327.779 23.9567 329.648C23.124 330.698 22.2996 331.806 21.8419 333.065C21.7038 333.445 22.4215 333.796 22.3075 334.183C22.2137 334.504 21.6095 334.339 21.394 334.595C20.0832 336.146 18.9096 337.813 17.8026 339.515C17.609 339.814 17.5791 340.194 17.5222 340.544C16.9892 343.832 16.315 347.105 16.0344 350.424C15.9741 351.139 16.5742 351.807 16.511 352.522C16.4769 352.909 15.8285 353.038 15.7706 353.422C15.7118 353.805 16.2511 354.112 16.2123 354.498C16.1802 354.811 15.5473 354.897 15.5892 355.21C15.6818 355.897 16.4843 356.363 16.5572 357.054C16.6142 357.595 15.9146 358.023 15.942 358.566C16.0286 360.293 16.8508 361.937 16.8886 363.666C16.8973 364.085 16.0209 364.21 16.0744 364.626C16.6527 369.096 17.5566 373.533 18.7291 377.886C19.7048 381.505 21.0615 385.017 22.5031 388.476C22.7912 389.168 23.6728 389.533 23.8829 390.252C23.9743 390.565 23.1851 390.661 23.2337 390.983C23.4335 392.308 23.9258 393.598 24.5666 394.774C24.9827 395.537 26.0954 395.85 26.3399 396.684C26.4667 397.118 25.3875 397.226 25.4177 397.676C25.502 398.929 26.0958 400.109 26.6479 401.237C26.9772 401.91 27.8081 402.295 28.0277 403.012C28.119 403.312 27.5039 403.421 27.4062 403.72C27.3485 403.896 27.54 404.067 27.6299 404.229C28.7579 406.273 30.2228 408.156 31.0584 410.334C31.1978 410.698 30.2261 410.858 30.3178 411.236C30.6683 412.681 31.4831 413.985 32.254 415.259C33.1236 416.695 34.4081 417.862 35.218 419.333C35.7951 420.381 35.7452 421.713 36.3698 422.735C38.5439 426.293 40.9977 429.679 43.5534 432.973C44.4257 434.097 45.7275 434.833 46.6192 435.942C47.3184 436.812 47.5375 438.015 48.276 438.852C51.2341 442.214 54.2148 445.6 57.6491 448.473C60.6414 450.977 63.988 453.069 67.4408 454.885C71.7268 457.139 76.2283 458.99 80.7813 460.64C81.1783 460.783 81.5404 460.018 81.9448 460.139L87.539 462.664ZM79.1811 458.36C78.7528 458.189 77.8403 458.305 77.897 457.849C77.9541 457.396 78.8371 457.549 79.2608 457.717L79.1811 458.36ZM482.133 416.818C484.961 416.177 487.838 415.722 490.617 414.894C491.985 414.487 493.122 413.428 494.516 413.13C494.898 413.048 495.03 413.873 495.419 413.87C495.753 413.868 495.78 413.264 496.08 413.119C498.343 412.019 500.843 411.418 503.029 410.173C503.489 409.912 503.658 409.278 503.741 408.755C503.822 408.245 503.704 407.698 503.501 407.221C503.332 406.823 503.036 406.452 502.666 406.225C502.357 406.035 501.944 405.951 501.593 406.044C496.899 407.284 492.321 408.94 487.632 410.197C485.323 410.817 482.996 411.461 480.614 411.67C480.211 411.706 480.007 410.656 479.681 410.895C479.243 411.216 480.005 412.592 479.469 412.509C475.156 411.845 471.192 409.583 466.877 408.923C466.014 408.792 465.476 410.111 464.612 410.239C464.279 410.288 464.47 409.517 464.199 409.32C462.397 408.009 460.326 407.1 458.514 405.805C457.448 405.041 456.675 403.912 455.596 403.167C455.127 402.845 454.41 403.019 453.964 402.666C453.382 402.203 453.29 401.259 452.671 400.846C452.409 400.672 452.068 401.412 451.811 401.231C450.101 400.026 448.573 398.554 447.191 396.984C447.044 396.817 447.814 396.679 447.664 396.516C446.935 395.722 445.722 395.465 445.034 394.634C444.422 393.897 444.481 392.758 443.911 391.987C443.329 391.199 442.338 390.801 441.672 390.082C440.936 389.289 440.313 388.392 439.73 387.481C438.46 385.496 437.514 383.3 436.117 381.402C435.31 380.303 433.894 379.721 433.173 378.564C432.298 377.16 432.148 375.408 431.447 373.909C431.127 373.226 430.473 372.74 430.133 372.067C428.512 368.866 426.943 365.633 425.573 362.316C425.093 361.156 425.15 359.806 424.6 358.678C423.728 356.885 422.174 355.47 421.353 353.653C421.218 353.355 422.077 353.238 422.002 352.921C421.628 351.337 420.94 349.822 420.117 348.417C420.008 348.23 419.641 348.924 419.546 348.73C419.004 347.616 419.052 346.28 418.528 345.158C418.445 344.98 418.089 345.647 418.02 345.463C417.532 344.16 417.684 342.657 417.114 341.389C416.773 340.633 415.714 340.361 415.383 339.601C415.257 339.314 415.905 339.214 416.04 338.932C416.191 338.615 416.358 338.203 416.197 337.892C415.371 336.296 413.877 335.079 413.188 333.42C413.034 333.05 414.04 332.887 413.957 332.495C412.708 326.703 410.436 321.155 409.293 315.34C407.636 306.909 406.51 298.373 405.569 289.832C405.523 289.417 406.411 289.291 406.379 288.874C406.056 284.727 404.854 280.68 404.535 276.533C404.503 276.111 405.352 275.99 405.358 275.568C405.395 273.11 405.014 270.658 404.659 268.225C404.564 267.574 404.019 267.017 404.017 266.358C404.011 264.999 404.254 263.631 404.633 262.326C404.746 261.939 405.477 261.837 405.449 261.436C405.257 258.654 404.191 255.977 404.005 253.195C403.976 252.772 404.845 252.652 404.83 252.228C404.648 247.109 403.622 242.044 403.425 236.925C403.409 236.52 404.138 236.393 404.204 235.994C404.269 235.611 403.695 235.298 403.762 234.916C403.828 234.533 404.371 234.399 404.542 234.049C404.697 233.734 404.818 233.337 404.698 233.006C404.407 232.203 403.244 231.657 403.369 230.811C403.496 229.953 405.157 229.903 405.282 229.043C405.487 227.636 404.297 226.329 404.229 224.908C404.209 224.49 405.058 224.367 405.038 223.95C404.97 222.529 404.053 221.235 403.985 219.814C403.966 219.412 404.616 219.281 404.798 218.921C404.962 218.596 405.026 218.207 404.981 217.846C404.769 216.13 404.083 214.474 404.035 212.746C404.024 212.342 404.748 212.214 404.814 211.815C404.879 211.432 404.292 211.117 404.372 210.737C404.518 210.039 405.376 209.589 405.43 208.877C405.785 204.175 405.353 199.442 405.583 194.732C405.649 193.392 405.899 192.052 406.315 190.777C406.436 190.405 407.096 190.333 407.143 189.945C407.307 188.583 406.809 187.205 406.911 185.837C407.084 183.511 407.435 181.191 407.967 178.92C408.114 178.294 408.927 177.889 408.925 177.245C408.922 176.551 407.971 176.096 407.956 175.402C407.937 174.546 408.754 173.838 408.831 172.984C408.894 172.269 408.282 171.598 408.355 170.885C408.394 170.499 408.964 170.368 409.135 170.019C409.29 169.703 409.347 169.324 409.292 168.977C409.231 168.592 408.752 168.304 408.802 167.919C408.851 167.534 409.493 167.404 409.542 167.019C409.592 166.634 409.113 166.346 409.052 165.961C408.998 165.614 409.055 165.235 409.21 164.919C409.38 164.57 409.924 164.435 409.989 164.053C410.056 163.67 409.489 163.358 409.547 162.975C409.605 162.59 410.229 162.46 410.287 162.075C410.345 161.69 409.778 161.379 409.845 160.997C409.911 160.614 410.454 160.48 410.625 160.13C410.78 159.815 410.846 159.434 410.782 159.088C410.71 158.703 410.258 158.439 410.236 158.048C410.179 157.043 410.292 156.016 410.553 155.043C411.67 150.882 412.951 146.763 414.357 142.691C414.723 141.635 415.245 140.627 415.855 139.691C416.1 139.317 416.691 139.23 416.878 138.823C417.163 138.202 417.227 137.477 417.185 136.794C417.16 136.404 416.513 136.084 416.686 135.734C417.063 134.969 418.178 134.756 418.564 133.996C418.741 133.649 417.994 133.284 418.121 132.916C418.295 132.414 419.074 132.328 419.307 131.85C421.809 126.718 423.752 121.325 426.27 116.201C426.51 115.713 427.364 115.669 427.516 115.146C427.714 114.465 426.996 113.728 427.184 113.044C427.328 112.522 428.146 112.44 428.392 111.957C430.372 108.051 431.894 103.925 433.806 99.9854C434.142 99.2927 434.92 98.8314 435.123 98.0893C435.232 97.6881 434.465 97.3197 434.637 96.9422C435.536 94.9701 437.234 93.433 438.143 91.4655C438.312 91.1015 437.551 90.734 437.682 90.3553C437.862 89.8354 438.58 89.6917 438.91 89.252C439.71 88.1843 440.636 87.1367 441.048 85.8668C441.272 85.1815 440.516 84.4286 440.703 83.7316C440.843 83.2096 441.654 83.1235 441.909 82.6471C444.33 78.1204 446.88 73.6232 448.683 68.8162C449.516 66.5956 449.788 64.1508 449.737 61.7796C449.714 60.7012 449.118 59.6658 448.469 58.8035C447.851 57.9833 447.073 57.0318 446.055 56.8875C444.721 56.6985 443.404 57.4365 442.142 57.9086C441.671 58.0845 441.258 58.4237 440.931 58.8042C439.193 60.8309 437.445 62.8662 435.978 65.0964C433.269 69.2137 430.667 73.4189 428.426 77.809C428.238 78.1761 429.093 78.5821 428.906 78.9493C428.057 80.6143 426.4 81.7774 425.553 83.4438C425.365 83.8139 426.183 84.2012 426.04 84.5911C424.73 88.1335 422.763 91.4009 421.321 94.891C419.756 98.681 418.198 102.489 417.022 106.418C416.901 106.822 417.656 107.181 417.523 107.582C416.977 109.223 415.715 110.556 415.11 112.175C414.751 113.139 414.666 114.2 414.666 115.228C414.666 115.547 415.269 115.8 415.109 116.076C414.774 116.653 413.828 116.68 413.491 117.256C413.331 117.529 413.878 117.787 413.924 118.101C413.975 118.447 413.908 118.819 413.768 119.141C413.483 119.793 412.785 120.269 412.671 120.971C412.557 121.676 413.388 122.397 413.133 123.063C412.827 123.863 411.535 123.975 411.216 124.77C410.945 125.443 411.747 126.21 411.582 126.917C410.664 130.843 408.894 134.541 408.01 138.475C407.85 139.188 408.681 139.901 408.505 140.611C407.832 143.331 406.646 145.903 405.538 148.476C404.204 151.573 402.316 154.43 401.189 157.607C400.946 158.288 401.721 159.047 401.537 159.746C401.401 160.263 400.585 160.343 400.343 160.82C398.858 163.743 397.892 166.911 396.411 169.835C396.197 170.257 395.297 170.266 395.317 170.738C395.346 171.399 396.357 171.678 396.519 172.321C396.583 172.573 395.912 172.333 395.776 172.554C393.835 175.709 391.771 178.837 390.393 182.275C390.001 183.253 390.907 184.415 390.619 185.43C390.52 185.777 389.849 184.791 389.603 185.054C388.59 186.136 387.952 187.536 387.368 188.899C387.094 189.538 387.023 190.27 387.072 190.964C387.1 191.366 387.752 191.687 387.589 192.055C386.197 195.215 384.391 198.182 382.591 201.129C382.308 201.591 381.556 201.702 381.384 202.215C381.256 202.6 382.004 202.96 381.857 203.338C380.845 205.937 379.054 208.187 378.047 210.788C377.898 211.175 378.688 211.548 378.533 211.934C376.812 216.203 374.447 220.186 372.565 224.386C371.061 227.745 369.524 231.104 368.378 234.6C368.251 234.986 368.979 235.337 368.85 235.722C368.68 236.237 367.921 236.345 367.644 236.81C366.256 239.134 364.825 241.474 363.9 244.018C363.653 244.695 364.431 245.457 364.244 246.153C364.105 246.676 363.282 246.758 363.037 247.241C360.575 252.093 358.568 257.165 356.176 262.051C355.841 262.735 355.069 263.19 354.87 263.926C354.761 264.328 355.495 264.683 355.358 265.077C353.071 271.645 350.398 278.076 347.71 284.492C346.936 286.338 346.928 290.305 344.98 289.842C342.909 289.348 343.925 285.688 343.81 283.562C343.787 283.158 344.531 283.032 344.589 282.631C344.645 282.246 344.16 281.957 344.099 281.573C344.044 281.226 344.093 280.842 344.256 280.531C344.439 280.184 344.948 280.065 345.085 279.698C345.435 278.753 345.752 277.735 345.666 276.731C345.542 275.28 344.582 273.981 344.471 272.529C344.44 272.129 345.099 271.997 345.279 271.638C345.435 271.324 345.499 270.941 345.436 270.596C345.365 270.212 344.969 269.941 344.899 269.558C344.835 269.213 344.897 268.83 345.056 268.516C345.238 268.153 345.874 268.022 345.877 267.616C345.892 265.565 345.093 263.562 345.108 261.511C345.11 261.106 345.744 260.975 345.928 260.614C346.094 260.29 346.122 259.901 346.114 259.537C346.054 256.524 345.479 253.508 345.724 250.504C345.836 249.126 346.958 247.983 347.169 246.617C347.279 245.912 346.567 245.249 346.646 244.539C346.728 243.819 347.605 243.321 347.625 242.597C347.678 240.547 346.852 238.544 346.856 236.492C346.856 236.086 347.579 235.961 347.637 235.559C347.694 235.175 347.084 234.885 347.148 234.502C347.262 233.807 348.011 233.322 348.124 232.626C348.237 231.926 347.683 231.227 347.791 230.526C347.85 230.14 348.427 230.019 348.58 229.66C348.847 229.039 349.019 228.355 349.012 227.68C349.004 226.963 348.463 226.295 348.536 225.582C348.575 225.196 349.145 225.065 349.316 224.716C349.471 224.4 349.537 224.019 349.473 223.673C349.401 223.288 348.975 223.022 348.927 222.633C348.845 221.963 348.892 221.258 349.098 220.614C349.316 219.931 350.061 219.458 350.171 218.749C350.28 218.044 349.578 217.359 349.709 216.657C349.9 215.627 350.906 214.863 351.084 213.83C351.261 212.801 350.607 211.753 350.732 210.716C350.779 210.328 351.398 210.24 351.56 209.883C351.84 209.266 351.906 208.571 352.007 207.902C352.108 207.232 352.223 206.551 352.164 205.877C352.102 205.166 351.549 204.509 351.647 203.802C351.743 203.095 352.568 202.641 352.704 201.939C352.779 201.558 352.275 201.266 352.214 200.881C352.159 200.534 352.231 200.161 352.371 199.839C352.657 199.187 353.361 198.712 353.468 198.009C353.578 197.286 352.755 196.569 352.975 195.872C354.008 192.611 356.106 189.751 357.117 186.483C357.433 185.464 356.54 184.306 356.868 183.29C357.82 180.339 359.797 177.802 360.86 174.889C361.005 174.493 360.233 174.129 360.358 173.725C362.249 167.585 364.908 161.699 366.81 155.563C366.93 155.175 366.274 154.841 366.336 154.44C366.395 154.056 366.945 153.923 367.116 153.574C367.271 153.258 367.331 152.878 367.273 152.532C367.206 152.132 366.632 151.818 366.755 151.432C367.268 149.829 368.731 148.589 369.062 146.938C369.2 146.25 368.113 145.805 368.024 145.109C367.903 144.176 368.715 143.232 368.469 142.324C368.367 141.948 367.735 142.94 367.386 142.765C366.688 142.415 366.619 141.072 365.84 141.005C365.007 140.934 364.364 141.846 363.795 142.458C362.921 143.397 362.049 144.407 361.571 145.597C361.414 145.987 362.188 146.354 362.068 146.757C361.381 149.055 359.872 151.06 359.245 153.375C359.058 154.063 359.87 154.769 359.708 155.465C359.585 155.991 358.795 156.095 358.501 156.55C357.608 157.942 356.657 159.354 356.191 160.94C355.983 161.648 356.76 162.409 356.571 163.122C355.095 168.662 352.892 173.985 351.251 179.479C351.057 180.125 351.003 180.825 351.08 181.495C351.127 181.901 351.722 182.206 351.612 182.6C350.971 184.885 349.568 186.909 348.925 189.194C348.816 189.585 349.377 189.894 349.446 190.295C349.508 190.652 349.481 191.057 349.302 191.373C348.24 193.259 346.687 194.86 345.768 196.82C345.598 197.183 346.285 197.532 346.229 197.929C346.176 198.314 345.541 198.445 345.489 198.829C345.434 199.228 346.094 199.567 345.956 199.945C345.28 201.802 343.961 203.367 343.174 205.18C342.048 207.776 340.926 210.399 340.23 213.142C340.05 213.856 340.887 214.64 340.605 215.32C338.726 219.836 335.787 223.86 333.896 228.373C333.617 229.037 334.334 229.792 334.241 230.507C334.191 230.892 333.558 231.023 333.5 231.406C333.442 231.791 334.063 232.117 333.941 232.487C333.835 232.811 333.237 232.653 333.008 232.906C332.405 233.57 331.931 234.352 331.525 235.152C330.625 236.929 330.179 238.94 329.099 240.613C328.553 241.458 327.297 241.673 326.768 242.526C326.564 242.857 327.196 243.2 327.257 243.583C327.315 243.94 327.314 244.359 327.11 244.657C326.396 245.702 325.241 246.412 324.585 247.494C323.593 249.13 323.165 251.061 322.218 252.722C321.843 253.383 321.266 253.929 320.658 254.383C319.922 254.935 318.899 255.066 318.236 255.702C317.372 256.529 317.149 257.928 316.199 258.653C315.894 258.885 315.439 257.588 315.296 257.944C315.028 258.606 315.724 259.355 315.629 260.063C315.577 260.449 314.879 260.577 314.888 260.967C314.894 261.225 315.415 261.175 315.654 261.077C316.275 260.826 316.676 260.103 317.334 259.974C317.783 259.887 318.442 260.076 318.597 260.505C318.731 260.873 317.999 261.051 317.854 261.414C317.803 261.543 317.965 261.768 318.102 261.75C318.689 261.666 319.291 261.487 319.774 261.142C321.501 259.91 323.149 258.555 324.66 257.068C326.174 255.577 327.697 254.04 328.818 252.236C329.068 251.836 328.318 251.278 328.524 250.854C329.666 248.492 331.432 246.479 332.712 244.188C336.028 238.25 337.686 231.174 342.303 226.181C343.83 224.53 343.177 230.622 343.175 232.872C343.174 234.545 342.766 236.209 342.295 237.815C342.095 238.497 341.236 238.93 341.188 239.641C340.695 247.005 341.117 254.408 340.691 261.777C340.668 262.185 340.007 262.296 339.859 262.677C339.605 263.325 339.473 264.045 339.533 264.738C339.683 266.461 340.448 268.11 340.483 269.839C340.492 270.262 339.682 270.383 339.657 270.805C339.462 274.152 340.024 277.514 339.84 280.861C339.818 281.269 339.121 281.395 339.053 281.796C338.988 282.179 339.562 282.492 339.496 282.875C339.428 283.276 338.729 283.402 338.71 283.809C338.572 286.83 339.191 289.856 339.04 292.877C339.019 293.303 338.24 293.422 338.206 293.847C337.868 298.176 338.271 302.54 337.945 306.869C337.914 307.275 337.217 307.401 337.157 307.804C337.099 308.188 337.586 308.478 337.647 308.862C337.702 309.209 337.644 309.589 337.49 309.904C337.319 310.254 336.776 310.387 336.71 310.771C336.643 311.153 337.219 311.466 337.152 311.849C337.086 312.231 336.543 312.366 336.372 312.715C336.217 313.031 336.151 313.412 336.215 313.757C336.287 314.141 336.683 314.411 336.761 314.794C336.866 315.314 336.419 315.971 336.748 316.385C337.544 317.384 338.664 318.141 339.834 318.652C340.155 318.793 340.541 318.415 340.747 318.131C341.794 316.686 342.714 315.142 343.529 313.553C344.902 310.876 346.363 308.21 347.298 305.349C347.527 304.648 346.723 303.879 346.921 303.169C347.563 300.858 349.126 298.868 349.743 296.551C349.931 295.847 349.003 295.105 349.252 294.42C352.418 285.733 356.592 277.44 359.858 268.791C360.006 268.399 359.203 268.021 359.366 267.636C359.804 266.604 361.074 266.056 361.461 265.003C361.71 264.329 360.928 263.567 361.12 262.873C361.267 262.338 362.031 262.206 362.357 261.756C362.873 261.043 363.261 260.241 363.611 259.433C364.924 256.412 365.909 253.249 367.342 250.283C368.22 248.466 369.79 247.011 370.524 245.132C370.785 244.461 369.917 243.67 370.182 243.001C370.497 242.208 371.68 242.026 372.06 241.263C372.239 240.904 371.446 240.524 371.599 240.153C372.328 238.397 373.714 236.978 374.548 235.269C376.005 232.286 377.458 229.275 378.455 226.108C378.672 225.42 377.921 224.668 378.107 223.97C378.245 223.447 379.017 223.338 379.312 222.884C380.62 220.871 381.952 218.842 382.875 216.627C383.034 216.246 382.252 215.874 382.396 215.487C383.124 213.525 384.505 211.861 385.354 209.947C386.883 206.501 388.388 203.03 389.522 199.435C389.647 199.037 388.873 198.668 389.032 198.283C389.462 197.244 390.666 196.656 391.099 195.619C391.257 195.237 390.438 194.849 390.618 194.478C392.946 189.688 396.101 185.332 398.426 180.542C398.608 180.167 397.801 179.785 397.941 179.394C398.403 178.101 399.72 177.202 400.091 175.881C400.226 175.4 399.114 175.091 399.282 174.622C399.504 174.002 400.59 174.097 400.929 173.533C401.981 171.789 402.102 169.54 403.324 167.91C403.638 167.493 404.191 168.72 404.151 169.24C404.096 169.955 403.24 170.406 403.077 171.104C402.472 173.701 402.234 176.369 401.872 179.01C401.78 179.681 401.64 180.362 401.714 181.035C401.758 181.424 402.262 181.707 402.214 182.095C402.167 182.481 401.522 182.61 401.474 182.995C401.424 183.38 401.903 183.669 401.963 184.053C402.018 184.4 401.961 184.78 401.806 185.095C401.635 185.444 401.067 185.575 401.026 185.962C400.95 186.672 401.601 187.349 401.488 188.054C401.372 188.775 400.426 189.22 400.387 189.951C400.261 192.321 401.058 194.671 401.011 197.043C401.002 197.449 400.295 197.576 400.227 197.977C400.161 198.359 400.727 198.67 400.669 199.055C400.611 199.439 399.987 199.57 399.929 199.954C399.871 200.339 400.429 200.648 400.371 201.032C400.313 201.417 399.689 201.547 399.631 201.932C399.573 202.317 400.139 202.627 400.073 203.01C400.005 203.411 399.301 203.538 399.286 203.945C398.96 212.665 399.399 221.402 399.061 230.121C399.045 230.545 398.242 230.665 398.233 231.089C398.182 233.457 398.976 235.796 398.888 238.163C398.86 238.897 397.868 239.395 397.896 240.129C397.939 241.252 398.979 242.165 399.085 243.283C399.122 243.682 398.458 243.815 398.277 244.172C398.114 244.497 398.071 244.885 398.094 245.249C398.439 250.68 399.233 256.083 399.379 261.523C399.391 261.945 398.546 262.065 398.559 262.487C398.663 265.911 399.611 269.274 399.719 272.698C399.732 273.115 398.873 273.239 398.911 273.654C399.016 274.774 399.997 275.69 400.1 276.809C400.137 277.211 399.428 277.324 399.283 277.7C399.034 278.347 398.903 279.065 398.964 279.754C399.026 280.454 399.557 281.052 399.643 281.749C400.56 289.265 400.78 296.865 401.966 304.342C403.443 313.649 405.112 322.959 407.622 332.042C409.476 338.755 412.31 345.164 415.015 351.581C416.238 354.483 418.022 357.118 419.39 359.956C420.356 361.961 421.388 363.961 422.015 366.097C422.102 366.397 421.269 366.515 421.397 366.8C421.738 367.563 422.76 367.858 423.137 368.604C423.748 369.812 423.752 371.255 424.281 372.503C424.71 373.515 425.53 374.326 425.987 375.326C426.729 376.948 427.026 378.765 427.868 380.338C427.978 380.544 428.358 379.828 428.497 380.018C431.367 383.952 433.589 388.343 436.536 392.22C439.096 395.59 442.089 398.611 444.977 401.705C445.785 402.57 446.667 403.374 447.613 404.086C448.682 404.889 449.815 405.613 450.999 406.233C451.504 406.497 452.231 406.318 452.638 406.717C453.493 407.555 453.669 408.961 454.578 409.738C454.874 409.99 455.287 409.178 455.658 409.298C455.98 409.402 455.82 409.999 456.073 410.224C456.808 410.879 457.662 411.401 458.533 411.859C460.309 412.79 462.034 413.969 463.996 414.381L482.133 416.818ZM301.338 307.671C303.717 306.827 306.048 305.829 308.477 305.139C309.028 304.982 309.664 305.372 310.194 305.157C311.044 304.812 311.746 304.161 312.419 303.539C313.297 302.728 314.129 301.853 314.822 300.88C315.744 299.587 316.74 298.281 317.24 296.774C317.467 296.089 316.763 295.347 316.893 294.638C317.02 293.932 317.783 293.466 317.966 292.773C318.311 291.468 318.494 290.101 318.448 288.75C318.424 288.049 317.891 287.449 317.765 286.76C317.4 284.766 317.524 282.684 316.982 280.732C316.073 277.458 314.817 274.279 313.436 271.175C312.527 269.13 311.032 267.38 310.132 265.332C309.907 264.819 310.411 264.137 310.134 263.651C309.452 262.461 308.119 261.741 307.41 260.567C306.011 258.249 304.69 255.838 303.86 253.26C303.589 252.416 303.557 251.223 304.211 250.623C305.74 249.222 308.005 248.917 309.775 247.836C310.112 247.631 310.535 247.215 310.413 246.84C310.097 245.879 309.448 244.985 308.639 244.375C308.27 244.095 307.697 244.322 307.254 244.456C305.566 244.962 304.037 246.047 302.29 246.278C301.642 246.363 300.878 245.914 300.57 245.338C299.436 243.224 299.367 240.631 298.154 238.562C297.579 237.582 296.116 237.429 295.411 236.537C295.225 236.301 295.922 236.174 296.052 235.902C296.21 235.577 296.291 235.189 296.234 234.832C296.021 233.523 295.703 232.223 295.251 230.976C293.421 225.931 291.494 220.917 289.394 215.978C289.106 215.299 288.393 214.857 288.11 214.175C287.631 213.017 287.62 211.699 287.14 210.54C286.509 209.015 285.695 207.564 284.8 206.178C283.852 204.708 282.953 203.14 281.629 201.997C281.111 201.551 280.285 201.654 279.603 201.693C279.308 201.709 278.959 201.882 278.844 202.155C277.701 204.883 276.6 207.652 275.902 210.527C275.727 211.244 276.488 212 276.28 212.708C275.791 214.371 274.433 215.682 273.899 217.331C273.773 217.718 274.404 218.026 274.425 218.432C274.48 219.441 274.27 220.448 274.12 221.447C274.019 222.116 273.943 222.807 273.672 223.428C273.517 223.787 272.952 223.909 272.884 224.294C272.815 224.676 273.384 224.988 273.326 225.372C273.268 225.756 272.643 225.887 272.585 226.272C272.528 226.655 273.095 226.967 273.028 227.35C272.962 227.732 272.419 227.867 272.248 228.216C272.093 228.532 272.027 228.913 272.091 229.258C272.163 229.644 272.589 229.91 272.637 230.298C272.719 230.969 272.672 231.674 272.466 232.318C272.247 233 271.544 233.481 271.393 234.182C271.312 234.563 271.894 234.877 271.836 235.26C271.778 235.644 271.153 235.775 271.095 236.16C271.038 236.544 271.604 236.856 271.538 237.238C271.472 237.621 270.931 237.754 270.758 238.103C270.598 238.427 270.516 238.818 270.578 239.176C270.824 240.574 271.875 241.887 271.667 243.291C271.54 244.153 269.986 244.199 269.716 245.026C269.391 246.021 270.118 247.1 270.082 248.146C270.046 249.154 269.851 250.17 269.5 251.115C269.364 251.482 268.717 251.56 268.672 251.948C268.55 252.988 269.051 254.021 269.038 255.069C269.029 255.744 268.872 256.427 268.606 257.048C268.453 257.408 267.885 257.529 267.817 257.915C267.748 258.297 268.317 258.608 268.259 258.992C268.201 259.376 267.553 259.505 267.519 259.892C267.456 260.607 268.011 261.273 267.996 261.99C267.974 262.999 267.754 264.009 267.414 264.959C267.282 265.327 266.693 265.44 266.625 265.825C266.556 266.207 267.125 266.519 267.067 266.903C267.009 267.288 266.409 267.423 266.327 267.803C266.226 268.261 266.842 269.569 266.567 269.189C265.79 268.116 265.022 266.946 264.766 265.646C263.962 261.568 263.495 257.404 263.425 253.248C263.413 252.518 264.479 252.083 264.527 251.354C264.75 247.987 264.063 244.605 264.223 241.234C264.242 240.827 264.865 240.696 265.048 240.333C265.207 240.019 265.264 239.636 265.205 239.289C265.136 238.888 264.593 238.583 264.68 238.185C265.683 233.621 267.402 229.235 268.417 224.675C268.505 224.276 267.881 223.953 267.938 223.549C267.996 223.15 268.757 223.021 268.714 222.62C268.579 221.351 268.345 219.921 267.456 219.004C266.86 218.39 265.762 218.652 264.906 218.692C264.608 218.706 264.263 218.885 264.144 219.158C262.538 222.832 260.99 226.547 259.798 230.375C259.673 230.775 260.376 231.122 260.291 231.532C260.122 232.348 259.351 232.936 259.101 233.732C256.36 242.473 254.013 251.334 251.336 260.096C250.185 263.863 248.956 267.608 247.616 271.313C247.319 272.133 247.277 273.87 246.434 273.648C245.475 273.395 245.617 271.778 245.619 270.786C245.62 270.364 246.425 270.243 246.441 269.821C246.544 267.125 245.796 264.434 245.964 261.741C246.01 261.011 246.958 260.567 247.066 259.844C247.171 259.141 246.482 258.479 246.557 257.772C246.633 257.067 247.378 256.563 247.494 255.863C247.558 255.48 246.994 255.169 247.051 254.785C247.109 254.401 247.734 254.269 247.792 253.885C247.85 253.502 247.283 253.19 247.349 252.807C247.415 252.425 247.958 252.29 248.129 251.941C248.284 251.626 248.351 251.244 248.286 250.899C248.214 250.514 247.789 250.247 247.74 249.859C247.654 249.188 247.809 248.505 247.897 247.834C248.113 246.182 248.222 244.503 248.655 242.894C248.841 242.202 249.622 241.74 249.729 241.031C249.836 240.322 249.206 239.648 249.252 238.932C249.439 236.041 250.345 233.215 250.42 230.318C250.435 229.746 249.433 229.427 249.514 228.861C249.621 228.111 250.83 227.807 250.888 227.052C250.937 226.42 250.298 225.865 249.771 225.515C249.31 225.208 248.633 224.977 248.135 225.221C247.133 225.71 246.163 226.495 245.69 227.505C243.273 232.669 241.301 238.046 239.586 243.484C239.364 244.187 240.168 244.956 239.963 245.664C238.739 249.883 236.552 253.786 235.372 258.018C235.085 259.047 235.943 260.193 235.625 261.213C234.556 264.639 234.89 270.999 231.301 271.074C228.02 271.142 230.04 264.61 229.848 261.334C229.822 260.911 230.668 260.791 230.671 260.367C230.686 258.317 229.898 256.314 229.902 254.263C229.902 253.856 230.616 253.73 230.684 253.33C230.748 252.947 230.175 252.634 230.241 252.252C230.307 251.868 230.85 251.735 231.021 251.385C231.176 251.07 231.233 250.69 231.178 250.343C231.118 249.959 230.612 249.666 230.688 249.285C230.829 248.582 231.594 248.118 231.762 247.421C232.308 245.155 232.658 242.833 232.804 240.506C232.849 239.79 232.254 239.121 232.327 238.408C232.367 238.022 232.936 237.891 233.107 237.542C233.262 237.226 233.328 236.845 233.264 236.5C233.152 235.884 232.91 235.287 232.596 234.746C232.22 234.098 231.356 233.708 231.213 232.971C231.116 232.47 232.177 232.13 231.995 231.652C231.651 230.755 230.883 229.461 229.936 229.633C228.61 229.874 227.803 231.374 227.12 232.538C226.918 232.882 227.613 233.247 227.581 233.645C227.556 233.946 226.815 234.063 226.976 234.319C227.472 235.114 228.571 235.373 229.13 236.124C229.269 236.312 228.569 236.108 228.455 236.313C227.363 238.271 226.315 240.281 225.618 242.413C225.492 242.8 226.153 243.135 226.093 243.536C226.031 243.939 225.318 244.064 225.306 244.471C225.203 247.635 225.473 250.804 225.754 253.957C225.808 254.557 226.355 255.076 226.307 255.677C226.274 256.075 225.595 256.204 225.541 256.6C225.487 256.984 225.968 257.272 226.03 257.656C226.088 258.013 226.052 258.411 225.887 258.734C225.24 259.998 224.122 261.014 223.633 262.346C223.488 262.742 224.24 263.1 224.134 263.508C223.34 266.544 222.285 269.522 221.011 272.389C219.899 274.891 218.081 277.04 217.002 279.556C216.844 279.924 217.641 280.306 217.463 280.665C217.083 281.429 216.012 281.664 215.586 282.402C215.43 282.672 216.202 283.049 215.969 283.255C214.462 284.587 212.659 285.552 210.905 286.538C210.014 287.039 209.086 287.649 208.065 287.699C207.412 287.731 206.792 287.237 206.342 286.763C205.671 286.055 205.233 285.148 204.815 284.267C204.195 282.965 203.527 281.651 203.237 280.239C202.427 276.285 202.207 272.231 201.533 268.253C201.405 267.494 200.806 266.821 200.834 266.052C200.849 265.632 201.62 265.511 201.648 265.092C201.891 261.478 201.862 257.839 201.629 254.223C201.6 253.77 200.755 253.526 200.875 253.088C201.058 252.419 202.066 252.249 202.344 251.614C202.557 251.127 202.071 250.535 202.216 250.024C202.323 249.65 202.972 249.574 203.036 249.191C203.151 248.491 202.597 247.792 202.703 247.091C202.761 246.706 203.312 246.574 203.483 246.224C203.637 245.909 203.699 245.528 203.64 245.181C203.572 244.78 203.004 244.469 203.117 244.078C204.433 239.54 206.516 235.249 207.837 230.713C207.953 230.311 207.155 229.931 207.343 229.558C208.188 227.891 209.848 226.729 210.696 225.064C210.878 224.707 210.252 224.371 210.187 223.975C210.13 223.628 210.105 223.189 210.345 222.933C211.09 222.135 211.945 221.339 212.979 220.989C213.467 220.822 214.018 221.226 214.42 221.549C214.888 221.926 215.338 222.422 215.485 223.005C216.583 227.365 217.546 231.773 218.121 236.233C218.173 236.633 217.371 236.73 217.306 237.129C217.194 237.828 217.745 238.527 217.639 239.229C217.581 239.612 216.997 239.731 216.861 240.093C216.712 240.485 216.421 241.286 216.835 241.35C217.517 241.456 217.996 240.564 218.659 240.372C218.979 240.28 219.328 240.653 219.64 240.541C220.047 240.395 220.493 240.093 220.606 239.677C220.707 239.3 220.097 238.981 220.163 238.598C220.229 238.215 220.772 238.081 220.943 237.731C221.098 237.416 221.219 237.019 221.099 236.689C220.808 235.884 219.919 235.336 219.771 234.493C219.702 234.109 220.452 234.003 220.56 233.627C220.937 232.319 221.276 230.948 221.182 229.59C220.994 226.889 220.615 224.154 219.723 221.597C219.255 220.26 218.234 219.144 217.197 218.179C216.217 217.266 215.116 215.952 213.783 216.066C211.792 216.237 209.909 217.492 208.514 218.921C206.847 220.627 205.802 222.895 204.94 225.12C204.68 225.791 205.552 226.584 205.286 227.254C204.972 228.048 203.788 228.23 203.408 228.994C203.229 229.351 203.951 229.709 203.868 230.1C203.745 230.671 203.076 230.988 202.864 231.531C201.59 234.799 200.228 238.062 199.431 241.477C198.291 246.366 197.627 251.362 197.074 256.351C196.995 257.064 197.624 257.737 197.551 258.45C197.512 258.835 196.944 258.966 196.772 259.313C196.61 259.64 196.57 260.026 196.587 260.391C196.768 264.459 196.943 268.533 197.367 272.583C197.72 275.957 197.854 279.419 198.911 282.642C199.807 285.379 201.415 287.867 203.132 290.179C203.897 291.21 205.072 291.907 206.218 292.486C206.838 292.8 207.619 292.993 208.281 292.784C209.581 292.374 210.522 291.162 211.811 290.724C212.11 290.623 212.232 291.466 212.522 291.345C213.773 290.828 214.766 289.828 215.87 289.044C216.575 288.544 217.331 288.097 217.945 287.49C218.468 286.973 218.884 286.348 219.244 285.708C221.409 281.86 223.334 277.881 225.515 274.043C225.627 273.844 225.952 273.486 226.086 273.67C227.23 275.241 227.562 277.385 228.944 278.752C229.574 279.375 230.694 279.152 231.578 279.102C231.915 279.083 232.233 278.829 232.431 278.556C234.08 276.28 235.802 274.025 237.074 271.519C237.257 271.16 236.628 270.823 236.56 270.427C236.498 270.067 236.579 269.686 236.7 269.342C237.59 266.807 238.913 264.416 239.586 261.814C239.77 261.1 239 260.341 239.207 259.633C239.698 257.971 241.051 256.659 241.589 255.011C241.719 254.611 241.016 254.265 241.092 253.851C241.226 253.136 242.095 251.22 242.16 251.946C242.675 257.685 242.711 263.473 242.474 269.231C242.443 269.962 241.543 270.415 241.367 271.124C240.914 272.953 240.448 274.851 240.615 276.729C240.681 277.477 242.128 277.744 242.023 278.488C241.873 279.543 240.566 280.062 240.013 280.973C239.82 281.29 239.769 281.712 239.843 282.076C240.308 284.354 240.784 286.65 241.615 288.822C241.942 289.677 242.556 290.439 243.265 291.019C243.597 291.291 244.141 291.374 244.537 291.211C245.362 290.872 246.225 290.38 246.684 289.617C248.377 286.796 249.724 283.762 250.863 280.676C251.003 280.298 250.334 279.958 250.397 279.56C250.457 279.176 251.006 279.043 251.177 278.694C251.331 278.378 251.389 277.999 251.334 277.652C251.273 277.267 250.769 276.975 250.844 276.594C250.98 275.892 251.799 275.437 251.901 274.731C252.006 274.012 251.205 273.3 251.421 272.607C251.981 270.815 253.412 269.4 254.11 267.658C255.601 263.937 254.619 254.073 257.97 256.272C262.312 259.12 259.302 266.577 260.247 271.683C260.345 272.216 261.065 272.538 261.08 273.079C261.091 273.48 260.243 273.609 260.312 274.004C260.62 275.744 261.277 277.434 262.123 278.985C262.619 279.891 263.65 280.397 264.257 281.232C264.66 281.787 264.933 282.44 265.114 283.101C265.716 285.31 265.72 287.694 266.598 289.81C267.607 292.242 269.136 294.442 270.699 296.56C271.403 297.514 272.341 298.305 273.339 298.945C276.864 301.201 280.449 303.393 284.216 305.215C284.579 305.391 284.932 304.693 285.333 304.749C285.717 304.8 285.847 305.442 286.232 305.489C286.619 305.537 286.904 305.033 287.293 304.989C287.965 304.916 288.648 305.047 289.317 305.148C289.987 305.249 290.683 305.315 291.299 305.594C291.656 305.755 291.745 306.357 292.132 306.422C292.83 306.54 293.531 305.984 294.232 306.09C294.616 306.147 294.749 306.699 295.099 306.87C295.414 307.024 295.792 307.067 296.141 307.027C296.85 306.943 297.51 306.416 298.218 306.503L301.338 307.671ZM299.878 302.512C299.241 302.149 298.693 301.53 297.968 301.424C296.935 301.273 295.892 301.901 294.855 301.776C294.465 301.729 294.379 301.108 294.022 300.948C293.405 300.672 292.717 300.509 292.042 300.516C291.325 300.524 290.658 301.055 289.944 300.992C289.557 300.958 289.429 300.302 289.044 300.25C288.642 300.198 288.312 300.837 287.922 300.724C285.945 300.147 284.094 299.187 282.25 298.27C280.825 297.562 279.379 296.845 278.131 295.858C276.743 294.76 275.569 293.408 274.412 292.069C273.468 290.977 272.498 289.868 271.841 288.582C271.171 287.268 270.788 285.815 270.486 284.372C270.079 282.417 269.296 280.38 269.727 278.431C270.384 275.458 271.915 272.689 273.626 270.17C275.821 266.937 278.543 264.072 281.333 261.335C282.229 260.457 283.569 260.173 284.578 259.427C285.106 259.037 285.327 258.296 285.891 257.963C287.281 257.144 288.935 256.846 290.331 256.038C291.887 255.135 293.06 253.615 294.694 252.863C295.149 252.654 295.617 253.483 296.109 253.379C296.942 253.203 297.722 251.492 298.321 252.097C300.294 254.091 301.038 257.01 302.221 259.553C302.718 260.619 302.74 261.889 303.346 262.897C304.066 264.091 305.4 264.836 306.123 266.029C307.362 268.075 308.324 270.288 309.177 272.523C309.88 274.365 310.07 276.378 310.777 278.22C311.039 278.903 311.822 279.311 312.049 280.005C312.794 282.284 313.525 284.622 313.653 287.016C313.762 289.051 313.443 291.148 312.748 293.063C311.941 295.285 310.807 297.462 309.222 299.216C308.304 300.23 306.833 300.579 305.543 301.034L299.878 302.512ZM432.589 303.037C432.875 302.558 433.061 302.003 433.449 301.603C434.033 301.004 434.898 300.717 435.452 300.091C436.433 298.981 437.314 297.762 438.004 296.451C439.573 293.461 439.388 289.101 442.201 287.232C443.704 286.234 443.332 290.764 444.518 292.123C445.57 293.329 447.102 294.127 448.631 294.601C449.24 294.789 449.877 294.27 450.43 293.955C451.231 293.5 452.029 292.99 452.653 292.311C454.333 290.487 456.026 288.629 457.295 286.498C457.509 286.139 456.683 285.744 456.804 285.344C457.498 283.046 458.958 281.027 459.643 278.725C460.212 276.812 460.442 274.796 460.534 272.802C460.567 272.089 459.936 271.435 460.01 270.724C460.084 270.02 460.831 269.515 460.947 268.816C461.011 268.433 460.447 268.122 460.505 267.738C460.561 267.354 461.167 267.22 461.244 266.84C461.305 266.531 460.695 266.246 460.858 265.976C461.202 265.404 462.141 265.372 462.476 264.795C462.636 264.519 462.065 264.265 462.033 263.947C461.966 263.274 462.09 262.593 462.191 261.924C462.292 261.255 462.358 260.559 462.637 259.943C462.798 259.586 463.418 259.498 463.464 259.11C463.59 258.073 462.967 257.03 463.113 255.996C463.214 255.289 464.025 254.831 464.171 254.132C464.251 253.752 463.671 253.438 463.729 253.054C463.786 252.671 464.42 252.54 464.469 252.155C464.519 251.77 464.04 251.481 463.979 251.097C463.924 250.75 463.974 250.366 464.136 250.055C464.317 249.709 464.775 249.566 464.955 249.221C465.117 248.91 465.153 248.528 465.112 248.179C465.029 247.47 464.605 246.815 464.589 246.101C464.574 245.426 464.755 244.741 465.02 244.121C465.174 243.762 465.741 243.64 465.81 243.255C465.879 242.872 465.392 242.563 465.369 242.174C465.36 242.016 465.642 241.734 465.731 241.866C466.442 242.9 466.754 244.171 467.455 245.213C467.921 245.906 468.854 246.254 469.196 247.018C469.324 247.302 468.578 247.408 468.579 247.72C468.58 248.345 468.892 248.946 469.199 249.491C469.568 250.144 470.369 250.546 470.581 251.265C470.67 251.566 470.057 251.655 469.921 251.938C469.765 252.263 469.621 252.667 469.745 253.005C470.854 256.033 472.541 258.835 473.568 261.892C475.006 266.177 475.681 270.694 477.122 274.979C477.453 275.964 478.574 276.575 478.841 277.58C478.946 277.971 478.053 278.107 478.061 278.511C478.091 280.171 478.479 281.819 478.947 283.411C479.515 285.349 480.715 287.082 481.157 289.052C481.242 289.432 480.4 289.565 480.415 289.954C480.437 290.494 481.109 290.824 481.249 291.347C481.735 293.179 481.381 295.266 482.272 296.939C483.616 299.461 485.698 301.543 487.744 303.539C488.064 303.85 488.649 303.69 489.083 303.584C490.302 303.284 491.559 302.978 492.639 302.337C493.612 301.758 494.466 300.936 495.11 300.005C497.166 297.032 498.983 293.893 500.683 290.703C502.063 288.112 502.941 285.273 504.335 282.689C504.809 281.811 505.715 281.229 506.25 280.387C507.477 278.458 508.364 276.326 509.607 274.408C509.868 274.004 510.737 273.969 510.72 273.488C510.697 272.821 509.316 272.521 509.52 271.885C509.818 270.962 511.227 270.867 511.813 270.094C514.812 266.14 517.196 261.743 520.205 257.796C522.582 254.677 524.877 251.38 527.943 248.933C530.144 247.177 533.13 246.729 535.651 245.472C536.295 245.151 536.7 244.351 537.407 244.215C542.77 243.178 548.197 242.44 553.641 241.994C554.057 241.96 554.183 242.847 554.599 242.804C555.714 242.69 556.612 241.638 557.732 241.578C558.45 241.54 558.958 242.412 559.667 242.532C560.049 242.597 560.363 242.021 560.745 242.09C561.129 242.158 561.252 242.724 561.611 242.879C562.231 243.149 562.923 243.225 563.592 243.326C564.591 243.477 565.598 243.68 566.606 243.632C566.996 243.614 567.28 243.075 567.667 243.133C568.053 243.191 568.174 243.769 568.533 243.922C569.153 244.188 569.837 244.365 570.512 244.354C571.246 244.341 571.947 243.651 572.652 243.85C574.316 244.32 575.593 245.751 577.247 246.258C577.936 246.469 578.667 245.817 579.384 245.91C579.768 245.96 579.902 246.573 580.281 246.649C580.591 246.711 580.859 246.13 581.146 246.264C581.776 246.556 582.029 247.376 582.624 247.734C582.869 247.882 583.222 247.546 583.479 247.672C587.41 249.592 591.324 251.567 595.074 253.818C596.197 254.49 596.872 255.789 598.027 256.403C598.372 256.587 598.746 255.823 599.109 255.962C599.453 256.093 599.275 256.722 599.538 256.981C600.758 258.186 601.982 259.454 603.483 260.284C603.846 260.484 604.239 259.657 604.63 259.797C605.891 260.246 607.047 261.017 608.044 261.91C608.945 262.715 609.353 263.972 610.228 264.805C611.508 266.022 612.903 267.155 614.453 268.004C614.737 268.159 615.092 267.389 615.337 267.601C615.979 268.155 616.037 269.167 616.57 269.827C617.903 271.482 619.342 273.06 620.901 274.502C622.998 276.442 625.542 277.886 627.514 279.953C628.407 280.891 628.453 282.448 629.361 283.373C629.633 283.649 630.093 282.752 630.437 282.931C631.522 283.493 632.146 284.715 633.187 285.354C635.475 286.76 638.047 287.656 640.357 289.022C640.833 289.305 640.945 290.076 641.468 290.255C641.835 290.381 642.141 289.827 642.524 289.766C642.883 289.707 643.275 289.757 643.605 289.907C645.174 290.623 646.522 291.838 648.172 292.341C648.876 292.555 649.645 291.748 650.35 291.966C653.931 293.073 657.188 295.075 660.753 296.233C661.142 296.36 661.45 295.723 661.858 295.702C662.866 295.651 663.897 295.744 664.866 296.022C665.557 296.219 666.028 296.957 666.731 297.096C667.131 297.175 667.458 296.532 667.858 296.617C673.067 297.742 678.099 299.607 683.32 300.677C684.355 300.888 685.44 300.253 686.481 300.434C687.185 300.557 687.616 301.388 688.312 301.547C691.234 302.216 694.21 302.713 697.201 302.888C700.9 303.105 704.617 302.515 708.316 302.716C708.741 302.74 708.86 303.537 709.285 303.548C712.099 303.624 714.913 303.286 717.71 302.971C718.333 302.901 718.878 302.347 719.503 302.399C719.917 302.433 720.044 303.251 720.456 303.2C724.921 302.644 729.321 301.636 733.708 300.633C735.145 300.304 736.54 299.792 737.894 299.21C738.2 299.079 738.669 298.852 738.619 298.523C738.527 297.912 738.132 297.239 737.562 297C736.309 296.472 734.881 296.232 733.53 296.381C730.03 296.768 726.702 298.24 723.198 298.588C722.471 298.66 721.964 297.677 721.237 297.604C720.58 297.537 720.004 298.129 719.348 298.201C715.221 298.655 711.083 299.172 706.932 299.175C706.21 299.175 705.705 298.324 704.992 298.212C704.609 298.151 704.319 298.641 703.934 298.702C703.587 298.757 703.206 298.703 702.892 298.545C702.528 298.361 702.398 297.732 701.992 297.721C699.619 297.662 697.272 298.392 694.9 298.345C694.493 298.337 694.368 297.62 693.966 297.561C693.581 297.504 693.292 297.991 692.908 298.051C692.561 298.106 692.177 298.056 691.865 297.894C691.52 297.714 691.378 297.255 691.033 297.075C690.72 296.913 690.336 296.859 689.99 296.918C689.589 296.986 689.28 297.546 688.886 297.44C686.287 296.738 683.941 295.244 681.332 294.579C680.636 294.402 679.926 295.072 679.214 294.976C678.511 294.881 678.006 294.145 677.305 294.039C676.92 293.981 676.631 294.469 676.247 294.529C675.9 294.584 675.52 294.527 675.204 294.372C674.855 294.201 674.722 293.651 674.338 293.592C673.937 293.53 673.606 294.178 673.215 294.066C670.934 293.412 668.903 292.034 666.622 291.38C666.231 291.268 665.901 291.907 665.499 291.854C665.114 291.804 664.984 291.163 664.599 291.112C664.195 291.06 663.864 291.706 663.475 291.589C659.265 290.313 655.303 288.3 651.095 287.022C650.707 286.904 650.377 287.546 649.975 287.492C649.59 287.441 649.458 286.685 649.075 286.751C648.234 286.896 647.707 287.953 646.857 288.033C646.486 288.068 646.66 287.289 646.423 287.001C645.988 286.471 645.468 285.998 644.888 285.633C642.878 284.365 640.862 283.072 638.684 282.122C638.382 281.99 638.085 282.667 637.783 282.532C637.147 282.25 636.9 281.42 636.304 281.062C636.063 280.915 635.712 281.26 635.461 281.132C634.714 280.75 634.039 280.213 633.46 279.608C631.416 277.475 629.745 274.993 627.616 272.945C624.673 270.113 621.283 267.776 618.283 265.004C617.151 263.958 616.453 262.477 615.247 261.517C615.002 261.321 614.611 262.121 614.387 261.901C613.47 261.006 613.19 259.601 612.32 258.661C611.139 257.382 609.822 256.175 608.304 255.325C607.954 255.128 607.536 255.993 607.193 255.786C604.831 254.358 603.012 252.139 600.654 250.703C598.129 249.166 595.254 248.288 592.632 246.924C591.478 246.323 590.516 245.385 589.344 244.82C586.316 243.359 583.107 242.299 580.068 240.862C579.433 240.561 579.012 239.891 578.362 239.625C577.721 239.363 576.996 239.28 576.305 239.325C575.915 239.349 575.632 239.872 575.244 239.823C574.859 239.776 574.73 239.132 574.345 239.083C573.96 239.033 573.671 239.512 573.287 239.573C572.94 239.628 572.56 239.57 572.244 239.416C571.895 239.245 571.761 238.702 571.378 238.636C570.996 238.569 570.682 239.147 570.3 239.078C569.916 239.01 569.807 238.406 569.434 238.288C568.155 237.886 566.816 237.615 565.476 237.558C564.759 237.528 564.05 238.286 563.378 238.035C562.563 237.731 562.467 236.251 561.607 236.118C559.969 235.864 558.312 236.564 556.712 236.999C556.19 237.142 555.86 237.821 555.32 237.832C554.928 237.84 554.825 237.163 554.453 237.042C553.473 236.725 552.431 236.548 551.402 236.566C549.097 236.603 546.774 236.732 544.519 237.206C543.283 237.465 542.3 238.534 541.053 238.74C540.642 238.808 540.514 237.919 540.099 237.937C538.76 237.995 537.462 238.473 536.211 238.951C534.843 239.474 533.641 240.368 532.286 240.922C530.43 241.682 528.427 242.059 526.6 242.886C525.742 243.274 524.998 243.895 524.309 244.537C522.581 246.147 520.955 247.867 519.373 249.623C518.085 251.053 516.839 252.528 515.707 254.085C514.104 256.29 512.788 258.696 511.177 260.896C510.879 261.304 510.273 261.432 510.014 261.864C509.602 262.55 509.643 263.447 509.233 264.135C508.677 265.068 507.603 265.657 507.164 266.65C507.001 267.017 507.756 267.381 507.625 267.761C507.446 268.281 506.715 268.414 506.398 268.865C504.126 272.101 501.947 275.405 499.891 278.782C498.993 280.255 497.806 281.691 497.551 283.396C497.422 284.259 498.879 284.788 498.861 285.659C498.852 286.114 497.943 285.906 497.501 285.794C497.21 285.72 497.064 284.926 496.865 285.152C495.095 287.151 493.532 289.36 492.263 291.709C492.073 292.063 492.918 292.468 492.725 292.82C491.937 294.255 491.216 296.547 489.579 296.592C488.107 296.632 487.584 294.343 487.04 292.975C486.895 292.613 487.799 292.462 487.781 292.073C487.756 291.523 487.11 291.178 486.933 290.656C486.028 287.977 485.034 285.3 484.547 282.514C484.478 282.12 485.174 281.982 485.354 281.625C485.517 281.3 485.624 280.903 485.534 280.552C484.4 276.136 483.153 271.746 481.704 267.423C480.833 264.824 479.404 262.428 478.583 259.811C477.152 255.246 476.3 250.515 474.963 245.922C474.651 244.851 473.987 243.909 473.642 242.849C473.064 241.068 472.795 239.195 472.202 237.418C472.027 236.896 471.379 236.551 471.355 236.001C471.337 235.611 472.119 235.487 472.096 235.098C472.074 234.734 471.456 234.702 471.258 234.396C470.728 233.575 470.086 232.739 469.947 231.771C469.887 231.363 470.796 231.232 470.741 230.823C470.448 228.677 469.265 226.719 468.964 224.576C468.821 223.557 469.114 222.503 469.436 221.527C469.565 221.139 470.257 221.036 470.27 220.627C470.341 218.302 469.325 215.973 469.679 213.673C469.816 212.778 471.237 212.595 471.632 211.779C471.806 211.417 471.051 211.079 471.125 210.683C471.255 209.981 472.076 209.526 472.183 208.82C472.289 208.114 471.615 207.434 471.721 206.728C471.828 206.022 472.679 205.572 472.779 204.865C472.881 204.14 472.118 203.438 472.284 202.726C472.97 199.781 474.513 197.086 475.272 194.158C475.374 193.764 474.743 193.437 474.795 193.033C474.846 192.649 475.479 192.518 475.537 192.134C475.594 191.75 475.026 191.438 475.094 191.056C475.162 190.671 475.744 190.554 475.883 190.19C476.131 189.539 476.237 188.823 476.211 188.128C476.123 185.749 475.189 183.372 475.542 181.018C475.755 179.599 477.368 178.73 477.823 177.369C478.053 176.685 477.385 175.949 477.479 175.234C477.529 174.85 478.161 174.718 478.219 174.335C478.277 173.951 477.719 173.64 477.777 173.257C477.834 172.873 478.459 172.741 478.517 172.357C478.575 171.972 478.017 171.663 478.074 171.279C478.132 170.894 478.779 170.766 478.815 170.379C478.882 169.668 478.247 168.993 478.354 168.287C478.46 167.581 479.265 167.123 479.411 166.424C479.491 166.044 478.91 165.73 478.969 165.346C479.027 164.961 479.651 164.83 479.709 164.446C479.767 164.063 479.209 163.752 479.267 163.368C479.325 162.985 479.949 162.852 480.007 162.469C480.065 162.085 479.498 161.773 479.565 161.391C479.631 161.008 480.174 160.874 480.345 160.524C480.499 160.209 480.565 159.827 480.502 159.482C480.431 159.098 480.034 158.827 479.964 158.444C479.901 158.099 479.967 157.718 480.121 157.402C480.292 157.053 480.835 156.918 480.901 156.536C480.968 156.153 480.392 155.84 480.459 155.458C480.525 155.075 481.068 154.941 481.239 154.591C481.394 154.276 481.451 153.896 481.396 153.549C481.335 153.165 480.829 152.872 480.906 152.491C481.046 151.788 481.76 151.309 481.979 150.626C482.185 149.983 482.207 149.28 482.15 148.607C482.09 147.897 481.535 147.239 481.632 146.533C481.729 145.825 482.555 145.372 482.689 144.67C482.762 144.286 482.233 143.998 482.19 143.609C482.116 142.937 482.248 142.254 482.348 141.584C482.449 140.915 482.525 140.224 482.794 139.603C482.95 139.244 483.54 139.125 483.584 138.737C483.662 138.026 483.016 137.351 483.122 136.645C483.229 135.938 484.291 135.484 484.179 134.777C484.11 134.336 483.182 135.177 482.845 134.883C482.492 134.578 482.496 133.912 482.7 133.491C483.189 132.482 484.355 131.89 484.795 130.858C484.952 130.489 484.223 130.164 484.286 129.768C484.395 129.073 485.157 128.59 485.262 127.893C485.418 126.861 484.858 125.798 485.039 124.771C485.163 124.071 486.105 123.653 486.136 122.944C486.263 120.041 485.953 117.119 485.498 114.25C485.306 113.035 484.726 111.91 484.208 110.795C484.008 110.364 483.761 109.907 483.362 109.647C481.966 108.737 480.568 107.606 478.92 107.345C477.894 107.184 476.912 107.956 476.018 108.486C474.924 109.137 473.772 109.824 473.023 110.852C472.786 111.175 473.645 111.594 473.485 111.962C473.037 112.989 471.777 113.542 471.389 114.595C471.141 115.269 471.921 116.031 471.731 116.726C471.587 117.256 470.834 117.389 470.504 117.829C469.704 118.897 468.768 119.941 468.365 121.214C468.143 121.917 468.918 122.678 468.744 123.395C468.03 126.334 466.503 129.032 465.756 131.963C465.655 132.358 466.335 132.664 466.279 133.068C466.183 133.769 465.445 134.275 465.342 134.976C465.285 135.363 465.798 135.648 465.841 136.037C465.916 136.709 465.785 137.392 465.684 138.062C465.534 139.061 465.431 140.083 465.088 141.032C464.956 141.4 464.367 141.513 464.299 141.898C464.23 142.28 464.799 142.592 464.741 142.976C464.684 143.36 464.059 143.491 464.001 143.876C463.943 144.26 464.51 144.572 464.443 144.954C464.378 145.336 463.835 145.471 463.664 145.82C463.509 146.136 463.452 146.515 463.506 146.863C463.567 147.247 464.056 147.536 463.996 147.92C463.936 148.307 463.34 148.419 463.206 148.786C462.864 149.736 462.761 150.758 462.61 151.757C462.41 153.085 462.144 154.417 462.156 155.76C462.159 156.151 462.704 156.432 462.655 156.82C462.608 157.205 461.962 157.334 461.915 157.72C461.866 158.108 462.396 158.39 462.413 158.78C462.459 159.788 462.377 160.82 462.095 161.788C461.888 162.492 461.011 162.952 460.979 163.686C460.891 165.735 461.763 167.74 461.748 169.791C461.745 170.196 461.112 170.327 460.928 170.687C460.762 171.012 460.735 171.401 460.742 171.765C460.794 174.783 461.23 177.799 461.102 180.815C461.084 181.222 460.374 181.347 460.316 181.75C460.26 182.137 460.823 182.419 460.815 182.81C460.786 184.167 461.035 185.761 460.209 186.837C459.802 187.367 459.519 185.273 458.858 185.361C457.616 185.523 456.908 187.036 455.718 187.427C455.35 187.548 455.187 186.813 454.82 186.688C454.628 186.624 454.39 186.776 454.266 186.936C453.43 188.011 452.835 189.262 451.991 190.33C451.794 190.578 451.497 190.881 451.184 190.831C450.484 190.72 449.951 190.104 449.274 189.897C449.14 189.856 448.886 190.016 448.938 190.144C449.17 190.718 449.479 191.327 449.993 191.671C450.46 191.985 451.106 192.091 451.655 191.966C452.404 191.796 452.933 191.073 453.665 190.838C453.981 190.737 454.345 191.15 454.645 191.009C456.665 190.062 458.433 188.638 460.438 187.663C460.632 187.569 461.072 187.692 461.035 187.903C460.856 188.941 459.882 189.796 459.889 190.851C459.908 194.266 461.045 197.609 461.112 201.024C461.126 201.756 460.201 202.257 460.128 202.986C460.061 203.637 460.639 204.208 460.722 204.856C461.519 211.085 462.895 217.306 462.761 223.584C462.717 225.648 460.799 227.248 460.204 229.224C460.087 229.615 460.687 229.923 460.733 230.328C460.81 230.999 460.768 231.704 460.562 232.347C460.343 233.03 459.629 233.509 459.489 234.212C459.412 234.593 460.037 234.885 459.979 235.27C459.873 235.971 459.158 236.479 459.042 237.179C458.978 237.561 459.564 237.876 459.484 238.257C459.339 238.956 458.533 239.414 458.427 240.12C458.321 240.826 458.955 241.501 458.888 242.212C458.852 242.599 458.205 242.728 458.148 243.112C458.09 243.496 458.648 243.805 458.59 244.19C458.532 244.573 457.899 244.704 457.85 245.089C457.8 245.474 458.279 245.763 458.34 246.147C458.395 246.494 458.337 246.874 458.183 247.189C458.012 247.539 457.469 247.672 457.403 248.056C457.336 248.438 457.912 248.751 457.845 249.134C457.779 249.516 457.236 249.651 457.065 250C456.911 250.316 456.853 250.695 456.908 251.042C456.969 251.427 457.458 251.716 457.398 252.1C457.338 252.487 456.74 252.599 456.608 252.966C456.269 253.916 456.06 254.927 456.027 255.935C455.994 256.996 456.642 258.059 456.413 259.095C455.691 262.357 454.017 265.354 453.227 268.6C453.056 269.302 453.67 270.022 453.578 270.739C453.529 271.124 452.895 271.255 452.838 271.639C452.78 272.023 453.338 272.333 453.28 272.717C453.222 273.101 452.576 273.23 452.54 273.617C452.473 274.328 453.115 275.004 453.001 275.709C452.887 276.411 452.057 276.844 451.904 277.539C451.767 278.159 452.393 278.825 452.181 279.424C451.949 280.079 451.07 280.308 450.711 280.904C450.606 281.079 451.058 281.298 450.948 281.47C450.657 281.926 450.192 282.709 449.693 282.501C449.032 282.225 448.884 281.267 448.769 280.56C448.084 276.338 447.521 272.084 447.31 267.811C447.29 267.406 448.025 267.279 448.092 266.879C448.157 266.496 447.592 266.185 447.65 265.801C447.708 265.416 448.332 265.285 448.39 264.901C448.448 264.516 447.89 264.207 447.948 263.823C448.006 263.439 448.63 263.307 448.688 262.923C448.746 262.539 448.166 262.226 448.246 261.845C448.392 261.146 449.207 260.69 449.303 259.982C449.401 259.276 448.791 258.621 448.786 257.908C448.774 256.566 448.903 255.205 449.254 253.91C449.44 253.221 450.227 252.78 450.367 252.079C450.504 251.384 449.938 250.682 450.034 249.979C450.086 249.594 450.851 249.46 450.774 249.079C450.617 248.294 449.996 247.66 449.449 247.075C448.751 246.328 448.063 245.4 447.078 245.129C446.163 244.875 445.116 245.199 444.281 245.648C443.42 246.109 442.681 246.872 442.224 247.735C441.978 248.2 442.163 248.814 442.344 249.307C442.551 249.867 443.443 250.199 443.35 250.789C443.242 251.475 442.159 251.628 441.881 252.264C441.669 252.751 442.156 253.343 442.009 253.854C441.811 254.54 441.085 254.996 440.896 255.684C440.456 257.29 440.208 258.958 440.152 260.621C440.127 261.354 440.856 262.056 440.657 262.762C440.185 264.426 438.896 265.754 438.245 267.357C437.983 268.001 437.898 268.728 437.949 269.421C437.979 269.827 438.601 270.136 438.476 270.523C437.941 272.172 436.631 273.498 436.094 275.146C435.969 275.531 436.543 275.845 436.611 276.242C436.674 276.602 436.607 276.988 436.471 277.325C435.702 279.222 434.509 280.949 433.911 282.905C433.792 283.293 434.362 283.605 434.431 284.005C434.492 284.361 434.48 284.776 434.283 285.079C433.557 286.194 433.047 288.357 431.732 288.151C430.459 287.952 431.055 285.648 430.493 284.488C430.336 284.163 429.706 284.179 429.639 283.825C428.968 280.263 428.49 276.651 428.335 273.03C428.318 272.631 428.96 272.499 429.139 272.142C429.303 271.818 429.367 271.428 429.322 271.067C429.11 269.351 428.409 267.696 428.376 265.967C428.368 265.561 429.056 265.449 429.204 265.07C429.457 264.421 429.572 263.702 429.53 263.008C429.411 260.965 428.646 258.965 428.726 256.92C428.754 256.188 429.686 255.74 429.841 255.022C430.472 252.082 431.254 249.082 431.053 246.081C430.98 244.993 429.959 244.11 429.067 243.483C428.75 243.26 428.336 244.1 427.988 243.925C427.292 243.577 427.208 242.001 426.448 242.168C425.117 242.463 424.334 243.908 423.436 244.933C423.209 245.193 423.203 245.589 423.151 245.931C422.901 247.587 422.566 249.243 422.533 250.918C422.526 251.308 423.106 251.595 423.033 251.978C422.899 252.68 422.082 253.135 421.975 253.841C421.869 254.547 422.546 255.228 422.437 255.933C422.327 256.642 421.548 257.105 421.363 257.797C420.933 259.405 420.696 261.072 420.619 262.735C420.589 263.382 421.092 263.986 421.043 264.633C420.987 265.351 420.706 266.066 420.316 266.672C419.991 267.175 419.147 267.287 418.963 267.857C418.777 268.432 419.448 269.029 419.362 269.628C419.306 270.012 418.753 270.145 418.582 270.494C418.427 270.81 418.36 271.191 418.425 271.537C418.497 271.922 418.923 272.188 418.971 272.577C419.053 273.247 419 273.95 418.8 274.596C418.523 275.485 417.544 276.171 417.566 277.102C417.582 277.833 418.706 278.141 418.894 278.848C418.966 279.117 418.285 278.887 418.097 279.092C416.83 280.476 415.895 282.142 414.62 283.518C413.568 284.654 411.903 285.248 411.143 286.596C410.875 287.071 412.487 286.344 412.765 286.813C413.113 287.4 412.702 288.197 412.474 288.84C412.368 289.137 411.677 289.223 411.808 289.509C412.155 290.268 412.77 291.101 413.588 291.269C414.272 291.41 414.726 290.34 415.419 290.251C415.946 290.183 416.418 291.064 416.901 290.84C418.608 290.051 419.584 287.849 421.427 287.471C422.269 287.298 422.569 288.809 422.851 289.622C423.404 291.216 423.436 292.953 423.891 294.577C424.419 296.464 424.871 298.409 425.794 300.137C425.943 300.415 426.368 299.634 426.659 299.755C426.966 299.883 426.822 300.441 427.067 300.667C427.972 301.498 428.821 302.644 430.03 302.854C430.695 302.969 430.791 301.38 431.462 301.427L432.589 303.037ZM265.861 273.082C265.807 272.632 265.641 272.181 265.701 271.733C265.721 271.589 266.014 271.371 266.071 271.504C266.256 271.923 266.262 272.418 266.201 272.871L265.861 273.082ZM274.296 262.21C273.81 260.714 272.959 259.29 272.839 257.722C272.782 257.002 273.69 256.495 273.8 255.782C273.859 255.396 273.325 255.112 273.301 254.722C273.258 254.039 273.355 253.329 273.607 252.693C273.751 252.329 274.37 252.247 274.435 251.86C274.553 251.161 273.975 250.457 274.102 249.76C274.23 249.057 275.053 248.603 275.16 247.897C275.266 247.191 274.632 246.516 274.698 245.805C274.734 245.418 275.381 245.29 275.439 244.905C275.497 244.52 274.93 244.209 274.996 243.827C275.062 243.444 275.718 243.345 275.776 242.961C275.882 242.259 275.316 241.557 275.443 240.861C275.572 240.158 276.394 239.703 276.501 238.997C276.607 238.291 275.963 237.616 276.039 236.905C276.081 236.519 276.648 236.388 276.819 236.039C276.974 235.723 277.031 235.344 276.976 234.997C276.916 234.612 276.437 234.324 276.487 233.939C276.535 233.554 277.169 233.423 277.227 233.039C277.285 232.654 276.716 232.343 276.785 231.961C276.853 231.576 277.441 231.462 277.573 231.095C277.917 230.146 278.005 229.121 278.171 228.125C278.497 226.152 278.958 224.19 279.05 222.192C279.083 221.459 278.354 220.76 278.541 220.05C279.165 217.684 280.334 215.493 281.398 213.289C281.583 212.905 281.856 212.203 282.259 212.344C282.937 212.58 283.288 213.391 283.578 214.048C284.131 215.301 284.259 216.707 284.749 217.985C285.825 220.793 286.978 223.576 288.267 226.293C288.585 226.96 289.298 227.403 289.551 228.096C290.459 230.571 290.856 233.212 291.719 235.704C292.001 236.519 292.652 237.168 292.97 237.97C293.676 239.758 294 241.69 294.78 243.448C295.203 244.403 296.125 245.081 296.549 246.036C296.692 246.357 296.555 246.767 296.393 247.079C296.12 247.598 295.806 248.173 295.288 248.446C293.178 249.56 290.754 250.009 288.665 251.161C286.768 252.207 285.252 253.843 283.416 254.991C282.64 255.476 281.612 255.489 280.876 256.032C280.088 256.614 279.72 257.638 278.971 258.27C278.542 258.631 277.856 258.577 277.428 258.938L274.296 262.21ZM421.658 279.371C421.363 279.051 420.952 278.808 420.773 278.411C420.664 278.167 420.602 277.668 420.865 277.611C421.318 277.514 421.974 277.688 422.164 278.111L421.658 279.371ZM319.416 259.918C319.121 259.598 318.71 259.355 318.531 258.958C318.421 258.714 318.36 258.215 318.622 258.158C319.076 258.06 319.731 258.235 319.921 258.658L319.416 259.918ZM245.417 247.78C244.977 247.618 244.291 247.72 244.099 247.294C243.91 246.877 244.176 246.122 244.624 246.025C245.047 245.934 245.315 246.597 245.493 246.992L245.417 247.78ZM319.878 256.979C319.449 256.808 318.537 256.926 318.593 256.468C318.651 256.015 319.533 256.169 319.957 256.338L319.878 256.979ZM482.101 274.347C481.673 274.176 480.76 274.293 480.817 273.836C480.873 273.383 481.756 273.536 482.18 273.706L482.101 274.347ZM219.518 231.742C219.089 231.571 218.177 231.688 218.234 231.231C218.291 230.778 219.173 230.931 219.597 231.101L219.518 231.742ZM514.448 261.018C514.02 260.848 513.107 260.965 513.164 260.507C513.22 260.055 514.103 260.208 514.528 260.377L514.448 261.018ZM473.513 250.804C473.085 250.634 472.172 250.75 472.229 250.293C472.286 249.841 473.168 249.994 473.593 250.162L473.513 250.804ZM345.92 231.583C345.94 231.365 345.761 230.949 345.979 230.929C346.435 230.884 347.289 231 347.248 231.456L345.92 231.583ZM343.031 224.034C342.978 223.584 342.811 223.134 342.872 222.686C342.891 222.541 343.184 222.323 343.242 222.456C343.427 222.875 343.433 223.37 343.372 223.823L343.031 224.034ZM466.283 240.283C466.065 240.264 465.649 240.443 465.629 240.224C465.584 239.769 465.699 238.915 466.155 238.956L466.283 240.283ZM467.12 194.866C467.013 192.891 466.797 190.918 466.797 188.939C466.797 182.522 466.718 176.097 467.121 169.692C467.167 168.954 468.078 168.454 468.134 167.716C468.409 164.045 467.792 160.34 468.099 156.671C468.16 155.938 468.988 155.469 469.219 154.771C469.43 154.129 469.461 153.423 469.39 152.752C469.349 152.364 468.833 152.078 468.891 151.692C468.949 151.305 469.525 151.185 469.68 150.826C469.949 150.205 470.026 149.514 470.127 148.844C470.278 147.846 470.481 146.839 470.433 145.83C470.415 145.44 469.876 145.157 469.934 144.77C469.992 144.383 470.606 144.277 470.723 143.904C471.126 142.625 471.402 141.287 471.454 139.946C471.482 139.218 470.729 138.509 470.958 137.816C471.313 136.739 472.862 136.246 473.043 135.126C473.216 134.06 471.796 133.179 471.88 132.104C471.936 131.407 473.105 131.29 473.395 130.654C473.616 130.171 473.131 129.578 473.268 129.064C473.368 128.689 473.982 128.58 474.048 128.198C474.114 127.816 473.547 127.504 473.605 127.12C473.663 126.735 474.293 126.605 474.346 126.22C474.401 125.823 473.723 125.477 473.884 125.11C474.332 124.082 475.639 123.546 475.979 122.477C476.302 121.464 475.351 120.287 475.738 119.295C476.434 117.508 477.279 115.32 479.053 114.59C480.017 114.194 480.381 116.268 480.661 117.271C480.746 117.577 480.094 117.645 479.991 117.945C479.663 118.898 479.419 119.905 479.409 120.912C479.402 121.628 479.877 122.279 479.942 122.992C480.004 123.666 479.886 124.348 479.786 125.018C479.536 126.675 479.357 128.356 478.891 129.965C478.783 130.341 478.143 130.443 478.102 130.832C478.027 131.544 478.616 132.214 478.579 132.929C478.476 134.925 478.186 136.922 477.686 138.855C477.507 139.547 476.705 139.985 476.573 140.687C476.439 141.401 477.1 142.126 476.94 142.834C476.055 146.741 474.358 150.433 473.479 154.342C473.321 155.043 473.973 155.749 473.878 156.461C473.783 157.163 473.047 157.669 472.941 158.37C472.883 158.754 473.489 159.043 473.431 159.428C473.325 160.129 472.61 160.637 472.494 161.336C472.43 161.719 472.975 162.027 472.936 162.412C472.902 162.731 472.28 162.819 472.305 163.139C472.345 163.651 473.182 163.955 473.096 164.461C472.917 165.506 471.877 166.245 471.6 167.269C471.498 167.644 472.1 167.964 472.042 168.347C471.984 168.731 471.36 168.863 471.302 169.247C471.244 169.631 471.802 169.941 471.744 170.325C471.686 170.709 471.062 170.841 471.004 171.225C470.945 171.608 471.485 171.915 471.445 172.301C471.412 172.619 470.79 172.707 470.815 173.028C470.855 173.539 471.645 173.837 471.606 174.349C471.564 174.904 470.75 175.152 470.614 175.691C470.483 176.209 471.003 176.755 470.869 177.272C470.608 178.29 469.754 179.086 469.478 180.1C469.126 181.393 469.018 182.755 469.011 184.095C469.009 184.414 469.613 184.667 469.453 184.943C469.118 185.52 468.078 185.501 467.835 186.123C467.602 186.722 468.309 187.365 468.256 188.006L467.12 194.866ZM363.703 147.258C363.65 146.808 363.483 146.357 363.544 145.909C363.563 145.764 363.856 145.546 363.914 145.679C364.098 146.099 364.105 146.593 364.044 147.046L363.703 147.258ZM421.675 111.494C421.621 111.044 421.222 110.489 421.515 110.144C421.817 109.789 422.501 109.819 422.908 110.045C423.142 110.175 422.937 110.631 422.763 110.835L421.675 111.494ZM424.006 107.624C424.181 105.928 424.159 104.2 424.535 102.536C424.765 101.515 425.601 100.69 425.805 99.6634C425.881 99.2814 425.152 98.9582 425.315 98.6046C425.572 98.0477 426.191 97.421 426.798 97.5135C427.256 97.5844 427.108 98.4126 427.078 98.8753C427.01 99.8926 426.846 100.92 426.508 101.882L424.006 107.624ZM427.961 96.6764C427.596 96.0479 426.711 95.501 426.864 94.7898C427.103 93.682 428.509 93.1486 428.947 92.1032C429.106 91.7227 428.358 91.3601 428.466 90.9618C428.667 90.2275 429.429 89.767 429.772 89.0865C432.07 84.5371 433.902 79.7516 436.376 75.2956C437.395 73.461 438.535 71.5667 440.207 70.2998C440.653 69.9623 441.313 71.1693 441.13 71.6948C440.314 74.0324 438.422 75.8698 437.468 78.1543C437.309 78.5378 438.14 78.9301 437.955 79.3026C437.39 80.4321 436.079 81.0556 435.468 82.1619C434.137 84.5695 433.454 87.2931 432.189 89.737L427.961 96.6764ZM441.086 69.9225C441.076 69.1322 440.747 68.2786 441.057 67.5506C441.404 66.7353 442.24 65.0653 442.911 65.6447C443.73 66.3516 443.014 67.8789 442.589 68.8737" fill="black"/>
</svg>
