<?xml version="1.0" encoding="UTF-8"?>
<svg width="64px" height="64px" viewBox="0 0 64 64" version="1.1" xmlns="http://www.w3.org/2000/svg" xmlns:xlink="http://www.w3.org/1999/xlink">
    <title>home</title>
    <g id="home" stroke="none" stroke-width="1" fill="none" fill-rule="evenodd">
        <g id="Group" transform="translate(3.000000, 8.000000)" fill="#000000" fill-rule="nonzero">
            <path d="M0.79,26.47 C0.78,26.74 0.86,27 1.03,27.2 C1.37,27.6 2.03,27.66 2.44,27.3 L29,2.58 L55.55,27.3 C55.73,27.46 55.96,27.54 56.2,27.54 C56.23,27.54 56.25,27.54 56.28,27.54 C56.55,27.52 56.79,27.4 56.96,27.2 C57.14,27 57.22,26.74 57.2,26.47 C57.18,26.2 57.06,25.96 56.86,25.79 L29.65,0.5 C29.28,0.18 28.72,0.18 28.34,0.5 L1.14,25.79 C0.94,25.96 0.81,26.21 0.79,26.47 Z" id="Path"></path>
            <path d="M10.55,25.04 C10,25.04 9.55,25.49 9.55,26.04 L9.55,46.74 C9.55,47.29 10,47.74 10.55,47.74 L22.26,47.74 C22.81,47.74 23.26,47.29 23.26,46.74 L23.26,35.9 L34.74,35.9 L34.74,46.74 C34.74,47.29 35.19,47.74 35.74,47.74 L47.45,47.74 C48,47.74 48.45,47.29 48.45,46.74 L48.45,26.04 C48.45,25.49 48,25.04 47.45,25.04 C46.9,25.04 46.45,25.49 46.45,26.04 L46.45,45.74 L36.74,45.74 L36.74,34.9 C36.74,34.35 36.29,33.9 35.74,33.9 L22.26,33.9 C21.71,33.9 21.26,34.35 21.26,34.9 L21.26,45.74 L11.55,45.74 L11.55,26.04 C11.55,25.49 11.1,25.04 10.55,25.04 Z" id="Path"></path>
        </g>
    </g>
</svg>