<?xml version="1.0" encoding="utf-8"?>
<!-- Generator: Adobe Illustrator 16.0.0, SVG Export Plug-In . SVG Version: 6.00 Build 0)  -->
<!DOCTYPE svg PUBLIC "-//W3C//DTD SVG 1.1//EN" "http://www.w3.org/Graphics/SVG/1.1/DTD/svg11.dtd">
<svg version="1.1" id="Layer_1" xmlns="http://www.w3.org/2000/svg" xmlns:xlink="http://www.w3.org/1999/xlink" x="0px" y="0px"
	 width="512px" height="512px" viewBox="0 0 512 512" enable-background="new 0 0 512 512" xml:space="preserve">
<g>
	<path d="M192,96v48c47.011,0,91.209,18.307,124.451,51.549C349.693,228.791,368,272.988,368,320h48C416,196.289,315.712,96,192,96z
		"/>
	<path d="M192,0v48c36.741,0,72.357,7.185,105.859,21.355c32.384,13.697,61.478,33.316,86.474,58.312
		c24.995,24.996,44.614,54.09,58.312,86.474C456.815,247.643,464,283.26,464,320h48C512,143.27,368.73,0,192,0z"/>
	<path d="M207.999,192C159.999,224,96,224,96,224C96,352,0,448,0,448l20.687,20.688L148.68,340.691
		C145.682,334.427,144,327.41,144,320c0-26.51,21.49-48,48-48s48,21.49,48,48s-21.49,48-48,48c-7.41,0-14.426-1.682-20.692-4.68
		L43.313,491.312L64,512c0,0,96-96,224-96c0,0,0-63.973,31.98-111.971c0.013-28.672-10.906-57.347-32.785-79.225
		C265.326,202.935,236.663,192,207.999,192z"/>
</g>
</svg>
