<svg width="200" height="200" viewBox="0 0 200 200" fill="none" xmlns="http://www.w3.org/2000/svg">
<path d="M164 108.343C181.978 130 157.585 163 125 163C92.4152 163 46 132.92 46 108.343C46 83.7666 106.415 45.8428 139 45.8428C171.585 45.8428 133 71 164 108.343Z" fill="#E9E9E9"/>
<path d="M46.2436 153.727C46.558 153.621 46.8582 153.448 47.1881 153.408C47.9412 153.316 48.7322 153.538 49.463 153.333C49.9222 153.204 50.1347 152.593 50.5908 152.455C50.9145 152.357 51.2476 152.769 51.5769 152.693C52.5382 152.47 53.446 152.041 54.3234 151.589C56.1316 150.66 57.762 149.392 59.6162 148.558C59.8368 148.459 60.0015 148.969 60.2401 148.929C60.4476 148.894 60.4147 148.528 60.5794 148.396C61.0876 147.991 61.7556 147.799 62.2229 147.347C62.3161 147.256 61.8805 147.12 61.9824 147.04C62.5149 146.62 63.2401 146.503 63.7919 146.109C64.2759 145.764 64.7761 145.374 65.0532 144.849C65.9605 143.131 66.7813 141.343 67.2977 139.471C67.4163 139.039 66.8888 138.64 66.8875 138.193C66.8869 137.95 67.2529 137.828 67.2921 137.588C67.3958 136.958 67.481 136.286 67.3008 135.674C66.9397 134.447 66.2997 133.317 65.702 132.187C65.5361 131.873 65.0967 131.713 65.0234 131.366C64.9731 131.13 65.5137 130.955 65.395 130.744C64.5667 129.273 63.5178 127.922 62.3813 126.674C61.9439 126.193 61.1597 126.118 60.7353 125.626C60.6086 125.478 61.1535 125.311 61.0591 125.141C60.4731 124.082 59.6939 123.131 58.865 122.25C57.475 120.771 55.9955 119.37 54.4253 118.085C54.2159 117.914 53.8269 118.137 53.6243 117.959C52.663 117.109 52.2051 115.655 51.0475 115.1C50.5429 114.859 50.2328 116.008 49.6767 116.068C49.3921 116.098 49.8973 115.513 49.8607 115.229C49.8302 114.99 49.4891 114.85 49.4891 114.608C49.4891 114.367 49.9824 114.196 49.8607 113.987C49.2324 112.907 48.3625 111.971 47.4541 111.112C46.9073 110.595 46.1361 110.371 45.5446 109.906C45.1382 109.587 44.9077 109.07 44.4827 108.776C44.2826 108.638 43.929 108.845 43.7606 108.67C43.2666 108.156 43.2467 107.217 42.6341 106.853C42.3004 106.654 41.9766 107.296 41.5988 107.384C41.4777 107.412 41.3951 107.24 41.2981 107.162C40.7308 106.706 40.0715 106.343 39.6061 105.784C39.5141 105.673 39.9578 105.539 39.8596 105.434C38.6163 104.098 37.2598 102.861 35.83 101.727C35.2981 101.305 34.5083 101.266 34.0168 100.798C33.8752 100.663 34.389 100.502 34.3443 100.311C34.1542 99.503 33.7857 98.7365 33.3632 98.0215C33.1301 97.6274 32.6616 97.4151 32.4075 97.0341C31.8352 96.1732 31.5214 95.151 30.9025 94.3231C30.4191 93.6776 28.4288 93.0476 29.1397 92.6659C30.6074 91.8771 32.4752 92.4767 34.138 92.5846C34.5829 92.6138 34.9383 93.0439 35.3832 93.0712C35.6243 93.0861 35.7635 92.6933 36.0046 92.7001C36.247 92.7063 36.375 93.0421 36.6098 93.1041C37.0162 93.2121 37.4481 93.1947 37.8687 93.1947C38.2888 93.1947 38.7188 93.2072 39.1264 93.1041C39.3172 93.0557 39.4166 92.6914 39.603 92.7547C40.1336 92.9359 40.4301 93.5857 40.9706 93.7328C41.2211 93.8005 41.3627 93.258 41.6181 93.3027C43.7687 93.6788 45.8714 94.3088 47.9574 94.9543C48.9112 95.2497 49.8762 95.5805 50.7175 96.118C51.3495 96.5214 52.143 96.9881 52.2915 97.7223C52.4027 98.2698 51.4974 98.5596 51.3203 99.0902C51.2662 99.2522 51.6856 99.1771 51.8341 99.0915C52.2026 98.8798 52.4269 98.4708 52.7867 98.2456C52.8979 98.176 53.1042 98.1413 53.18 98.2474C54.1127 99.5539 55.1187 100.852 55.7128 102.342C56.7262 104.885 57.3861 107.564 57.9596 110.241C58.0143 110.495 57.4986 110.65 57.5483 110.905C57.7061 111.722 58.1436 112.463 58.5313 113.198C58.9029 113.903 59.5584 114.459 59.8176 115.211C59.9126 115.488 59.372 115.773 59.5075 116.033C60.6657 118.243 62.0806 120.315 63.5483 122.333C64.1964 123.224 64.9234 124.098 65.83 124.724C66.0288 124.861 66.2047 124.398 66.4352 124.326C66.6433 124.261 66.9851 124.142 67.0889 124.334C67.2237 124.583 66.7863 124.895 66.8875 125.16C67.0267 125.525 67.3275 126.005 67.719 125.989C69.1929 125.929 70.5561 125.133 72.0195 124.95C72.2699 124.919 72.4085 125.293 72.6483 125.372C72.8565 125.44 73.1063 125.464 73.3045 125.371C73.6046 125.231 73.7382 124.822 74.0526 124.715C75.4109 124.257 76.8103 123.88 78.2332 123.709C78.4855 123.678 78.6148 124.086 78.8633 124.137C79.3927 124.246 79.993 124.398 80.4845 124.174C80.9667 123.953 80.9766 123.083 81.4868 122.94C81.8956 122.826 82.1783 123.457 82.5816 123.589C82.7935 123.659 83.0495 123.619 83.2465 123.515C83.5621 123.346 83.7349 122.971 84.0512 122.805C85.5369 122.023 87.1997 121.58 88.6207 120.686C89.4428 120.169 90.0443 119.361 90.6856 118.633C90.8577 118.438 90.8583 118.123 91.0422 117.939C91.6978 117.282 92.6305 116.898 93.1704 116.144C93.3525 115.891 92.8629 115.515 92.9853 115.228C93.3718 114.323 94.2492 113.679 94.6145 112.764C94.7071 112.532 94.2889 112.364 94.2268 112.122C94.205 112.037 94.3101 111.921 94.3983 111.921C94.7171 111.921 95.0513 111.974 95.3328 112.123C96.1064 112.533 96.6806 113.824 97.5207 113.577C99.6004 112.967 101.282 111.365 102.885 109.907C103.958 108.932 104.727 107.651 105.43 106.384C105.907 105.524 105.899 104.448 106.386 103.594C106.877 102.733 107.48 101.868 108.312 101.329C108.655 101.107 109.233 101.274 109.513 101.571C109.68 101.747 109.188 101.947 109.114 102.177C109.045 102.392 109.051 102.634 109.101 102.854C109.456 104.439 109.777 106.04 110.323 107.57C110.484 108.02 110.959 108.294 111.191 108.712C111.228 108.777 111.018 108.834 111.062 108.895C111.302 109.232 111.791 109.385 111.944 109.77C112.017 109.952 111.657 110.06 111.6 110.248C111.536 110.456 111.466 110.729 111.6 110.9C112.031 111.447 112.79 111.687 113.184 112.26C113.294 112.419 112.858 112.554 112.871 112.746C112.884 112.951 113.085 113.107 113.248 113.232C113.982 113.795 114.684 114.444 115.54 114.794C115.764 114.886 115.933 114.344 116.163 114.423C116.674 114.596 116.887 115.441 117.428 115.436C118.502 115.426 119.41 114.536 120.474 114.383C120.926 114.318 121.324 114.882 121.775 114.812C122.598 114.686 123.336 114.221 124.071 113.831C124.72 113.485 125.338 113.073 125.911 112.613C126.394 112.225 126.84 111.784 127.224 111.297C127.452 111.007 127.606 110.66 127.724 110.311C128.127 109.114 127.967 107.637 128.782 106.671C129.447 105.884 130.766 106.074 131.689 105.615C132.21 105.356 132.705 104.999 133.066 104.543C133.155 104.43 132.717 104.301 132.812 104.193C133.655 103.227 134.829 102.582 135.643 101.593C135.863 101.324 135.584 100.836 135.797 100.561C136.238 99.9952 136.867 99.5899 137.484 99.2243C139.224 98.1928 140.926 97.021 142.844 96.3824C143.849 96.0485 144.984 96.1732 146.021 96.3849C146.645 96.5115 147.207 96.9167 147.659 97.3636C149.336 99.0214 150.549 101.138 152.359 102.65C153.157 103.315 154.337 103.301 155.286 103.727C155.545 103.844 155.671 104.317 155.95 104.261C157.604 103.935 159.309 103.535 160.742 102.65C162.28 101.7 163.033 99.7053 164.647 98.8916C165.215 98.6049 165.786 99.4726 166.301 99.8462C166.68 100.121 166.921 100.564 167.311 100.823C168.226 101.428 169.196 101.951 170.188 102.42C170.387 102.515 170.625 102.498 170.847 102.497C171.472 102.493 172.174 102.707 172.722 102.405C172.972 102.267 172.424 101.84 172.521 101.573C172.593 101.376 172.918 101.261 173.108 101.348C173.665 101.603 173.96 102.309 174.544 102.495C175.15 102.688 175.826 102.535 176.451 102.414C176.69 102.368 176.814 101.999 177.057 102.01C177.502 102.03 177.858 102.46 178.301 102.496C179.545 102.597 180.85 102.776 182.044 102.413C182.902 102.153 183.596 101.44 184.138 100.726C184.346 100.453 184.252 100.008 184.109 99.6954C183.947 99.3435 183.617 99.0766 183.287 98.8743C183.104 98.7626 182.861 98.7712 182.649 98.801C182.33 98.8451 182.003 98.9227 181.728 99.0909C181.372 99.3081 181.207 99.8319 180.801 99.9306C179.986 100.13 179.115 100.039 178.283 99.9312C178.042 99.9002 177.92 99.5334 177.678 99.5272C177.437 99.5204 177.298 99.8983 177.057 99.8983C176.815 99.8983 176.676 99.5216 176.435 99.5272C176.194 99.5322 176.061 99.853 175.831 99.9256C175.623 99.9914 175.385 99.9883 175.177 99.925C174.989 99.8679 174.879 99.5048 174.699 99.5812C174.313 99.745 174.247 100.57 173.834 100.495C172.035 100.165 170.355 99.3205 168.726 98.4876C167.681 97.9532 166.928 96.9379 165.873 96.424C165.655 96.3178 165.492 96.8088 165.251 96.7951C164.798 96.7697 164.376 96.1012 163.978 96.3166C162.709 97.003 161.924 98.3554 160.769 99.2193C160.657 99.3031 160.533 98.873 160.434 98.9705C160.016 99.3795 159.953 100.081 159.505 100.458C159.362 100.579 159.198 100.057 159.035 100.148C158.31 100.555 157.979 101.856 157.152 101.779C155.5 101.624 154.091 100.459 152.699 99.5564C152.543 99.4546 153.113 99.2429 153.008 99.0884C152.619 98.5174 152.067 98.0314 151.45 97.7205C151.275 97.6323 151.161 98.0072 150.974 98.0631C150.766 98.1251 150.422 98.2487 150.322 98.0556C150.193 97.8074 150.551 97.5275 150.551 97.2469C150.551 96.9205 150.573 96.5046 150.323 96.2949C149.2 95.3533 147.943 94.5509 146.61 93.9414C146.39 93.8408 146.23 94.3181 145.988 94.3125C145.747 94.3076 145.614 93.9867 145.383 93.9141C145.175 93.8483 144.937 93.8483 144.728 93.9141C144.498 93.9867 144.365 94.3113 144.124 94.3125C143.872 94.3138 143.719 93.8458 143.479 93.9203C140.991 94.6942 138.444 95.4464 136.204 96.7759C134.917 97.5399 134.072 98.8848 133.142 100.057C132.523 100.837 132.261 101.879 131.578 102.606C130.921 103.306 130.139 104 129.211 104.243C128.843 104.34 128.508 103.802 128.404 103.437C128.337 103.204 128.757 103.069 128.808 102.832C128.898 102.417 128.898 101.974 128.808 101.559C128.757 101.321 128.394 101.196 128.404 100.954C128.421 100.512 128.922 100.155 128.881 99.7146C128.712 97.8701 128.298 96.0472 127.788 94.2666C127.659 93.8172 127.324 93.4405 126.99 93.1134C126.556 92.6877 126.109 92.1707 125.516 92.0403C124.292 91.7716 123.006 91.8616 121.756 91.964C121.313 92.0006 120.956 92.4047 120.513 92.45C120.325 92.4686 120.2 92.0428 120.037 92.139C119.629 92.3798 119.614 93.1352 119.155 93.2518C118.736 93.358 118.421 92.5418 118.003 92.6548C116.158 93.155 114.46 94.104 112.764 94.9847C111.772 95.4998 110.939 96.2818 109.964 96.8274C109.777 96.9329 109.539 96.9093 109.324 96.9099C108.899 96.9112 108.451 96.9782 108.051 96.8342C107.458 96.6213 106.9 96.2843 106.427 95.8691C105.997 95.4924 105.953 94.5968 105.389 94.5024C104.888 94.418 104.749 95.5159 104.241 95.5029C103.888 95.4936 104.334 94.6303 104.02 94.4671C102.387 93.6143 100.572 93.1519 98.7964 92.6616C98.3813 92.5468 97.924 92.5697 97.5045 92.6672C97.2678 92.7224 97.146 93.0191 96.9161 93.0979C96.7098 93.1687 96.4327 93.2283 96.2612 93.093C95.7156 92.6641 95.2098 92.1372 94.9047 91.514C94.8177 91.3378 95.2148 91.231 95.2533 91.0386C95.3366 90.6228 95.3875 90.1685 95.2533 89.7663C95.1439 89.4392 94.732 89.2946 94.5692 88.9905C93.9894 87.9081 93.6874 86.6835 93.0418 85.639C92.8566 85.3398 92.3739 85.3473 92.1489 85.0773C91.3107 84.0731 90.8819 82.7232 89.8921 81.8673C88.4909 80.6558 86.9287 79.4387 85.1267 79.0068C82.6997 78.4246 80.1321 78.8131 77.6386 78.9304C77.1937 78.9515 76.8389 79.3947 76.394 79.417C76.1435 79.4301 75.9919 78.9571 75.7515 79.0273C74.4578 79.4021 73.3548 80.2965 72.0617 80.6726C71.8225 80.7421 71.6498 80.1854 71.4223 80.2872C69.7372 81.0382 68.1813 82.0604 66.6483 83.0869C65.8517 83.62 65.0551 84.2016 64.4586 84.9513C64.3374 85.104 64.7339 85.2523 64.7736 85.4429C64.7917 85.5291 64.6885 85.621 64.604 85.6471C64.266 85.7495 63.8627 85.6359 63.5564 85.8128C63.1568 86.0443 63.0512 86.7382 62.5945 86.8102C62.2595 86.8629 62.0433 86.3782 61.8898 86.0759C61.791 85.881 61.7805 85.6098 61.8898 85.4212C62.0812 85.0897 62.3552 84.7372 62.7231 84.6317C62.9561 84.5647 63.1121 84.9476 63.3476 85.0022C63.4315 85.0221 63.5731 84.8942 63.5309 84.8197C63.2687 84.358 62.4522 84.0992 62.5379 83.576C62.646 82.9119 63.3675 82.4569 63.9658 82.1491C64.1808 82.0386 64.3486 82.5494 64.5885 82.5202C64.8606 82.488 65.1893 82.2701 65.2235 81.9983C65.2639 81.6724 64.6494 81.4341 64.7631 81.1257C64.9694 80.5671 65.7691 80.3933 66.0158 79.8509C66.1152 79.6318 65.6889 79.4785 65.6175 79.2482C65.5528 79.0403 65.4491 78.7231 65.6255 78.5953C65.8163 78.4569 66.1214 78.8709 66.3177 78.7399C66.7229 78.4687 67.0472 78.0268 67.1771 77.5576C67.2554 77.2746 66.7894 77.0126 66.8733 76.7315C67.0317 76.2027 67.3803 75.7006 67.8289 75.3785C67.9874 75.2649 68.1303 75.6534 68.3211 75.6931C68.4074 75.7111 68.5075 75.61 68.5249 75.5237C68.592 75.1811 68.71 74.7926 68.5603 74.4779C68.3615 74.0621 67.3809 73.938 67.5661 73.5159C67.9389 72.6663 69.3414 72.6166 69.7434 71.7806C69.954 71.343 68.7355 72.2051 68.3006 71.9885C68.0464 71.8619 68.5 71.4455 68.5006 71.1618C68.5006 71.0687 68.3857 70.921 68.303 70.9638C67.7705 71.2375 67.1162 71.4796 66.8465 72.0127C66.6819 72.3379 67.3592 72.675 67.2591 73.025C67.0504 73.7586 66.3519 74.2607 66.0108 74.9428C65.574 75.8167 65.3888 76.8029 64.9383 77.6699C64.4294 78.6493 63.5924 79.445 63.145 80.4541C63.0624 80.6397 63.5315 80.77 63.4768 80.9662C63.3606 81.382 62.876 81.6122 62.7107 82.0107C62.6616 82.1286 62.9723 82.2273 62.9083 82.3378C62.7933 82.5383 62.4708 82.5277 62.3149 82.6984C62.0328 83.0081 61.8091 83.3724 61.6226 83.7473C61.2511 84.4951 60.6347 85.2194 60.6465 86.0542C60.6564 86.7605 61.6258 87.1993 61.6817 87.9031C61.7121 88.2898 61.248 88.7224 60.8596 88.7267C60.4793 88.7311 60.163 88.2842 60.0524 87.9211C59.9816 87.6896 60.465 87.5357 60.4234 87.2974C60.3961 87.1397 60.0792 87.2154 59.9437 87.3005C59.7169 87.4426 59.367 87.6598 59.4311 87.9205C59.5441 88.3835 60.5756 88.5809 60.3619 89.0072C60.0338 89.6614 59.1098 89.8252 58.3952 89.9866C58.1504 90.0419 57.9951 89.6546 57.7509 89.5969C57.6577 89.5751 57.4924 89.6986 57.534 89.7843C57.7782 90.2876 58.4039 90.6023 58.5052 91.1522C58.5593 91.4445 58.051 91.5544 57.9081 91.815C57.5346 92.4984 57.355 93.2773 56.9735 93.9563C56.8778 94.127 56.6945 94.2598 56.505 94.3125C56.4211 94.3361 56.2931 94.2293 56.3049 94.1425C56.3627 93.7068 56.633 93.3182 56.6951 92.8832C56.7076 92.7975 56.5827 92.6498 56.5125 92.7001C55.9992 93.0669 55.2287 93.3747 55.1361 93.9985C55.0535 94.5521 55.9619 94.8252 56.1154 95.3633C56.1837 95.6035 55.7053 95.7394 55.7028 95.9889C55.6997 96.2297 56.07 96.3538 56.1017 96.5928C56.1384 96.8733 56.1229 97.5815 55.8917 97.4164C54.4122 96.36 53.4161 94.7252 51.9609 93.636C51.2072 93.0718 50.2726 92.7671 49.3617 92.5282C47.4385 92.0236 45.4793 91.6102 43.5003 91.4172C43.0535 91.3731 42.6546 91.9354 42.2177 91.8299C41.7014 91.7052 41.5094 90.9356 40.9924 90.8115C40.5562 90.7066 40.1535 91.3074 39.7117 91.2279C37.8134 90.8835 36.0568 89.9519 34.1647 89.5745C33.9174 89.5249 33.7757 89.9165 33.5359 89.9953C33.3284 90.0636 33.0873 90.0667 32.881 89.9953C32.6511 89.9152 32.5293 89.6192 32.2925 89.564C31.8719 89.4659 31.4133 89.4404 30.997 89.5559C30.1792 89.7824 29.456 90.8698 28.6618 90.5707C27.7658 90.2336 27.7273 88.8968 27.1736 88.1166C26.9077 87.7417 26.4038 87.5438 26.2161 87.1248C25.5494 85.6378 25.2673 84.0024 24.6533 82.4929C24.5427 82.2217 24.0357 82.1305 24.0662 81.84C24.1115 81.4118 24.7205 81.215 24.8323 80.7992C24.9181 80.4808 24.5645 80.1624 24.6067 79.8353C24.6378 79.5958 24.9541 79.4766 25.033 79.2482C25.1039 79.0421 25.1045 78.8001 25.033 78.5941C24.9529 78.3644 24.667 78.2403 24.6012 78.0063C24.4862 77.6023 24.5098 77.169 24.5098 76.7489C24.5098 76.122 24.4781 75.4852 24.6005 74.8708C24.6484 74.6331 25.0796 74.4972 25.0057 74.2657C24.8454 73.7611 24.1743 73.529 24.0133 73.0238C23.9537 72.8369 24.4241 72.8779 24.5061 72.6992C25.1722 71.2506 25.4642 69.6388 26.2173 68.233C27.4874 65.8627 28.9918 63.6197 30.5471 61.4251C30.7484 61.1415 31.2026 61.1334 31.4338 60.8728C32.0434 60.1845 32.387 59.2802 33.0301 58.6229C33.132 58.5186 33.2836 58.9804 33.3868 58.8774C33.9994 58.2642 34.2499 57.3394 34.8936 56.7585C35.0378 56.6282 35.2043 57.1452 35.3851 57.0732C35.9916 56.8305 36.5253 56.4004 36.974 55.9256C37.4201 55.4533 37.5301 54.7054 38.0228 54.2815C38.1707 54.1549 38.3286 54.6781 38.5094 54.6055C39.4464 54.2256 40.893 54.0215 41.103 53.0334C41.2683 52.2557 39.8236 52.0794 39.1289 51.6928C39.0046 51.6239 38.8269 51.6289 38.7032 51.6977C38.2888 51.928 37.998 52.3513 37.5717 52.5573C37.3859 52.6467 37.125 52.4289 36.9535 52.5431C35.4404 53.5491 34.0119 54.6824 32.62 55.8505C31.4139 56.8628 30.1743 57.8639 29.1695 59.076C29.0011 59.2796 29.4417 59.6352 29.2987 59.8574C29.0142 60.2993 28.3946 60.424 28.0467 60.8188C27.6459 61.2737 27.4657 61.8894 27.0898 62.3642C26.8425 62.6757 26.4149 62.8228 26.1962 63.1549C25.161 64.7239 24.0475 66.2786 23.3559 68.0257C23.1913 68.4409 23.7859 68.8567 23.7623 69.3024C23.7517 69.4985 23.3615 69.4532 23.2696 69.6263C22.8035 70.5046 22.3418 71.4107 22.1275 72.3814C22.0734 72.6265 22.5227 72.7736 22.5202 73.025C22.5177 73.2677 22.1467 73.3893 22.115 73.6295C21.9802 74.6604 21.9274 75.7124 22.033 76.7464C22.0995 77.395 22.6121 77.9591 22.6258 78.6108C22.6401 79.2656 22.02 79.8589 22.1132 80.5069C22.2113 81.1958 22.9819 81.6427 23.1565 82.3167C23.2186 82.5575 22.7408 82.6897 22.7426 82.9386C22.7457 83.3755 23.1639 83.7423 23.1689 84.1799C23.1732 84.6205 22.6134 85.0283 22.7706 85.4404C22.8688 85.6986 23.3193 85.1537 23.5778 85.2523C23.9326 85.3883 24.2805 85.693 24.3843 86.0579C24.4508 86.2913 24.0307 86.426 23.9798 86.6631C23.8903 87.0783 23.7785 87.563 23.9804 87.9366C24.3737 88.6634 25.22 89.0625 25.6581 89.7644C25.8259 90.0325 25.985 90.5508 25.7128 90.7122C23.5833 91.9758 21.1103 92.5697 18.9361 93.7539C18.1028 94.207 17.566 95.0865 16.76 95.5861C16.4636 95.7692 16.0082 95.5358 15.7267 95.7406C15.2607 96.0807 15.1003 96.7262 14.6704 97.111C14.2211 97.5126 13.5258 97.6044 13.1318 98.0606C12.1656 99.1802 11.41 100.471 10.6675 101.75C9.97773 102.936 9.31224 104.15 8.84373 105.44C8.35532 106.784 8.0757 108.199 7.81348 109.605C7.73395 110.029 7.72835 110.479 7.82405 110.901C7.87997 111.147 8.29132 111.279 8.24969 111.528C8.07011 112.598 7.20205 113.525 7.20205 114.61C7.20205 115.891 8.03843 117.044 8.25094 118.307C8.28511 118.511 7.83585 118.633 7.91104 118.826C8.06203 119.212 8.64365 119.315 8.79588 119.7C8.86858 119.884 8.47462 119.984 8.44542 120.179C8.35097 120.81 8.27082 121.477 8.43673 122.093C9.21593 124.975 10.2288 127.791 11.2596 130.594C11.6318 131.605 12.05 132.617 12.6409 133.519C14.753 136.747 16.9471 139.93 19.3468 142.951C19.7252 143.427 20.4411 143.511 20.899 143.912C22.1312 144.991 23.1167 146.339 24.3911 147.369C25.3847 148.172 26.5343 148.767 27.6589 149.375C29.2347 150.226 30.7894 151.158 32.4833 151.74C35.2366 152.686 38.0732 153.411 40.9365 153.935C41.3783 154.016 41.7697 153.533 42.2184 153.523C42.4595 153.518 42.5986 153.9 42.8397 153.895C43.0808 153.89 43.2032 153.485 43.4443 153.496C44.0924 153.523 44.6778 153.947 45.3246 154L46.2436 153.727ZM48.8453 151.43C48.2929 151.265 47.7654 150.933 47.1894 150.935C46.54 150.937 45.9572 151.42 45.3085 151.439C45.0649 151.446 44.958 151.058 44.72 151.008C44.1061 150.878 43.4673 150.917 42.8397 150.917C42.4191 150.917 41.9866 150.897 41.5808 151.007C41.3366 151.074 41.2024 151.474 40.9526 151.433C39.8901 151.257 38.9537 150.578 37.8917 150.399C37.6364 150.356 37.4711 150.9 37.23 150.806C33.6912 149.429 30.0792 148.109 26.8555 146.105C24.9752 144.937 23.7865 142.91 22.1418 141.429C21.6552 140.991 20.9723 140.81 20.4858 140.371C19.9446 139.883 19.4183 139.337 19.0964 138.683C19.0107 138.508 19.5189 138.355 19.4127 138.191C18.731 137.141 17.6405 136.402 16.9409 135.364C16.2729 134.374 15.9647 133.177 15.3439 132.158C15.1066 131.767 14.6579 131.543 14.3901 131.173C14.0173 130.658 13.5879 130.139 13.4344 129.522C13.3742 129.28 13.9011 129.118 13.8209 128.883C13.6501 128.38 12.9305 128.174 12.8013 127.659C12.6944 127.232 13.2163 126.839 13.1983 126.4C13.1909 126.214 12.8075 126.26 12.7366 126.089C12.1718 124.733 11.6567 123.346 11.3298 121.914C10.6414 118.896 9.87023 115.863 9.69625 112.772C9.6658 112.228 10.537 112.023 10.7464 111.521C10.9098 111.129 10.8396 110.662 10.747 110.248C10.6917 110.001 10.2673 109.867 10.3214 109.62C10.624 108.244 11.1478 106.915 11.7598 105.646C12.7112 103.671 13.5569 101.577 14.996 99.9225C16.3798 98.3324 18.2538 97.2227 20.0496 96.1174C21.4794 95.2373 23.1329 94.7792 24.6192 93.9985C24.9348 93.8328 25.0715 93.3468 25.4239 93.294C25.8594 93.2289 26.2435 93.6702 26.6828 93.6913C26.876 93.7006 27.014 93.2636 27.1712 93.3772C27.7118 93.7676 28.0678 94.374 28.4158 94.9425C29.1962 96.2198 29.7002 97.6597 30.544 98.896C31.248 99.9287 32.3422 100.66 33.0282 101.705C33.1357 101.868 32.7449 102.005 32.7126 102.197C32.6933 102.311 32.812 102.413 32.8977 102.49C33.6359 103.15 34.4742 103.699 35.1751 104.399C35.5858 104.809 35.7828 105.408 36.2122 105.8C36.6571 106.206 37.3269 106.32 37.7513 106.748C38.5541 107.558 39.2289 108.496 39.8391 109.459C39.9155 109.579 39.8292 109.769 39.731 109.872C39.3209 110.303 38.9033 110.773 38.3596 111.015C38.1813 111.094 38.0589 110.665 37.8669 110.699C37.6034 110.746 37.3257 110.955 37.2474 111.211C37.1573 111.509 37.4704 111.817 37.4332 112.126C37.4046 112.366 37.0206 112.51 37.0622 112.749C37.0895 112.906 37.4102 112.838 37.5413 112.747C38.7294 111.917 39.7459 110.858 40.9421 110.039C41.1235 109.916 41.3808 109.942 41.5982 109.972C41.9164 110.017 42.2519 110.081 42.5179 110.262C42.9553 110.56 43.2331 111.05 43.6537 111.372C44.1104 111.72 44.7262 111.853 45.1326 112.259C46.9557 114.084 48.5458 116.127 50.2962 118.021C50.4758 118.215 50.6548 118.474 50.9157 118.517C51.1071 118.549 51.2612 118.073 51.4048 118.203C53.134 119.768 54.5495 121.649 56.1993 123.297C57.1251 124.222 58.2828 124.913 59.1247 125.914C59.2496 126.062 58.7811 126.211 58.8103 126.402C58.8675 126.78 59.0905 127.135 59.3521 127.415C59.7492 127.84 60.324 128.066 60.7422 128.47C61.1635 128.878 61.5481 129.333 61.8544 129.833C62.9002 131.539 63.9926 133.236 64.7885 135.072C64.8873 135.3 64.4045 135.461 64.402 135.71C64.3989 135.951 64.7736 136.089 64.7736 136.331C64.7736 136.572 64.3952 136.711 64.402 136.951C64.4083 137.194 64.755 137.319 64.8066 137.556C64.8985 137.977 64.9694 138.447 64.8146 138.849C64.1634 140.549 63.3886 142.215 62.4267 143.761C61.9961 144.454 61.3865 145.062 60.6887 145.485C58.1579 147.02 55.5195 148.386 52.8153 149.589C52.3002 149.819 51.6602 149.549 51.1295 149.741C50.679 149.902 50.4037 150.374 49.9855 150.606C49.9209 150.642 49.865 150.434 49.8047 150.477L48.8453 151.43ZM5.21676 129.516C5.39261 129.305 5.63867 129.136 5.74431 128.883C5.77848 128.802 5.63309 128.652 5.55914 128.698C5.23603 128.9 4.89737 129.154 4.75073 129.506L5.21676 129.516ZM2.00922 129.521C1.73768 129.446 1.47608 129.303 1.19522 129.298C1.1045 129.296 0.943568 129.456 1.02 129.504C1.26047 129.656 1.5637 129.705 1.84767 129.71L2.00922 129.521ZM61.4859 128.464C61.4779 128.328 61.33 128.089 61.4623 128.056C61.7376 127.987 62.2732 127.979 62.29 128.262L61.4859 128.464ZM17.6442 124.551C17.8201 124.34 18.0662 124.171 18.1718 123.918C18.206 123.837 18.0606 123.686 17.9866 123.733C17.6635 123.935 17.3249 124.189 17.1782 124.54L17.6442 124.551ZM11.1664 124.719C11.0919 124.447 10.9483 124.186 10.9433 123.906C10.9421 123.815 11.1018 123.654 11.1496 123.73C11.3019 123.971 11.3516 124.274 11.3559 124.557L11.1664 124.719ZM70.2082 122.878C69.5781 122.911 68.9474 123.022 68.3179 122.978C67.9955 122.955 67.6556 122.87 67.3952 122.678C66.8515 122.278 66.3849 121.772 65.9642 121.243C65.6106 120.799 65.4677 120.205 65.0899 119.781C64.7065 119.351 64.0305 119.21 63.7204 118.725C63.5359 118.436 63.6098 118.006 63.7577 117.696C63.8217 117.563 64.0833 117.63 64.2013 117.719C65.6889 118.848 67.0311 120.16 68.5087 121.302C68.9636 121.654 69.5253 121.848 69.987 122.191C70.1535 122.315 70.3045 122.486 70.3685 122.683L70.2082 122.878ZM21.5117 122.051C21.6471 122.058 21.8864 122.207 21.9193 122.075C21.9889 121.799 21.997 121.265 21.713 121.248L21.5117 122.051ZM77.6852 121.034C76.6338 121.062 75.5818 121.172 74.5317 121.116C74.2092 121.098 73.8873 120.981 73.609 120.816C73.2529 120.605 73.0646 120.12 72.6663 120.008C72.4333 119.943 72.2544 120.499 72.0437 120.38C70.338 119.416 68.797 118.179 67.266 116.957C66.5564 116.391 65.8387 115.791 65.341 115.033C64.2654 113.396 63.6521 111.486 62.592 109.839C62.0849 109.051 61.1367 108.597 60.6738 107.781C60.5508 107.565 61.1405 107.378 61.0603 107.143C60.8037 106.387 60.1351 105.835 59.7716 105.125C59.4739 104.544 59.2987 103.907 59.0874 103.29C58.7569 102.323 58.3673 101.369 58.1461 100.371C58.051 99.943 58.028 99.4775 58.1467 99.0561C58.3859 98.2077 59.0203 97.4933 59.1999 96.6306C59.2527 96.3768 58.7413 96.2222 58.791 95.9678C58.9489 95.1523 59.3043 94.3634 59.7728 93.677C60.5359 92.5573 61.4878 91.5724 62.4441 90.6116C63.0537 89.9978 63.8627 89.6012 64.4543 88.9694C65.0091 88.3773 65.272 87.5456 65.8486 86.9746C66.6427 86.1883 67.5611 85.5248 68.5168 84.9457C69.6881 84.2357 70.9209 83.6113 72.2009 83.1235C73.9582 82.4545 75.7633 81.8946 77.5988 81.4856C78.2233 81.3472 78.8863 81.3919 79.517 81.4949C79.7568 81.5347 79.8792 81.8934 80.1222 81.8996C80.3633 81.9064 80.5025 81.5148 80.7436 81.5285C81.1866 81.5533 81.5427 82.0082 81.9863 82.0051C82.4387 82.002 82.8152 81.3857 83.2502 81.5098C84.9397 81.9921 86.5081 82.8529 88.0292 83.7311C88.5518 84.0334 88.9675 84.5131 89.3092 85.0097C90.3183 86.4756 91.059 88.1135 92.0594 89.5863C92.4236 90.1213 93.1723 90.395 93.3836 91.007C93.5271 91.4228 92.9834 91.825 92.9853 92.265C92.9859 92.5077 93.3519 92.6299 93.3898 92.8695C93.4898 93.4933 93.5507 94.1549 93.3836 94.7637C93.3227 94.9865 92.9244 94.9245 92.7771 95.1032C91.8059 96.2831 90.798 97.4586 90.0636 98.7985C89.9138 99.0716 90.3301 99.4136 90.2494 99.7146C90.1959 99.9145 89.8386 99.876 89.7268 100.05C88.2715 102.311 87.0487 104.716 85.581 106.968C85.2293 107.507 84.5451 107.812 84.286 108.401C84.1885 108.622 84.6849 108.764 84.6849 109.006C84.6849 109.445 84.3072 109.824 84.2867 110.262C84.2773 110.458 84.6564 110.568 84.6036 110.757C84.4867 111.174 84.0456 111.429 83.8505 111.815C83.8175 111.881 84.0232 111.936 83.9791 111.995C83.7001 112.362 83.185 112.542 82.9849 112.958C82.8339 113.273 82.9234 113.667 83.011 114.005C83.0719 114.24 83.4447 114.369 83.4142 114.61C83.3882 114.815 83.006 114.773 82.8917 114.945C82.4499 115.611 81.9832 116.297 81.7819 117.07C81.7191 117.312 82.3039 117.499 82.1721 117.711C81.6098 118.624 80.8132 119.4 79.9513 120.038L77.6852 121.034ZM25.1007 120.206C25.2766 119.995 25.5227 119.827 25.6283 119.573C25.6625 119.493 25.5171 119.342 25.4431 119.388C25.12 119.591 24.7814 119.845 24.6347 120.196L25.1007 120.206ZM22.5146 120.211C22.243 120.136 21.9814 119.993 21.7006 119.988C21.6099 119.987 21.4489 120.146 21.5254 120.194C21.7658 120.346 22.0691 120.396 22.353 120.4L22.5146 120.211ZM83.6504 119.603C83.6727 119.329 83.6317 119.042 83.7181 118.782C84.7881 115.565 85.7599 112.304 87.112 109.196C87.839 107.525 89.0526 106.107 89.9263 104.508C90.2978 103.826 90.4339 103.028 90.8409 102.367C91.1733 101.827 91.8575 101.534 92.1141 100.955C92.2123 100.734 91.6307 100.547 91.7425 100.333C92.1713 99.5117 92.6168 98.2127 93.5439 98.2158C94.3411 98.2176 94.6388 99.5452 94.6338 100.341C94.6195 102.936 94.0777 105.516 93.488 108.044C93.0853 109.771 92.3596 111.41 91.6711 113.045C91.3716 113.755 90.9944 114.441 90.5321 115.057C89.7168 116.143 88.8768 117.233 87.8558 118.128C87.0543 118.831 86.1334 119.445 85.1267 119.798L83.6504 119.603ZM28.2138 118.959C28.6326 118.135 28.8855 117.203 29.4715 116.488C29.6796 116.234 30.1028 116.222 30.429 116.257C30.6701 116.283 30.8037 116.591 31.0374 116.656C31.1219 116.681 31.2374 116.574 31.2387 116.486C31.2424 116.196 31.3014 115.783 31.051 115.637C30.6832 115.423 30.1656 115.465 29.7747 115.632C29.3236 115.825 28.9626 116.224 28.7041 116.641C28.2648 117.348 27.8951 118.122 27.7229 118.935L28.2138 118.959ZM83.2459 117.27C83.1433 117.005 82.9426 116.759 82.9395 116.475C82.9364 116.187 82.9414 115.665 83.2291 115.662C83.5155 115.66 83.5168 116.183 83.5193 116.47L83.2459 117.27ZM29.8076 117.531C29.7331 117.803 29.5896 118.064 29.5846 118.345C29.5833 118.435 29.743 118.596 29.7909 118.52C29.9431 118.279 29.9928 117.976 29.9972 117.692L29.8076 117.531ZM33.1109 115.877C33.3197 115.459 33.6434 115.081 33.7378 114.624C33.8311 114.171 34.0255 112.962 33.6546 113.239C32.84 113.847 32.346 114.871 32.0893 115.853C32.0179 116.128 32.6337 116.052 32.9176 116.059L33.1109 115.877ZM62.3037 115.224C62.1682 115.231 61.929 115.38 61.896 115.248C61.8265 114.972 61.8184 114.438 62.1023 114.421L62.3037 115.224ZM34.9433 113.474C35.3702 113.026 35.8723 112.638 36.2252 112.129C36.2799 112.051 36.0873 111.888 36.0065 111.94C35.5349 112.244 35.1005 112.625 34.7625 113.072C34.6625 113.204 34.7078 113.416 34.7755 113.567L34.9433 113.474ZM118.674 112.436C117.832 112.405 116.951 112.594 116.146 112.344C115.522 112.151 114.965 111.694 114.581 111.166C113.94 110.281 113.518 109.245 113.153 108.216C112.311 105.845 111.554 103.437 110.967 100.991C110.891 100.673 111.026 100.319 111.189 100.036C111.323 99.804 111.545 99.5508 111.812 99.5272C112.053 99.5055 112.175 99.9256 112.417 99.9256C112.857 99.9256 113.258 99.39 113.676 99.5272C114.28 99.7246 114.566 100.445 115.091 100.801C115.708 101.217 116.466 101.397 117.075 101.824C117.501 102.122 117.933 102.478 118.157 102.947C118.24 103.122 117.869 103.245 117.842 103.437C117.824 103.559 117.938 103.681 118.041 103.749C118.765 104.221 119.594 104.526 120.292 105.035C120.71 105.341 120.891 105.933 121.353 106.166C121.78 106.383 122.339 106.12 122.785 106.295C123.229 106.47 123.482 106.974 123.914 107.175C124.073 107.248 124.267 106.981 124.425 107.054C124.908 107.28 125.656 107.481 125.709 108.011C125.785 108.768 125.123 109.422 124.728 110.071C124.559 110.348 124.323 110.601 124.039 110.756C122.916 111.369 121.769 111.971 120.548 112.353L118.674 112.436ZM60.6583 112.131C60.7937 112.123 61.033 111.975 61.0659 112.106C61.1355 112.382 61.1436 112.917 60.8596 112.934L60.6583 112.131ZM186.997 111.725C187.266 111.445 187.67 111.249 187.805 110.886C187.872 110.704 187.348 110.528 187.491 110.398C190.269 107.864 193.508 105.851 196.201 103.227C196.982 102.466 197.481 101.413 197.787 100.367C198.024 99.557 198.117 98.6099 197.78 97.8359C197.461 97.1023 196.67 96.6567 195.989 96.2359C194.793 95.498 193.368 95.169 192.198 94.3895C191.714 94.0674 191.597 93.3611 191.138 93.0036C190.2 92.2737 189.135 91.7139 188.072 91.1807C186.411 90.3485 184.627 89.7719 182.979 88.9141C182.399 88.6125 182.075 87.671 181.424 87.7206C180.742 87.7722 180.273 88.5424 179.951 89.145C179.8 89.4268 179.999 89.8054 180.162 90.081C180.359 90.4136 180.649 90.7066 180.986 90.8952C182.058 91.4954 183.258 91.8411 184.342 92.4202C184.645 92.5828 184.804 92.9583 185.116 93.1035C185.433 93.25 185.868 93.0538 186.15 93.2587C186.61 93.5932 186.73 94.2778 187.19 94.6123C187.871 95.1063 188.758 95.2435 189.48 95.6748C191.255 96.7349 193.527 97.3512 194.667 99.0754C195.239 99.9405 194.164 101.109 193.677 102.025C193.519 102.321 193.056 102.315 192.818 102.552C192.407 102.962 192.216 103.575 191.762 103.938C190.736 104.758 189.474 105.25 188.434 106.054C188.161 106.265 188.148 106.709 187.885 106.933C187.314 107.419 186.543 107.637 185.985 108.139C185.533 108.545 185.092 109.031 184.91 109.61C184.719 110.218 184.691 110.928 184.921 111.522C185.028 111.797 185.465 111.776 185.758 111.805L186.997 111.725ZM113.072 110.444C112.997 110.173 112.853 109.911 112.849 109.631C112.848 109.54 113.007 109.379 113.055 109.456C113.207 109.696 113.257 109.999 113.261 110.282L113.072 110.444ZM44.7293 110.46C44.4441 110.402 44.0322 110.528 43.8743 110.284C43.7196 110.045 43.8134 109.557 44.0794 109.456C44.331 109.361 44.5572 109.744 44.7032 109.97L44.7293 110.46ZM98.1856 109.857C97.8649 109.787 97.4934 109.834 97.2237 109.647C96.7632 109.326 96.2941 108.924 96.0928 108.401C96.0182 108.208 96.4979 108.235 96.6153 108.065C97.3107 107.054 97.6064 105.747 98.4987 104.905C100.027 103.463 101.916 102.447 103.718 101.362C103.903 101.25 104.179 101.267 104.37 101.371C104.489 101.434 104.512 101.639 104.461 101.765C103.756 103.52 103.049 105.285 102.134 106.94C101.85 107.453 101.376 107.849 100.905 108.198L98.1856 109.857ZM44.2925 107.805C44.4286 107.491 44.4938 107.135 44.7001 106.862C45.0599 106.386 45.4967 105.966 45.964 105.595C46.4754 105.189 47.1229 104.97 47.6181 104.544C48.575 103.723 49.494 102.845 50.2975 101.874C50.5025 101.626 50.587 101.276 50.587 100.954C50.5876 100.669 50.5448 100 50.2993 100.147C49.453 100.652 49.0609 101.699 48.2967 102.322C48.1842 102.414 48.0382 101.959 47.9431 102.068C47.2658 102.846 47.0154 103.962 46.2586 104.663C46.0268 104.878 45.6142 104.364 45.3246 104.492C44.812 104.719 44.3397 105.127 44.0825 105.624C43.9402 105.901 44.3118 106.231 44.2683 106.54C44.2347 106.779 43.9414 106.913 43.8694 107.144C43.8047 107.351 43.7606 107.613 43.8774 107.796L44.2925 107.805ZM125.877 104.284C125.32 104.283 124.726 104.481 124.206 104.282C122.754 103.727 121.411 102.908 120.099 102.076C119.738 101.847 119.652 101.226 119.236 101.129C118.94 101.06 118.834 101.748 118.532 101.71C118.193 101.668 117.917 101.287 117.84 100.955C117.786 100.719 118.164 100.57 118.212 100.333C118.235 100.219 118.116 100.112 118.026 100.039C117.709 99.7816 117.299 99.6445 117.011 99.3565C116.602 98.9487 116.382 98.3759 115.962 97.9793C115.619 97.6553 114.667 97.6926 114.761 97.2302C114.887 96.6058 115.749 96.3948 116.335 96.144C117.876 95.4849 119.451 94.8519 121.095 94.5223C121.534 94.4342 121.927 94.9301 122.376 94.9332C122.617 94.935 122.749 94.6079 122.979 94.5347C123.193 94.4671 123.443 94.4447 123.653 94.5266C124.203 94.7414 124.713 95.0579 125.194 95.4011C125.541 95.6481 125.969 95.884 126.117 96.2831C126.233 96.5984 125.789 96.9409 125.882 97.2643C126.077 97.9334 126.924 98.3784 126.926 99.0747C126.927 99.6128 126.024 99.7947 125.891 100.317C125.783 100.742 126.269 101.135 126.289 101.573C126.298 101.769 125.893 101.889 125.972 102.067C126.141 102.451 126.905 102.512 126.887 102.931L125.877 104.284ZM96.913 102.994C96.8117 102.73 96.588 102.483 96.6091 102.2C96.657 101.552 97.1143 100.966 97.1124 100.317C97.1106 99.8735 96.6421 99.5309 96.598 99.0896C96.4954 98.0556 96.3668 96.9633 96.6812 95.9727C96.8726 95.3682 97.4001 94.7687 98.0159 94.616C98.4354 94.5117 98.6727 95.1914 99.0605 95.3813C99.345 95.5203 99.6737 95.6097 99.9894 95.5811C100.428 95.5414 100.811 95.1491 101.25 95.1833C101.457 95.1994 101.412 95.5948 101.588 95.7059C102.668 96.3923 103.968 96.7337 104.962 97.5399C105.167 97.7056 105.032 98.1798 104.806 98.3138C102.94 99.4186 100.798 100.004 98.9343 101.109L96.913 102.994ZM158.441 102.392C158.162 102.327 157.612 102.483 157.604 102.197C157.598 101.914 158.154 101.927 158.43 101.991L158.441 102.392ZM105.624 101.151C105.345 101.086 104.795 101.241 104.788 100.956C104.781 100.673 105.337 100.685 105.613 100.75L105.624 101.151ZM51.8198 100.966C51.9963 100.755 52.2411 100.586 52.3486 100.333C52.3834 100.251 52.2647 100.13 52.1759 100.129C51.8876 100.124 51.4843 100.071 51.3314 100.315C51.1798 100.556 51.3675 100.915 51.5384 101.142L51.8198 100.966ZM134.82 100.513C134.745 100.242 134.601 99.9809 134.597 99.7003C134.596 99.6097 134.755 99.449 134.803 99.5253C134.955 99.7655 135.005 100.068 135.009 100.352L134.82 100.513ZM55.284 100.513C55.2094 100.242 55.0659 99.9809 55.0609 99.7003C55.0597 99.6097 55.2194 99.449 55.2672 99.5253C55.4195 99.7655 55.4692 100.068 55.4735 100.352L55.284 100.513ZM114.936 99.8927C114.861 99.6215 114.718 99.3602 114.713 99.0797C114.712 98.9891 114.871 98.8283 114.919 98.9047C115.071 99.1449 115.121 99.4477 115.125 99.7314L114.936 99.8927ZM191.374 95.565C191.095 95.4998 190.545 95.6562 190.537 95.3701C190.531 95.0871 191.087 95.0995 191.363 95.164L191.374 95.565ZM40.9924 92.445C40.9178 92.1738 40.7743 91.9125 40.7693 91.6319C40.7681 91.5413 40.9278 91.3806 40.9756 91.4569C41.1279 91.6971 41.1776 92 41.1819 92.2836L40.9924 92.445ZM65.2347 80.0488C64.9557 79.9837 64.4058 80.1401 64.3983 79.854C64.3915 79.5709 64.9482 79.5834 65.2241 79.6479L65.2347 80.0488ZM69.2283 68.6972C69.47 68.5737 69.767 68.5228 69.954 68.3261C70.3728 67.8854 70.7283 67.3753 71.0011 66.8316C71.0433 66.7484 70.8811 66.5839 70.8028 66.6342C70.0528 67.1115 69.2805 67.6068 68.7113 68.2889C68.5789 68.4484 68.7759 68.7394 68.9393 68.8685L69.2283 68.6972ZM68.925 66.9985C69.6322 66.4486 70.3934 65.9614 71.0464 65.3482C71.1415 65.2589 71.1471 65.0795 71.0955 64.9597C70.9022 64.511 70.4021 64.1882 70.3393 63.7041C70.2952 63.3659 70.7239 63.1263 70.814 62.7974C70.9569 62.2773 71.1347 61.7224 71.0278 61.1943C70.6581 59.3615 70.2256 57.5058 69.4072 55.8244C68.8182 54.6148 67.8302 53.6304 66.8807 52.6771C66.4197 52.2147 65.7287 52.0447 65.2266 51.627C64.4859 51.0113 63.9416 50.1753 63.173 49.5938C62.1458 48.8167 61.0367 48.1371 59.876 47.5785C58.6102 46.9697 57.2966 46.4173 55.9265 46.1088C55.1007 45.9233 54.2258 46.0083 53.3869 46.1182C53.1465 46.1498 53.0247 46.5228 52.7817 46.5228C52.5394 46.5234 52.412 46.1808 52.1778 46.1194C51.8397 46.0319 51.4551 45.9661 51.1295 46.0933C50.6858 46.2671 50.4659 46.8623 50.0023 46.9709C49.476 47.0938 48.9137 46.5712 48.3986 46.7332C46.7227 47.2608 45.1742 48.139 43.6308 48.9768C42.4446 49.6205 40.6954 49.9041 40.2275 51.169C39.9323 51.9659 41.3864 52.7988 42.2358 52.7442C43.6817 52.6511 44.7877 51.3651 46.1169 50.7897C47.615 50.1412 49.2405 49.7973 50.7063 49.0792C51.1245 48.8744 51.2494 48.2693 51.6695 48.0682C51.8453 47.9844 51.9671 48.3941 52.1616 48.3841C52.4021 48.3723 52.5406 48.013 52.7817 48.0136C53.0234 48.0136 53.162 48.3885 53.4031 48.3847C53.6535 48.3816 53.802 47.9354 54.0456 47.995C55.4766 48.3444 56.8493 48.9247 58.1821 49.5516C58.9191 49.8985 59.4889 50.5415 60.2202 50.8996C60.5334 51.0523 60.9721 50.8493 61.2536 51.0548C61.7146 51.3899 61.8507 52.0546 62.2962 52.4103C62.82 52.8286 63.5986 52.8646 64.0901 53.3201C64.2268 53.4474 63.6856 53.6286 63.7819 53.7887C64.1914 54.4702 64.8097 55.0132 65.4168 55.5278C65.876 55.9163 66.5371 56.041 66.954 56.4749C67.3896 56.9292 67.7463 57.5002 67.8954 58.1115C67.9544 58.3536 67.4636 58.5056 67.5089 58.7508C67.5711 59.0865 68.0004 59.2398 68.1607 59.5415C68.5497 60.2757 69.0294 61.0093 69.1419 61.8323C69.2034 62.2804 68.6492 62.6428 68.646 63.0947C68.6423 63.5378 69.1046 63.8928 69.1233 64.336C69.1338 64.5768 68.7243 64.6984 68.7243 64.9399C68.7243 65.3799 69.117 65.7579 69.1233 66.1979C69.127 66.4406 68.8088 66.5877 68.7504 66.8229L68.925 66.9985ZM26.7095 65.774C26.4305 65.7088 25.8806 65.8646 25.8731 65.5791C25.8663 65.2961 26.423 65.3085 26.6989 65.3731L26.7095 65.774ZM28.5587 63.2753C28.2859 63.0078 27.6397 62.8414 27.741 62.474C27.9199 61.8242 28.4984 61.0397 29.1726 61.0459C29.6598 61.0509 29.5168 62.021 29.3876 62.4902L28.5587 63.2753ZM59.6336 49.6204C59.5591 49.3492 59.4155 49.0879 59.4106 48.8074C59.4093 48.7168 59.569 48.556 59.6168 48.6324C59.7691 48.8726 59.8188 49.1754 59.8231 49.4591L59.6336 49.6204ZM47.2061 49.6204C47.1316 49.3492 46.988 49.0879 46.9831 48.8074C46.9818 48.7168 47.1415 48.556 47.1894 48.6324C47.3416 48.8726 47.3913 49.1754 47.3957 49.4591" fill="black"/>
</svg>
