<svg width="200" height="200" viewBox="0 0 200 200" fill="none" xmlns="http://www.w3.org/2000/svg">
<path d="M0 90V200L200 90L87 98L0 90Z" fill="#E9E9E9"/>
<path d="M38.4352 170.056C38.7102 169.898 38.9473 169.634 39.2601 169.583C39.4002 169.56 39.4446 169.814 39.575 169.869C39.8003 169.966 40.049 170.029 40.294 170.026C40.6756 170.021 41.0455 169.801 41.4243 169.846C41.687 169.878 41.847 170.241 42.1116 170.243C42.6282 170.246 43.0973 169.885 43.6133 169.861C43.765 169.853 43.8109 170.175 43.9612 170.154C45.9851 169.88 47.9812 169.424 49.9782 168.996C50.4419 168.897 50.8901 168.736 51.3365 168.576C52.7984 168.054 54.2626 167.535 55.7014 166.952C56.5068 166.625 57.3255 166.305 58.0642 165.847C58.4637 165.599 58.657 165.082 59.0711 164.858C59.195 164.791 59.2813 165.206 59.3983 165.127C60.7362 164.223 61.8352 162.996 63.1707 162.089C63.9863 161.535 64.9665 161.265 65.817 160.765C66.3775 160.437 66.8739 160.008 67.3893 159.613C67.5122 159.519 67.683 159.445 67.7306 159.298C67.7655 159.19 67.5108 159.068 67.5914 158.988C67.9295 158.656 68.4652 158.576 68.8029 158.244C69.5444 157.513 70.0913 156.607 70.7914 155.836C71.2678 155.312 71.8741 154.913 72.3261 154.368C73.4647 152.993 74.5612 151.579 75.5505 150.094C76.3911 148.832 77.1349 147.504 77.8045 146.144C77.8574 146.036 77.5924 145.919 77.6557 145.818C77.7978 145.591 78.1975 145.591 78.3053 145.346C78.3943 145.143 78.066 144.907 78.1467 144.7C78.4741 143.863 79.13 143.184 79.4754 142.354C79.5337 142.214 79.2526 142.081 79.2972 141.936C79.5159 141.226 79.9678 140.606 80.2281 139.91C80.3166 139.674 80.3531 139.412 80.3353 139.16C80.3249 139.014 80.0901 138.899 80.1472 138.764C80.3061 138.389 80.8006 138.201 80.9079 137.808C81.0403 137.324 80.7918 136.807 80.8203 136.306C80.8547 135.702 80.9362 135.096 81.0958 134.513C81.166 134.257 81.4922 134.091 81.4999 133.825C81.5176 133.196 81.1505 132.596 81.1682 131.967C81.176 131.701 81.4975 131.534 81.5724 131.278C81.675 130.927 81.7047 130.552 81.6882 130.186C81.682 130.044 81.487 129.942 81.5071 129.802C81.5277 129.656 81.799 129.61 81.7918 129.463C81.6476 126.517 81.3832 123.576 81.0587 120.645C81.0371 120.451 80.7633 120.339 80.7591 120.145C80.7562 119.998 81.0472 119.953 81.041 119.807C80.9923 118.676 80.7925 117.555 80.6008 116.439C80.3681 115.084 80.0728 113.74 79.7685 112.399C79.6804 112.011 79.5945 111.616 79.4246 111.258C79.3085 111.012 79.0005 110.874 78.9238 110.613C78.8915 110.504 79.1137 110.472 79.1634 110.369C79.2197 110.251 79.2497 110.11 79.2269 109.981C79.0755 109.125 78.8886 108.272 78.6455 107.436C78.3957 106.577 77.9968 105.766 77.7504 104.906C77.4569 103.881 77.3307 102.813 77.0291 101.79C76.764 100.891 76.2995 100.057 76.0539 99.1527C74.9399 95.0441 74.0582 90.8753 72.9549 86.7639C72.8342 86.3143 72.4848 85.9431 72.3874 85.4879C72.3623 85.3718 72.6383 85.3388 72.6238 85.2206C72.5933 84.9701 72.3405 84.7925 72.2721 84.5494C72.2393 84.4336 72.3617 84.3111 72.3342 84.1939C72.3044 84.0679 72.1438 84 72.1132 83.8743C71.4307 81.0688 70.8951 78.2294 70.2015 75.4271C69.9829 74.5432 69.5822 73.7097 69.3774 72.8224C69.1797 71.9659 69.1855 71.0722 68.9984 70.2132C68.7785 69.2043 68.3259 68.2503 68.1593 67.2315C68.1345 67.0817 68.4729 67.0343 68.4533 66.8837C68.3532 66.1032 67.9243 65.3892 67.8227 64.6089C67.804 64.4651 68.0501 64.4159 68.1152 64.2862C68.1745 64.1685 68.1987 64.0271 68.1805 63.8966C68.0437 62.8992 67.8782 61.9044 67.6538 60.9231C67.5319 60.3915 67.2252 59.9073 67.1438 59.3679C67.1262 59.2511 67.4105 59.2165 67.3796 59.1024C67.3098 58.8441 66.9106 58.7274 66.898 58.4601C66.8824 58.12 67.2968 57.8638 67.3062 57.5234C67.3226 56.9228 67.1584 56.3235 66.9728 55.7522C66.7735 55.1374 66.6885 54.364 66.1595 53.9921C65.8613 53.7827 65.4836 54.2827 65.1925 54.5013C64.9084 54.7144 64.5108 54.9203 64.4562 55.2707C64.4074 55.582 64.9397 55.7639 64.9454 56.079C64.9525 56.4582 64.5502 56.7471 64.4904 57.1217C64.4496 57.3776 64.6977 57.625 64.6579 57.8811C64.6181 58.1383 64.3479 58.3102 64.2683 58.5581C64.1934 58.7917 64.178 59.0474 64.2059 59.291C64.223 59.4382 64.4405 59.5499 64.3982 59.6918C64.1848 60.4053 63.6913 61.0138 63.478 61.7272C63.4357 61.8691 63.6531 61.9808 63.6699 62.128C63.6982 62.3712 63.6849 62.6273 63.6084 62.8599C63.3 63.7995 62.7927 64.6698 62.5229 65.6211C62.4828 65.763 62.687 65.8752 62.7121 66.0204C62.735 66.1508 62.7025 66.2884 62.6616 66.414C62.1012 68.1409 61.309 69.7998 60.9109 71.5709C60.857 71.811 61.3556 71.9 61.3737 72.1454C61.3865 72.3158 61.0693 72.3272 60.9778 72.4712C60.6552 72.9795 60.3308 73.5015 60.1481 74.0749C60.1033 74.2158 60.3226 74.3281 60.3394 74.4749C60.3673 74.7181 60.3625 74.9769 60.2779 75.2068C59.8037 76.4929 59.1138 77.6952 58.6739 78.9934C58.6269 79.1321 58.8356 79.2461 58.8601 79.39C58.8824 79.5204 58.8628 79.6624 58.8086 79.7828C58.5512 80.3552 58.1321 80.8549 57.9343 81.4506C57.888 81.5898 58.0973 81.7042 58.1222 81.8486C58.1448 81.979 58.1227 82.1203 58.071 82.2418C56.8492 85.1109 55.4797 87.9174 54.307 90.8068C54.1666 91.1531 54.1406 91.5424 54.1456 91.9161C54.1477 92.0578 54.3542 92.1619 54.327 92.301C54.2768 92.5563 53.9994 92.7249 53.9371 92.9776C53.7908 93.5704 53.5483 94.2068 53.7115 94.7953C53.7762 95.0289 54.0998 94.4657 54.3391 94.4276C54.4524 94.4095 54.4858 94.6777 54.5981 94.6538C54.8151 94.6076 55.0409 94.4599 55.1337 94.258C55.1948 94.1259 54.9092 93.9889 54.9661 93.855C55.1255 93.4796 55.5593 93.2645 55.7164 92.888C55.774 92.7495 55.484 92.6119 55.5416 92.4733C55.6987 92.0968 56.1321 91.8817 56.2919 91.5063C56.3488 91.3725 56.1011 91.247 56.1243 91.1033C56.1467 90.9639 56.3454 90.9156 56.4075 90.7888C56.4637 90.6743 56.4844 90.5364 56.4645 90.4105C56.4426 90.271 56.2476 90.1612 56.2871 90.0254C56.3213 89.9084 56.549 89.9742 56.6211 89.8757C57.1195 89.1916 57.6163 88.4929 57.9664 87.7223C58.0269 87.5893 57.8044 87.4695 57.7798 87.3252C57.7572 87.1952 57.7707 87.05 57.8313 86.9328C58.2426 86.1365 58.7975 85.418 59.1825 84.6089C59.2906 84.3814 59.3091 84.1125 59.2914 83.8617C59.2813 83.7148 59.0515 83.6016 59.1014 83.463C59.4845 82.4029 60.1584 81.463 60.5412 80.4028C60.5934 80.2583 60.3059 80.124 60.3589 79.9796C60.7453 78.9222 61.4204 77.9861 61.8102 76.9303C61.9816 76.4664 62.0172 75.9574 62.0266 75.4633C62.0296 75.3216 61.8184 75.2171 61.8464 75.0782C61.8671 74.9748 62.0952 75.04 62.1314 74.9412C63.0748 72.3477 64.0032 69.7438 64.7532 67.0881C64.8257 66.8314 64.5645 66.5762 64.5683 66.3099C64.5736 65.9436 64.6561 65.5768 64.7793 65.2319C64.8274 65.0982 65.0439 65.0578 65.0661 64.9176C65.0896 64.7721 64.8452 64.649 64.8946 64.5107C65.0864 63.9742 65.1764 63.0924 65.7422 63.0275C66.2139 62.973 66.1972 63.8828 66.2619 64.3528C66.2816 64.4972 66.0333 64.546 65.9685 64.6765C65.9116 64.7905 65.858 64.9392 65.9123 65.0542C66.061 65.3707 66.4664 65.5518 66.542 65.8932C66.5834 66.0811 66.1875 66.1665 66.2001 66.3582C66.2158 66.605 66.5576 66.7347 66.6112 66.9763C66.665 67.2186 66.5894 67.4811 66.5005 67.7129C66.448 67.8493 66.169 67.8942 66.2038 68.0364C66.4408 69.0075 67.0047 69.8762 67.2643 70.8415C67.5016 71.7252 67.4925 72.66 67.6868 73.5541C68.2498 76.1437 68.8334 78.7305 69.5337 81.286C69.729 81.9979 70.2014 82.6182 70.3689 83.3369C70.4011 83.4743 70.1477 83.525 70.0857 83.6518C70.0295 83.7663 69.9919 83.9082 70.0289 84.0306C70.087 84.2229 70.2969 84.3459 70.3537 84.5387C70.5909 85.3409 70.674 86.1828 70.9027 86.9874C71.3999 88.737 72.037 90.4453 72.5292 92.1963C72.829 93.2621 72.9742 94.3676 73.2771 95.4327C73.4483 96.0341 73.7769 96.5829 73.9477 97.1842C74.5032 99.1386 74.9099 101.133 75.4528 103.091C75.5416 103.411 75.7588 103.687 75.8407 104.009C75.9943 104.613 75.9983 105.249 76.1549 105.852C76.7012 107.953 77.4488 110 77.9478 112.113C78.5381 114.611 79.0012 117.14 79.42 119.673C79.6752 121.217 79.714 122.792 79.9681 124.336C80.0002 124.53 80.2663 124.646 80.2708 124.843C80.2742 124.983 80.0504 125.03 79.9881 125.156C79.9291 125.275 79.9089 125.416 79.9211 125.547C79.9879 126.285 80.2395 127.009 80.2236 127.75C80.2181 128.018 79.8553 128.198 79.8589 128.466C79.8766 129.716 80.4356 130.95 80.286 132.191C80.0102 134.483 79.0569 136.646 78.6021 138.91C78.5498 139.169 78.8596 139.431 78.7804 139.683C78.4076 140.87 77.6916 141.926 77.2852 143.101C77.2371 143.24 77.5035 143.369 77.4567 143.508C77.3948 143.695 77.1119 143.73 77.019 143.902C76.3099 145.224 75.7776 146.636 75.0703 147.958C74.8402 148.388 74.5397 148.781 74.2152 149.145C74.0371 149.345 73.7313 149.415 73.5767 149.634C73.0936 150.317 72.8016 151.121 72.3301 151.812C71.7834 152.613 71.1713 153.369 70.5306 154.097C69.6714 155.072 68.7911 156.034 67.8357 156.915C66.7497 157.917 65.6234 158.883 64.4163 159.735C63.7925 160.175 63.0234 160.37 62.3723 160.769C61.7437 161.155 61.1604 161.614 60.5904 162.082C60.473 162.179 60.4468 162.362 60.3241 162.452C59.4338 163.105 58.5376 163.759 57.5723 164.296C56.4334 164.929 55.241 165.467 54.031 165.951C53.3638 166.218 52.6197 166.262 51.9572 166.542C51.44 166.76 51.0504 167.229 50.526 167.429C50.4138 167.472 50.3777 167.185 50.2576 167.189C49.6324 167.212 49.0173 167.368 48.4073 167.507C47.5344 167.706 46.6651 167.927 45.8135 168.202C45.6232 168.263 45.4984 168.504 45.2985 168.509C45.151 168.514 45.1071 168.227 44.9595 168.225C44.0995 168.212 43.2498 168.437 42.3901 168.464C41.9343 168.478 41.4803 168.296 41.0277 168.348C40.8184 168.373 40.702 168.687 40.4914 168.683C40.2921 168.679 40.2009 168.385 40.0095 168.33C39.8244 168.277 39.6189 168.426 39.4325 168.376C39.2962 168.34 39.2577 168.113 39.1179 168.093C38.9774 168.073 38.8745 168.272 38.7329 168.274C38.3589 168.279 37.9782 168.23 37.623 168.113C36.8055 167.845 36.0652 167.365 35.2382 167.128C35.0911 167.086 34.9552 167.373 34.8165 167.309C32.9884 166.46 31.1569 165.583 29.4851 164.458C28.7673 163.974 28.3748 163.123 27.7342 162.542C27.3969 162.236 26.9011 162.136 26.5765 161.816C26.1162 161.364 25.8335 160.759 25.4184 160.265C25.3203 160.149 25.1383 160.121 25.0476 159.999C24.7461 159.592 24.5896 159.083 24.2584 158.7C23.8961 158.28 23.3551 158.04 22.9931 157.619C22.9378 157.555 23.2166 157.509 23.1708 157.437C22.8234 156.893 22.2689 156.501 21.9281 155.953C21.6183 155.455 21.5167 154.85 21.2403 154.333C20.9678 153.823 20.6412 153.342 20.2878 152.884C20.1925 152.761 20.0011 152.737 19.9091 152.612C19.7644 152.414 19.6797 152.177 19.6 151.946C19.439 151.481 19.3763 150.984 19.1896 150.529C19.1028 150.318 18.8812 150.183 18.7901 149.974C18.2519 148.739 17.7385 147.492 17.3094 146.216C17.2428 146.017 17.3905 145.783 17.3154 145.587C17.2186 145.335 16.8992 145.203 16.8222 144.944C16.7899 144.834 17.0849 144.795 17.0479 144.687C16.5459 143.22 15.743 141.866 15.2638 140.391C15.219 140.253 15.5481 140.201 15.5429 140.055C15.536 139.855 15.2811 139.734 15.2341 139.539C14.8604 137.979 14.6606 136.381 14.2876 134.82C14.2419 134.629 13.9898 134.511 13.9852 134.315C13.9812 134.168 14.2692 134.124 14.2664 133.977C14.2401 132.617 13.9254 131.272 13.9002 129.912C13.8975 129.764 14.1705 129.719 14.1853 129.572C14.2118 129.313 13.9921 129.07 14.0122 128.811C14.0777 127.96 14.0699 127.056 14.4379 126.287C15.1108 124.878 16.1073 123.642 17.0694 122.413C17.6197 121.71 18.2684 121.081 18.9574 120.514C19.6921 119.908 20.6297 119.565 21.3209 118.909C21.5009 118.739 21.5489 118.389 21.4268 118.173C21.3451 118.028 21.0895 118.262 20.9292 118.216C20.789 118.177 20.7389 117.929 20.5933 117.938C20.2521 117.957 19.9304 118.128 19.6303 118.291C18.7585 118.766 17.8605 119.219 17.0901 119.845C16.4176 120.391 15.8832 121.092 15.3446 121.771C15.0422 122.152 14.7428 122.554 14.5766 123.011C14.5265 123.149 14.7871 123.276 14.7457 123.417C14.7116 123.533 14.4922 123.473 14.414 123.566C13.9379 124.129 13.5117 124.735 13.1097 125.352C13.0394 125.461 13.0285 125.599 13.0079 125.726C12.8143 126.919 12.5695 128.108 12.4676 129.312C12.4457 129.572 12.6636 129.814 12.6406 130.074C12.6283 130.214 12.3928 130.261 12.3718 130.4C12.3504 130.54 12.5463 130.651 12.5322 130.791C12.5205 130.905 12.2907 130.936 12.3059 131.049C12.3395 131.299 12.631 131.468 12.6574 131.719C12.6781 131.915 12.4241 132.071 12.434 132.268C12.4655 132.895 12.7641 133.491 12.7778 134.119C12.7809 134.271 12.4627 134.316 12.4821 134.468C12.6921 136.09 13.0204 137.701 13.4462 139.281C13.8005 140.595 14.2932 141.87 14.8167 143.125C14.9214 143.377 15.2415 143.509 15.3178 143.77C15.351 143.884 15.0644 143.919 15.0821 144.035C15.1546 144.516 15.3334 144.984 15.5661 145.412C15.7172 145.688 16.1213 145.802 16.2101 146.105C16.2562 146.262 15.8642 146.302 15.8752 146.465C15.9058 146.92 16.1215 147.348 16.322 147.757C16.4416 148.002 16.7433 148.142 16.8231 148.402C16.8562 148.511 16.6328 148.551 16.5974 148.659C16.5764 148.723 16.646 148.785 16.6786 148.844C17.0882 149.586 17.6202 150.269 17.9237 151.06C17.9743 151.192 17.6214 151.25 17.6547 151.387C17.782 151.912 18.0779 152.385 18.3579 152.847C18.6737 153.369 19.1402 153.792 19.4343 154.326C19.6439 154.707 19.6257 155.19 19.8526 155.562C20.6421 156.853 21.5332 158.082 22.4614 159.278C22.7782 159.686 23.2509 159.953 23.5748 160.356C23.8287 160.671 23.9083 161.108 24.1764 161.412C25.2507 162.632 26.3332 163.861 27.5804 164.904C28.6671 165.813 29.8824 166.573 31.1363 167.232C32.6928 168.05 34.3276 168.722 35.9811 169.321C36.1253 169.373 36.2568 169.095 36.4036 169.139L38.4352 170.056ZM35.4 168.493C35.2444 168.431 34.913 168.474 34.9336 168.308C34.9543 168.144 35.275 168.199 35.4289 168.26L35.4 168.493ZM141.788 153.414C142.815 153.181 143.86 153.016 144.87 152.715C145.366 152.568 145.779 152.183 146.286 152.075C146.424 152.045 146.472 152.345 146.614 152.344C146.735 152.343 146.744 152.124 146.853 152.071C147.675 151.672 148.583 151.453 149.377 151.001C149.544 150.907 149.605 150.676 149.636 150.487C149.665 150.301 149.622 150.103 149.549 149.93C149.487 149.785 149.38 149.651 149.245 149.568C149.133 149.499 148.983 149.469 148.856 149.503C147.151 149.953 145.489 150.554 143.785 151.01C142.947 151.235 142.102 151.469 141.237 151.545C141.09 151.558 141.016 151.177 140.898 151.263C140.739 151.38 141.016 151.88 140.821 151.849C139.255 151.608 137.815 150.787 136.248 150.548C135.935 150.5 135.739 150.979 135.426 151.025C135.305 151.043 135.374 150.763 135.275 150.692C134.621 150.216 133.869 149.886 133.211 149.416C132.824 149.139 132.543 148.728 132.151 148.458C131.981 148.341 131.721 148.405 131.559 148.276C131.347 148.108 131.314 147.765 131.089 147.616C130.994 147.552 130.87 147.821 130.777 147.755C130.156 147.318 129.601 146.784 129.099 146.214C129.046 146.153 129.325 146.103 129.271 146.044C129.006 145.756 128.565 145.662 128.316 145.361C128.093 145.093 128.115 144.68 127.908 144.4C127.696 144.114 127.337 143.969 127.095 143.708C126.827 143.42 126.601 143.095 126.389 142.764C125.928 142.043 125.585 141.246 125.077 140.557C124.784 140.159 124.27 139.947 124.008 139.527C123.69 139.018 123.636 138.382 123.381 137.838C123.265 137.589 123.028 137.413 122.904 137.169C122.315 136.007 121.746 134.833 121.248 133.629C121.074 133.208 121.095 132.718 120.895 132.308C120.578 131.658 120.014 131.144 119.715 130.484C119.667 130.376 119.978 130.334 119.951 130.219C119.815 129.644 119.566 129.094 119.267 128.584C119.227 128.516 119.094 128.768 119.059 128.697C118.863 128.293 118.88 127.808 118.69 127.401C118.659 127.336 118.53 127.578 118.505 127.511C118.328 127.039 118.383 126.493 118.176 126.033C118.052 125.758 117.668 125.659 117.548 125.384C117.502 125.279 117.737 125.243 117.786 125.141C117.841 125.025 117.902 124.876 117.843 124.763C117.543 124.184 117.001 123.742 116.75 123.14C116.694 123.006 117.06 122.946 117.03 122.804C116.576 120.701 115.751 118.688 115.336 116.577C114.734 113.516 114.325 110.417 113.983 107.317C113.967 107.166 114.289 107.121 114.277 106.969C114.16 105.464 113.724 103.995 113.608 102.489C113.596 102.336 113.905 102.293 113.907 102.139C113.92 101.247 113.782 100.357 113.653 99.4739C113.619 99.2374 113.421 99.0351 113.42 98.7959C113.418 98.3026 113.506 97.806 113.644 97.3323C113.685 97.192 113.95 97.1549 113.94 97.0094C113.87 95.9993 113.483 95.0276 113.415 94.0178C113.405 93.8642 113.721 93.8208 113.715 93.6669C113.649 91.8085 113.277 89.9698 113.205 88.1117C113.199 87.9647 113.464 87.9187 113.488 87.7737C113.511 87.6348 113.303 87.5212 113.327 87.3824C113.351 87.2435 113.548 87.1947 113.61 87.0678C113.667 86.9533 113.711 86.8091 113.667 86.6891C113.561 86.3974 113.139 86.1995 113.185 85.8925C113.231 85.5807 113.834 85.5626 113.879 85.2504C113.954 84.7396 113.521 84.2652 113.497 83.7493C113.489 83.5977 113.798 83.5532 113.791 83.4016C113.766 82.8858 113.433 82.4163 113.408 81.9005C113.401 81.7544 113.638 81.7067 113.704 81.576C113.763 81.4584 113.786 81.3169 113.77 81.1859C113.693 80.5631 113.444 79.962 113.426 79.3346C113.422 79.1879 113.685 79.1416 113.709 78.9966C113.733 78.8577 113.52 78.7434 113.549 78.6053C113.602 78.3519 113.913 78.1885 113.933 77.93C114.062 76.2234 113.905 74.5052 113.989 72.7953C114.012 72.3092 114.103 71.8225 114.254 71.36C114.298 71.2249 114.538 71.1986 114.555 71.0576C114.615 70.5633 114.434 70.0632 114.471 69.5666C114.534 68.7222 114.661 67.8802 114.854 67.0558C114.908 66.8285 115.203 66.6813 115.202 66.4477C115.201 66.1957 114.856 66.0307 114.85 65.7787C114.843 65.4678 115.14 65.2108 115.168 64.9008C115.191 64.6414 114.969 64.3979 114.995 64.139C115.009 63.9987 115.216 63.9514 115.278 63.8245C115.335 63.71 115.355 63.5722 115.335 63.4462C115.314 63.3067 115.139 63.2019 115.158 63.0622C115.175 62.9224 115.409 62.8754 115.426 62.7356C115.445 62.5959 115.27 62.4911 115.249 62.3516C115.229 62.2256 115.249 62.0878 115.306 61.9733C115.368 61.8464 115.565 61.7976 115.589 61.6587C115.613 61.52 115.407 61.4067 115.428 61.2674C115.449 61.1278 115.676 61.0805 115.697 60.9408C115.718 60.8012 115.512 60.6883 115.536 60.5495C115.56 60.4107 115.758 60.3618 115.82 60.235C115.876 60.1205 115.9 59.9821 115.877 59.8567C115.85 59.7169 115.686 59.621 115.678 59.4792C115.658 59.1141 115.699 58.7414 115.794 58.3882C116.199 56.8777 116.664 55.3825 117.175 53.9044C117.308 53.5209 117.497 53.1552 117.719 52.8153C117.808 52.6796 118.023 52.6481 118.09 52.5004C118.194 52.2748 118.217 52.0119 118.202 51.7639C118.193 51.6224 117.958 51.5062 118.021 51.3791C118.158 51.1013 118.562 51.0238 118.703 50.748C118.767 50.6222 118.496 50.4896 118.542 50.3559C118.605 50.1738 118.888 50.1426 118.973 49.9693C119.881 48.1061 120.587 46.1486 121.501 44.2886C121.589 44.1112 121.899 44.0951 121.954 43.9056C122.026 43.6583 121.765 43.3907 121.833 43.1426C121.885 42.9529 122.183 42.9232 122.272 42.7479C122.991 41.3298 123.544 39.8323 124.238 38.4021C124.36 38.1507 124.643 37.9832 124.716 37.7138C124.756 37.5682 124.477 37.4345 124.54 37.2974C124.866 36.5815 125.483 36.0236 125.813 35.3094C125.874 35.1772 125.598 35.0438 125.646 34.9064C125.711 34.7176 125.972 34.6655 126.092 34.5058C126.382 34.1183 126.719 33.738 126.868 33.277C126.949 33.0282 126.675 32.7549 126.743 32.5019C126.794 32.3124 127.088 32.2812 127.181 32.1083C128.06 30.465 128.986 28.8325 129.641 27.0876C129.943 26.2815 130.042 25.394 130.023 24.5333C130.015 24.1418 129.799 23.7659 129.563 23.4529C129.339 23.1552 129.056 22.8098 128.687 22.7574C128.202 22.6888 127.724 22.9567 127.265 23.1281C127.094 23.1919 126.944 23.3151 126.825 23.4532C126.194 24.1889 125.56 24.9277 125.027 25.7373C124.043 27.2319 123.098 28.7584 122.284 30.352C122.216 30.4852 122.527 30.6326 122.459 30.7659C122.15 31.3703 121.548 31.7925 121.241 32.3974C121.173 32.5318 121.47 32.6724 121.418 32.8139C120.942 34.0998 120.228 35.2859 119.704 36.5528C119.136 37.9286 118.57 39.3111 118.143 40.7372C118.099 40.884 118.373 41.0141 118.325 41.1596C118.126 41.7553 117.668 42.2391 117.448 42.8271C117.318 43.1768 117.287 43.562 117.287 43.9354C117.287 44.051 117.506 44.1427 117.448 44.243C117.326 44.4526 116.983 44.4622 116.86 44.6713C116.803 44.7705 117.001 44.8643 117.018 44.9781C117.036 45.1038 117.012 45.2389 116.961 45.3557C116.857 45.5923 116.604 45.7652 116.563 46.02C116.521 46.2759 116.823 46.5376 116.73 46.7795C116.619 47.0697 116.15 47.1106 116.034 47.3989C115.936 47.6433 116.227 47.9217 116.167 48.1785C115.834 49.6036 115.191 50.9459 114.87 52.374C114.812 52.6328 115.114 52.8916 115.05 53.1492C114.805 54.1366 114.374 55.0702 113.972 56.0045C113.488 57.1287 112.802 58.1656 112.393 59.319C112.305 59.566 112.586 59.8415 112.519 60.0954C112.47 60.2833 112.174 60.3121 112.086 60.4853C111.546 61.5465 111.196 62.6963 110.658 63.7577C110.58 63.9108 110.253 63.9141 110.26 64.0855C110.271 64.3257 110.638 64.4269 110.697 64.66C110.72 64.7517 110.477 64.6647 110.427 64.745C109.722 65.8902 108.973 67.0255 108.472 68.2735C108.33 68.6287 108.659 69.0505 108.554 69.4187C108.518 69.5447 108.275 69.1868 108.185 69.2824C107.817 69.6752 107.586 70.1833 107.374 70.6781C107.274 70.9102 107.248 71.1757 107.266 71.4277C107.276 71.5735 107.513 71.6903 107.454 71.8238C106.948 72.9708 106.292 74.0479 105.639 75.1176C105.536 75.2853 105.263 75.3256 105.2 75.5119C105.154 75.6517 105.426 75.7822 105.372 75.9195C105.005 76.8631 104.354 77.6795 103.989 78.6237C103.934 78.7642 104.221 78.8999 104.165 79.0398C103.54 80.5895 102.681 82.0353 101.998 83.5601C101.451 84.7792 100.893 85.9987 100.477 87.2679C100.431 87.4078 100.695 87.5354 100.649 87.6751C100.587 87.8618 100.311 87.9011 100.21 88.0699C99.7064 88.9135 99.1869 89.7629 98.8508 90.6866C98.7612 90.9323 99.0438 91.2087 98.9759 91.4617C98.9253 91.6515 98.6267 91.6811 98.5374 91.8563C97.6435 93.6178 96.9146 95.4587 96.046 97.2324C95.9244 97.481 95.6439 97.6462 95.5716 97.9132C95.532 98.0592 95.7987 98.1878 95.7489 98.3308C94.9182 100.715 93.9474 103.05 92.9712 105.379C92.6902 106.049 92.6872 107.489 91.9799 107.321C91.228 107.141 91.5968 105.813 91.5549 105.041C91.5469 104.895 91.8168 104.849 91.838 104.703C91.8583 104.563 91.682 104.459 91.6601 104.319C91.6401 104.193 91.6578 104.054 91.7171 103.941C91.7834 103.815 91.9685 103.772 92.0179 103.638C92.1453 103.295 92.2605 102.926 92.2291 102.562C92.1841 102.035 91.8354 101.563 91.7951 101.036C91.7839 100.891 92.0233 100.843 92.0885 100.713C92.1453 100.599 92.1685 100.46 92.1455 100.334C92.1199 100.195 91.976 100.097 91.9504 99.9576C91.9274 99.8323 91.9498 99.6932 92.0074 99.5793C92.0735 99.4475 92.3047 99.4001 92.3056 99.2527C92.311 98.5083 92.021 97.7811 92.0264 97.0366C92.0273 96.8896 92.2574 96.842 92.3241 96.7111C92.3845 96.5932 92.3947 96.4523 92.3919 96.3201C92.3699 95.2261 92.161 94.1315 92.2502 93.041C92.2907 92.5409 92.6981 92.1258 92.7751 91.63C92.8148 91.3739 92.5561 91.1334 92.5851 90.8756C92.6149 90.6143 92.9334 90.4336 92.9404 90.1707C92.9596 89.4266 92.6598 88.6993 92.6611 87.9547C92.6613 87.8071 92.9238 87.7619 92.945 87.616C92.9657 87.4763 92.7439 87.3713 92.7671 87.232C92.8088 86.9799 93.0807 86.8039 93.1217 86.5512C93.1626 86.2971 92.9614 86.0433 93.0009 85.7889C93.0224 85.6486 93.2317 85.6049 93.2873 85.4745C93.3841 85.249 93.4469 85.0008 93.4442 84.7559C93.4412 84.4955 93.2449 84.253 93.2714 83.9942C93.2856 83.8539 93.4926 83.8065 93.5547 83.6796C93.6108 83.5651 93.635 83.4267 93.6117 83.3013C93.5854 83.1615 93.4307 83.0648 93.4134 82.9238C93.3836 82.6803 93.4005 82.4244 93.4754 82.1909C93.5546 81.9429 93.8251 81.7711 93.865 81.5139C93.9047 81.2577 93.6498 81.0094 93.6975 80.7544C93.7667 80.3805 94.132 80.1033 94.1966 79.7283C94.261 79.3548 94.0235 78.9743 94.0689 78.5978C94.0861 78.4569 94.3109 78.425 94.3697 78.2955C94.471 78.0714 94.4951 77.8192 94.5318 77.5762C94.5684 77.3332 94.6105 77.0858 94.589 76.841C94.5665 76.5833 94.3656 76.3445 94.401 76.0881C94.436 75.8312 94.7356 75.6664 94.785 75.4117C94.8121 75.2733 94.629 75.1672 94.6071 75.0277C94.5872 74.9017 94.6131 74.7661 94.6641 74.6494C94.7678 74.4128 95.0237 74.2403 95.0625 73.9851C95.1024 73.7228 94.8035 73.4622 94.8835 73.2092C95.2584 72.0256 96.0205 70.9874 96.3878 69.8012C96.5023 69.4311 96.1779 69.0107 96.297 68.6421C96.6429 67.5709 97.3609 66.6497 97.7469 65.5926C97.7995 65.4485 97.5193 65.3164 97.5646 65.1697C98.2513 62.941 99.2169 60.8045 99.9078 58.5771C99.9515 58.4361 99.713 58.315 99.7357 58.1694C99.7571 58.0298 99.9568 57.9817 100.019 57.8549C100.075 57.7404 100.097 57.6023 100.076 57.4766C100.052 57.3315 99.8432 57.2176 99.8879 57.0774C100.074 56.4954 100.605 56.0453 100.726 55.4459C100.776 55.1965 100.381 55.0346 100.348 54.7823C100.305 54.4435 100.6 54.1006 100.51 53.7711C100.473 53.6348 100.244 53.9949 100.117 53.9314C99.8635 53.8044 99.8382 53.3167 99.5554 53.2925C99.253 53.2667 99.0195 53.5976 98.8126 53.8197C98.4953 54.1607 98.1786 54.5274 98.0051 54.9594C97.9481 55.101 98.2292 55.234 98.1855 55.3805C97.936 56.2144 97.3881 56.9424 97.1604 57.7826C97.0926 58.0326 97.3874 58.2889 97.3284 58.5414C97.2838 58.7325 96.9968 58.7701 96.8904 58.9354C96.566 59.4405 96.2206 59.953 96.0512 60.5288C95.9757 60.7858 96.2579 61.0622 96.1892 61.3209C95.6532 63.3319 94.8532 65.2642 94.2572 67.2585C94.187 67.4932 94.1674 67.7472 94.1954 67.9904C94.2124 68.1379 94.4282 68.2486 94.3883 68.3917C94.1556 69.2211 93.646 69.9557 93.4126 70.7851C93.3729 70.927 93.5767 71.0392 93.6018 71.1847C93.6244 71.3144 93.6144 71.4616 93.5493 71.5762C93.1637 72.2608 92.5997 72.8421 92.2662 73.5536C92.2045 73.6853 92.4539 73.812 92.4336 73.9562C92.4144 74.0957 92.1836 74.1432 92.1647 74.2828C92.1447 74.4277 92.3844 74.5505 92.3343 74.6879C92.0887 75.362 91.6097 75.9301 91.3239 76.5882C90.9152 77.5307 90.5076 78.4828 90.255 79.4785C90.1895 79.7378 90.4937 80.0222 90.3911 80.2689C89.7087 81.9083 88.6413 83.369 87.9547 85.0071C87.8533 85.2485 88.1139 85.5223 88.0799 85.7819C88.0618 85.9216 87.832 85.9692 87.811 86.1085C87.7896 86.248 88.0152 86.3665 87.9711 86.5008C87.9325 86.6183 87.7153 86.561 87.632 86.6527C87.4131 86.894 87.241 87.1779 87.0937 87.4681C86.7666 88.113 86.6047 88.843 86.2127 89.4506C86.0145 89.757 85.5583 89.8352 85.3661 90.1451C85.2919 90.2649 85.5214 90.3894 85.5437 90.5286C85.5646 90.6581 85.5644 90.8104 85.4901 90.9185C85.2309 91.2979 84.8116 91.5556 84.5731 91.9485C84.2129 92.5422 84.0577 93.2431 83.7137 93.8462C83.5773 94.0859 83.3678 94.2841 83.1472 94.4491C82.8798 94.6493 82.5083 94.6969 82.2674 94.9278C81.9537 95.2279 81.8727 95.7359 81.5279 95.9989C81.4171 96.0832 81.2519 95.6126 81.1998 95.7417C81.1025 95.9822 81.3554 96.2537 81.3207 96.511C81.3018 96.6509 81.0483 96.6976 81.0516 96.839C81.054 96.9326 81.2429 96.9145 81.3298 96.8791C81.5554 96.7879 81.7012 96.5254 81.9399 96.4787C82.103 96.4471 82.3424 96.5155 82.3987 96.6712C82.4472 96.8048 82.1815 96.8694 82.1289 97.0013C82.1105 97.0481 82.169 97.13 82.2189 97.1232C82.432 97.0929 82.6508 97.0278 82.8262 96.9026C83.4533 96.4552 84.0519 95.9635 84.6005 95.4236C85.1503 94.8823 85.7034 94.3246 86.1106 93.6698C86.2012 93.5245 85.9291 93.322 86.0037 93.168C86.4184 92.3105 87.06 91.5797 87.5247 90.7481C88.7289 88.5929 89.331 86.0239 91.0079 84.2116C91.5621 83.6122 91.3253 85.8236 91.3245 86.6403C91.324 87.2478 91.176 87.8518 91.0048 88.4346C90.9321 88.6825 90.6202 88.8396 90.6029 89.0976C90.4239 91.7707 90.577 94.4582 90.4224 97.1331C90.414 97.2813 90.174 97.3215 90.1201 97.4598C90.0281 97.6949 89.9798 97.9563 90.0018 98.2078C90.0562 98.8334 90.334 99.4318 90.3469 100.06C90.3502 100.213 90.056 100.257 90.0469 100.41C89.9761 101.625 90.1803 102.846 90.1132 104.061C90.1052 104.209 89.8522 104.255 89.8273 104.4C89.8038 104.539 90.0122 104.653 89.9883 104.792C89.9638 104.937 89.7097 104.983 89.7029 105.131C89.6528 106.227 89.8776 107.326 89.8228 108.423C89.815 108.577 89.5323 108.62 89.52 108.775C89.397 110.346 89.5434 111.93 89.4251 113.502C89.4139 113.649 89.1606 113.695 89.1388 113.841C89.1178 113.98 89.2948 114.086 89.3167 114.225C89.3367 114.351 89.3159 114.489 89.2597 114.603C89.1976 114.73 89.0004 114.779 88.9765 114.918C88.9523 115.057 89.1614 115.171 89.1371 115.309C89.1133 115.448 88.916 115.497 88.8539 115.624C88.7977 115.738 88.7736 115.877 88.7969 116.002C88.8229 116.142 88.9668 116.24 88.995 116.379C89.0334 116.567 88.8708 116.806 88.9906 116.956C89.2793 117.319 89.6863 117.594 90.1112 117.779C90.2276 117.83 90.368 117.693 90.4427 117.59C90.8229 117.065 91.1571 116.505 91.4531 115.928C91.9515 114.956 92.4822 113.988 92.8217 112.95C92.9048 112.696 92.6127 112.416 92.6847 112.158C92.918 111.32 93.4856 110.597 93.7097 109.756C93.778 109.501 93.4411 109.231 93.5315 108.983C94.6812 105.829 96.1968 102.819 97.383 99.679C97.4368 99.537 97.1453 99.3998 97.2045 99.2601C97.3635 98.8854 97.8246 98.6865 97.9653 98.3042C98.0554 98.0594 97.7717 97.7828 97.8413 97.5308C97.8948 97.3366 98.1723 97.2888 98.2906 97.1256C98.478 96.8668 98.6188 96.5756 98.7461 96.2823C99.2228 95.1857 99.5804 94.0373 100.101 92.9608C100.42 92.301 100.99 91.7732 101.256 91.0908C101.351 90.8474 101.036 90.5602 101.132 90.3174C101.247 90.0295 101.676 89.9636 101.814 89.6863C101.879 89.5562 101.591 89.4181 101.647 89.2837C101.912 88.6459 102.415 88.131 102.718 87.5107C103.247 86.4278 103.775 85.3348 104.137 84.1852C104.216 83.9353 103.943 83.6622 104.01 83.4088C104.061 83.2193 104.341 83.1796 104.448 83.0148C104.923 82.2842 105.407 81.5476 105.742 80.7435C105.8 80.6053 105.516 80.4701 105.568 80.3296C105.832 79.6173 106.334 79.0133 106.642 78.3186C107.197 77.0678 107.744 75.8076 108.156 74.5026C108.201 74.3582 107.92 74.2244 107.978 74.0845C108.134 73.7075 108.571 73.494 108.728 73.1175C108.786 72.9789 108.488 72.8379 108.554 72.7032C109.399 70.9645 110.545 69.3831 111.389 67.6443C111.455 67.5085 111.162 67.3697 111.213 67.2279C111.381 66.7583 111.859 66.4321 111.994 65.9524C112.043 65.7781 111.639 65.6658 111.7 65.4955C111.781 65.2705 112.175 65.3049 112.299 65.1003C112.681 64.4669 112.724 63.6508 113.168 63.0591C113.282 62.9078 113.483 63.3529 113.469 63.5416C113.449 63.8014 113.138 63.965 113.079 64.2185C112.859 65.1612 112.772 66.1298 112.641 67.0883C112.607 67.3318 112.557 67.5793 112.584 67.8234C112.599 67.9646 112.783 68.0674 112.765 68.2083C112.748 68.3482 112.514 68.3952 112.496 68.5349C112.478 68.6746 112.652 68.7794 112.674 68.9189C112.694 69.0449 112.673 69.1827 112.617 69.2973C112.555 69.4241 112.349 69.4716 112.334 69.6118C112.306 69.8697 112.543 70.1153 112.501 70.3712C112.459 70.6333 112.116 70.7948 112.102 71.0599C112.056 71.9201 112.345 72.7732 112.328 73.6344C112.325 73.7819 112.068 73.8279 112.044 73.9733C112.02 74.1121 112.225 74.225 112.204 74.3646C112.183 74.5042 111.956 74.5516 111.935 74.6912C111.914 74.8308 112.117 74.9429 112.096 75.0825C112.075 75.2221 111.848 75.2695 111.827 75.4091C111.806 75.5487 112.012 75.6616 111.988 75.8004C111.963 75.9461 111.707 75.992 111.702 76.1399C111.583 79.3052 111.743 82.4767 111.62 85.6417C111.614 85.7958 111.323 85.8392 111.319 85.9933C111.301 86.8528 111.589 87.7021 111.557 88.561C111.547 88.8275 111.187 89.0085 111.197 89.2747C111.213 89.6824 111.59 90.0139 111.629 90.4198C111.642 90.5646 111.401 90.6127 111.335 90.7423C111.276 90.8604 111.26 91.0012 111.269 91.1332C111.394 93.1047 111.683 95.0662 111.736 97.0408C111.74 97.1942 111.433 97.2375 111.438 97.391C111.476 98.6338 111.82 99.8545 111.859 101.098C111.864 101.249 111.552 101.294 111.566 101.445C111.604 101.851 111.96 102.184 111.998 102.59C112.011 102.736 111.753 102.777 111.701 102.913C111.61 103.148 111.563 103.409 111.585 103.659C111.607 103.913 111.8 104.13 111.831 104.383C112.165 107.111 112.244 109.87 112.675 112.584C113.211 115.963 113.818 119.342 114.729 122.64C115.402 125.076 116.431 127.403 117.414 129.732C117.858 130.786 118.506 131.742 119.003 132.772C119.354 133.5 119.728 134.226 119.956 135.002C119.988 135.11 119.685 135.153 119.732 135.257C119.855 135.534 120.226 135.641 120.363 135.912C120.586 136.35 120.587 136.874 120.779 137.327C120.935 137.694 121.232 137.989 121.398 138.352C121.668 138.941 121.776 139.6 122.082 140.171C122.122 140.246 122.26 139.986 122.31 140.055C123.352 141.483 124.159 143.077 125.229 144.484C126.159 145.708 127.246 146.804 128.295 147.927C128.588 148.241 128.909 148.533 129.252 148.792C129.64 149.083 130.052 149.346 130.482 149.571C130.665 149.667 130.929 149.602 131.077 149.747C131.388 150.051 131.451 150.561 131.782 150.844C131.889 150.935 132.039 150.64 132.174 150.684C132.291 150.722 132.233 150.938 132.325 151.02C132.591 151.258 132.901 151.447 133.218 151.614C133.863 151.952 134.489 152.38 135.202 152.529L141.788 153.414ZM82.6959 96.4582C82.5889 96.3423 82.4395 96.254 82.3746 96.1099C82.3347 96.0213 82.3124 95.8399 82.4077 95.8194C82.5724 95.784 82.8104 95.8474 82.8795 96.0009L82.6959 96.4582ZM82.8638 95.3914C82.7082 95.3294 82.3767 95.372 82.3974 95.2059C82.4181 95.0416 82.7384 95.0972 82.8926 95.1586L82.8638 95.3914ZM92.3212 86.1726C92.3284 86.0933 92.2637 85.9426 92.3427 85.935C92.5082 85.9188 92.8185 85.9608 92.8035 86.1263L92.3212 86.1726ZM91.2723 83.4324C91.2528 83.269 91.1923 83.1054 91.2143 82.9427C91.2215 82.8902 91.3278 82.8112 91.3488 82.8595C91.4158 83.0116 91.4181 83.1912 91.3959 83.3556L91.2723 83.4324ZM98.7795 55.5621C98.76 55.3988 98.6995 55.2351 98.7215 55.0725C98.7287 55.02 98.835 54.9409 98.8559 54.9892C98.923 55.1414 98.9253 55.3209 98.9031 55.4853L98.7795 55.5621ZM119.833 42.5798C119.813 42.4164 119.668 42.2151 119.775 42.0898C119.884 41.9609 120.132 41.9719 120.28 42.0536C120.365 42.1009 120.291 42.2667 120.228 42.3405L119.833 42.5798ZM120.679 41.175C120.743 40.5594 120.735 39.9319 120.871 39.3281C120.955 38.9574 121.258 38.658 121.332 38.2852C121.36 38.1466 121.095 38.0292 121.155 37.9009C121.248 37.6987 121.473 37.4712 121.693 37.5048C121.859 37.5306 121.806 37.8312 121.795 37.9991C121.77 38.3684 121.711 38.7412 121.588 39.0906L120.679 41.175ZM122.115 37.2009C121.983 36.9728 121.662 36.7743 121.717 36.5161C121.804 36.114 122.314 35.9203 122.473 35.5408C122.531 35.4027 122.259 35.2711 122.299 35.1265C122.372 34.86 122.649 34.6928 122.773 34.4458C123.608 32.7943 124.273 31.0572 125.171 29.4396C125.541 28.7736 125.955 28.086 126.563 27.6261C126.725 27.5036 126.964 27.9417 126.898 28.1325C126.602 28.9811 125.914 29.6481 125.568 30.4773C125.51 30.6165 125.812 30.759 125.745 30.8942C125.54 31.3042 125.063 31.5305 124.842 31.9321C124.358 32.8061 124.11 33.7948 123.651 34.6819L122.115 37.2009ZM126.882 27.4892C126.878 27.2023 126.759 26.8924 126.871 26.6282C126.997 26.3322 127.301 25.726 127.545 25.9363C127.842 26.1929 127.582 26.7473 127.428 27.1084" fill="black"/>
</svg>
