<svg width="200" height="200" viewBox="0 0 200 200" fill="none" xmlns="http://www.w3.org/2000/svg">
<path d="M42 145L20 85L87 31L154 48L169 108L104 179L42 145Z" fill="#E9E9E9"/>
<path d="M89.2358 177.042C89.0881 176.669 88.6151 176.283 88.7913 175.924C89.0786 175.341 89.7441 174.975 90.3573 174.752C90.6927 174.636 91.0864 174.819 91.3982 174.996C91.7505 175.185 91.9023 175.944 92.2824 175.816C92.8523 175.619 93.1586 174.914 93.3233 174.338C93.3978 174.074 92.9689 173.898 92.9011 173.634C92.8774 173.545 92.9926 173.41 93.0881 173.417C93.5042 173.457 93.9616 174.033 94.2903 173.776C94.9184 173.281 95.1576 172.407 95.3602 171.635C95.4158 171.418 94.8703 171.255 94.997 171.079C95.3419 170.584 95.8948 170.198 96.4742 170.035C96.7351 169.961 96.9235 170.564 97.1708 170.456C98.0117 170.076 98.8778 169.547 99.3446 168.748C99.5635 168.382 98.9191 167.969 98.8859 167.542C98.8622 167.223 98.8784 166.722 99.184 166.634C99.6455 166.505 100.119 167.257 100.558 167.067C101.249 166.762 101.326 165.549 102.059 165.367C102.571 165.238 102.743 166.356 103.269 166.39C103.683 166.417 104.063 165.915 104.15 165.509C104.228 165.143 103.441 164.784 103.676 164.492C104.33 163.679 105.485 163.442 106.319 162.812C106.775 162.473 107.038 161.897 107.524 161.599C108.261 161.138 109.054 160.562 109.922 160.582C110.537 160.596 110.788 161.599 111.396 161.687C111.775 161.748 111.927 161.118 112.265 160.935C113.062 160.501 113.877 160.04 114.766 159.864C115.034 159.81 115.194 160.311 115.467 160.291C115.866 160.257 116.251 160.006 116.524 159.715C117.006 159.193 117.061 158.292 117.667 157.919C117.973 157.73 118.344 158.197 118.607 158.441C119.204 158.997 119.551 159.81 120.213 160.291C120.455 160.461 119.979 159.729 119.978 159.431C119.976 159.119 119.952 158.705 120.205 158.529C120.384 158.407 120.546 158.929 120.759 158.882C121.098 158.8 121.218 158.218 121.565 158.218C122.233 158.218 122.793 158.956 123.456 158.875C124.063 158.8 124.36 157.974 124.948 157.811C125.21 157.736 125.367 158.19 125.631 158.258C125.754 158.285 125.86 158.143 125.952 158.055C126.166 157.852 126.526 157.689 126.54 157.398C126.575 156.693 125.79 155.968 126.085 155.324C126.267 154.931 126.977 155.805 127.364 155.602C127.982 155.283 128.188 154.477 128.68 153.989C128.731 153.935 128.806 154.179 128.851 154.118C129.248 153.623 129.376 152.912 129.863 152.498C130.019 152.363 130.172 152.844 130.376 152.837C130.638 152.824 130.789 152.431 131.052 152.431C131.316 152.431 131.476 152.776 131.732 152.837C131.824 152.857 131.953 152.729 131.932 152.634C131.872 152.376 131.527 152.221 131.527 151.956C131.527 151.692 132.124 151.455 131.932 151.279C131.663 151.021 131.07 151.57 130.823 151.292C130.518 150.953 130.683 150.384 130.725 149.923C130.754 149.605 130.774 149.205 131.032 149.015C131.348 148.778 131.843 149.002 132.199 148.832C132.571 148.656 132.733 148.128 133.131 148.026C133.362 147.965 133.486 148.493 133.718 148.433C134.112 148.338 134.265 147.782 134.649 147.646C134.874 147.572 135.254 147.66 135.32 147.89C135.394 148.141 134.975 148.311 134.915 148.568C134.894 148.663 135.033 148.819 135.115 148.771C135.619 148.487 135.932 147.897 136.471 147.687C136.674 147.613 136.81 148.087 137.023 148.039C137.357 147.965 137.475 147.369 137.817 147.382C138.335 147.409 138.714 148.365 139.18 148.134C140.201 147.64 140.521 146.237 141.466 145.607C141.747 145.424 142.143 146.21 142.402 145.993C143.029 145.471 142.905 144.299 143.582 143.845C144.094 143.499 144.996 144.387 145.43 143.947C145.755 143.621 144.497 143.384 144.497 142.923C144.496 142.395 144.985 141.934 145.429 141.649C145.606 141.541 145.749 141.995 145.96 141.995C146.173 141.995 146.302 141.568 146.498 141.649C146.913 141.826 146.99 142.564 147.436 142.618C147.719 142.652 147.61 142.049 147.547 141.771C147.486 141.507 147.03 141.358 147.09 141.087C147.281 140.24 147.638 139.372 148.229 138.729C148.404 138.539 148.853 139.366 148.905 139.115C149.002 138.641 148.513 138.221 148.432 137.746C148.353 137.279 147.98 136.208 148.43 136.337C149.212 136.56 149.237 137.956 150.016 138.187C150.477 138.329 150.835 137.55 150.943 137.082C151.041 136.662 150.374 136.228 150.562 135.842C150.822 135.293 151.459 134.954 152.039 134.798C152.301 134.724 152.452 135.185 152.716 135.246C152.992 135.307 153.689 135.395 153.559 135.144C153.273 134.588 152.489 134.466 152.075 133.999C151.949 133.857 151.853 133.443 152.041 133.436C152.746 133.396 153.403 133.89 154.11 133.89C154.385 133.89 154.522 133.396 154.796 133.43C156.348 133.619 157.872 134.04 159.355 134.534C159.705 134.649 159.844 135.286 160.209 135.232C160.926 135.137 161.373 134.168 162.097 134.161C162.56 134.155 162.564 135.225 163.026 135.191C163.906 135.137 164.68 134.507 165.361 133.945C165.872 133.525 166.309 132.955 166.507 132.325C166.588 132.068 166.034 131.891 166.086 131.627C166.133 131.383 166.551 131.424 166.717 131.241C167.118 130.801 167.583 130.36 167.76 129.798C167.852 129.499 167.339 129.208 167.44 128.917C167.633 128.361 168.543 128.131 168.54 127.541C168.536 126.782 167.615 126.288 167.425 125.549C167.357 125.285 168.031 125.048 167.846 124.851C167.641 124.627 167.247 125.163 166.965 125.054C166.578 124.905 166.199 124.573 166.086 124.173C166.013 123.916 166.471 123.774 166.527 123.516C166.624 123.062 166.801 122.5 166.526 122.127C165.972 121.375 164.958 121.097 164.275 120.46C163.691 119.918 163.52 118.841 162.755 118.61C162.249 118.454 162.069 119.586 161.542 119.633C161.233 119.66 161.272 119.044 161.313 118.732C161.348 118.475 161.677 118.325 161.748 118.068C161.775 117.98 161.657 117.865 161.561 117.844C160.964 117.722 160.3 117.912 159.743 117.661C159.283 117.458 159.198 116.584 158.694 116.577C158.163 116.57 157.963 117.37 157.498 117.628C157.289 117.743 156.966 117.783 156.783 117.628C155.956 116.936 155.481 115.873 154.623 115.222C154.454 115.093 154.311 115.534 154.108 115.595C153.881 115.662 153.622 115.669 153.395 115.595C153.144 115.52 152.987 115.08 152.736 115.161C152.232 115.317 152.037 116.313 151.526 116.184C150.793 116.001 150.674 114.87 150.024 114.483C149.799 114.348 149.611 114.876 149.349 114.89C149.136 114.897 149.006 114.456 148.813 114.544C148.358 114.748 148.241 115.473 147.761 115.608C147.372 115.723 146.814 114.802 146.635 115.161C146.299 115.839 147.043 116.679 146.866 117.411C146.807 117.655 146.316 117.099 146.126 117.262C145.641 117.689 145.773 118.813 145.138 118.922C144.296 119.071 143.663 117.675 142.823 117.831C142.071 117.966 141.809 118.976 141.385 119.613C140.941 120.284 140.871 121.246 140.228 121.727C139.923 121.951 139.556 121.334 139.182 121.26C139.082 121.239 138.927 121.382 138.965 121.476C139.238 122.147 140.044 122.642 140.038 123.367C140.033 123.984 139.114 124.255 138.936 124.844C138.858 125.108 139.317 125.264 139.385 125.529C139.412 125.63 139.27 125.82 139.176 125.773C138.702 125.508 138.455 124.6 137.932 124.736C137.329 124.892 137.54 126.071 136.978 126.342C136.654 126.498 136.335 125.881 136.27 125.529C136.222 125.271 136.67 125.129 136.705 124.871C136.745 124.56 136.778 124.045 136.477 123.97C136.005 123.855 135.603 124.492 135.118 124.492C134.634 124.492 134.238 123.875 133.762 123.97C133.243 124.072 133.077 125.014 132.548 124.993C131.93 124.966 131.688 123.984 131.083 123.855C130.601 123.746 130.19 124.356 129.697 124.377C129.434 124.39 129.289 124.018 129.037 123.943C128.81 123.868 128.49 123.78 128.322 123.95C128.1 124.167 127.891 124.648 128.118 124.865C128.39 125.129 129.056 124.512 129.247 124.837C129.521 125.298 129.359 126.003 129.04 126.43C128.859 126.674 128.417 126.45 128.137 126.335C127.495 126.071 127.016 125.352 126.323 125.312C126.003 125.291 126.029 125.895 125.981 126.206C125.913 126.653 125.894 127.114 125.98 127.561C126.073 128.036 126.555 128.436 126.51 128.917C126.489 129.154 126.063 129.228 125.836 129.161C125.481 129.045 125.335 128.334 124.979 128.442C124.359 128.632 124.227 129.615 123.615 129.825C123.161 129.981 122.715 129.466 122.24 129.391C122.147 129.377 122.015 129.499 122.04 129.594C122.112 129.845 122.425 129.994 122.481 130.252C122.582 130.712 122.601 131.207 122.492 131.668C122.23 132.759 121.843 133.823 121.381 134.846C121.296 135.029 121.092 135.225 120.886 135.219C120.624 135.205 120.486 134.839 120.229 134.785C119.952 134.724 119.385 134.609 119.385 134.893C119.383 135.361 120.185 135.544 120.226 136.005C120.253 136.303 119.828 136.513 119.534 136.574C119.335 136.608 119.154 136.079 119.025 136.235C118.271 137.15 118.052 138.437 117.264 139.325C117.086 139.522 116.723 139.223 116.495 139.081C116.112 138.844 115.902 138.322 115.467 138.2C115.214 138.132 115.053 138.593 114.79 138.607C114.577 138.614 114.448 138.18 114.25 138.261C113.832 138.431 113.713 139.054 113.295 139.223C113.097 139.305 112.968 138.864 112.755 138.878C112.493 138.898 112.348 139.237 112.097 139.312C111.87 139.386 111.61 139.386 111.383 139.312C111.131 139.237 110.986 138.885 110.723 138.878C110.46 138.871 110.309 139.284 110.046 139.284C109.782 139.284 109.631 138.864 109.368 138.878C108.875 138.905 108.474 139.454 107.983 139.4C107.464 139.345 107.168 138.627 106.648 138.58C106.291 138.546 106.132 139.25 105.776 139.21C104.879 139.101 104.171 138.071 103.274 138.173C102.36 138.275 101.415 138.918 101.005 139.738C100.69 140.375 101.755 141.168 101.46 141.805C101.278 142.205 100.567 141.331 100.181 141.534C99.5656 141.859 99.407 142.707 98.8818 143.167C98.7409 143.289 98.3655 142.964 98.3234 143.147C98.2638 143.405 98.7565 143.56 98.7287 143.825C98.6853 144.238 98.4278 144.631 98.1371 144.929C97.677 145.41 97.1512 145.871 96.5298 146.101C96.2337 146.21 95.7654 146.135 95.6116 145.864C95.4828 145.627 95.9572 145.437 96.0175 145.18C96.0392 145.085 95.8996 144.929 95.8176 144.977C95.3148 145.261 95.0099 145.878 94.4603 146.061C94.211 146.142 94.0456 145.647 93.7827 145.654C93.5191 145.661 93.3747 146.013 93.1234 146.088C92.8963 146.162 92.6362 146.162 92.4092 146.088C92.1571 146.013 91.9809 145.532 91.7458 145.654C91.4713 145.796 91.4767 146.244 91.5174 146.555C91.5519 146.813 92.008 146.955 91.9524 147.213C91.8745 147.579 91.5682 147.992 91.1982 148.039C90.8696 148.08 90.749 147.308 90.4312 147.403C89.9602 147.545 89.6309 148.073 89.4994 148.548C89.4269 148.812 89.8531 148.988 89.9202 149.252C89.9439 149.34 89.8274 149.49 89.7339 149.469C89.2501 149.361 88.6571 149.286 88.3617 148.886C88.1598 148.615 88.6355 148.222 88.5643 147.89C88.5033 147.606 88.2919 147.267 88.0046 147.213C87.4456 147.104 86.8404 147.653 86.3098 147.443C85.5536 147.145 84.8665 146.542 84.487 145.824C84.296 145.458 84.6185 144.99 84.8326 144.645C85.0685 144.258 85.6227 144.102 85.7949 143.682C85.8762 143.486 85.4391 143.357 85.4493 143.147C85.4622 142.883 86.0402 142.652 85.8531 142.469C85.639 142.253 85.225 142.835 84.9716 142.673C84.296 142.239 83.7613 141.575 83.371 140.87C83.2606 140.674 83.3947 140.287 83.6156 140.233C83.8724 140.172 84.0412 140.579 84.2987 140.64C84.3902 140.66 84.5338 140.524 84.4979 140.436C84.3874 140.165 84.2194 139.847 83.9389 139.759C83.6143 139.657 83.2565 140.084 82.9401 139.962C82.4 139.752 82.1608 139.007 81.6037 138.851C81.1918 138.729 80.7818 139.352 80.3718 139.223C79.8941 139.074 79.8359 138.139 79.3351 138.139C78.7754 138.139 78.589 139.054 78.0564 139.223C77.824 139.298 77.6275 138.946 77.517 138.729C77.3591 138.417 77.2419 138.051 77.2873 137.706C77.3225 137.434 77.8036 137.292 77.7386 137.028C77.555 136.289 76.813 135.774 76.6232 135.036C76.5555 134.771 76.9796 134.602 77.044 134.338C77.0671 134.243 76.9268 134.087 76.8441 134.134C75.8982 134.649 75.1799 135.612 74.1458 135.91C73.8429 135.998 73.8558 135.307 73.8999 134.995C73.9365 134.737 74.2786 134.609 74.3633 134.358C74.4406 134.128 74.4826 133.85 74.3633 133.64C74.154 133.281 73.8538 132.664 73.4513 132.779C73.0928 132.881 73.8226 133.857 73.452 133.897C72.838 133.965 72.4382 132.732 71.8623 132.948C71.4089 133.125 72.342 133.857 72.3007 134.338C72.2824 134.548 71.8832 134.731 71.722 134.595C71.1833 134.141 71.2212 132.989 70.5321 132.854C69.6552 132.684 68.9363 134.039 68.0567 133.884C67.3052 133.748 67.2856 132.359 66.5497 132.162C66.139 132.047 66.2488 133.037 66.4121 133.43C66.6032 133.89 67.6779 133.992 67.5024 134.46C67.3242 134.941 66.4846 134.656 65.9825 134.575C65.7128 134.534 65.5671 134.053 65.3029 134.121C64.567 134.311 64.0716 135.103 63.3269 135.259C62.8485 135.354 62.2684 134.46 61.9317 134.812C61.5644 135.198 62.261 135.842 62.2624 136.371C62.2637 136.899 62.2488 137.495 61.9391 137.929C61.8131 138.105 61.5407 137.719 61.4248 137.536C61.0284 136.913 61.109 135.849 60.4314 135.551C59.9679 135.354 60.1644 136.594 60.3413 137.069C60.5452 137.611 61.2032 137.875 61.4885 138.383C61.6044 138.593 61.7094 139.034 61.4804 139.095C60.9552 139.244 60.3934 138.708 59.8649 138.844C59.3892 138.959 58.8783 139.318 58.7407 139.793C58.6425 140.125 59.4346 140.321 59.3336 140.653C59.15 141.263 58.6357 141.805 58.055 142.049C57.7914 142.164 57.6369 141.27 57.4282 141.466C56.7864 142.07 56.6828 143.066 56.1949 143.797C55.8527 144.312 55.1825 144.604 54.9555 145.18C54.8586 145.424 55.312 145.586 55.3906 145.837C55.461 146.068 55.5905 146.44 55.3818 146.549C55.1087 146.698 54.7339 146.156 54.4778 146.332C54.2704 146.474 54.738 146.847 54.6235 147.07C54.3944 147.518 53.6931 147.64 53.5562 148.121C53.4464 148.507 54.0041 148.839 54.0055 149.246C54.0068 149.51 53.605 149.646 53.5636 149.903C53.4559 150.587 53.3922 151.306 53.5738 151.97C53.6219 152.146 53.9682 152.051 54.1241 151.956C54.3721 151.8 54.6506 151.57 54.6831 151.279C54.7129 151.014 54.3395 150.852 54.2765 150.594C54.2542 150.506 54.3673 150.377 54.4635 150.377C54.78 150.371 55.2306 150.31 55.3899 150.581C55.6236 150.98 55.5979 151.556 55.3953 151.97C55.1358 152.505 54.1681 152.62 54.1125 153.217C54.0644 153.725 55.0274 153.82 55.1751 154.308C55.3126 154.762 54.5815 155.311 54.8647 155.69C55.4048 156.408 56.5134 156.456 57.2114 157.018C57.3557 157.14 57.0155 157.506 57.1869 157.581C57.3821 157.662 57.5481 157.113 57.7223 157.235C58.2169 157.581 58.5781 158.129 58.7909 158.699C59.0003 159.247 58.6397 159.959 58.9406 160.467C59.2964 161.07 60.2085 161.179 60.5974 161.762C60.7519 161.992 60.1854 162.31 60.3318 162.548C60.6381 163.042 61.1653 163.462 61.7325 163.591C62.263 163.713 62.7963 163.11 63.3262 163.232C63.9131 163.374 64.4409 163.808 64.7858 164.303C64.9065 164.472 64.344 164.648 64.443 164.831C64.7642 165.441 65.1796 166.234 65.8599 166.329C66.4718 166.417 66.7624 165.163 67.3737 165.258C68.4802 165.421 69.8213 165.956 70.2488 166.986C70.6032 167.84 69.4357 168.653 69.1436 169.534C69.0664 169.771 69.0257 170.062 69.1565 170.273C69.8077 171.309 70.4846 172.373 71.4225 173.166C71.6231 173.335 71.8297 172.807 72.0805 172.732C72.3068 172.658 72.6063 172.583 72.7933 172.732C73.3903 173.2 73.6492 174.033 74.2773 174.46C74.4528 174.575 74.589 174.149 74.7923 174.088C75.0193 174.02 75.3819 173.891 75.5038 174.094C75.6963 174.413 75.1934 174.968 75.4699 175.219C75.7267 175.456 76.1862 175.165 76.4904 174.996C76.8868 174.779 77.0738 174.237 77.5007 174.088C77.7921 173.979 78.2536 174.04 78.4006 174.311C78.5273 174.548 78.055 174.738 77.9947 174.996C77.9737 175.09 78.112 175.24 78.1946 175.199C79.1453 174.677 79.8406 173.6 80.9072 173.41C81.5082 173.308 82.0449 173.972 82.404 174.467C82.5281 174.636 81.9894 174.799 82.0612 174.996C82.2021 175.389 82.5131 175.822 82.9217 175.904C83.4022 175.998 83.8359 175.368 84.319 175.45C85.2717 175.606 86.0266 176.486 86.9875 176.574C87.2938 176.602 86.6927 175.958 86.8038 175.673C86.8858 175.463 87.2504 175.294 87.434 175.429C87.9856 175.816 88.195 176.561 88.6985 177.015L89.2358 177.042ZM33.968 68.637C36.3492 67.546 38.8212 66.638 41.1122 65.3709C43.2501 64.185 45.2234 62.7213 47.2135 61.2983C47.6296 61.007 47.8769 60.4987 48.3154 60.2344C50.149 59.1367 52.1175 58.2761 53.9871 57.2394C55.1377 56.5956 56.2862 55.9451 57.3738 55.2065C58.4648 54.4611 59.3877 53.4785 60.5112 52.7806C64.1392 50.5376 67.9997 48.6742 71.6046 46.3974C73.5142 45.1845 75.3105 43.7953 77.029 42.3249C77.7019 41.7557 78.0332 40.8341 78.7407 40.2988C78.9094 40.17 79.0653 40.6105 79.2733 40.6444C79.398 40.6647 79.5003 40.5224 79.5938 40.4411C80.0241 40.0548 80.3737 39.5737 80.8406 39.2281C81.6748 38.6182 82.6858 38.2524 83.4759 37.5883C83.5904 37.4867 83.0836 37.3104 83.2062 37.2224C85.13 35.8671 87.2686 34.8304 89.2262 33.5158C89.6511 33.2312 89.9032 32.7365 90.328 32.4519C91.2665 31.8284 92.348 31.4355 93.2879 30.8121C93.7046 30.5342 93.9194 29.9921 94.3687 29.7685C95.7639 29.0773 97.3082 28.7385 98.738 28.1218C99.6623 27.7288 100.559 27.2613 101.419 26.7463C101.615 26.6243 101.778 26.4346 101.871 26.2245C101.967 26.0145 101.962 25.7637 101.962 25.5333C101.962 24.6186 102.111 23.6834 101.871 22.8025C101.76 22.3959 101.379 22.03 100.973 21.9081C100.313 21.7048 99.4895 21.5422 98.9054 21.9081C97.3313 22.8906 96.3663 24.6525 94.8572 25.7367C94.637 25.8925 94.4141 25.2149 94.16 25.3165C91.4353 26.3601 88.8407 27.722 86.2379 29.0502C84.1075 30.1344 82.1573 31.5642 79.9685 32.5264C79.7198 32.6348 79.505 31.9707 79.2712 32.1063C78.2257 32.7229 77.6077 33.9291 76.5614 34.5458C76.3283 34.6813 76.1162 34.024 75.8642 34.1256C72.6827 35.4064 69.6415 37.0191 66.5834 38.5776C66.2514 38.747 66.0867 39.2214 65.7201 39.2891C65.4613 39.3366 65.3122 38.9368 65.0615 38.8554C64.8284 38.7809 64.554 38.7538 64.3269 38.8419C62.5509 39.5602 60.8399 40.4275 59.1099 41.2407C58.0108 41.7625 56.8426 42.169 55.8397 42.8534C55.3545 43.1855 55.2752 43.9918 54.7399 44.2357C54.4641 44.3577 54.3076 43.653 54.006 43.6937C52.9069 43.8428 51.9528 44.6084 50.8531 44.7507C50.3604 44.8185 49.9247 44.1951 49.4368 44.29C48.6887 44.4323 48.1819 45.2183 47.4433 45.4012C47.1695 45.469 46.9947 44.8863 46.7229 44.9608C45.697 45.2319 44.8771 46.0518 43.86 46.3567C40.583 47.3393 37.2687 48.2405 33.8935 48.7961C33.4679 48.8639 33.0302 48.5116 32.7565 48.1796C32.0151 47.2715 31.0929 46.3432 30.9316 45.1844C30.8252 44.4255 31.8722 43.9173 32.0571 43.1719C32.1256 42.8941 31.5781 42.7314 31.6099 42.4468C31.8159 40.6172 33.0356 38.8554 32.747 37.0326C32.604 36.1381 31.3151 35.8875 30.5034 35.4809C30.3746 35.4131 30.2221 35.5961 30.1415 35.718C29.3622 36.87 28.5803 38.0287 27.944 39.2688C26.9499 41.2068 26.0852 43.2058 25.2599 45.2183C24.8357 46.2551 24.6338 47.3732 24.2001 48.4031C23.9751 48.9385 23.4649 49.3314 23.2941 49.8871C22.5365 52.3469 21.4408 54.8067 21.4327 57.3817C21.4259 59.7127 22.8232 61.8404 23.2514 64.1375C23.3016 64.4018 22.7249 64.5848 22.8265 64.8355C23.2006 65.7706 23.9026 66.5431 24.5301 67.3359C24.9353 67.8441 25.3385 68.4066 25.9118 68.7183C26.9099 69.2604 27.9968 69.8296 29.1305 69.816L33.968 68.637ZM84.7771 175.016C85.0732 174.935 85.3585 174.779 85.6648 174.772C85.7637 174.772 85.9392 174.941 85.8559 174.996C85.5936 175.158 85.2629 175.212 84.9526 175.219L84.7771 175.016ZM110.107 100.668C109.995 100.498 109.615 100.281 109.77 100.146C110.372 99.6172 111.145 99.2784 111.921 99.0751C112.137 99.0209 112.268 99.502 112.483 99.441C112.937 99.3191 113.187 98.7837 113.622 98.6075C113.799 98.533 114.002 98.8108 114.18 98.7363C115.9 98.0655 117.608 97.3336 119.211 96.4188C119.511 96.2426 119.492 95.7479 119.767 95.5446C120.474 95.0025 121.375 94.7654 122.086 94.2369C122.737 93.749 123.125 92.9426 123.82 92.5225C124.066 92.3734 124.442 92.8341 124.673 92.6647C125.435 92.0888 125.745 91.0317 126.53 90.4896C126.81 90.2998 127.19 90.6929 127.53 90.6929C127.657 90.6929 127.757 90.5709 127.852 90.4896C128.163 90.2118 128.495 89.9406 128.739 89.6018C129.144 89.0394 129.615 88.4702 129.781 87.7994C129.847 87.5351 129.426 87.3589 129.359 87.0946C129.335 86.9998 129.45 86.8846 129.546 86.871C130.004 86.8033 130.48 86.7762 130.934 86.8643C131.143 86.9049 131.269 87.3589 131.45 87.2437C131.936 86.9388 132.045 86.2272 132.501 85.8749C133.695 84.9669 134.96 84.1063 136.338 83.51C136.625 83.388 136.947 83.9844 137.218 83.8285C138.639 83.0154 139.665 81.6194 141.081 80.7994C141.31 80.6707 141.534 81.3416 141.76 81.2061C142.802 80.5827 143.428 79.39 144.47 78.7665C144.696 78.631 144.886 79.2003 145.148 79.1732C145.564 79.1325 145.949 78.8683 146.255 78.5837C146.756 78.1093 146.937 77.3233 147.518 76.9506C147.81 76.7676 148.219 77.2759 148.537 77.1403C149.457 76.7473 150.267 76.1103 151.02 75.453C151.494 75.0397 151.684 74.3552 152.173 73.9554C152.403 73.7725 152.799 73.9758 153.048 73.8131C153.473 73.5421 153.639 72.9323 154.099 72.729C154.303 72.6341 154.452 73.1761 154.658 73.0948C156.247 72.4511 157.764 71.6176 159.19 70.6689C160.032 70.1133 160.552 69.1375 161.409 68.6022C161.59 68.487 161.744 69.0087 161.95 68.9478C162.404 68.819 162.684 68.3447 163.106 68.1278C163.175 68.094 163.24 68.3243 163.296 68.2633C163.696 67.8703 163.829 67.1995 164.319 66.9284C165.733 66.1492 167.278 65.5868 168.846 65.2005C169.118 65.1328 169.291 65.7087 169.562 65.6341C170.297 65.4444 170.793 64.6516 171.538 64.4958C172.015 64.4009 172.443 64.9362 172.931 64.943C173.193 64.9498 173.345 64.5296 173.608 64.5364C173.871 64.5431 174.004 64.9768 174.268 64.9701C174.974 64.9633 175.63 64.5093 176.337 64.5093C176.609 64.5025 176.767 65.0649 177.016 64.9565C178.027 64.516 179.015 63.8926 179.708 63.032C180.068 62.5916 180.025 61.9004 179.945 61.3312C179.887 60.9178 179.614 60.5383 179.318 60.247C178.623 59.549 177.863 58.8985 177.016 58.4039C176.688 58.2141 176.191 58.4648 175.89 58.2345C175.367 57.8347 174.958 57.2587 174.718 56.6421C174.496 56.0797 174.849 55.3546 174.556 54.826C174.272 54.311 173.679 53.9993 173.137 53.7757C172.654 53.5724 172.098 53.5115 171.578 53.5724C171.096 53.6267 170.705 54.0536 170.221 54.101C170.009 54.1213 169.887 53.6944 169.681 53.7554C169.229 53.8842 168.97 54.3924 168.54 54.5889C168.336 54.6838 168.042 54.433 167.865 54.5753C166.858 55.3749 166.089 56.432 165.127 57.2858C164.915 57.4755 164.571 57.4755 164.369 57.672C163.714 58.3293 163.371 59.3118 162.594 59.8133C161.651 60.4231 160.512 60.7145 159.403 60.8975C159.125 60.9449 158.954 60.3825 158.681 60.4571C156.43 61.0669 154.275 62.0021 152.113 62.8762C151.124 63.276 150.266 64.0011 149.237 64.2857C148.973 64.3602 148.809 63.8655 148.536 63.8588C148.273 63.852 148.121 64.2654 147.858 64.2654C147.595 64.2654 147.439 63.8113 147.18 63.8588C146.815 63.9333 146.646 64.3941 146.317 64.5703C145.515 64.9972 144.706 65.4715 143.816 65.6409C143.548 65.6951 143.394 65.2683 143.135 65.1869C142.902 65.1056 142.633 65.0988 142.397 65.1734C140.594 65.7155 138.902 66.6371 137.058 67.0165C136.579 67.1182 136.142 66.4812 135.66 66.5693C135.253 66.6438 134.901 67.0504 134.781 67.4502C134.704 67.7009 135.124 67.8771 135.187 68.1346C135.21 68.2227 135.096 68.365 135 68.3514C134.525 68.2904 134.107 67.9313 133.628 67.9245C133.365 67.9245 133.214 68.3312 132.951 68.3312C132.687 68.3312 132.522 67.8432 132.272 67.9245C131.725 68.1075 131.459 68.7987 130.919 69.0088C130.717 69.0833 130.58 68.609 130.368 68.6564C130.029 68.7377 129.91 69.3205 129.563 69.3205C129.218 69.3205 129.108 68.7174 128.769 68.6564C128.592 68.6293 128.687 69.063 128.526 69.1375C127.665 69.5712 126.735 69.849 125.816 70.1268C123.934 70.7028 121.957 70.9875 120.127 71.7125C118.888 72.2072 117.927 73.2575 116.688 73.7522C116.442 73.847 116.24 73.2236 116.007 73.3455C115.799 73.4607 116.339 73.9148 116.141 74.0435C115.304 74.5992 114.314 74.9447 113.325 75.1277C113.055 75.1819 112.896 74.7008 112.622 74.7008C112.358 74.7008 112.214 75.0599 111.963 75.1413C111.601 75.2632 111.173 75.1413 110.828 75.3107C110.092 75.663 109.424 76.1577 108.789 76.6727C108.393 76.9912 108.265 77.8044 107.755 77.7976C106.926 77.7908 106.135 77.2284 105.562 76.6321C105.314 76.3746 105.504 75.9002 105.609 75.5614C105.686 75.3107 106.038 75.182 106.084 74.9245C106.203 74.2401 106.426 73.454 106.084 72.8509C105.548 71.9158 104.589 71.2585 103.67 70.6961C103.489 70.5877 103.327 71.1298 103.133 71.0417C102.155 70.5944 101.4 69.7609 100.461 69.2392C100.251 69.1172 99.9843 69.1579 99.743 69.1579C99.2788 69.1511 98.7964 69.0969 98.3518 69.2324C97.4858 69.4967 96.6626 69.8965 95.8677 70.3301C95.678 70.4385 95.478 70.6079 95.4435 70.8248C95.2998 71.7192 95.2951 72.6409 95.3527 73.5489C95.3751 73.9012 95.4997 74.2468 95.6793 74.5517C95.9104 74.938 96.4403 75.1481 96.5616 75.5817C96.6327 75.8325 96.1503 75.9951 96.1563 76.2594C96.1618 76.5237 96.5107 76.6659 96.5907 76.9167C96.6666 77.1538 96.668 77.4182 96.6056 77.6553C96.298 78.8344 95.991 80.0202 95.4889 81.1315C95.4299 81.2602 95.2592 80.7724 95.1515 80.8673C94.6988 81.2603 94.2136 81.7481 94.1079 82.3377C94.0218 82.8256 94.6412 83.2186 94.6439 83.7133C94.6466 84.1944 94.1438 84.5874 94.1235 85.0686C94.112 85.3328 94.5504 85.4615 94.5585 85.7258C94.5721 86.1595 94.1005 86.539 94.1825 86.9659C94.2719 87.4267 94.8953 87.6435 95.0173 88.0975C95.1108 88.4499 94.7259 88.7955 94.7713 89.1547C94.8323 89.629 95.3161 90.0085 95.3215 90.4896C95.3269 90.9707 94.8282 91.3637 94.8011 91.8448C94.7862 92.1091 95.2063 92.2582 95.2063 92.5225C95.2063 92.7867 94.7178 92.9494 94.8011 93.2001C94.9834 93.749 95.7017 94.0064 95.884 94.5553C95.9673 94.806 95.2924 95.05 95.4787 95.2329C95.6922 95.4498 96.0655 94.9619 96.3596 95.0296C96.6503 95.0974 97.0149 95.3007 97.0522 95.5989C97.0969 95.958 96.382 96.2358 96.5508 96.5543C96.855 97.1235 97.6925 97.198 98.1486 97.6588C98.7889 98.3093 99.0566 99.3123 99.8013 99.8341C100.349 100.227 101.106 100.241 101.776 100.22C102.048 100.214 102.186 99.7798 102.458 99.7731C102.72 99.7663 102.872 100.166 103.134 100.18C103.346 100.186 103.473 99.7528 103.67 99.8341C104.247 100.065 104.556 100.762 105.139 100.979C105.578 101.142 106.088 101.006 106.541 100.891C106.797 100.83 106.936 100.457 107.201 100.451C107.464 100.444 107.616 100.864 107.879 100.857C108.141 100.851 108.274 100.424 108.538 100.424C109.02 100.424 109.44 100.783 109.916 100.857L110.107 100.668ZM78.0022 172.976C78.2915 172.868 78.5606 172.651 78.8696 172.644C79.1833 172.644 79.7545 172.644 79.7559 172.956C79.7579 173.376 79.291 173.837 78.875 173.844L78.0022 172.976ZM74.837 173.18C74.5328 173.105 73.9331 173.274 73.9249 172.963C73.9168 172.658 74.524 172.671 74.8255 172.739L74.837 173.18ZM33.8833 65.0321C33.6536 64.8965 33.4592 64.5983 33.1949 64.6322C32.9882 64.6525 33.0404 65.0727 32.8473 65.154C31.5015 65.6893 30.1103 66.7396 28.6927 66.4415C27.5537 66.1975 27.0319 64.7745 26.4254 63.7784C25.7329 62.64 25.1813 61.4 24.8391 60.1125C24.7686 59.8482 25.2667 59.6856 25.2647 59.4145C25.2633 59.1502 24.8296 59.0215 24.8296 58.7573C24.8296 58.2761 25.2647 57.8628 25.2647 57.3817C25.2647 57.1174 24.8296 56.9887 24.8296 56.7244C24.8296 56.2433 25.2626 55.8299 25.2647 55.3488C25.266 55.0777 24.7713 54.9151 24.8391 54.6508C25.2531 53.0245 26.2262 51.5744 26.6402 49.9481C26.708 49.6839 26.0934 49.4941 26.2147 49.2502C26.5447 48.5793 27.0373 47.7391 27.778 47.651C28.3824 47.5764 28.7219 48.4302 29.1007 48.9046C29.4808 49.3789 29.5601 50.0972 30.0344 50.4767C30.9628 51.2221 32.045 51.8048 33.1739 52.1775C33.4321 52.2656 33.5994 51.7573 33.8711 51.7573C34.1456 51.7573 34.3048 52.2385 34.5738 52.1842C36.6352 51.7641 38.5589 50.7952 40.6223 50.3818C40.9015 50.3208 41.0743 50.9035 41.348 50.829C43.3491 50.2734 45.1732 49.1892 47.1526 48.559C49.8576 47.6984 52.6793 47.2376 55.3796 46.3567C55.7326 46.2415 55.8641 45.7469 56.2151 45.6249C56.7911 45.4284 57.4768 45.6994 58.0345 45.4487C58.496 45.2522 58.6261 44.5746 59.0848 44.3645C59.2793 44.2764 59.3999 44.6762 59.6039 44.7372C59.8316 44.8049 60.1047 44.8456 60.3168 44.7372C61.1109 44.3442 61.7269 43.6327 62.5394 43.2736C64.6651 42.3452 66.843 41.4982 69.0845 40.8951C69.3481 40.8273 69.5379 41.4372 69.7852 41.322C70.2772 41.0916 70.4012 40.4004 70.8328 40.0751C71.7713 39.3501 72.7478 38.6318 73.8503 38.2049C74.1037 38.11 74.2995 38.7334 74.5482 38.625C75.9882 37.9948 77.1259 36.7887 78.557 36.1314C78.8443 36.0026 79.5131 36.0568 79.4752 36.3685C79.4108 36.9106 78.8077 37.2495 78.3829 37.5883C77.2282 38.5166 75.9231 39.2416 74.759 40.1564C74.3592 40.4681 74.1667 41.0441 73.7086 41.261C73.5169 41.3558 73.3814 40.9492 73.1713 40.9154C73.0473 40.895 72.9368 41.0238 72.8514 41.1187C72.207 41.8234 71.751 42.7111 70.9941 43.2938C70.826 43.4226 70.66 42.8873 70.4594 42.9482C70.2196 43.0296 70.2521 43.4294 70.0657 43.5988C69.7276 43.9037 69.3183 44.1273 68.9212 44.351C66.9039 45.5029 64.8934 46.6684 62.8246 47.7255C61.8712 48.2066 60.726 48.3353 59.8648 48.9655C59.1451 49.5009 58.9995 50.6257 58.2419 51.1068C57.9329 51.2966 57.6239 50.4767 57.2769 50.5919C56.7199 50.768 56.5065 51.4863 56.0227 51.8116C54.4133 52.9026 52.6379 53.7292 51.0259 54.8134C50.4417 55.2065 50.0995 55.9383 49.4572 56.2297C49.2159 56.3381 49.0343 55.7689 48.7761 55.8231C48.5322 55.8773 48.5864 56.311 48.3865 56.4669C47.5117 57.1174 46.4858 57.5578 45.6049 58.2016C44.129 59.2858 42.8666 60.6614 41.327 61.6507C41.1468 61.7659 40.9841 61.2238 40.7863 61.3051C40.3682 61.4745 40.2489 62.0979 39.8308 62.2673C39.633 62.3486 39.4846 61.8336 39.2901 61.9217L33.8833 65.0321ZM87.8989 172.936C87.8277 173.24 87.9978 173.837 87.6861 173.844C87.3764 173.857 87.3907 173.247 87.4605 172.949L87.8989 172.936ZM69.8511 170.279C69.9215 169.974 69.7515 169.378 70.0638 169.371C70.3728 169.358 70.3593 169.968 70.2888 170.266L69.8511 170.279ZM107.252 92.082C106.557 91.899 105.886 91.5467 105.168 91.5264C104.745 91.5128 104.323 92.231 103.983 91.9803C103.34 91.506 103.029 90.6387 102.891 89.8527C102.805 89.3648 103.438 88.9242 103.358 88.4363C103.203 87.4741 102.219 86.722 102.225 85.753C102.23 85.0889 102.794 84.4384 103.385 84.1402C103.741 83.964 104.086 84.54 104.473 84.6281C104.919 84.7365 105.391 84.7907 105.843 84.7162C106.323 84.6416 106.716 84.2147 107.201 84.1876C107.464 84.174 107.629 84.6756 107.879 84.5942C108.427 84.4113 108.683 83.6862 109.234 83.51C109.486 83.4287 109.632 83.9098 109.894 83.9504C110.574 84.0589 111.313 84.1876 111.962 83.9504C113.007 83.5778 113.97 82.934 114.79 82.1886C114.94 82.0463 114.494 81.8769 114.452 81.6736C114.433 81.5788 114.543 81.4433 114.638 81.4568C115.113 81.5178 115.531 81.8837 116.01 81.8837C116.273 81.8837 116.418 81.5246 116.669 81.45C116.896 81.3755 117.157 81.3755 117.384 81.45C117.636 81.5246 117.813 82.0057 118.046 81.8837C118.26 81.7685 117.749 81.3552 117.907 81.1722C118.324 80.6843 119.122 80.6436 119.534 80.1557C119.666 79.9999 119.237 79.844 119.196 79.6407C119.176 79.5459 119.286 79.4307 119.382 79.4171C119.84 79.3494 120.318 79.3155 120.771 79.4104C121.03 79.4646 121.186 79.9525 121.432 79.8508C122.426 79.4443 123.084 78.3871 124.104 78.0483C124.564 77.8992 124.994 78.5226 125.478 78.5226C126.185 78.5294 126.842 78.028 127.548 78.0619C127.842 78.0754 128.062 78.3939 128.207 78.6514C128.301 78.814 128.327 79.0715 128.206 79.2206C127.761 79.7627 127.242 80.2845 126.612 80.5962C126.273 80.7588 125.844 80.6572 125.478 80.5623C125.222 80.4945 125.077 80.0744 124.817 80.1218C124.571 80.1693 124.628 80.6165 124.427 80.7656C123.488 81.45 122.537 82.1615 121.45 82.5748C121.196 82.6697 120.988 82.0192 120.751 82.1547C120.533 82.2767 121.043 82.6901 120.894 82.8866C120.46 83.4694 119.776 83.815 119.189 84.2419C118.374 84.8382 117.622 85.57 116.688 85.9495C116.444 86.0511 116.268 85.5971 116.009 85.5429C115.885 85.5158 115.767 85.6445 115.688 85.7462C115.015 86.5729 114.6 87.6436 113.767 88.3076C112.804 89.0801 111.443 89.2224 110.447 89.9542C110.275 90.0762 110.796 90.2795 110.79 90.4896C110.784 90.6929 110.605 90.8961 110.417 90.9842L107.252 92.082ZM103.751 160.786C104.047 160.704 104.332 160.549 104.638 160.542C104.737 160.542 104.913 160.711 104.829 160.765C104.567 160.928 104.236 160.982 103.926 160.989L103.751 160.786ZM117.384 87.298C117.302 86.9998 117.146 86.7152 117.14 86.4102C117.139 86.3086 117.313 86.1324 117.365 86.2205C117.531 86.478 117.586 86.8101 117.59 87.1218L117.384 87.298ZM105.952 160.549C106.256 160.623 106.856 160.454 106.864 160.765C106.872 161.07 106.265 161.057 105.964 160.989L105.952 160.549ZM109.252 79.1664C109.171 78.8683 109.014 78.5836 109.009 78.2787C109.007 78.177 109.182 78.0076 109.234 78.0889C109.4 78.3464 109.454 78.6785 109.459 78.9902L109.252 79.1664ZM128.913 77.8314C128.608 77.7569 128.009 77.9263 128.001 77.6146C127.993 77.3097 128.6 77.3233 128.901 77.391L128.913 77.8314ZM103.841 76.4762C103.536 76.4016 102.937 76.5711 102.929 76.2594C102.921 75.9544 103.528 75.968 103.829 76.0358L103.841 76.4762ZM137.031 74.423C136.802 74.2401 136.501 74.1181 136.341 73.8741C136.243 73.7183 136.152 73.393 136.322 73.3253C136.616 73.2169 137.073 73.2642 137.243 73.5285L137.031 74.423ZM94.9231 147.24C94.9936 146.935 94.8235 146.339 95.1359 146.332C95.4449 146.318 95.4313 146.928 95.3609 147.226L94.9231 147.24ZM103.831 73.0678C103.75 72.7696 103.593 72.485 103.588 72.18C103.587 72.0784 103.761 71.909 103.813 71.9903C103.979 72.2478 104.033 72.5799 104.038 72.8916L103.831 73.0678ZM139.211 146.074C138.907 146 138.307 146.169 138.299 145.857C138.292 145.553 138.898 145.566 139.2 145.634L139.211 146.074ZM131.509 145.864C131.689 145.857 131.894 145.763 132.047 145.857C132.3 146.007 132.714 146.264 132.611 146.542C132.503 146.827 131.974 146.921 131.711 146.759L131.509 145.864ZM125.411 156.706C125.559 156.7 125.82 156.537 125.856 156.679C125.932 156.977 125.941 157.56 125.631 157.581L125.411 156.706ZM96.0114 168.199C95.716 168.28 95.4307 168.436 95.1237 168.443C95.0255 168.443 94.85 168.274 94.9333 168.219C95.1955 168.05 95.5262 168.003 95.8359 167.996L96.0114 168.199ZM82.959 145.376C82.8777 145.078 82.7205 144.794 82.7158 144.489C82.7144 144.387 82.8885 144.218 82.9407 144.299C83.1067 144.556 83.1609 144.889 83.1657 145.2L82.959 145.376ZM80.9133 144.719C80.9045 144.577 80.7432 144.313 80.8868 144.279C81.1877 144.204 81.7718 144.191 81.7901 144.502L80.9133 144.719ZM56.4985 155.019C56.51 155.202 56.6753 155.453 56.5324 155.568C56.3467 155.717 55.9848 155.737 55.8161 155.568C55.5939 155.351 55.3675 154.85 55.6121 154.646L56.4985 155.019ZM79.753 35.718C80.0491 35.6367 80.3344 35.4809 80.6407 35.4741C80.7396 35.4741 80.9152 35.6435 80.8318 35.6977C80.5696 35.8603 80.2389 35.9145 79.9285 35.9213L79.753 35.718ZM69.416 143.364C69.1118 143.289 68.5121 143.459 68.504 143.147C68.4965 142.842 69.1036 142.856 69.4045 142.923L69.416 143.364ZM64.6632 143.344C64.5819 143.045 64.4247 142.761 64.4199 142.456C64.4186 142.354 64.5927 142.185 64.6449 142.266C64.8109 142.524 64.8651 142.856 64.8698 143.167L64.6632 143.344ZM83.8142 174.975C83.5187 175.057 83.2335 175.212 82.9265 175.219C82.8282 175.219 82.6527 175.05 82.7361 174.996C82.9983 174.826 83.329 174.779 83.6387 174.772L83.8142 174.975ZM75.9497 142.497C76.0201 142.192 75.8501 141.595 76.1625 141.588C76.4715 141.575 76.4579 142.185 76.3874 142.483L75.9497 142.497ZM98.7226 141.134C98.4264 141.053 98.1412 140.897 97.8342 140.89C97.736 140.89 97.5604 141.06 97.6438 141.114C97.906 141.277 98.2367 141.331 98.5464 141.338L98.7226 141.134ZM81.389 140.457C81.6851 140.375 81.9704 140.22 82.2767 140.213C82.3749 140.213 82.5511 140.382 82.4677 140.436C82.2055 140.599 81.8748 140.653 81.5645 140.66L81.389 140.457ZM103.288 139.955C103.206 139.657 103.049 139.372 103.044 139.068C103.043 138.966 103.217 138.796 103.269 138.878C103.435 139.135 103.489 139.467 103.494 139.779L103.288 139.955ZM128.035 138.417C127.843 138.187 127.576 138.004 127.459 137.726C127.421 137.638 127.55 137.502 127.647 137.502C127.961 137.495 128.4 137.441 128.568 137.706C128.733 137.97 128.529 138.363 128.342 138.607L128.035 138.417ZM118.658 138.424C118.954 138.343 119.24 138.187 119.546 138.18C119.644 138.18 119.82 138.349 119.737 138.403C119.475 138.566 119.144 138.62 118.834 138.627L118.658 138.424ZM108.887 137.746C108.591 137.665 108.306 137.509 107.999 137.502C107.9 137.502 107.725 137.672 107.808 137.726C108.07 137.888 108.401 137.943 108.711 137.949L108.887 137.746ZM75.2626 137.739C75.5675 137.658 75.863 137.502 76.1781 137.502C76.2756 137.502 76.4193 137.638 76.3678 137.726C76.1462 138.078 75.9002 138.6 75.4835 138.607L75.2626 137.739ZM161.438 63.6013C161.134 63.5267 160.535 63.6961 160.527 63.3844C160.519 63.0795 161.126 63.0931 161.427 63.1608L161.438 63.6013ZM123.613 132.501C123.53 132.203 123.256 131.898 123.365 131.614C123.514 131.221 123.86 130.733 124.279 130.746C124.589 130.753 124.617 131.356 124.507 131.648L123.613 132.501ZM163.774 128.896C163.484 129.012 163.215 129.228 162.905 129.235C162.591 129.235 162.02 129.228 162.017 128.917C162.015 128.605 162.587 128.605 162.9 128.598L163.774 128.896ZM137.178 127.778C136.874 127.704 136.275 127.873 136.266 127.561C136.258 127.257 136.865 127.27 137.167 127.338L137.178 127.778ZM165.639 126.423C165.334 126.348 164.735 126.518 164.727 126.206C164.719 125.901 165.326 125.915 165.627 125.983L165.639 126.423ZM133.744 124.654C133.826 124.953 133.982 125.237 133.987 125.542C133.989 125.644 133.815 125.813 133.762 125.732C133.597 125.474 133.542 125.142 133.538 124.831L133.744 124.654ZM131.249 124.831C130.952 124.912 130.667 125.068 130.36 125.075C130.262 125.075 130.086 124.905 130.17 124.851C130.432 124.688 130.763 124.634 131.072 124.627L131.249 124.831ZM165.639 122.357C165.334 122.283 164.735 122.452 164.727 122.141C164.719 121.836 165.326 121.849 165.627 121.917L165.639 122.357ZM144.819 117.424C144.748 117.119 144.918 116.523 144.607 116.516C144.298 116.503 144.311 117.113 144.381 117.411L144.819 117.424ZM114.105 161.66C114.114 161.518 114.276 161.253 114.132 161.219C113.831 161.145 113.247 161.131 113.229 161.443L114.105 161.66Z" fill="black"/>
</svg>
