<svg width="200" height="200" viewBox="0 0 200 200" fill="none" xmlns="http://www.w3.org/2000/svg">
<circle cx="81.5" cy="108.5" r="67.5" fill="#E9E9E9"/>
<path d="M117.473 152.042C117.804 151.31 117.889 150.402 118.466 149.842C118.7 149.614 119.052 150.164 119.375 150.195C120.243 150.283 121.146 150.408 121.991 150.195C122.487 150.07 122.724 149.448 123.19 149.24C123.349 149.168 123.637 149.256 123.68 149.427C123.729 149.624 123.416 149.754 123.369 149.951C123.351 150.024 123.438 150.112 123.512 150.122C124.204 150.2 124.905 150.262 125.598 150.195C125.929 150.164 126.208 149.749 126.529 149.837C126.899 149.935 126.944 150.615 127.324 150.667C127.673 150.719 127.853 150.122 128.204 150.081C128.486 150.044 128.677 150.439 128.959 150.475C129.24 150.511 129.505 150.226 129.783 150.278C130.825 150.465 131.781 151.03 132.832 151.17C133.203 151.222 133.527 150.817 133.902 150.828C134.274 150.838 134.57 151.201 134.941 151.233C136.147 151.342 137.361 151.259 138.571 151.243C138.922 151.238 139.283 151.258 139.622 151.165C139.818 151.113 139.925 150.828 140.128 150.828C140.329 150.828 140.431 151.16 140.633 151.16C141 151.16 141.316 150.828 141.684 150.828C141.894 150.828 142.016 151.196 142.221 151.155C142.943 151.004 143.538 150.444 144.261 150.293C144.466 150.252 144.588 150.615 144.797 150.62C144.999 150.626 145.115 150.304 145.316 150.309C145.526 150.314 145.647 150.672 145.854 150.636C146.74 150.485 147.523 149.92 148.41 149.775C148.617 149.738 148.734 150.06 148.933 150.122C149.112 150.184 149.315 150.174 149.499 150.133C150.821 149.837 152.245 149.764 153.434 149.116C154.282 148.649 154.642 147.595 155.348 146.931C155.885 146.428 156.652 146.189 157.138 145.634C157.954 144.705 158.577 143.616 159.194 142.542C159.539 141.94 159.857 141.302 160.014 140.627C160.053 140.461 159.636 140.337 159.736 140.202C160.131 139.662 160.892 139.46 161.271 138.905C161.851 138.059 162.036 136.995 162.546 136.103C162.736 135.771 163.166 135.615 163.346 135.273C164.113 133.83 164.788 132.331 165.359 130.8C165.913 129.311 165.958 127.625 166.716 126.229C167.499 124.787 168.984 123.832 169.884 122.462C170.079 122.162 169.959 121.741 169.885 121.394C169.842 121.196 169.547 121.093 169.547 120.89C169.547 120.688 169.842 120.584 169.885 120.387C169.961 120.034 170.016 119.645 169.89 119.308C169.371 117.917 168.974 116.392 167.981 115.292C167.263 114.498 166.087 114.259 165.06 113.959C164.549 113.808 163.988 113.875 163.462 113.964C163.262 113.995 163.159 114.317 162.957 114.301C162.633 114.27 162.285 114.104 162.097 113.839C161.523 113.025 161.365 111.961 160.752 111.177C159.158 109.133 157.474 107.136 155.526 105.434C154.752 104.754 153.632 104.63 152.722 104.157C151.837 103.696 150.928 103.244 150.15 102.622C149.558 102.144 149.271 101.35 148.665 100.894C147.075 99.685 145.357 98.6525 143.618 97.6719C142.801 97.2153 141.908 96.8988 141.024 96.5875C138.198 95.6017 135.305 94.8078 132.491 93.7805C132.256 93.6975 132.18 93.2565 131.931 93.2824C131.586 93.3187 131.447 94.014 131.113 93.9258C130.528 93.7649 130.347 92.8985 129.779 92.6857C129.43 92.556 129.083 93.0749 128.713 93.0282C128.426 92.9919 128.299 92.6131 128.043 92.4782C127.661 92.2758 127.244 92.1409 126.825 92.0424C125.4 91.6895 123.981 91.2589 122.52 91.124C121.973 91.0773 121.463 91.539 120.916 91.4924C120.641 91.4716 120.558 91.0254 120.295 90.9476C118.989 90.5533 117.653 90.1901 116.293 90.0863C115.746 90.0448 115.253 90.5169 114.704 90.5221C114.334 90.5273 114.036 90.1433 113.666 90.1226C113.465 90.1122 113.349 90.4443 113.148 90.4339C112.776 90.4132 112.475 90.0863 112.108 90.0292C111.762 89.9722 111.396 90.0033 111.059 90.0967C110.863 90.1486 110.771 90.4547 110.567 90.4547C110.026 90.4547 109.524 90.1019 108.983 90.1019C108.773 90.1019 108.667 90.4806 108.459 90.4495C106.032 90.1226 103.681 89.3132 101.247 89.0486C100.699 88.9915 100.201 89.417 99.6554 89.4896C99.3083 89.5415 98.9446 89.5155 98.6063 89.4221C98.4014 89.3703 98.2909 89.0434 98.0797 89.0642C96.6918 89.225 95.3604 89.7179 93.9824 89.9514C93.6264 90.0136 93.2518 90.0188 92.899 89.941C92.7008 89.8995 92.5867 89.5415 92.3931 89.6037C91.9718 89.7386 91.7902 90.3457 91.356 90.4339C90.9917 90.5066 90.6861 90.0655 90.3162 90.0292C89.6183 89.9514 88.9039 89.9721 88.2107 90.0863C87.0396 90.2783 85.8598 90.5014 84.7531 90.9268C84.4371 91.0462 84.4091 91.6428 84.0729 91.6791C83.6822 91.7258 83.4191 91.0462 83.0326 91.124C80.911 91.5235 78.9472 92.5456 76.8458 93.0437C76.6419 93.0904 76.4562 92.5715 76.3073 92.7168C76.107 92.914 76.5761 93.438 76.3223 93.5625C75.9929 93.7234 75.6452 93.272 75.2851 93.2098C74.9303 93.1475 74.5427 93.0749 74.2059 93.2046C72.528 93.8376 70.9175 94.6418 69.322 95.4667C68.6735 95.7988 68.1738 96.4059 67.4894 96.6601C67.2944 96.7328 67.1553 96.2814 66.9555 96.3384C65.9173 96.6394 64.9554 97.1686 64.0002 97.6719C63.8565 97.7497 63.7107 97.9001 63.7034 98.061C63.6961 98.2218 64.0593 98.336 63.9649 98.4657C63.6946 98.8393 63.2774 99.1402 62.8338 99.2647C62.6341 99.3218 62.5033 98.8963 62.2999 98.943C62.0213 99.0053 61.7541 99.2492 61.6685 99.519C61.5035 100.048 61.4828 100.634 61.6 101.174C61.6301 101.314 61.9046 101.247 62.028 101.174C62.3295 100.998 62.4935 100.629 62.8043 100.474C63.0668 100.339 63.4653 100.541 63.6759 100.339C64.2212 99.8095 64.2264 98.7458 64.9154 98.4242C65.317 98.2374 65.4976 99.4152 65.9236 99.2907C66.9571 98.9949 67.5657 97.869 68.5261 97.3865C68.7134 97.2931 68.8613 97.7652 69.0631 97.7133C69.8419 97.5006 70.4728 96.904 71.2386 96.6549C73.4495 95.9285 75.7464 95.4875 77.965 94.787C78.8206 94.5172 79.5719 93.9465 80.4456 93.7442C80.6563 93.6923 80.786 94.1229 80.9982 94.0814C82.5397 93.7753 84.0391 93.272 85.5153 92.7324C85.7799 92.639 85.8899 92.2447 86.167 92.198C86.3672 92.1668 86.4767 92.4834 86.6728 92.5352C87.0111 92.6234 87.3722 92.6442 87.7204 92.6079C90.324 92.3225 92.9068 91.8659 95.5104 91.5806C95.8585 91.5443 96.2196 91.565 96.5579 91.6532C96.7541 91.7051 96.8604 91.9905 97.0633 91.9905C97.2656 91.9905 97.3756 91.7155 97.5676 91.6532C97.8467 91.5598 98.1876 91.6688 98.4434 91.5235C98.775 91.3315 98.9005 90.875 99.2362 90.6882C99.3374 90.6363 99.2751 90.9735 99.3877 90.9995C101.744 91.5702 104.356 91.3419 106.516 92.4471C107.122 92.7532 105.632 93.4951 105.096 93.9102C104.884 94.0762 104.59 94.2163 104.329 94.154C102.799 93.796 101.42 92.7584 99.85 92.6857C99.3514 92.6598 98.9083 93.4017 98.9716 93.8946C99.0437 94.4602 99.6855 94.813 100.161 95.1295C100.404 95.2903 100.791 95.088 101.024 95.2592C101.401 95.5394 102.043 95.9597 101.863 96.3903C101.623 96.9714 100.704 96.8988 100.194 97.2671C99.7312 97.5992 99.4391 98.1336 98.9778 98.4657C98.4491 98.8497 97.7575 98.9793 97.2542 99.3996C96.7909 99.7784 96.4811 100.323 96.1382 100.816C95.8346 101.252 95.4865 101.677 95.3189 102.186C95.2053 102.523 95.1928 102.928 95.3246 103.265C95.4424 103.566 95.7288 103.789 96.0116 103.945C96.1709 104.033 96.4396 104.085 96.5574 103.945C97.2371 103.14 97.5105 102.025 98.2613 101.288C98.7589 100.8 99.5921 100.816 100.159 100.411C100.822 99.934 101.278 99.2232 101.895 98.6888C102.66 98.0298 103.419 97.3398 104.298 96.8365C104.504 96.7224 104.791 96.821 105.003 96.9247C105.901 97.3761 106.692 98.0195 107.582 98.4813C108.199 98.803 108.817 99.3114 109.512 99.2751C110.117 99.2491 110.678 98.7926 111.059 98.3204C111.226 98.1181 110.883 97.8068 110.917 97.5421C110.942 97.3398 111.25 97.2256 111.227 97.0233C111.202 96.8002 111.021 96.5356 110.799 96.5044C110.191 96.4162 109.572 96.8002 108.966 96.6964C108.283 96.5771 107.669 96.1931 107.065 95.8559C106.917 95.7729 106.707 95.612 106.754 95.4512C106.919 94.8908 107.443 94.4913 107.628 93.9362C107.742 93.5989 107.699 93.2097 107.623 92.8569C107.58 92.6598 107.341 92.5456 107.285 92.3485C107.264 92.281 107.354 92.1721 107.427 92.1825C107.791 92.2292 108.111 92.5041 108.478 92.5093C108.679 92.5093 108.795 92.1928 108.997 92.198C109.2 92.2032 109.306 92.4834 109.502 92.5352C109.841 92.6234 110.204 92.6546 110.551 92.6027C111.09 92.5301 111.581 92.1928 112.124 92.1773C112.327 92.1669 112.42 92.4834 112.615 92.5352C112.953 92.6286 113.319 92.665 113.664 92.6027C114.041 92.5404 114.347 92.1306 114.725 92.1773C118.264 92.6183 121.766 93.3239 125.258 94.0503C127.288 94.4706 129.287 95.0361 131.28 95.6068C132.299 95.9026 133.314 96.2243 134.289 96.6445C134.547 96.7535 134.663 97.1323 134.939 97.179C135.145 97.2153 135.277 96.7846 135.476 96.8521C136.612 97.2309 137.599 97.9676 138.701 98.4397C139.748 98.8859 140.888 99.1091 141.913 99.6071C143.566 100.411 145.19 101.288 146.709 102.321C147.94 103.161 148.89 104.37 150.129 105.195C150.983 105.766 152.043 105.958 152.931 106.472C153.498 106.798 154.002 107.234 154.466 107.696C155.581 108.811 156.672 109.958 157.657 111.193C158.529 112.283 159.476 113.367 160.021 114.649C160.17 115.001 159.878 115.474 159.571 115.702C159.361 115.857 159.027 115.411 158.805 115.546C158.276 115.868 157.857 116.382 157.563 116.921C157.425 117.175 157.513 117.513 157.586 117.793C157.638 117.985 157.88 118.099 157.923 118.296C157.945 118.4 157.845 118.509 157.753 118.561C157.137 118.903 156.448 119.111 155.836 119.463C155.586 119.609 155.467 119.962 155.188 120.034C154.677 120.164 154.124 120.128 153.604 120.034C153.404 120.003 153.305 119.744 153.113 119.676C152.941 119.614 152.738 119.614 152.566 119.676C152.374 119.744 152.274 119.998 152.075 120.034C151.549 120.128 150.996 120.154 150.473 120.045C149.633 119.868 148.748 119.681 148.042 119.194C146.986 118.462 146.183 117.419 145.316 116.47C145.169 116.314 145.174 116.044 145.018 115.894C144.132 115.027 143.207 114.192 142.217 113.445C142.073 113.336 141.862 113.372 141.682 113.377C141.159 113.377 140.613 113.294 140.114 113.45C139.929 113.507 139.97 113.824 139.83 113.953C139.481 114.291 138.998 114.477 138.671 114.835C138.218 115.333 137.994 116.018 137.518 116.49C137.132 116.88 136.555 117.02 136.138 117.373C135.349 118.031 134.816 119.012 133.916 119.51C133.594 119.687 133.232 119.183 132.864 119.178C132.662 119.178 132.526 119.578 132.344 119.489C131.971 119.308 131.893 118.758 131.542 118.535C129.808 117.419 127.977 116.459 126.147 115.515C125.984 115.432 125.78 115.422 125.6 115.458C124.246 115.712 122.818 115.79 121.57 116.371C120.786 116.734 120.447 117.715 119.725 118.187C118.826 118.779 117.845 119.681 116.783 119.51C115.407 119.292 114.321 118.135 113.325 117.165C112.836 116.688 112.971 115.764 112.471 115.297C111.883 114.747 110.978 114.69 110.27 114.311C109.824 114.067 109.474 113.673 109.025 113.44C108.861 113.351 108.66 113.372 108.475 113.372C107.952 113.377 107.421 113.341 106.908 113.445C106.709 113.481 106.605 113.782 106.403 113.782C106.201 113.782 106.1 113.45 105.898 113.45C105.53 113.45 105.214 113.777 104.846 113.782C104.638 113.782 104.513 113.403 104.312 113.46C103.75 113.611 103.35 114.145 102.799 114.332C102.353 114.488 101.823 114.27 101.391 114.462C101.037 114.612 100.939 115.136 100.587 115.292C100.437 115.359 100.351 115.022 100.189 115.001C99.6669 114.924 99.0785 114.768 98.6063 115.001C97.5635 115.52 96.904 116.646 95.8554 117.155C94.1204 117.99 92.1576 118.249 90.3717 118.976C89.7714 119.214 89.388 120.008 88.7404 120.029C87.0329 120.081 85.2429 119.884 83.6853 119.178C82.5687 118.675 81.8953 117.502 81.0906 116.579C80.7564 116.195 80.648 115.64 80.2869 115.282C79.6824 114.685 78.9736 114.192 78.2421 113.756C77.6449 113.403 77.015 113.03 76.327 112.936C75.9529 112.885 75.6494 113.351 75.2717 113.351C74.8939 113.351 74.5847 112.853 74.2163 112.936C73.1729 113.175 72.2162 113.72 71.2885 114.254C70.4925 114.711 69.9275 115.551 69.0735 115.889C68.4218 116.148 67.656 116.112 66.9732 115.956C64.8993 115.479 62.867 114.809 60.8923 114.016C60.6448 113.917 60.6738 113.507 60.4606 113.346C59.9454 112.957 59.2854 112.791 58.7635 112.412C58.3411 112.106 58.1305 111.52 57.6557 111.307C57.4041 111.193 57.1052 111.416 56.8629 111.551C55.9347 112.054 55.0407 112.63 54.1623 113.217C52.8839 114.078 51.744 115.147 50.3949 115.889C50.08 116.065 49.6489 116.018 49.3158 115.883C48.9038 115.717 48.7128 115.173 48.2915 115.027C48.0954 114.96 47.9579 115.406 47.7582 115.349C47.3145 115.224 46.4009 114.955 46.6271 114.555C47.3701 113.227 48.9245 112.558 49.9534 111.437C50.0312 111.354 49.6613 111.24 49.7469 111.162C50.52 110.472 51.4897 110.036 52.2804 109.367C53.0857 108.687 53.9122 107.992 54.5177 107.13C54.6967 106.871 54.2355 106.347 54.5048 106.191C54.8218 106.005 55.2296 106.684 55.5575 106.518C55.8102 106.389 55.3577 105.885 55.5419 105.667C55.7313 105.449 56.1687 105.704 56.4032 105.532C56.7913 105.247 56.9138 104.692 57.2853 104.386C58.3691 103.493 59.6694 102.876 60.732 101.958C60.94 101.776 60.9914 101.449 60.995 101.174C61.0007 100.759 61.0469 100.256 60.7589 99.9652C60.5716 99.7732 60.2022 99.9911 59.9755 100.136C59.3778 100.51 58.8397 100.977 58.3396 101.47C57.9945 101.812 57.8181 102.305 57.4575 102.632C57.0813 102.969 56.5646 103.12 56.1661 103.431C55.9155 103.628 55.8382 104.069 55.5284 104.142C55.2612 104.204 55.0335 103.613 54.7984 103.758C54.1364 104.157 53.7068 104.868 53.2735 105.512C53.148 105.693 53.3083 105.999 53.1677 106.171C52.8631 106.549 52.3635 106.715 52.02 107.058C51.7325 107.343 51.6355 107.815 51.2926 108.028C51.1551 108.111 51.044 107.789 50.8842 107.763C50.7893 107.748 50.7031 107.846 50.6393 107.919C50.2554 108.355 49.9622 108.874 49.5503 109.284C49.2099 109.626 48.7274 109.808 48.4005 110.161C48.0845 110.503 48.0477 111.094 47.6523 111.338C47.4505 111.463 47.2487 110.975 47.0152 111.022C46.762 111.069 46.6011 111.349 46.4642 111.567C45.9043 112.459 45.9645 114.088 44.9393 114.342C43.6022 114.68 42.3777 113.315 41.0583 112.916C40.7164 112.817 40.3469 112.848 39.99 112.848C39.633 112.848 39.2615 112.807 38.9217 112.916C37.7273 113.3 36.1842 113.315 35.4272 114.311C34.3885 115.686 34.4585 117.622 34.0912 119.303C34.0139 119.655 33.9277 120.065 34.1005 120.387C35.4594 122.878 37.2551 125.114 38.6181 127.609C38.7344 127.817 38.6498 128.196 38.4365 128.31C38.2581 128.403 38.1294 128.004 37.9286 127.978C37.6936 127.947 37.3501 127.941 37.2401 128.154C37.1581 128.31 37.5763 128.299 37.6858 128.44C38.0246 128.865 38.1175 129.503 38.5616 129.814C38.7499 129.949 39.0835 129.275 39.1723 129.488C39.7472 130.873 39.7108 132.45 40.2406 133.851C40.8087 135.356 41.7795 136.679 42.4436 138.142C42.7829 138.889 42.8576 139.75 43.2437 140.477C43.3656 140.705 43.7475 140.684 43.9042 140.892C44.8329 142.122 45.5323 143.512 46.4636 144.742C46.8756 145.287 47.3753 145.769 47.9164 146.184C48.4322 146.584 48.9951 146.942 49.6084 147.16C51.7216 147.912 53.8692 148.586 56.0566 149.079C56.2611 149.126 56.37 148.721 56.5791 148.732C57.1208 148.747 57.6075 149.152 58.1497 149.152C58.6919 149.152 59.1785 148.747 59.7202 148.732C59.9231 148.727 60.0128 149.048 60.2116 149.09C60.7242 149.199 61.2576 149.168 61.7816 149.168C62.4784 149.168 63.1825 149.204 63.8705 149.09C64.2358 149.033 64.5248 148.669 64.8947 148.664C65.2651 148.659 65.5624 149.048 65.9324 149.064C66.1425 149.074 66.2629 148.706 66.4715 148.732C67.4889 148.882 68.4778 149.209 69.4393 149.572C69.6992 149.671 69.8098 150.05 70.0827 150.102C70.2809 150.138 70.4007 149.78 70.602 149.79C70.972 149.811 71.2693 150.2 71.6397 150.19C71.9381 150.179 72.1196 149.801 72.4102 149.733C74.2033 149.313 76.0131 148.929 77.8441 148.732C78.0542 148.711 78.1694 149.022 78.3708 149.085C78.5435 149.142 78.7417 149.131 78.9176 149.085C79.274 148.991 79.5724 148.669 79.9413 148.664C80.3117 148.659 80.6085 149.048 80.979 149.064C81.1813 149.069 81.2882 148.778 81.4843 148.727C81.8232 148.638 82.1874 148.602 82.5334 148.659C82.9008 148.716 83.2017 149.048 83.5732 149.064C83.7745 149.074 83.8763 148.727 84.0781 148.732C84.4434 148.737 84.75 149.079 85.1158 149.085C85.4836 149.09 85.7996 148.752 86.1675 148.752C86.3703 148.752 86.4767 149.038 86.6728 149.09C87.0122 149.183 87.3728 149.168 87.724 149.168C88.5936 149.168 89.4705 149.209 90.3317 149.09C90.5414 149.064 90.6477 148.706 90.8573 148.732C91.9111 148.882 92.8772 149.443 93.93 149.603C94.138 149.629 94.2584 149.276 94.469 149.271C94.6704 149.266 94.7866 149.588 94.9879 149.583C95.1892 149.577 95.2909 149.251 95.4927 149.251C95.8606 149.251 96.1766 149.577 96.5444 149.583C96.7463 149.583 96.8734 149.204 97.0638 149.271C97.4825 149.417 97.6709 149.967 98.087 150.122C98.3371 150.216 98.6364 150.081 98.8694 149.946C99.1729 149.775 99.3099 149.344 99.644 149.245C100.15 149.095 100.707 149.162 101.228 149.245C101.428 149.277 101.53 149.583 101.733 149.583C101.934 149.583 102.045 149.313 102.236 149.251C102.416 149.194 102.617 149.204 102.803 149.235C104.348 149.494 105.86 149.961 107.419 150.122C107.63 150.143 107.741 149.816 107.946 149.764C108.283 149.671 108.646 149.65 108.993 149.692C111.335 149.987 113.69 150.247 115.991 150.776C116.166 150.817 115.935 151.175 116.056 151.31C116.398 151.684 116.84 151.959 117.289 152.187L117.473 152.042ZM143.245 150.112C143.238 150.003 143.115 149.801 143.225 149.775C143.455 149.718 143.902 149.707 143.916 149.946L143.245 150.112ZM132.885 150.112C132.652 150.055 132.193 150.184 132.187 149.946C132.181 149.712 132.646 149.723 132.876 149.775L132.885 150.112ZM137.533 149.1C136.948 148.784 135.82 148.815 135.777 148.151C135.677 146.61 136.855 145.245 137.185 143.735C137.23 143.533 136.849 143.408 136.859 143.201C136.878 142.827 137.247 142.531 137.266 142.163C137.383 139.911 137.515 137.639 137.265 135.397C137.212 134.925 136.563 134.712 136.386 134.271C136.326 134.121 136.623 134.022 136.649 133.862C136.663 133.779 136.538 133.607 136.486 133.67C136.162 134.079 135.836 134.52 135.718 135.029C135.255 137.026 134.949 139.06 134.763 141.105C134.743 141.323 135.151 141.447 135.114 141.665C134.791 143.58 134.015 145.401 133.713 147.32C133.655 147.689 133.997 148.021 134.057 148.394C134.069 148.467 133.988 148.555 133.914 148.566C133.222 148.643 132.52 148.716 131.828 148.638C131.458 148.602 131.16 148.254 130.788 148.234C130.579 148.223 130.457 148.597 130.25 148.56C129.364 148.41 128.581 147.85 127.695 147.699C127.488 147.663 127.367 148.021 127.156 148.026C126.955 148.031 126.839 147.715 126.638 147.715C126.436 147.715 126.32 148.031 126.119 148.026C125.917 148.021 125.806 147.751 125.614 147.694C125.44 147.637 125.241 147.637 125.067 147.694C124.875 147.751 124.764 148.036 124.562 148.026C124.192 148.011 123.895 147.621 123.525 147.627C123.145 147.632 122.842 148.094 122.466 148.047C121.325 147.896 119.845 147.985 119.157 147.061C118.601 146.314 119.564 145.24 119.69 144.322C120.046 141.717 120.435 139.112 120.602 136.487C120.626 136.113 120.265 135.792 120.256 135.418C120.252 135.216 120.623 135.091 120.567 134.899C120.478 134.593 120.208 134.313 119.907 134.204C119.655 134.111 119.357 134.245 119.125 134.38C118.931 134.489 118.722 134.676 118.7 134.899C118.679 135.107 119.031 135.226 119.021 135.434C119.007 135.714 118.689 135.916 118.638 136.196C118.098 139.128 117.793 142.106 117.254 145.043C117.113 145.811 116.939 146.584 116.6 147.284C116.428 147.642 116.139 148 115.764 148.119C115.257 148.28 114.693 148.151 114.172 148.052C113.807 147.985 113.513 147.668 113.145 147.621C112.628 147.544 112.09 147.585 111.578 147.689C111.369 147.73 111.262 148.068 111.051 148.047C109.318 147.891 107.637 147.341 105.905 147.175C105.695 147.154 105.576 147.507 105.365 147.507C105.162 147.507 105.058 147.212 104.859 147.17C104.512 147.092 104.141 147.092 103.795 147.17C103.588 147.217 103.478 147.559 103.269 147.528C102.133 147.341 100.576 147.512 99.9595 146.542C99.4334 145.712 100.7 144.705 100.868 143.74C100.904 143.533 100.53 143.408 100.54 143.201C100.558 142.827 100.887 142.526 100.946 142.163C101.002 141.815 100.967 141.452 100.878 141.11C100.827 140.918 100.545 140.809 100.54 140.607C100.534 140.404 100.85 140.29 100.85 140.088C100.85 139.885 100.528 139.771 100.54 139.569C100.563 139.195 100.905 138.9 100.947 138.531C101.043 137.67 101.043 136.798 100.947 135.937C100.905 135.569 100.557 135.273 100.54 134.899C100.531 134.697 100.835 134.593 100.878 134.396C100.953 134.048 100.953 133.675 100.878 133.327C100.835 133.13 100.545 133.026 100.54 132.824C100.535 132.621 100.939 132.487 100.851 132.3C100.748 132.087 100.414 132.04 100.176 132.061C99.8537 132.092 99.449 132.16 99.2793 132.435C98.8294 133.171 98.5835 134.033 98.4471 134.878C98.4138 135.086 98.7563 135.2 98.8025 135.402C98.8798 135.75 98.8772 136.124 98.8025 136.471C98.7599 136.669 98.4657 136.772 98.4647 136.975C98.4637 137.177 98.7355 137.286 98.7973 137.478C98.8554 137.659 98.8367 137.857 98.8102 138.043C98.5451 139.932 98.0942 141.8 97.9246 143.699C97.9059 143.906 98.2577 144.026 98.2561 144.238C98.2551 144.441 97.9562 144.545 97.9178 144.742C97.8006 145.354 98.1472 146.086 97.8011 146.599C97.4306 147.144 96.6856 147.362 96.0432 147.523C95.8393 147.575 95.7262 147.212 95.5202 147.17C95.0071 147.061 94.4742 147.092 93.9502 147.092C93.5989 147.092 93.2378 147.077 92.899 147.17C92.6946 147.227 92.5836 147.554 92.3729 147.528C91.151 147.372 90.008 146.776 88.7825 146.656C88.4047 146.62 88.1033 147.071 87.724 147.077C87.3536 147.082 87.0568 146.693 86.6863 146.677C86.484 146.672 86.3792 146.973 86.181 147.014C85.8339 147.087 85.4515 147.128 85.1173 147.009C85.0021 146.968 85.0602 146.739 85.1313 146.641C85.48 146.148 86.0793 145.837 86.3346 145.292C86.4228 145.105 86.0103 144.965 86.0123 144.757C86.0144 144.555 86.3454 144.456 86.3454 144.254C86.3454 143.886 86.0123 143.569 86.0123 143.201C86.0123 142.998 86.2847 142.89 86.3454 142.698C86.4004 142.521 86.4046 142.324 86.3454 142.148C86.2796 141.956 86.0554 141.852 85.9895 141.66C85.9303 141.483 85.9418 141.286 85.9895 141.11C86.087 140.752 86.3973 140.456 86.4191 140.088C86.5416 138.018 86.6282 135.927 86.4196 133.867C86.3107 132.793 85.6559 131.833 85.4758 130.769C85.4406 130.562 85.7519 130.432 85.8038 130.23C85.8214 130.157 85.7208 130.058 85.6507 130.074C85.4541 130.121 85.3321 130.375 85.1308 130.385C84.9695 130.39 84.8558 130.027 84.723 130.121C84.3442 130.385 84.1206 130.831 83.9043 131.241C83.8181 131.402 83.8404 131.605 83.8399 131.791C83.8394 132.315 83.7683 132.86 83.9022 133.374C84.0915 134.095 84.8008 134.676 84.7941 135.423C84.779 137.182 84.0537 138.863 83.8399 140.612C83.7346 141.468 83.7439 142.34 83.8404 143.201C83.882 143.569 84.2457 143.865 84.2472 144.238C84.2488 144.607 83.8487 144.908 83.8487 145.276C83.8487 145.65 84.1709 145.956 84.2477 146.319C84.2633 146.387 84.1777 146.495 84.1051 146.485C83.7341 146.433 83.4062 146.091 83.0341 146.137C81.9783 146.272 81.0153 146.859 79.9615 147.009C79.7519 147.035 79.6435 146.693 79.4359 146.651C78.9228 146.542 78.3899 146.573 77.8659 146.573C77.5146 146.573 77.154 146.558 76.8147 146.651C76.6186 146.703 76.5122 146.983 76.3094 146.988C76.108 146.994 75.9918 146.677 75.7905 146.677C75.5887 146.677 75.473 146.994 75.2717 146.988C75.0703 146.983 74.9593 146.713 74.7668 146.656C74.593 146.599 74.3922 146.594 74.22 146.656C74.029 146.719 73.9206 146.942 73.7302 147.009C73.5522 147.071 73.3467 147.071 73.1641 147.02C72.2623 146.786 71.3279 146.599 70.5019 146.169C70.3602 146.096 70.7992 145.93 70.7764 145.774C70.422 143.346 69.7132 140.98 69.389 138.552C69.3609 138.344 69.6764 138.225 69.7423 138.028C69.7994 137.851 69.7973 137.654 69.7423 137.478C69.6816 137.286 69.4133 137.177 69.4092 136.975C69.4045 136.772 69.7309 136.658 69.7195 136.456C69.6987 136.087 69.3179 135.786 69.321 135.418C69.3241 135.039 69.7838 134.738 69.7371 134.36C69.6261 133.467 69.0206 132.694 68.8727 131.807C68.8385 131.599 69.1581 131.48 69.2235 131.283C69.28 131.106 69.3116 130.894 69.2229 130.733C69.0667 130.453 68.8457 130.152 68.5406 130.053C68.2817 129.965 67.9382 130.048 67.7447 130.24C67.3187 130.66 66.9748 131.2 66.8025 131.771C66.7428 131.968 67.1273 132.097 67.1252 132.305C67.1237 132.507 66.8539 132.616 66.7921 132.808C66.735 132.99 66.7231 133.197 66.7828 133.374C67.0168 134.069 67.5102 134.681 67.6596 135.402C67.7022 135.605 67.313 135.714 67.311 135.921C67.3073 136.29 67.6441 136.606 67.6441 136.975C67.6441 137.177 67.3717 137.286 67.311 137.478C67.256 137.654 67.256 137.851 67.311 138.028C67.3717 138.22 67.6451 138.329 67.6441 138.531C67.643 138.734 67.3322 138.837 67.3058 139.034C67.1932 139.896 67.1221 140.778 67.2368 141.639C67.4334 143.118 69.1747 144.846 68.233 146.003C67.0801 147.419 64.6716 146.874 62.852 147.025C62.3036 147.066 61.806 146.656 61.2607 146.584C60.9136 146.532 60.5499 146.558 60.2116 146.651C60.0071 146.703 59.8961 147.035 59.686 147.009C58.6758 146.874 57.3532 147.004 56.7394 146.189C55.5606 144.622 55.3458 142.521 54.87 140.622C54.8197 140.42 55.1502 140.3 55.2145 140.103C55.2721 139.927 55.2934 139.714 55.2213 139.538C54.9977 139.003 54.4954 138.588 54.3501 138.028C54.2962 137.82 54.731 137.685 54.6884 137.478C54.5426 136.751 53.9781 136.16 53.8282 135.434C53.7856 135.231 54.2438 135.086 54.154 134.899C53.9755 134.52 53.4645 134.411 53.1931 134.095C52.8092 133.649 52.7241 132.912 52.2088 132.621C51.938 132.471 51.595 132.85 51.4036 133.094C51.2386 133.306 51.1333 133.628 51.2272 133.877C51.3828 134.292 51.938 134.479 52.0786 134.899C52.1456 135.096 51.7175 135.231 51.7497 135.439C51.9116 136.487 52.4584 137.452 52.6338 138.5C52.7967 139.475 52.5445 140.498 52.7567 141.468C52.8418 141.857 53.3721 142.028 53.4904 142.407C53.5729 142.672 53.2087 142.957 53.3026 143.216C53.4541 143.631 54.0072 143.818 54.154 144.238C54.2209 144.43 53.8391 144.555 53.8437 144.757C53.8479 144.96 54.1488 145.063 54.1768 145.261C54.21 145.499 54.2448 145.899 54.0139 145.966C53.6627 146.075 53.3285 145.639 52.9612 145.639C52.7531 145.639 52.6219 146.039 52.4273 145.961C51.2013 145.494 50.08 144.783 48.9531 144.109C48.7305 143.974 48.5588 143.766 48.4031 143.559C47.5086 142.371 46.6115 141.177 45.8078 139.927C45.0628 138.765 44.3275 137.587 43.763 136.326C43.2053 135.081 42.9791 133.711 42.4561 132.45C42.3455 132.186 41.9849 132.072 41.8832 131.802C41.7592 131.47 41.7395 131.091 41.8142 130.748C41.8967 130.37 42.0161 129.929 42.3383 129.711C42.5593 129.565 42.8675 129.965 43.1176 129.877C43.5872 129.711 43.9758 129.353 44.3291 129C44.4059 128.922 44.4292 128.699 44.3239 128.673C44.0915 128.621 43.8595 128.86 43.6219 128.829C43.3153 128.792 43.0584 128.398 42.7617 128.486C42.3964 128.59 42.3232 129.166 41.9689 129.301C41.8184 129.358 41.8801 128.979 41.767 128.865C41.326 128.419 40.6012 128.216 40.3319 127.651C40.1705 127.308 40.7428 126.95 40.6795 126.582C40.555 125.856 40.0403 125.249 39.8006 124.553C39.7041 124.273 39.8509 123.915 39.6787 123.677C39.3969 123.282 38.8314 123.173 38.533 122.795C37.8222 121.892 37.0222 120.979 36.6891 119.879C36.384 118.877 36.3103 117.705 36.6948 116.729C36.9506 116.075 37.7423 115.738 38.4054 115.515C39.0701 115.292 39.811 115.37 40.5067 115.453C40.8751 115.494 41.162 115.863 41.5325 115.878C41.9056 115.894 42.2356 115.448 42.5987 115.536C44.327 115.951 45.9702 116.672 47.616 117.347C48.3818 117.658 49.0439 118.197 49.8201 118.483C50.1532 118.607 50.5304 118.581 50.8837 118.545C51.1525 118.519 51.4389 118.462 51.6547 118.296C52.8906 117.367 53.9755 116.247 55.1974 115.297C55.6166 114.97 56.0821 114.695 56.5651 114.477C56.7317 114.4 56.9382 114.363 57.112 114.42C57.7776 114.643 58.4278 114.929 59.0265 115.297C59.3534 115.494 59.5013 115.941 59.8525 116.091C61.9922 117.015 64.2025 117.772 66.4206 118.488C66.7594 118.597 67.1377 118.623 67.4853 118.545C68.5033 118.332 69.5207 118.063 70.4702 117.637C70.8178 117.481 70.9839 117.066 71.2921 116.843C71.5661 116.646 71.881 116.501 72.198 116.382C73.0307 116.065 73.8547 115.681 74.7336 115.531C74.9406 115.494 75.0615 115.858 75.2717 115.858C75.473 115.858 75.5835 115.588 75.7755 115.525C75.9539 115.468 76.1646 115.448 76.3379 115.515C76.988 115.785 77.6931 116.023 78.1938 116.522C79.1345 117.445 79.7141 118.685 80.5717 119.692C81.2561 120.496 81.9368 121.331 82.8079 121.928C83.0295 122.078 83.3288 121.71 83.594 121.752C84.8102 121.944 85.9568 122.53 87.1849 122.623C87.4713 122.644 87.5824 122.177 87.8491 122.073C88.8095 121.689 89.8508 121.534 90.8174 121.165C91.0322 121.087 91.1266 120.755 91.3554 120.735C91.564 120.714 91.688 121.108 91.8924 121.062C93.2954 120.745 94.6854 120.309 95.9836 119.692C97.1167 119.152 97.9894 118.146 99.1236 117.611C99.3115 117.523 99.4448 117.891 99.6425 117.954C99.8215 118.016 100.034 118.037 100.207 117.964C101.952 117.222 103.545 116.117 105.347 115.531C105.706 115.416 106.025 115.94 106.403 115.946C106.773 115.946 107.07 115.562 107.44 115.546C107.642 115.536 107.743 115.873 107.945 115.878C108.274 115.889 108.571 115.505 108.888 115.593C109.453 115.743 109.972 116.107 110.368 116.537C110.932 117.149 111.166 118.011 111.701 118.649C112.535 119.645 113.466 120.569 114.454 121.409C114.66 121.586 114.955 121.648 115.225 121.658C116.271 121.71 117.335 121.783 118.367 121.601C119.048 121.477 119.68 121.129 120.269 120.761C121.111 120.237 121.764 119.432 122.628 118.945C123.387 118.519 124.229 118.223 125.083 118.052C125.345 118 125.628 118.146 125.85 118.296C126.209 118.54 126.41 118.981 126.78 119.204C127.374 119.562 128.015 119.889 128.695 120.024C128.9 120.065 129.053 119.588 129.232 119.697C130.031 120.179 130.401 121.321 131.294 121.591C132.626 121.995 134.192 122.141 135.472 121.591C136.868 120.994 137.589 119.406 138.732 118.41C139.143 118.047 139.702 117.881 140.115 117.523C140.283 117.378 140.263 117.082 140.425 116.932C140.794 116.584 141.171 115.961 141.67 116.055C142.326 116.174 142.693 116.916 143.129 117.419C143.573 117.933 143.814 118.607 144.294 119.085C144.679 119.474 145.251 119.619 145.674 119.967C146.284 120.46 146.695 121.202 147.378 121.591C147.784 121.824 148.344 121.534 148.771 121.726C149.125 121.876 149.204 122.452 149.575 122.556C149.895 122.644 150.174 122.198 150.505 122.203C150.875 122.213 151.172 122.603 151.542 122.603C151.913 122.603 152.21 122.198 152.58 122.203C152.959 122.208 153.261 122.665 153.637 122.618C154.522 122.514 155.362 122.136 156.173 121.767C156.749 121.503 157.167 120.932 157.768 120.735C157.967 120.667 158.102 121.113 158.305 121.062C159.507 120.755 160.645 120.231 161.775 119.723C161.925 119.655 162.042 119.5 162.096 119.344C162.155 119.173 162.237 118.908 162.091 118.799C161.931 118.685 161.674 119.033 161.513 118.924C161.157 118.68 160.657 118.301 160.748 117.876C160.845 117.419 161.455 117.217 161.905 117.092C162.105 117.035 162.242 117.482 162.438 117.414C162.859 117.269 163.051 116.724 163.462 116.558C163.796 116.423 164.196 116.454 164.544 116.548C165.205 116.729 165.897 116.937 166.428 117.373C166.858 117.72 167.18 118.244 167.296 118.789C167.479 119.645 167.545 120.584 167.29 121.425C167.016 122.328 166.378 123.09 165.771 123.811C165.348 124.315 164.69 124.574 164.242 125.057C163.655 125.684 163.299 126.509 162.688 127.116C162.497 127.308 162.187 127.381 161.919 127.36C161.55 127.329 161.252 126.982 160.882 126.961C160.68 126.95 160.564 127.283 160.363 127.272C159.991 127.251 159.692 126.914 159.323 126.867C158.804 126.8 158.268 126.831 157.755 126.935C157.556 126.971 157.452 127.283 157.25 127.272C156.878 127.257 156.58 126.904 156.21 126.867C155.352 126.769 154.477 126.769 153.619 126.867C153.25 126.904 152.952 127.251 152.58 127.272C152.379 127.283 152.268 127.002 152.076 126.94C151.897 126.883 151.694 126.883 151.512 126.93C150.252 127.236 149.041 127.729 147.77 127.978C145.77 128.372 143.751 128.715 141.717 128.865C141.337 128.891 141.006 128.434 140.632 128.507C140.059 128.616 139.68 129.265 139.105 129.358C138.732 129.42 138.427 128.974 138.05 128.943C137.185 128.86 136.306 128.896 135.445 129.01C135.244 129.036 135.142 129.358 134.939 129.348C134.568 129.332 134.267 129 133.899 128.943C133.553 128.886 133.189 128.922 132.85 129.01C132.654 129.062 132.547 129.353 132.345 129.348C131.975 129.332 131.678 128.917 131.309 128.948C129.564 129.099 127.881 129.7 126.14 129.887C125.93 129.908 125.811 129.56 125.6 129.555C125.399 129.55 125.283 129.866 125.081 129.866C124.88 129.866 124.764 129.55 124.562 129.555C124.359 129.56 124.257 129.861 124.057 129.892C123.25 130.022 122.404 129.846 121.607 130.027C121.314 130.095 121.221 130.593 120.921 130.614C120.659 130.634 120.572 130.074 120.314 130.115C119.947 130.178 119.851 130.837 119.479 130.857C119.119 130.878 118.933 130.375 118.606 130.219C118.365 130.105 118.082 130.043 117.817 130.074C117.617 130.1 117.5 130.39 117.298 130.385C117.097 130.38 116.987 130.115 116.795 130.053C116.615 129.996 116.413 130.001 116.228 130.043C115.017 130.313 113.86 130.847 112.627 130.992C112.26 131.034 111.961 130.608 111.591 130.593C111.389 130.588 111.284 130.894 111.086 130.93C110.572 131.034 110.037 131.065 109.517 130.997C109.148 130.951 108.849 130.614 108.478 130.593C108.277 130.582 108.16 130.914 107.959 130.904C107.581 130.883 107.267 130.422 106.898 130.505C106.437 130.603 106.228 131.21 105.787 131.376C105.651 131.428 105.721 131.065 105.6 130.987C104.409 130.224 103.092 129.664 101.909 128.891C101.583 128.678 101.458 128.206 101.105 128.045C100.956 127.978 100.869 128.305 100.708 128.336C100.354 128.408 99.974 128.44 99.6269 128.346C98.9182 128.144 98.3163 127.641 97.6008 127.464C97.4343 127.423 97.3289 127.807 97.1697 127.744C96.8469 127.62 96.7582 127.137 96.4381 127.008C96.2871 126.945 96.188 127.277 96.0245 127.272C95.8237 127.262 95.7081 126.961 95.5067 126.961C95.3049 126.961 95.1892 127.272 94.9879 127.272C94.7866 127.272 94.6704 126.961 94.469 126.961C94.2677 126.961 94.1515 127.272 93.9502 127.272C93.7484 127.272 93.6327 126.956 93.4313 126.961C93.2197 126.966 93.1014 127.308 92.8907 127.293C90.118 127.101 87.3774 126.567 84.6073 126.343C83.7418 126.276 82.8401 126.183 82.0032 126.416C81.3977 126.582 81.0744 127.371 80.458 127.495C80.0658 127.568 79.8017 126.888 79.4038 126.925C78.7095 126.987 78.102 127.433 77.4897 127.765C77.2755 127.884 77.1919 128.289 76.9496 128.258C76.3379 128.18 75.8751 127.604 75.2706 127.48C75.0729 127.438 74.9624 127.765 74.7673 127.817C74.4872 127.89 74.1644 127.957 73.8977 127.843C73.4313 127.641 73.1641 127.085 72.6821 126.925C72.4834 126.862 72.3568 127.34 72.1586 127.272C71.7357 127.132 71.5173 126.644 71.1344 126.416C70.9803 126.323 70.7795 126.349 70.5999 126.349C70.2497 126.349 69.8621 126.255 69.5508 126.416C68.923 126.738 68.5609 127.495 67.8988 127.744C67.5875 127.864 67.2996 127.417 66.9685 127.386C66.2753 127.319 65.5484 127.257 64.8812 127.454C64.4547 127.578 64.3022 128.305 63.857 128.31C63.4144 128.315 63.2531 127.568 62.8193 127.48C62.4566 127.407 62.1521 127.895 61.7816 127.879C61.2368 127.858 60.7646 127.449 60.223 127.386C59.5319 127.303 58.8236 127.345 58.1362 127.454C57.9359 127.485 57.8337 127.786 57.6308 127.791C57.4217 127.791 57.2993 127.423 57.0943 127.464C56.3716 127.615 55.777 128.175 55.0542 128.325C54.8493 128.367 54.7273 128.004 54.5177 127.999C54.3164 127.993 54.2002 128.31 53.9989 128.31C53.7913 128.305 53.6652 127.931 53.4655 127.988C53.0219 128.113 52.6042 128.408 52.3344 128.787C52.24 128.917 52.64 129.036 52.5969 129.192C52.5233 129.462 52.308 129.913 52.049 129.814C51.593 129.643 51.5432 128.958 51.1582 128.657C50.946 128.497 50.6326 128.481 50.3669 128.517C50.1672 128.543 50.0395 128.891 49.8476 128.829C49.4631 128.704 49.2877 127.879 48.9193 128.045C48.2594 128.346 48.277 129.436 47.6637 129.82C47.4256 129.97 47.1594 129.467 47.0987 129.192C47.0546 128.995 47.3618 128.865 47.4095 128.668C47.4271 128.6 47.3395 128.491 47.2668 128.502C46.9062 128.559 46.5949 128.849 46.2302 128.849C45.8618 128.855 45.5406 128.574 45.1764 128.517C45.1053 128.507 44.9745 128.621 45.0244 128.668C45.3959 129.052 46.2447 129.124 46.2826 129.654C46.3152 130.11 44.8039 130.121 45.1504 130.416C45.6838 130.873 46.5555 130.556 47.2518 130.479C47.6217 130.442 47.92 130.1 48.2915 130.074C48.4923 130.064 48.6086 130.375 48.8093 130.385C48.9728 130.39 49.0719 130.058 49.2229 130.121C49.543 130.25 49.6079 130.831 49.9534 130.857C50.2346 130.883 50.4645 130.505 50.5221 130.23C50.5631 130.032 50.216 129.923 50.189 129.726C50.1578 129.493 50.1677 128.901 50.3633 129.036C51.0342 129.493 51.2723 130.422 51.9245 130.904C52.0869 131.023 52.2322 130.614 52.4288 130.567C52.888 130.453 53.3934 130.582 53.8406 130.432C54.1239 130.333 54.2251 129.866 54.5239 129.846C54.7958 129.83 54.9012 130.359 55.173 130.344C56.6979 130.25 58.1605 129.638 59.6849 129.534C60.0652 129.508 60.3667 129.923 60.7455 129.96C61.7769 130.069 62.8234 130.064 63.8549 129.96C64.2248 129.929 64.5237 129.591 64.8936 129.555C65.0566 129.539 65.1562 129.882 65.3072 129.82C65.6273 129.69 65.716 129.207 66.0382 129.083C66.1923 129.021 66.2785 129.332 66.4388 129.373C66.7786 129.462 67.1418 129.498 67.4868 129.441C68.0259 129.353 68.5064 129.015 69.047 128.943C69.57 128.865 70.1247 128.849 70.6301 129.005C71.1878 129.171 71.5795 129.731 72.1435 129.877C72.3459 129.929 72.4616 129.581 72.6639 129.529C73.0027 129.436 73.3675 129.405 73.713 129.462C74.2511 129.55 74.7269 129.934 75.2717 129.955C75.6421 129.97 75.9394 129.576 76.3094 129.555C76.5107 129.545 76.6269 129.872 76.8282 129.866C77.0295 129.861 77.1406 129.591 77.3331 129.534C77.5069 129.477 77.7066 129.477 77.8799 129.534C78.0797 129.597 78.199 129.929 78.4039 129.882C79.8162 129.571 81.0957 128.766 82.5179 128.502C82.8909 128.434 83.1991 128.875 83.5748 128.922C84.0936 128.995 84.6296 128.958 85.1433 128.855C85.342 128.818 85.4457 128.533 85.6476 128.517C85.81 128.507 85.9049 128.834 86.0585 128.782C86.5 128.626 86.7398 128.03 87.2036 127.973C87.4381 127.941 87.0251 128.424 87.0272 128.657C87.0298 128.901 86.9758 129.384 87.2161 129.358C87.7967 129.301 88.1609 128.6 88.7332 128.486C89.0969 128.414 89.4144 128.849 89.7854 128.849C90.16 128.855 90.4848 128.44 90.8547 128.502C91.5832 128.621 92.1711 129.218 92.8949 129.363C93.0998 129.405 93.2181 129.078 93.4174 129.015C93.5906 128.958 93.7878 128.969 93.9642 129.015C94.2615 129.093 94.5142 129.462 94.8105 129.379C95.1788 129.28 95.2343 128.523 95.6141 128.564C96.1044 128.616 96.2674 129.322 96.6871 129.581C97.2786 129.944 97.9199 130.271 98.6022 130.401C98.8082 130.442 98.9213 130.105 99.1241 130.048C99.4012 129.97 99.7442 129.866 99.986 130.022C100.391 130.287 100.509 130.847 100.869 131.169C101.316 131.568 101.819 131.931 102.375 132.16C103.327 132.549 104.321 132.891 105.345 133C105.722 133.037 106.023 132.58 106.403 132.58C106.771 132.58 107.061 132.948 107.426 133C107.661 133.037 108.002 133.037 108.115 132.829C108.212 132.647 107.755 132.502 107.804 132.305C107.847 132.134 108.135 132.046 108.294 132.118C108.759 132.326 109.017 132.886 109.493 133.073C109.827 133.203 110.219 133.094 110.567 133.005C110.763 132.959 110.869 132.668 111.072 132.668C111.275 132.668 111.381 132.954 111.578 133.005C111.916 133.094 112.277 133.12 112.625 133.078C114.703 132.824 116.748 132.31 118.833 132.129C119.045 132.108 119.155 132.429 119.36 132.487C119.698 132.58 120.061 132.606 120.408 132.559C123.349 132.134 126.242 131.371 129.199 131.075C129.747 131.023 130.244 131.454 130.79 131.516C131.31 131.579 131.844 131.547 132.358 131.449C132.722 131.381 133.013 131.029 133.383 131.023C133.753 131.018 134.05 131.407 134.42 131.423C134.622 131.433 134.723 131.091 134.925 131.091C135.293 131.091 135.609 131.423 135.977 131.423C136.178 131.423 136.289 131.148 136.482 131.091C136.656 131.034 136.856 131.029 137.029 131.091C137.221 131.158 137.32 131.418 137.52 131.449C138.206 131.563 138.915 131.605 139.605 131.522C143.01 131.112 146.401 130.572 149.779 129.981C150.205 129.908 150.561 129.54 150.993 129.524C151.365 129.508 151.681 129.83 152.048 129.892C152.397 129.955 152.784 130.027 153.112 129.892C153.53 129.721 153.703 128.969 154.151 129.026C155.06 129.14 155.806 129.825 156.567 130.339C157.016 130.639 157.308 131.143 157.755 131.449C157.903 131.553 158.109 131.516 158.289 131.516C158.817 131.522 159.368 131.615 159.872 131.454C160.945 131.117 161.843 130.292 162.943 130.058C163.181 130.007 163.202 130.531 163.134 130.764C163.051 131.049 162.686 131.174 162.546 131.433C162.06 132.341 161.782 133.348 161.269 134.24C160.363 135.812 159.191 137.224 158.301 138.801C157.631 139.994 157.268 141.343 156.601 142.537C156.183 143.289 155.627 143.953 155.063 144.596C154.403 145.349 153.704 146.075 152.938 146.719C152.532 147.061 152.092 147.44 151.571 147.538C151.197 147.606 150.862 147.118 150.487 147.18C149.761 147.305 149.185 147.933 148.46 148.057C148.092 148.119 147.766 147.72 147.392 147.715C147.189 147.71 147.066 147.979 146.87 148.026C146.799 148.042 146.685 147.953 146.701 147.886C147.181 145.795 147.852 143.756 148.328 141.67C148.838 139.439 149.363 137.203 149.658 134.93C149.777 134.028 150.012 132.99 149.562 132.191C149.352 131.817 149.005 132.954 148.582 133.026C148.299 133.073 148.211 132.404 147.93 132.461C147.564 132.538 147.335 132.964 147.204 133.317C147.079 133.654 147.127 134.043 147.209 134.396C147.255 134.593 147.503 134.692 147.57 134.884C147.629 135.055 147.656 135.273 147.569 135.434C147.357 135.823 146.86 136.035 146.718 136.456C146.653 136.648 146.988 136.767 147.05 136.959C147.108 137.141 147.11 137.343 147.062 137.525C146.473 139.771 145.637 141.95 145.143 144.218C145.097 144.43 145.543 144.565 145.483 144.773C145.149 145.93 145.084 147.502 144.027 148.078L137.533 149.1ZM73.7364 148.036C73.5034 147.979 73.0442 148.109 73.038 147.87C73.0323 147.637 73.4972 147.647 73.7276 147.699L73.7364 148.036ZM112.131 132.471C111.898 132.414 111.439 132.544 111.433 132.305C111.427 132.071 111.892 132.082 112.122 132.134L112.131 132.471ZM104.867 131.952C104.634 131.895 104.175 132.025 104.169 131.786C104.163 131.553 104.628 131.563 104.858 131.615L104.867 131.952ZM101.582 130.764C101.809 130.702 102.028 130.582 102.262 130.577C102.338 130.577 102.472 130.707 102.408 130.748C102.208 130.873 101.954 130.914 101.717 130.92L101.582 130.764ZM128.734 130.396C128.501 130.339 128.042 130.468 128.036 130.23C128.03 129.996 128.495 130.007 128.725 130.058L128.734 130.396ZM133.751 129.726C133.978 129.664 134.196 129.545 134.431 129.54C134.507 129.54 134.641 129.669 134.577 129.711C134.376 129.835 134.123 129.877 133.885 129.882L133.751 129.726ZM99.16 128.839C98.927 128.782 98.4678 128.912 98.4616 128.673C98.4559 128.44 98.9208 128.45 99.1511 128.502L99.16 128.839ZM62.3238 128.839C61.9715 128.87 61.6192 128.958 61.2674 128.922C61.0272 128.901 60.4144 128.844 60.5872 128.673C60.8772 128.388 61.3733 128.424 61.7795 128.424C62.0213 128.424 62.2678 128.528 62.4592 128.673L62.3238 128.839ZM59.2076 128.849C58.8537 129.015 58.5222 129.239 58.1465 129.348C58.076 129.368 57.9795 129.28 57.9784 129.207C57.9753 128.964 57.9255 128.616 58.1351 128.497C58.4423 128.32 58.8626 128.388 59.1993 128.497L59.2076 128.849ZM35.4848 128.175C35.4303 127.941 35.5606 127.485 35.3219 127.48C35.0853 127.469 35.0957 127.936 35.1496 128.165L35.4848 128.175ZM48.8244 111.183C48.7621 110.954 48.6423 110.736 48.6381 110.503C48.6371 110.425 48.7704 110.295 48.8104 110.358C48.9375 110.555 48.979 110.809 48.9827 111.048L48.8244 111.183ZM67.5102 97.7081C67.2773 97.6511 66.8181 97.7808 66.8118 97.5421C66.8061 97.3087 67.271 97.3191 67.5014 97.3709L67.5102 97.7081ZM102.782 96.1361C102.606 95.996 102.376 95.9026 102.254 95.7158C102.179 95.5964 102.109 95.3474 102.239 95.2955C102.464 95.2125 102.814 95.2488 102.944 95.4512L102.782 96.1361ZM100.699 94.0762C100.693 93.9672 100.569 93.7649 100.679 93.739C100.91 93.6819 101.357 93.6715 101.371 93.9102L100.699 94.0762ZM80.6983 83.5436C81.1969 83.0248 81.8776 82.6356 82.1941 81.9923C82.3358 81.7017 81.7142 81.3229 81.9134 81.0687C82.4235 80.4253 83.4259 80.3372 83.9826 79.7353C84.6566 79.0089 85.081 78.0749 85.5075 77.1773C85.8769 76.3991 86.2168 75.5897 86.3584 74.744C86.5037 73.8723 86.5421 72.9539 86.3553 72.0926C86.2323 71.5219 85.6896 71.1276 85.4608 70.5932C85.343 70.313 85.4831 69.9601 85.3352 69.7007C85.1448 69.3635 84.6607 69.2494 84.5014 68.8965C84.4319 68.7409 84.8252 68.6319 84.778 68.471C84.6307 67.9626 84.3292 67.4905 83.9805 67.091C83.6324 66.6914 83.0923 66.4943 82.726 66.1155C82.3716 65.7419 81.8564 65.3684 81.8413 64.8547C81.8252 64.3151 82.3176 63.8845 82.6471 63.459C83.0373 62.9557 83.6044 62.6081 83.9826 62.0944C84.6696 61.1657 85.3534 60.2162 85.8261 59.1629C85.9355 58.9191 85.7846 58.613 85.6497 58.3795C85.5329 58.1771 85.341 57.9021 85.1121 57.9385C84.407 58.0578 83.6625 58.3068 83.1499 58.8049C82.5355 59.4068 82.4266 60.3771 81.9072 61.0567C81.5943 61.4666 81.0168 61.6223 80.6972 62.027C80.2837 62.5458 79.8904 63.1373 79.7519 63.7858C79.5682 64.6471 79.5496 65.5707 79.7592 66.4268C79.8583 66.8315 80.2926 67.0806 80.621 67.34C80.9935 67.6306 81.5077 67.7343 81.8434 68.0663C82.1988 68.4243 82.3031 68.9744 82.6357 69.3531C82.9262 69.68 83.4487 69.7837 83.6812 70.1573C83.7709 70.2974 83.3662 70.4168 83.4025 70.5828C83.5997 71.4752 84.1554 72.2639 84.3442 73.1615C84.4532 73.6751 84.4548 74.2407 84.2799 74.7388C83.9764 75.6053 83.415 76.3575 82.9439 77.1462C82.6227 77.6806 82.3067 78.2254 81.9051 78.7027C81.3479 79.3668 80.5359 79.8131 80.0803 80.5499C79.6279 81.2814 79.2917 82.1375 79.2497 82.9936C79.2336 83.3257 79.6201 83.5955 79.9268 83.7096L80.6983 83.5436ZM113.333 82.5111C113.757 82.1012 114.228 81.738 114.604 81.2866C115.094 80.6952 115.676 80.1244 115.919 79.398C116.036 79.0452 115.636 78.7079 115.587 78.3447C115.573 78.2462 115.673 78.1684 115.742 78.1009C115.9 77.9401 116.039 77.7117 116.259 77.6702C116.418 77.6443 116.535 78.0282 116.667 77.9348C117.045 77.6702 117.385 77.2656 117.483 76.8142C117.562 76.451 117.162 76.1241 117.144 75.7505C117.136 75.5845 117.451 75.4911 117.411 75.3302C117.343 75.0604 116.923 74.9618 116.878 74.6868C116.845 74.4897 117.222 74.3963 117.223 74.194C117.225 73.9968 116.844 73.9034 116.885 73.7063C116.971 73.3016 117.424 73.0525 117.548 72.6582C117.654 72.3209 117.63 71.9474 117.551 71.6049C117.31 70.5724 117.377 69.2909 116.596 68.5749C115.462 67.5423 113.598 67.698 112.329 66.8315C112.064 66.6499 112.659 66.2556 112.917 66.0636C113.906 65.3216 115.089 64.8495 116.032 64.0505C116.446 63.6976 116.5 63.0336 116.908 62.6756C117.026 62.5718 117.148 62.9038 117.301 62.935C117.372 62.9454 117.47 62.8519 117.454 62.7793C117.407 62.5873 117.143 62.4628 117.143 62.2604C117.143 62.0581 117.41 61.9388 117.454 61.7416C117.47 61.6638 117.368 61.5237 117.297 61.56C116.876 61.7624 116.595 62.2189 116.152 62.3694C115.998 62.4213 115.911 62.1308 115.755 62.0841C115.58 62.0322 115.373 62.0062 115.208 62.0841C114.95 62.2034 114.808 62.5043 114.561 62.6496C113.478 63.293 112.21 63.6509 111.233 64.4448C110.428 65.1037 109.773 65.9754 109.334 66.9145C109.11 67.397 109.106 68.0249 109.338 68.5022C109.593 69.0211 110.141 69.379 110.662 69.6333C110.809 69.7059 110.903 69.3946 111.059 69.3479C111.233 69.2961 111.432 69.2909 111.605 69.3479C111.798 69.405 111.908 69.6748 112.11 69.68C112.311 69.6852 112.427 69.3635 112.629 69.3686C112.832 69.3738 112.937 69.6592 113.134 69.7059C113.552 69.8097 114.182 69.4465 114.421 69.8045C115.062 70.7644 115.149 71.9992 115.414 73.1251C115.524 73.5921 115.392 74.1005 115.542 74.5571C115.632 74.8321 116.147 74.9307 116.103 75.2109C116.052 75.5533 115.499 75.6053 115.338 75.9114C114.459 77.5665 113.93 79.4032 113.017 81.0427C112.941 81.1776 112.779 80.8144 112.626 80.7833C112.556 80.7729 112.46 80.8663 112.475 80.9338C112.507 81.0998 112.777 81.1984 112.742 81.3593C112.688 81.6083 112.183 81.7069 112.257 81.9507C112.368 82.3087 112.804 82.4903 113.14 82.6615L113.333 82.5111ZM99.2523 81.5513C99.0152 81.2866 98.4434 81.105 98.5404 80.7626C98.6463 80.3942 99.2985 80.5395 99.6062 80.306C99.9175 80.0725 100.242 79.7716 100.343 79.398C100.399 79.1853 99.9844 79.0607 99.9995 78.8428C100.167 76.4146 100.871 74.0331 100.88 71.6049C100.884 70.7332 100.389 69.9342 100.037 69.1352C99.9237 68.881 99.5506 68.7616 99.5024 68.4866C99.4676 68.2895 99.7738 68.1753 99.8355 67.9834C99.8921 67.8018 99.9159 67.5942 99.8422 67.4178C99.614 66.8885 99.1823 66.458 98.954 65.9235C98.8782 65.7471 98.8678 65.5188 98.954 65.3424C99.4261 64.3981 100.2 63.6146 100.597 62.634C101.886 59.4535 103.375 56.2937 103.992 52.9212C104.223 51.6552 103.43 50.4152 103.057 49.1855C102.922 48.7445 102.77 48.2775 102.471 47.9247C102.145 47.5355 101.72 47.1983 101.243 47.0271C100.985 46.9389 100.684 47.0789 100.446 47.2138C100.248 47.3228 100.095 47.5148 99.9943 47.7171C99.9138 47.878 99.9252 48.0751 99.9252 48.2515C99.9252 48.6044 99.8428 48.9883 99.9937 49.3048C100.35 50.0468 101.138 50.5552 101.402 51.3387C101.63 52.008 101.551 52.7759 101.404 53.4712C101.252 54.1924 100.68 54.7786 100.525 55.4998C100.48 55.7022 100.942 55.8475 100.85 56.0343C100.549 56.6517 99.809 56.9786 99.5024 57.5908C99.4121 57.7724 99.8173 57.9073 99.8127 58.1097C99.8085 58.312 99.5403 58.421 99.4796 58.6129C99.4246 58.7893 99.4246 58.9865 99.4796 59.1629C99.5403 59.3549 99.8526 59.469 99.8127 59.6662C99.7743 59.8582 99.4469 59.827 99.3161 59.9723C99.08 60.2265 98.9088 60.5431 98.7376 60.844C98.0947 61.9907 97.4426 63.1269 96.8755 64.3099C96.7956 64.4759 96.8111 64.6731 96.8111 64.8599C96.8127 65.5551 96.6233 66.2971 96.8812 66.9457C97.1359 67.5838 97.9438 67.8744 98.2561 68.4866C98.3474 68.6682 97.9842 68.7979 97.923 68.9899C97.8665 69.1715 97.8436 69.3791 97.9158 69.5555C98.129 70.064 98.7132 70.4323 98.7552 70.9874C98.7827 71.3455 98.1762 71.4907 98.0906 71.8436C98.0247 72.1186 98.3298 72.3624 98.3526 72.6374C98.3952 73.1615 98.3848 73.6959 98.2836 74.2095C98.2447 74.4067 97.9365 74.5105 97.9458 74.7128C97.9624 75.0864 98.322 75.3821 98.3526 75.7505C98.4387 76.7986 98.4782 77.8622 98.2909 78.8948C98.1586 79.6211 97.4659 80.1866 97.4114 80.9234C97.3871 81.2503 97.7762 81.5357 98.0875 81.6394L99.2523 81.5513ZM116.282 76.4354C116.049 76.3783 115.59 76.508 115.584 76.2694C115.578 76.0359 116.043 76.0463 116.273 76.0982" fill="black"/>
</svg>
