<svg width="200" height="200" viewBox="0 0 200 200" fill="none" xmlns="http://www.w3.org/2000/svg">
<path d="M165 41L43 115L36 179H165V41Z" fill="#E9E9E9"/>
<path d="M54.1034 168C54.9842 167.708 55.8236 167.231 56.7445 167.12C57.1275 167.072 57.4359 167.539 57.822 167.544C58.1997 167.544 58.5023 167.152 58.88 167.136C59.0852 167.125 59.1889 167.475 59.3946 167.475C59.7697 167.475 60.0918 167.125 60.4668 167.136C60.8445 167.147 61.1471 167.549 61.5248 167.544C62.0775 167.539 62.5737 167.131 63.1259 167.115C63.3417 167.104 63.448 167.491 63.6628 167.475C65.6036 167.311 67.4967 166.754 69.4369 166.585C69.6517 166.564 69.7728 166.919 69.9881 166.924C70.1933 166.929 70.3118 166.601 70.5171 166.606C70.7239 166.611 70.8297 166.913 71.0323 166.951C71.5559 167.057 72.1029 167.099 72.6308 167.019C73.0058 166.966 73.3094 166.67 73.6771 166.579C74.0246 166.495 74.3906 166.5 74.7487 166.5C75.283 166.5 75.8257 166.473 76.3494 166.579C76.552 166.617 76.6578 166.919 76.8646 166.924C77.0698 166.929 77.1883 166.601 77.3935 166.606C77.6083 166.611 77.731 166.972 77.9431 166.94C79.0164 166.781 80.0018 166.214 81.0756 166.055C81.2883 166.028 81.4068 166.352 81.6109 166.415C81.7876 166.473 81.9918 166.473 82.1685 166.415C82.3726 166.352 82.4911 166.028 82.7038 166.055C83.7855 166.214 84.7657 166.956 85.8595 166.956C87.6395 166.956 89.3491 166.182 91.1248 166.055C91.5125 166.028 91.8193 166.452 92.206 166.489C93.0878 166.579 93.9854 166.542 94.863 166.42C95.0682 166.394 95.1565 166.055 95.3639 166.055C95.7479 166.049 96.0753 166.447 96.4583 166.415C100.689 166.092 104.879 165.334 109.109 164.995C109.325 164.979 109.437 165.302 109.646 165.36C109.991 165.456 110.361 165.482 110.714 165.435C112.483 165.18 114.21 164.655 115.986 164.465C116.2 164.443 116.321 164.804 116.537 164.804C116.742 164.804 116.855 164.523 117.051 164.465C117.228 164.406 117.432 164.406 117.609 164.465C117.805 164.523 117.918 164.804 118.123 164.804C118.33 164.804 118.439 164.512 118.639 164.459C118.984 164.369 119.356 164.332 119.708 164.39C120.257 164.48 120.742 164.873 121.297 164.894C121.675 164.91 121.977 164.502 122.355 164.486C122.56 164.475 122.664 164.825 122.87 164.825C123.245 164.825 123.567 164.486 123.942 164.486C124.147 164.486 124.26 164.767 124.457 164.825C124.634 164.883 124.839 164.889 125.014 164.825C125.209 164.761 125.32 164.528 125.515 164.465C125.69 164.401 125.895 164.406 126.072 164.465C126.274 164.528 126.397 164.867 126.602 164.814C127.177 164.666 127.555 163.998 128.145 163.924C128.87 163.839 129.562 164.306 130.29 164.38C130.821 164.433 131.367 164.412 131.89 164.3C132.102 164.258 132.212 163.908 132.426 163.935C133.5 164.088 134.48 164.708 135.558 164.82C135.945 164.862 136.255 164.438 136.639 164.385C137.168 164.316 137.714 164.353 138.238 164.459C138.44 164.496 138.546 164.804 138.753 164.804C138.967 164.804 139.09 164.433 139.301 164.47C140.385 164.65 141.361 165.509 142.456 165.424C143.775 165.323 144.863 164.29 146.14 163.94C146.346 163.882 146.475 164.29 146.687 164.274C146.979 164.253 147.331 164.115 147.453 163.844C147.948 162.768 148.264 161.597 148.452 160.426C148.486 160.214 148.123 160.102 148.087 159.89C147.972 159.185 148.01 158.464 148.01 157.754C148.01 157.219 147.983 156.673 148.087 156.148C148.128 155.947 148.441 155.841 148.432 155.634C148.416 155.252 148.079 154.945 148.018 154.574C147.961 154.219 147.997 153.848 148.087 153.498C148.14 153.302 148.427 153.19 148.432 152.984C148.438 152.777 148.112 152.66 148.116 152.454C148.12 152.236 148.478 152.114 148.453 151.902C148.288 150.482 147.731 149.125 147.566 147.704C147.542 147.492 147.9 147.37 147.903 147.153C147.908 146.946 147.582 146.83 147.587 146.623C147.591 146.416 147.929 146.316 147.927 146.109C147.922 145.722 147.521 145.393 147.568 145.012C147.702 143.936 148.298 142.95 148.451 141.874C148.482 141.662 148.159 141.54 148.093 141.338C148.035 141.158 148.032 140.952 148.093 140.777C148.161 140.58 148.405 140.475 148.46 140.278C148.556 139.934 148.592 139.557 148.53 139.202C148.465 138.831 148.177 138.524 148.088 138.158C148.004 137.808 147.961 137.437 148.018 137.082C148.079 136.711 148.409 136.404 148.432 136.022C148.445 135.815 148.116 135.699 148.116 135.492C148.116 135.285 148.432 135.169 148.432 134.962C148.432 134.755 148.11 134.639 148.116 134.432C148.121 134.225 148.408 134.114 148.46 133.918C148.551 133.568 148.589 133.197 148.53 132.842C148.439 132.29 148.087 131.803 148.018 131.252C147.891 130.25 148.106 129.222 147.946 128.225C147.906 127.971 147.357 127.886 147.441 127.647C147.598 127.186 148.415 127.123 148.487 126.645C148.547 126.248 147.74 126.11 147.732 125.707C147.726 125.347 148.412 125.262 148.455 124.907C148.522 124.356 148.031 123.852 148.026 123.301C148.023 122.924 148.411 122.617 148.432 122.241C148.444 122.034 148.111 121.917 148.116 121.711C148.12 121.504 148.394 121.393 148.456 121.197C148.512 121.016 148.512 120.815 148.456 120.635C148.394 120.439 148.116 120.327 148.116 120.121C148.116 119.914 148.393 119.803 148.455 119.606C148.514 119.421 148.518 119.214 148.466 119.029C148.216 118.138 147.561 117.332 147.559 116.41C147.557 115.477 148.453 114.698 148.457 113.765C148.459 113.161 147.726 112.769 147.574 112.186C147.521 111.979 147.901 111.852 147.903 111.64C147.906 111.433 147.574 111.316 147.587 111.11C147.61 110.728 147.953 110.426 148.002 110.05C148.07 109.52 148.035 108.968 147.931 108.443C147.892 108.242 147.577 108.136 147.587 107.929C147.604 107.548 147.967 107.246 148.002 106.869C148.083 105.984 148.053 105.083 147.931 104.203C147.903 104.002 147.567 103.912 147.564 103.705C147.557 103.329 147.904 103.005 147.903 102.629C147.903 102.422 147.598 102.316 147.558 102.115C147.435 101.473 147.654 100.774 147.427 100.164C147.275 99.7613 146.697 99.6447 146.494 99.263C146.411 99.104 146.513 98.8019 146.685 98.7595C146.886 98.7118 147.018 99.0298 147.219 99.0775C147.293 99.0934 147.369 99.0033 147.394 98.9291C147.456 98.7595 147.504 98.5687 147.464 98.3885C147.381 98.0227 147.047 97.7206 147.035 97.3443C147.023 96.9679 147.398 96.6552 147.398 96.2842C147.398 95.9078 147.035 95.5951 147.035 95.2241C147.035 94.6675 147.5 94.148 147.397 93.6021C147.312 93.1568 146.613 93.0031 146.529 92.5579C146.476 92.277 146.957 92.1551 147.074 91.8953C147.433 91.095 147.799 90.2734 147.94 89.4094C148.112 88.3546 148.054 87.268 148.001 86.1973C147.989 85.9535 147.969 85.6142 147.748 85.5082C147.562 85.4181 147.414 85.8845 147.216 85.8262C146.906 85.7308 146.442 85.4499 146.529 85.1372C146.682 84.5859 147.235 84.1831 147.745 83.9181C147.928 83.8227 148.076 84.1884 148.276 84.2361C148.348 84.252 148.449 84.1513 148.432 84.0771C148.385 83.8757 148.115 83.7537 148.116 83.547C148.116 83.3403 148.444 83.2237 148.432 83.017C148.411 82.6406 148.026 82.3332 148.026 81.9569C148.026 81.5805 148.509 81.2678 148.432 80.8968C148.341 80.4515 147.667 80.2819 147.587 79.8367C147.537 79.561 148.035 79.4497 148.123 79.1847C148.507 78.0239 148.87 76.8366 148.981 75.6175C149.016 75.2305 148.574 74.9231 148.547 74.5362C148.424 72.7722 148.432 70.9986 148.539 69.2356C148.584 68.5026 149.04 67.8146 148.997 67.082C148.885 65.1394 148.195 63.2604 148.08 61.3183C148.036 60.5794 148.572 59.8824 148.529 59.1435C148.505 58.7375 147.892 58.5111 147.891 58.1046C147.89 57.6991 148.48 57.4701 148.523 57.0673C148.564 56.6841 148.138 56.3697 148.116 55.9844C148.104 55.7787 148.432 55.66 148.432 55.4543C148.432 55.2481 148.116 55.1299 148.116 54.9243C148.116 54.7181 148.499 54.5888 148.432 54.3937C148.283 53.9564 147.564 53.7746 147.565 53.3119C147.571 50.8355 148.485 48.4121 148.455 45.9357C148.448 45.4417 147.951 44.8167 147.459 44.84C146.906 44.8671 146.545 45.5381 146.307 46.039C145.857 46.9883 145.597 48.032 145.452 49.073C145.423 49.2861 145.811 49.3942 145.811 49.6089C145.811 49.9932 145.4 50.3234 145.453 50.7035C145.582 51.613 146.221 52.4028 146.334 53.3145C146.382 53.6983 145.909 54.0073 145.91 54.3942C145.911 54.9481 146.341 55.4448 146.34 55.9987C146.338 56.3771 145.933 56.6692 145.902 57.0461C145.785 58.4539 145.792 59.8749 145.902 61.2827C145.931 61.6617 146.3 61.9655 146.316 62.345C146.325 62.5517 145.999 62.6556 145.972 62.8612C145.857 63.7411 145.82 64.6396 145.902 65.5231C145.937 65.9021 146.3 66.2059 146.316 66.5854C146.325 66.7921 146.012 66.8986 145.972 67.1017C145.867 67.6264 145.894 68.1702 145.894 68.7056C145.894 69.0644 145.89 69.4302 145.972 69.7795C146.044 70.0858 146.411 70.3355 146.351 70.6445C146.274 71.0405 145.735 71.2207 145.618 71.6071C145.537 71.8769 145.845 72.1504 145.811 72.4303C145.785 72.6428 145.414 72.7541 145.455 72.964C145.602 73.704 146.225 74.3029 146.332 75.0503C146.387 75.4319 145.913 75.7394 145.91 76.1263C145.907 76.5027 146.398 76.8154 146.316 77.1864C146.218 77.6317 145.675 77.8437 145.444 78.2306C145.35 78.3896 145.373 78.5964 145.373 78.7766C145.373 79.137 145.347 79.5081 145.443 79.8526C145.499 80.0487 145.807 80.1441 145.811 80.3508C145.817 80.7271 145.476 81.0505 145.471 81.4268C145.468 81.6335 145.788 81.7502 145.788 81.9569C145.788 82.1636 145.471 82.2802 145.471 82.4869C145.471 82.6936 145.793 82.8103 145.788 83.017C145.782 83.2237 145.496 83.335 145.443 83.5311C145.351 83.8809 145.366 84.2467 145.366 84.6071C145.366 84.9676 145.351 85.3333 145.443 85.6831C145.496 85.8793 145.786 85.9906 145.788 86.1973C145.789 86.404 145.51 86.5153 145.448 86.7114C145.392 86.8916 145.388 87.0931 145.448 87.2733C145.515 87.4641 145.743 87.5754 145.81 87.7715C145.873 87.9517 145.882 88.1691 145.82 88.3493C145.576 89.0596 145.044 89.6691 144.907 90.4059C144.712 91.4607 144.756 92.5473 144.844 93.618C144.875 93.9943 145.257 94.2965 145.259 94.6781C145.26 95.0544 144.852 95.3619 144.852 95.7382C144.852 96.1145 145.237 96.422 145.259 96.7983C145.27 97.005 144.942 97.1216 144.942 97.3283C144.942 97.5351 145.259 97.6517 145.259 97.8584C145.259 98.0651 144.942 98.1817 144.942 98.3885C144.942 98.5952 145.259 98.7118 145.259 98.9185C145.259 99.1252 144.937 99.2418 144.942 99.4486C144.946 99.6553 145.275 99.756 145.282 99.9627C145.292 100.302 144.924 100.599 144.988 100.933C145.058 101.293 145.577 101.457 145.64 101.818C145.717 102.268 145.328 102.703 145.373 103.154C145.564 105.109 146.165 107.012 146.338 108.968C146.367 109.297 145.925 109.562 145.968 109.885C146.009 110.187 146.516 110.288 146.553 110.59C146.588 110.876 146.232 111.083 146.148 111.364C146.035 111.735 145.844 112.149 145.966 112.52C146.088 112.891 146.796 112.949 146.799 113.341C146.802 113.755 146.07 113.871 145.977 114.274C145.892 114.65 146.384 114.99 146.336 115.371C146.199 116.458 145.443 117.433 145.443 118.53C145.442 119.458 146.219 120.242 146.334 121.159C146.383 121.546 145.908 121.854 145.91 122.241C145.913 122.797 146.426 123.306 146.347 123.857C146.263 124.451 145.562 124.822 145.458 125.405C145.392 125.787 145.835 126.1 145.886 126.481C145.956 127.011 145.919 127.562 145.816 128.087C145.776 128.289 145.476 128.395 145.471 128.601C145.465 128.808 145.777 128.925 145.787 129.131C145.795 129.301 145.477 129.396 145.515 129.561C145.573 129.82 146.036 129.916 146.024 130.181C146.005 130.589 145.497 130.849 145.437 131.246C145.406 131.458 145.796 131.57 145.788 131.782C145.772 132.163 145.406 132.465 145.373 132.842C145.266 134.077 145.27 135.317 145.373 136.552C145.419 137.109 145.895 137.618 145.818 138.169C145.736 138.762 145.033 139.133 144.93 139.716C144.863 140.098 145.314 140.411 145.357 140.793C145.435 141.503 145.403 142.224 145.287 142.929C145.253 143.13 144.923 143.22 144.919 143.427C144.913 143.803 145.27 144.127 145.259 144.503C145.247 144.879 144.838 145.187 144.852 145.563C144.873 146.12 145.316 146.602 145.357 147.153C145.486 148.918 145.472 150.689 145.357 152.454C145.332 152.83 144.942 153.132 144.942 153.514C144.942 153.895 145.296 154.203 145.356 154.574C145.414 154.929 145.377 155.3 145.287 155.65C145.235 155.846 144.933 155.957 144.942 156.164C144.959 156.546 145.337 156.848 145.357 157.224C145.45 158.994 145.546 160.786 145.279 162.535C145.242 162.779 144.813 162.339 144.571 162.366C144.367 162.392 144.248 162.684 144.042 162.684C143.837 162.684 143.719 162.36 143.514 162.366C143.307 162.371 143.202 162.678 142.998 162.71C142.298 162.821 141.576 162.869 140.872 162.784C138.915 162.546 137.012 161.926 135.049 161.745C134.672 161.708 134.369 162.138 133.992 162.154C133.786 162.159 133.677 161.862 133.477 161.809C133.132 161.719 132.765 161.714 132.409 161.735C128.357 162.01 124.319 162.514 120.262 162.705C120.046 162.715 119.941 162.344 119.725 162.344C119.173 162.344 118.661 162.705 118.109 162.705C117.902 162.705 117.808 162.392 117.608 162.339C117.264 162.244 116.891 162.212 116.539 162.27C116.164 162.328 115.857 162.662 115.479 162.684C115.264 162.694 115.141 162.313 114.93 162.35C114.027 162.503 113.229 163.081 112.324 163.23C112.112 163.267 112.001 162.912 111.79 162.869C111.268 162.763 110.723 162.747 110.193 162.795C107.546 163.044 104.93 163.606 102.277 163.765C101.89 163.786 101.584 163.336 101.197 163.336C100.821 163.336 100.529 163.754 100.153 163.765C99.7722 163.781 99.4395 163.341 99.0656 163.415C98.4821 163.526 98.0859 164.141 97.5093 164.284C97.3036 164.337 97.1915 163.935 96.9793 163.935C96.6043 163.929 96.2822 164.284 95.9071 164.274C95.5295 164.263 95.2269 163.85 94.8492 163.866C94.2938 163.887 93.8156 164.353 93.2602 164.369C89.0254 164.528 84.7794 164.189 80.5461 164.39C80.1399 164.406 79.9146 165.016 79.5083 165.032C79.1079 165.042 78.8508 164.507 78.4541 164.454C78.2441 164.422 78.1346 164.804 77.9225 164.804C77.7157 164.804 77.6125 164.486 77.4073 164.459C76.5208 164.343 75.5998 164.2 74.726 164.39C74.2521 164.491 74.0648 165.265 73.5808 165.286C73.1682 165.307 73.0275 164.608 72.6329 164.486C72.4372 164.422 72.324 164.825 72.1182 164.825C71.7432 164.825 71.4211 164.486 71.046 164.486C70.8403 164.486 70.7276 164.767 70.5314 164.825C70.3542 164.883 70.15 164.883 69.9738 164.825C69.7686 164.756 69.6522 164.449 69.4369 164.465C66.9646 164.634 64.5351 165.355 62.0569 165.366C60.9884 165.366 60.0384 164.544 58.9709 164.496C58.6007 164.48 58.4298 165.021 58.0982 165.185C57.8538 165.307 57.5628 165.371 57.2931 165.334C57.0894 165.302 56.9842 164.995 56.7784 164.995C56.4034 164.995 56.0812 165.329 55.7062 165.334C55.501 165.334 55.383 165.016 55.1772 165.016C54.9715 165.016 54.8535 165.339 54.6483 165.334C54.4415 165.329 54.3351 165.032 54.1331 164.989C53.7792 164.91 53.3846 164.857 53.0476 164.989C52.7403 165.111 52.4674 165.382 52.3468 165.689C52.2145 166.028 52.1278 166.489 52.3473 166.776L54.1034 168ZM50.9286 161.189C51.1942 161.104 51.484 161.078 51.7258 160.94C51.8935 160.844 52.1537 160.701 52.1162 160.51C52.0469 160.166 51.4423 160.023 51.4724 159.668C51.583 158.374 52.2188 157.182 52.5086 155.915C52.8085 154.6 53.1593 153.286 53.2402 151.945C53.2635 151.558 52.8133 151.25 52.8133 150.863C52.8133 150.477 53.2767 150.169 53.2397 149.782C53.1185 148.531 52.5166 147.36 52.3542 146.114C52.3267 145.902 52.6869 145.78 52.6906 145.563C52.6948 145.356 52.3695 145.24 52.3743 145.033C52.3785 144.816 52.7245 144.694 52.7133 144.482C52.5303 140.803 52.195 137.13 51.7988 133.467C51.5459 131.135 50.9397 128.845 50.7662 126.502C50.7377 126.115 51.1704 125.808 51.2021 125.421C51.3174 124.011 51.3121 122.591 51.2021 121.181C51.1725 120.804 50.8107 120.502 50.7874 120.121C50.7747 119.914 51.1154 119.797 51.1037 119.59C51.0826 119.214 50.6975 118.907 50.6975 118.53C50.6975 118.154 51.0879 117.847 51.1037 117.47C51.1127 117.264 50.7641 117.163 50.7641 116.956C50.7641 116.58 51.1037 116.256 51.1037 115.88C51.1037 115.673 50.826 115.562 50.7641 115.366C50.7081 115.186 50.7059 114.984 50.7641 114.804C50.8313 114.603 51.1492 114.481 51.1249 114.269C50.9355 112.599 50.5383 110.961 50.1426 109.334C50.067 109.021 49.7189 108.793 49.7178 108.475C49.7168 108.088 50.1336 107.781 50.1357 107.399C50.1378 107.023 49.7443 106.716 49.7295 106.339C49.721 106.132 50.0305 106.026 50.0738 105.825C50.15 105.47 50.15 105.088 50.0738 104.733C50.0305 104.532 49.6665 104.415 49.7295 104.219C49.8665 103.79 50.4378 103.588 50.5748 103.159C50.6377 102.963 50.2738 102.846 50.2304 102.645C50.1542 102.29 50.1542 101.908 50.2304 101.553C50.2738 101.351 50.5732 101.245 50.5748 101.039C50.5769 100.821 50.2034 100.699 50.2404 100.487C50.3991 99.581 51.2196 98.7807 51.1286 97.8637C51.0487 97.0633 49.8279 96.6711 49.7813 95.8654C49.7522 95.3725 50.7647 95.4149 50.9593 94.959C51.1402 94.535 50.6615 94.042 50.7525 93.5862C50.9001 92.8494 51.4973 92.2505 51.6485 91.5137C51.6919 91.307 51.3301 91.1904 51.2878 90.9837C51.1624 90.3529 51.383 89.6585 51.1587 89.0596C51.035 88.7256 50.2505 88.7415 50.3256 88.397C50.4282 87.9253 51.2492 87.9571 51.4893 87.5383C51.63 87.2945 51.2608 86.9923 51.2931 86.7114C51.3174 86.4994 51.6972 86.3881 51.6454 86.1814C51.4988 85.5983 50.7636 85.2061 50.7641 84.6018C50.7647 83.8438 51.4936 83.2502 51.6485 82.5028C51.6925 82.2961 51.3158 82.1689 51.3158 81.9569C51.3158 81.7449 51.6919 81.6176 51.6485 81.4109C51.4957 80.6688 50.9239 80.0646 50.7715 79.3225C50.7281 79.1158 51.2016 78.9674 51.1042 78.7713C50.9953 78.5592 50.6319 78.5221 50.4018 78.5963C50.1241 78.6864 49.8575 78.925 49.7723 79.2059C49.6089 79.7466 49.484 80.3773 49.7025 80.8968C49.7972 81.1194 50.1886 80.653 50.4171 80.7378C50.7197 80.8544 51.1037 81.1035 51.1037 81.4268C51.1037 81.7502 50.7271 82.0205 50.4171 82.1159C50.2193 82.1742 50.0855 81.8456 49.8845 81.7979C49.8104 81.782 49.7173 81.8668 49.7088 81.9463C49.6306 82.6512 49.5528 83.3668 49.6311 84.0771C49.6739 84.464 50.1061 84.7714 50.0648 85.1584C49.9501 86.2397 49.0662 87.215 49.1815 88.2963C49.245 88.8899 50.1786 88.9959 50.5266 89.4783C50.606 89.5896 50.2214 89.5366 50.1574 89.6585C49.7591 90.4059 49.3656 91.1797 49.1825 92.0066C49.1365 92.2186 49.528 92.3459 49.5168 92.5579C49.4978 92.9395 49.1439 93.2417 49.1021 93.618C49.0043 94.5032 48.9673 95.4096 49.1037 96.2895C49.1598 96.6499 49.7522 96.8725 49.6634 97.2224C49.5343 97.7312 48.7313 97.8584 48.579 98.3566C48.4663 98.7276 48.9662 99.0616 48.9879 99.4486C48.9995 99.6553 48.6679 99.7719 48.6716 99.9786C48.6747 100.191 49.0424 100.318 49.0059 100.53C48.8493 101.431 48.2812 102.231 48.1246 103.138C48.0881 103.35 48.461 103.472 48.4589 103.689C48.4573 103.896 48.141 104.002 48.114 104.203C47.9993 105.083 47.9622 105.984 48.0442 106.869C48.0791 107.246 48.442 107.548 48.4589 107.929C48.4679 108.136 48.1664 108.247 48.114 108.443C48.0241 108.793 47.9844 109.164 48.0442 109.514C48.2844 110.94 48.8197 112.308 49.008 113.739C49.036 113.951 48.6753 114.073 48.6716 114.29C48.6673 114.497 48.9926 114.613 48.9879 114.82C48.9837 115.027 48.7102 115.138 48.6483 115.334C48.5922 115.514 48.588 115.716 48.6483 115.896C48.7155 116.092 48.944 116.198 49.0111 116.394C49.0714 116.574 49.0672 116.776 49.0111 116.956C48.9493 117.152 48.589 117.279 48.6721 117.47C48.8731 117.921 49.6649 118.037 49.7099 118.53C49.7459 118.923 49.0868 119.013 48.8424 119.32C48.7165 119.479 48.5018 119.728 48.6271 119.887C48.9651 120.311 49.6179 120.375 49.9929 120.767C50.0855 120.863 49.6914 120.815 49.6285 120.932C49.2397 121.652 48.7245 122.384 48.6832 123.205C48.6647 123.576 49.4777 123.603 49.475 123.969C49.4629 125.713 48.5346 127.388 48.6409 129.131C48.7414 130.78 49.7824 132.243 50.0781 133.87C50.1484 134.257 49.6877 134.591 49.7067 134.983C49.885 138.699 50.497 142.383 50.6652 146.093C50.6827 146.475 50.2568 146.777 50.2584 147.153C50.2595 147.535 50.6435 147.837 50.6731 148.213C50.7832 149.623 50.7832 151.044 50.6731 152.454C50.6435 152.83 50.2817 153.132 50.2584 153.514C50.2457 153.72 50.5864 153.837 50.5748 154.044C50.5536 154.42 50.1659 154.728 50.1685 155.104C50.1712 155.491 50.6483 155.798 50.5906 156.18C50.4785 156.927 49.8612 157.521 49.694 158.252C49.5354 158.952 49.5867 159.689 49.6316 160.404C49.647 160.654 49.6581 160.987 49.8728 161.115L50.9286 161.189ZM72.4562 153.72C72.7752 153.471 73.0259 153.095 73.4126 152.973C73.6808 152.888 73.9569 153.212 74.2341 153.164C74.5551 153.111 74.8492 152.904 75.0836 152.682C75.4163 152.358 75.7003 151.971 75.8971 151.553C75.9569 151.425 75.8918 151.25 75.8056 151.139C75.5337 150.795 75.292 150.286 74.8561 150.222C74.4922 150.169 74.3081 150.736 73.968 150.874C73.8342 150.932 73.6898 150.715 73.5506 150.757C72.8646 150.959 72.2848 151.59 71.5697 151.579C69.9669 151.558 68.4372 150.874 66.8477 150.667C66.5705 150.636 66.2759 150.726 66.0315 150.863C65.8305 150.975 65.6512 151.16 65.5718 151.378C65.4756 151.643 65.3068 152.056 65.5364 152.215C66.5462 152.915 67.7178 153.408 68.9122 153.689C69.2872 153.779 69.603 153.265 69.9881 153.265C70.3653 153.265 70.6615 153.63 71.0323 153.699L72.4562 153.72ZM77.0434 151.415C77.1597 151.166 77.1222 150.641 77.3925 150.673C77.9035 150.736 78.1103 151.606 78.625 151.606C79.0984 151.6 79.2417 150.8 79.6966 150.667C79.9971 150.583 80.2473 150.991 80.5535 151.049C80.9143 151.123 81.2994 151.144 81.657 151.06C82.5081 150.853 83.3375 150.551 84.1357 150.19C84.3964 150.074 84.5133 149.666 84.7984 149.644C85.1751 149.613 85.4792 150.058 85.8569 150.052C86.233 150.047 86.5244 149.639 86.9005 149.623C87.275 149.607 87.5982 149.973 87.9727 149.962C88.352 149.947 88.6556 149.586 89.0322 149.549C89.9071 149.448 90.7995 149.443 91.6733 149.549C92.2256 149.613 92.7069 150.031 93.2623 150.052C93.64 150.068 93.9431 149.666 94.3203 149.644C94.5255 149.634 94.644 149.968 94.8492 149.962C95.064 149.957 95.1862 149.597 95.3993 149.623C96.6408 149.793 97.8029 150.386 99.0476 150.524C99.4337 150.572 99.7722 150.09 100.154 150.164C100.71 150.265 101.063 150.985 101.628 151.001C101.983 151.012 102.018 150.339 102.351 150.222C102.506 150.164 102.438 150.556 102.559 150.667C102.937 151.022 103.328 151.404 103.812 151.584C104.048 151.669 104.471 151.648 104.548 151.409C104.662 151.049 104.264 150.704 104.212 150.333C104.201 150.249 104.299 150.111 104.372 150.148C104.797 150.355 105.056 150.911 105.525 150.98C105.744 151.007 105.657 150.535 105.608 150.318C105.572 150.159 105.438 150.015 105.292 149.947C104.624 149.613 103.832 149.544 103.209 149.13C103.08 149.045 103.525 148.886 103.47 148.743C103.355 148.436 103.1 148.15 102.797 148.028C102.462 147.89 102.047 147.89 101.712 148.028C101.292 148.197 101.089 148.733 100.669 148.902C100.512 148.966 100.404 148.59 100.238 148.627C99.9849 148.685 99.8823 149.21 99.6374 149.125C99.1576 148.955 99.0481 148.197 98.5652 148.033C98.2018 147.911 97.8542 148.431 97.4723 148.393C95.694 148.224 93.977 147.614 92.2007 147.423C90.9672 147.291 89.6987 147.201 88.479 147.429C88.0018 147.514 87.7828 148.144 87.3327 148.325C87.1788 148.388 87.0793 148.049 86.9138 148.054C86.709 148.065 86.5911 148.378 86.3859 148.372C86.1806 148.367 86.0679 148.097 85.8722 148.033C85.6897 147.975 85.4761 147.954 85.2967 148.022C84.2267 148.431 83.2682 149.125 82.169 149.443C81.9659 149.501 81.8416 149.157 81.6406 149.093C81.4586 149.035 81.2438 149.008 81.0672 149.083C80.5192 149.31 80.0992 149.825 79.5247 149.973C79.3179 150.026 79.2058 149.644 78.9942 149.618C78.2864 149.522 77.5231 149.379 76.8519 149.623C76.6239 149.708 77.0561 150.095 77.0227 150.333C76.9947 150.535 76.7445 150.651 76.6832 150.848C76.6281 151.028 76.5906 151.25 76.69 151.404L77.0434 151.415ZM81.2676 150.328C81.1523 150.333 80.9487 150.461 80.9206 150.349C80.8614 150.116 80.8545 149.66 81.0963 149.644L81.2676 150.328ZM83.5877 149.289C83.8188 149.226 84.0415 149.104 84.2806 149.098C84.3578 149.098 84.4948 149.231 84.4298 149.273C84.2251 149.401 83.9669 149.443 83.7252 149.448L83.5877 149.289ZM125.682 142.478C126.16 142.208 126.568 141.657 127.115 141.672C127.716 141.688 128.087 142.547 128.688 142.552C129.145 142.558 129.325 141.837 129.76 141.694C129.956 141.63 130.069 142.033 130.275 142.033C130.65 142.033 130.972 141.694 131.347 141.694C131.553 141.694 131.665 141.969 131.861 142.033C132.044 142.091 132.255 142.107 132.437 142.043C133.106 141.821 133.782 141.572 134.376 141.19C134.725 140.967 135.168 140.676 135.208 140.262C135.24 139.934 134.854 139.621 134.535 139.547C133.664 139.34 132.727 139.287 131.854 139.478C131.38 139.579 131.178 140.257 130.708 140.374C130.379 140.459 130.097 140.029 129.759 140.008C128.588 139.923 127.388 139.817 126.238 140.056C125.853 140.135 125.798 140.803 125.418 140.904C125.091 140.994 124.807 140.565 124.469 140.533C123.417 140.443 122.351 140.432 121.299 140.533C120.922 140.57 120.618 140.936 120.239 140.952C120.033 140.962 119.928 140.639 119.724 140.607C119.193 140.517 118.624 140.448 118.11 140.607C117.793 140.702 117.582 141.026 117.409 141.307C117.314 141.466 117.321 141.672 117.346 141.853C117.384 142.123 117.446 142.404 117.593 142.637C117.716 142.828 117.897 143.045 118.123 143.072C118.327 143.093 118.447 142.764 118.651 142.754C118.818 142.748 118.92 143.093 119.072 143.024C119.399 142.881 119.451 142.234 119.808 142.245C120.373 142.261 120.717 143.093 121.282 143.082C121.741 143.077 121.914 142.372 122.341 142.202C122.565 142.112 122.927 142.165 123.043 142.377C123.142 142.563 122.769 142.711 122.727 142.913C122.711 142.992 122.821 143.109 122.898 143.088C123.618 142.86 124.246 142.367 124.982 142.208L125.682 142.478ZM77.7781 141.672C77.9987 141.434 78.1224 140.888 78.4398 140.957C78.9318 141.063 79.0587 141.789 79.4956 142.038C79.7495 142.181 80.1447 142.245 80.3732 142.065C80.8323 141.694 81.8003 140.914 81.3227 140.57C80.0902 139.685 78.3906 139.748 76.8863 139.552C76.6715 139.526 76.561 139.87 76.3494 139.918C75.9966 139.997 75.6125 140.013 75.2661 139.913C75.156 139.881 75.1418 139.685 75.1851 139.579C75.3883 139.075 75.7792 138.662 75.977 138.153C76.0061 138.079 75.8754 137.941 75.8077 137.983C75.4486 138.206 75.1418 138.508 74.8693 138.831C74.6271 139.118 74.6435 139.881 74.2796 139.791C73.7146 139.653 73.6549 138.778 73.1962 138.418C73.0428 138.301 72.7572 138.354 72.617 138.492C72.4377 138.667 72.3668 138.953 72.3848 139.202C72.4086 139.526 73.0106 139.944 72.7339 140.109C71.7749 140.692 70.5917 140.819 69.4803 140.973C69.2671 140.999 69.1449 140.633 68.9302 140.633C68.6197 140.639 68.3446 141.126 68.0674 140.989C67.5448 140.724 67.5258 139.536 66.9471 139.632C66.3325 139.727 66.2616 140.697 66.1119 141.301C66.0701 141.471 66.2785 141.635 66.4314 141.72C67.0513 142.059 67.6892 142.414 68.3832 142.558C68.5922 142.6 68.717 142.213 68.9302 142.224C69.3089 142.245 69.6125 142.6 69.9897 142.637C70.6953 142.717 71.4168 142.679 72.1177 142.568C72.3219 142.536 72.4261 142.229 72.6329 142.224C72.8381 142.218 72.9561 142.542 73.1619 142.542C73.3676 142.542 73.4856 142.218 73.6908 142.224C73.9056 142.229 74.0278 142.589 74.2409 142.563L77.7781 141.672ZM77.9082 139.356C77.9717 139.123 78.0939 138.9 78.0981 138.662C78.0992 138.582 77.9632 138.444 77.9225 138.513C77.7929 138.715 77.7506 138.974 77.7469 139.218L77.9082 139.356ZM99.7193 138.275C101.514 137.84 103.357 137.57 105.104 136.971C105.338 136.891 105.481 136.552 105.44 136.308C105.401 136.075 105.146 135.868 104.913 135.837C103.862 135.683 102.786 135.678 101.727 135.768C101.35 135.794 101.047 136.16 100.668 136.181C100.463 136.192 100.359 135.842 100.153 135.842C99.7781 135.842 99.4559 136.181 99.0809 136.181C98.8751 136.181 98.772 135.842 98.5662 135.842C98.1912 135.842 97.869 136.176 97.494 136.181C97.2888 136.181 97.1703 135.858 96.9651 135.863C96.7593 135.868 96.6561 136.208 96.4504 136.202C95.8987 136.197 95.3782 135.741 94.8349 135.842C94.426 135.916 94.3123 136.626 93.8987 136.663C93.5469 136.695 93.3956 135.847 93.0756 135.996C92.7482 136.149 92.9725 136.722 93.0068 137.082C93.0306 137.331 93.0063 137.723 93.247 137.787C93.6146 137.888 93.9621 137.363 94.3356 137.443C94.9169 137.559 95.3062 138.174 95.8786 138.333C96.4017 138.481 96.9719 138.418 97.5078 138.328C97.7119 138.296 97.8161 137.989 98.023 137.983C98.2282 137.978 98.3462 138.301 98.5519 138.301C98.7577 138.301 98.8757 137.989 99.0809 137.983L99.7193 138.275ZM87.4205 138.407C87.9622 138.381 88.5128 138.434 89.0449 138.328C89.2475 138.291 89.3533 137.983 89.5596 137.983C89.7654 137.983 89.8685 138.322 90.0743 138.322C90.4493 138.322 90.7715 137.983 91.1465 137.983C91.3517 137.983 91.4649 138.264 91.6612 138.322C91.8389 138.381 92.0806 138.444 92.2197 138.317C92.4059 138.153 92.443 137.861 92.4604 137.612C92.498 137.077 92.864 136.239 92.3832 136.011C91.5993 135.635 90.572 135.937 89.795 136.329C89.2618 136.6 89.2406 137.421 88.7926 137.814C88.6667 137.925 88.343 137.792 88.3256 137.628C88.2864 137.252 88.6054 136.923 88.6593 136.552C88.6699 136.478 88.5594 136.345 88.5043 136.393C88.0341 136.812 87.7643 137.443 87.2486 137.803C87.1042 137.904 86.7984 137.787 86.7567 137.612C86.708 137.411 87.0259 137.284 87.0724 137.082C87.0894 137.008 86.9799 136.886 86.9169 136.923C86.6361 137.093 86.3679 137.315 86.2049 137.596C86.1124 137.761 86.0537 138.052 86.2087 138.158L87.4205 138.407ZM80.2991 138.662C80.4414 138.667 80.7794 138.81 80.7265 138.678C80.6038 138.37 80.3547 137.957 80.0241 137.973C79.5559 137.994 79.0979 138.365 78.8667 138.773C78.7577 138.964 79.3089 138.9 79.5247 138.853C79.7257 138.81 79.8405 138.561 80.0405 138.513L80.2991 138.662ZM101.74 137.236C101.676 137.003 101.554 136.78 101.55 136.541C101.549 136.462 101.685 136.324 101.726 136.393C101.855 136.594 101.898 136.854 101.901 137.098L101.74 137.236ZM100.689 137.252C100.422 137.193 100.125 137.22 99.887 137.087C99.6865 136.971 99.3702 136.764 99.4506 136.547C99.5353 136.324 99.9283 136.282 100.153 136.372C100.458 136.489 100.657 136.807 100.828 137.087L100.689 137.252ZM90.7709 137.066C90.5398 137.13 90.3171 137.252 90.078 137.257C90.0008 137.257 89.8638 137.125 89.9288 137.082C90.1335 136.95 90.3917 136.913 90.6334 136.907L90.7709 137.066ZM114.247 131.225C114.304 131.495 114.286 131.792 114.418 132.036C114.528 132.237 114.705 132.492 114.935 132.492C115.489 132.497 115.987 132.105 116.538 132.057C117.591 131.957 118.653 132.031 119.71 132.047C120.068 132.052 120.438 132.025 120.782 132.126C120.982 132.185 121.078 132.46 121.283 132.497C121.819 132.593 122.386 132.63 122.915 132.508C123.602 132.344 124.248 132.01 124.854 131.649C125.177 131.458 125.337 131.05 125.664 130.865C126.36 130.467 127.325 130.51 127.876 129.926C128.183 129.603 128.067 128.962 127.824 128.591C127.691 128.384 127.357 128.787 127.116 128.76C126.911 128.734 126.784 128.49 126.584 128.442C126.511 128.426 126.402 128.511 126.412 128.585C126.461 128.962 126.694 129.29 126.744 129.661C126.756 129.746 126.658 129.884 126.585 129.847C126.075 129.608 125.731 128.962 125.169 128.925C124.767 128.893 124.585 129.502 124.219 129.672C124.084 129.736 123.921 129.513 123.783 129.571C122.922 129.932 122.239 130.78 121.312 130.891C120.856 130.949 120.706 130.086 120.253 130.006C118.861 129.752 117.423 129.884 116.009 129.932C115.734 129.942 115.446 130.027 115.224 130.191L114.247 131.225ZM74.4806 130.732C74.753 130.785 75.0254 130.955 75.2973 130.896C76.1563 130.722 76.9862 130.404 77.7881 130.048C78.0151 129.948 78.0997 129.492 78.3414 129.55C78.8122 129.656 79.0502 130.229 79.4851 130.441C79.657 130.525 79.8918 130.478 80.0532 130.377C80.3303 130.202 80.6403 129.979 80.7255 129.661C80.7794 129.465 80.3859 129.354 80.3859 129.147C80.3859 128.771 80.6699 128.442 80.7249 128.071C80.736 127.997 80.6408 127.896 80.5694 127.912C80.3689 127.96 80.2441 128.236 80.0383 128.23C79.8246 128.225 79.6961 127.838 79.4914 127.896C78.3901 128.214 77.4512 128.983 76.3504 129.301C76.1473 129.359 76.0182 128.972 75.8067 128.972C75.6014 128.972 75.4882 129.253 75.292 129.312C75.1148 129.37 74.8239 129.471 74.7355 129.306C74.6202 129.094 74.9021 128.84 74.9064 128.601C74.908 128.527 74.8101 128.4 74.7509 128.442C74.1806 128.85 73.795 129.513 73.1761 129.842C72.9635 129.958 72.589 129.879 72.4742 129.667C72.3753 129.481 72.744 129.333 72.7911 129.131C72.8075 129.057 72.7064 128.956 72.635 128.972C72.4345 129.02 72.3102 129.29 72.1039 129.29C71.8987 129.29 71.7808 128.983 71.576 128.972C71.4094 128.967 71.3084 129.306 71.1545 129.243C70.8281 129.11 70.753 128.57 70.4092 128.49C70.0791 128.411 69.7977 128.861 69.4591 128.85C68.9069 128.835 68.4102 128.442 67.858 128.421C67.6522 128.411 67.5385 128.824 67.3428 128.76C66.908 128.617 66.7286 127.891 66.2706 127.902C65.7622 127.907 65.3549 128.4 65.0349 128.797C64.927 128.93 65.0503 129.153 65.1391 129.301C65.3079 129.582 65.4676 129.964 65.785 130.043C66.0563 130.112 66.2685 129.545 66.5282 129.651C67.0921 129.873 67.3264 130.616 67.8744 130.881C68.0838 130.981 67.6919 130.441 67.6908 130.207C67.6903 129.964 67.639 129.428 67.8696 129.502C68.6758 129.752 69.1555 130.706 69.9722 130.918C70.3658 131.018 70.6387 130.324 71.045 130.335C71.4512 130.345 71.6903 130.87 72.0828 130.976C72.4351 131.071 72.8223 130.997 73.1756 130.907C73.3756 130.859 73.484 130.568 73.6908 130.563C73.8971 130.557 74.0204 130.838 74.2219 130.881L74.4806 130.732ZM88.0928 129.264C89.4565 128.962 90.8423 128.744 92.1833 128.358C92.4091 128.289 92.4996 127.939 92.7328 127.912C92.937 127.891 93.0566 128.23 93.2623 128.23C93.4681 128.23 93.5861 127.907 93.7913 127.912C93.9965 127.918 94.1002 128.251 94.306 128.251C94.681 128.251 95.0031 127.912 95.3782 127.912C95.5839 127.912 95.6871 128.251 95.8928 128.251C96.2679 128.251 96.59 127.918 96.9651 127.912C97.1772 127.912 97.3036 128.294 97.5093 128.241C98.0351 128.114 98.4821 127.753 98.9169 127.425C99.2258 127.197 99.7966 126.974 99.7199 126.592C99.6268 126.131 99.0396 125.861 98.5805 125.76C98.2092 125.681 97.8743 126.105 97.494 126.11C97.2888 126.115 97.1703 125.781 96.9651 125.792C96.5863 125.813 96.2795 126.147 95.905 126.206C95.5522 126.264 95.1798 126.232 94.8355 126.137C94.636 126.084 94.5419 125.771 94.3345 125.771C93.7828 125.771 93.2708 126.126 92.7191 126.131C92.5133 126.137 92.3985 125.723 92.2039 125.792C91.5548 126.02 91.0814 126.592 90.4726 126.911C89.8484 127.239 89.2121 127.589 88.5197 127.716C88.3097 127.753 88.1901 127.425 87.987 127.361C87.8104 127.303 87.5929 127.271 87.4295 127.361C87.0312 127.578 86.8138 128.082 86.3848 128.23C86.2266 128.283 86.252 127.896 86.1087 127.812C85.1777 127.25 84.2277 126.698 83.2105 126.322C83.0825 126.274 83.1428 126.614 83.2126 126.736C83.393 127.038 83.758 127.213 83.922 127.525C84.0077 127.69 84.0309 127.939 83.9156 128.082C83.8273 128.199 83.612 128.146 83.4898 128.071C83.1846 127.891 83.0116 127.525 82.6974 127.361C82.5329 127.271 82.3023 127.271 82.1399 127.361C81.8532 127.52 81.5591 127.748 81.4443 128.055C81.3581 128.289 81.374 128.707 81.6099 128.776C81.9675 128.882 82.2959 128.421 82.6689 128.421C83.0434 128.416 83.366 128.755 83.7411 128.76C83.9463 128.76 84.0648 128.442 84.27 128.442C84.4753 128.442 84.5937 128.766 84.799 128.76C85.0042 128.755 85.1174 128.479 85.3137 128.421C85.4909 128.363 85.7818 128.262 85.8701 128.426C85.9854 128.638 85.7035 128.893 85.6987 129.131C85.6977 129.206 85.7839 129.306 85.8548 129.29C86.0537 129.237 86.1653 128.946 86.3716 128.951C86.744 128.956 87.0619 129.248 87.4279 129.312L88.0928 129.264ZM77.5612 127.562C77.5057 127.324 77.6384 126.857 77.3951 126.852C77.1539 126.842 77.1645 127.319 77.2195 127.552L77.5612 127.562ZM73.1835 127.902C72.946 127.96 72.4779 127.827 72.4716 128.071C72.4658 128.31 72.9392 128.299 73.1746 128.246L73.1835 127.902ZM81.2666 127.038C81.211 126.799 81.3449 126.327 81.1005 126.322C80.7747 126.312 80.3346 126.693 80.4081 127.017L81.2666 127.038ZM78.9587 127.181C79.1962 127.122 79.6644 127.255 79.6707 127.011C79.6765 126.773 79.2026 126.783 78.9677 126.836L78.9587 127.181ZM129.752 119.797C130.982 119.49 132.187 119.05 133.442 118.88C133.656 118.854 133.807 119.325 133.994 119.219C134.504 118.928 135.185 118.488 135.163 117.9C135.141 117.343 134.46 116.813 133.901 116.792C132.626 116.739 131.409 117.343 130.186 117.709C129.851 117.804 129.594 118.143 129.246 118.17C129.035 118.186 128.919 117.884 128.718 117.82C128.536 117.762 128.327 117.751 128.145 117.81C127.795 117.926 127.514 118.202 127.166 118.318C126.091 118.689 124.945 118.843 123.893 119.272C123.361 119.49 123.032 120.158 122.462 120.232C122.098 120.28 121.906 119.739 121.573 119.58C121.326 119.463 121.039 119.394 120.768 119.431C120.557 119.463 120.428 119.818 120.221 119.765C118.956 119.437 117.835 118.658 116.567 118.334C116.155 118.234 115.619 118.228 115.301 118.514C115.098 118.695 115.323 119.092 115.477 119.315C115.747 119.712 116.07 120.147 116.522 120.301C116.838 120.412 117.182 119.861 117.48 120.009C118.011 120.28 118.131 121.059 118.64 121.366C118.949 121.552 119.371 121.446 119.724 121.366C119.926 121.324 120.044 120.958 120.239 121.022C120.669 121.17 120.893 121.668 121.283 121.896C121.44 121.992 121.646 121.986 121.826 121.96C122.098 121.923 122.374 121.854 122.61 121.711C122.914 121.53 123.072 121.112 123.413 121.022C123.611 120.969 123.731 121.297 123.927 121.361C124.11 121.419 124.318 121.424 124.503 121.371C125.338 121.144 126.212 120.963 126.961 120.529C127.34 120.306 127.387 119.712 127.758 119.479C127.9 119.394 127.996 119.749 128.161 119.776L129.752 119.797ZM102.93 118.642C103.415 118.345 103.991 118.159 104.385 117.746C104.572 117.555 104.554 117.226 104.552 116.956C104.55 116.712 104.588 116.362 104.374 116.251C104.189 116.156 104.053 116.532 103.856 116.596C103.565 116.696 103.224 116.606 102.945 116.733C102.666 116.861 102.547 117.274 102.245 117.332C101.924 117.396 101.584 117.221 101.306 117.052C101.005 116.866 100.888 116.426 100.559 116.299C100.396 116.235 100.291 116.622 100.118 116.585C99.2189 116.41 98.4139 115.88 97.5146 115.705C97.3422 115.668 97.2359 116.06 97.0735 115.991C96.7445 115.854 96.6953 115.212 96.3382 115.212C95.8966 115.212 95.5141 115.626 95.2681 115.997C95.1761 116.135 95.5924 116.256 95.5353 116.41C95.4744 116.58 95.1888 116.702 95.0439 116.601C94.6556 116.336 94.6297 115.626 94.1806 115.483C92.3483 114.915 90.4075 114.751 88.498 114.56C87.2713 114.444 86.0288 114.454 84.8006 114.566C84.4229 114.597 84.1198 114.963 83.7411 114.979C83.5348 114.99 83.4258 114.682 83.2259 114.635C82.8725 114.544 82.4858 114.47 82.133 114.566C81.7485 114.666 81.5051 115.271 81.1153 115.191C80.6228 115.085 80.5361 114.195 80.0373 114.131C79.6268 114.078 79.4999 114.9 79.0878 114.931C78.7212 114.963 78.5308 114.438 78.1981 114.279C77.9516 114.163 77.6633 114.094 77.3935 114.131C77.1899 114.163 77.0751 114.412 76.8789 114.47C76.7017 114.528 76.4985 114.528 76.3213 114.47C76.1251 114.412 76.0119 114.136 75.8067 114.131C75.6014 114.126 75.4829 114.449 75.2777 114.449C75.0656 114.444 74.9344 114.051 74.7334 114.12C73.2777 114.619 71.9966 115.551 70.5483 116.071C70.315 116.156 69.95 116.097 69.8289 115.885C69.7284 115.7 70.0992 115.551 70.1457 115.35C70.1627 115.276 70.0611 115.17 69.9902 115.191C69.7908 115.249 69.6734 115.483 69.4729 115.536C69.127 115.626 68.7551 115.668 68.4033 115.604C68.0304 115.541 67.7305 115.223 67.3571 115.165C66.8255 115.074 66.2441 114.974 65.7416 115.17C65.5078 115.26 65.5247 115.631 65.5009 115.88C65.4666 116.241 65.4242 116.628 65.5708 116.956C65.7046 117.253 65.9754 117.735 66.2843 117.629C66.8387 117.433 66.9514 116.617 67.4443 116.299C67.5813 116.209 67.5269 116.633 67.6475 116.744C68.0299 117.094 68.4218 117.486 68.9154 117.64C69.1174 117.703 69.247 117.311 69.4591 117.311C69.6739 117.311 69.7972 117.682 70.0093 117.65C71.9638 117.317 73.8326 116.569 75.7871 116.235C75.9982 116.198 76.1214 116.569 76.3356 116.569C76.5424 116.569 76.6461 116.251 76.8508 116.225C77.7294 116.108 78.6255 116.071 79.5073 116.156C79.8855 116.188 80.1886 116.543 80.5673 116.569C80.7725 116.58 80.891 116.246 81.0963 116.251C81.3031 116.256 81.4089 116.559 81.6115 116.596C82.1351 116.702 82.6778 116.675 83.2121 116.675C83.7463 116.675 84.2896 116.707 84.8127 116.596C85.0248 116.553 85.1343 116.209 85.3496 116.23C87.1264 116.415 88.8524 116.946 90.6212 117.195C90.9746 117.248 91.3443 117.216 91.6892 117.126C91.8892 117.073 91.9976 116.781 92.2044 116.781C92.4112 116.781 92.5176 117.083 92.7196 117.126C93.0735 117.205 93.4517 117.205 93.805 117.126C94.0145 117.078 94.1319 116.707 94.3382 116.765C95.4416 117.078 96.3768 117.857 97.4792 118.17C97.6823 118.228 97.8066 117.884 98.0071 117.82C98.1901 117.757 98.3969 117.767 98.5853 117.804C99.8071 118.069 100.994 118.488 102.221 118.721L102.93 118.642ZM131.872 117.831C131.879 117.942 132.005 118.149 131.892 118.175C131.657 118.234 131.202 118.244 131.188 118L131.872 117.831ZM98.5757 117.11C98.1616 117.057 97.348 117.359 97.3343 116.94C97.3205 116.527 98.1536 116.707 98.5641 116.76L98.5757 117.11ZM108.613 116.256C108.433 116.4 108.2 116.495 108.075 116.686C108.002 116.802 107.935 117.105 108.071 117.099C108.3 117.089 108.478 116.855 108.602 116.659L108.613 116.256ZM91.5041 115.885C91.6194 115.88 91.823 115.753 91.8511 115.864C91.9103 116.097 91.9172 116.553 91.6755 116.569L91.5041 115.885ZM80.0621 141.492C79.8246 141.439 79.3549 141.572 79.3491 141.328C79.3412 140.999 79.7231 140.559 80.041 140.633L80.0621 141.492ZM103.971 107.516C104.987 107.214 105.98 106.822 107.019 106.61C107.369 106.541 107.743 106.588 108.087 106.684C108.296 106.737 108.409 107.071 108.624 107.049C110.387 106.885 112.103 106.371 113.858 106.143C114.399 106.074 114.956 106.058 115.492 106.154C115.706 106.191 115.813 106.541 116.029 106.519C117.795 106.36 119.51 105.799 121.275 105.629C121.49 105.608 121.611 105.963 121.826 105.968C122.031 105.974 122.15 105.64 122.355 105.65C122.734 105.671 123.037 106.026 123.415 106.064C124.467 106.17 125.534 106.175 126.585 106.064C126.961 106.026 127.253 105.64 127.63 105.629C128.012 105.613 128.346 106.058 128.721 105.984C129.377 105.846 130.278 105.671 130.493 105.035C130.686 104.463 130.092 103.774 129.566 103.477C129.008 103.164 128.282 103.355 127.646 103.429C127.27 103.477 126.966 103.827 126.587 103.848C126.382 103.859 126.268 103.567 126.072 103.509C125.895 103.45 125.692 103.45 125.515 103.509C125.318 103.567 125.197 103.906 124.999 103.848C124.688 103.758 124.359 103.482 124.313 103.159C124.266 102.83 124.568 102.544 124.775 102.284C125.051 101.94 125.493 101.744 125.739 101.378C125.869 101.187 125.721 100.89 125.847 100.694C126.085 100.334 126.672 100.212 126.781 99.7931C126.887 99.3797 126.293 98.9874 126.393 98.574C126.516 98.0704 127.268 97.8637 127.371 97.3496C127.6 96.21 127.784 94.9325 127.339 93.8565C127.078 93.231 126.212 92.9183 125.532 92.9077C124.932 92.8971 124.544 93.6286 123.971 93.8088C123.735 93.883 123.292 93.8671 123.254 93.6233C123.207 93.3212 123.691 93.1834 123.833 92.9184C124.321 91.9908 124.639 90.9784 125.132 90.0561C125.271 89.7963 125.655 89.6797 125.715 89.3935C125.859 88.6885 126.051 87.8722 125.71 87.2415C125.509 86.8704 124.861 86.95 124.457 87.0719C124.068 87.1885 123.878 88.1372 123.554 87.8934C122.918 87.4111 122.985 86.3987 122.626 85.6831C122.578 85.5877 122.458 85.4817 122.354 85.5082C122.052 85.5824 121.726 85.7097 121.534 85.9588C120.767 86.9447 120.37 88.2009 119.534 89.1285C119.386 89.2928 119.149 88.768 118.938 88.8369C118.485 88.98 118.119 89.3405 117.789 89.6797C117.429 90.056 117.049 90.4589 116.895 90.9518C116.832 91.1532 117.222 91.2858 117.224 91.4978C117.226 91.7045 116.907 91.8211 116.907 92.0278C116.907 92.2346 117.301 92.3671 117.224 92.5579C117.044 92.9978 116.628 93.3106 116.26 93.618C116.15 93.7081 115.97 93.7611 115.84 93.7028C115.556 93.5703 115.064 93.3954 115.128 93.0879C115.23 92.6003 115.965 92.4837 116.188 92.0438C116.296 91.8264 116.229 91.238 116.009 91.3387C115.351 91.6303 114.909 92.277 114.434 92.8176C114.302 92.966 114.105 93.2152 114.217 93.3795C114.579 93.9254 115.858 94.0579 115.679 94.6887C115.202 96.3531 113.264 97.2859 112.638 98.9026C112.449 99.3902 113.298 99.7136 113.556 100.164C113.612 100.265 113.66 100.482 113.549 100.509C113.314 100.562 113.089 100.328 112.848 100.328C112.606 100.328 112.065 100.281 112.146 100.509C112.338 101.049 112.836 101.993 113.347 101.733C114.185 101.314 114.154 100.037 114.661 99.2471C114.712 99.1676 114.938 99.1623 114.942 99.2577C114.976 100.032 114.627 100.816 114.764 101.585C114.822 101.908 115.164 102.168 115.478 102.258C115.676 102.316 115.802 101.94 116.008 101.94C116.22 101.945 116.356 102.353 116.552 102.268C117.749 101.775 118.882 101.102 119.918 100.318C120.099 100.18 119.881 99.8196 120.029 99.6447C120.457 99.1411 121.097 98.8549 121.562 98.3885C121.804 98.1446 121.883 97.763 122.13 97.5245C122.679 96.9891 123.272 96.4856 123.927 96.088C124.086 95.9926 124.396 95.929 124.484 96.0934C124.599 96.3054 124.284 96.5598 124.313 96.7983C124.337 97.005 124.698 97.1322 124.629 97.3283C124.4 97.975 123.829 98.4521 123.511 99.0616C123.187 99.6871 122.84 100.328 122.71 101.023C122.67 101.23 123.044 101.357 123.042 101.569C123.041 101.775 122.699 101.876 122.703 102.083C122.708 102.459 123.024 102.772 123.065 103.143C123.092 103.392 123.113 103.747 122.899 103.869C122.586 104.055 122.166 103.954 121.812 103.874C121.601 103.827 121.491 103.482 121.276 103.509C120.03 103.668 118.871 104.399 117.615 104.399C117.145 104.399 116.987 103.509 116.516 103.509C115.434 103.514 114.455 104.193 113.395 104.415C113.035 104.489 112.65 104.484 112.291 104.405C112.083 104.357 111.968 103.996 111.761 104.049C111.183 104.193 110.786 104.802 110.204 104.919C109.884 104.988 109.616 104.516 109.292 104.558C108.995 104.601 108.902 105.136 108.602 105.136C108.193 105.136 107.93 104.516 107.523 104.553C106.608 104.632 105.83 105.337 104.919 105.454C104.534 105.507 104.222 105.088 103.839 105.025C103.487 104.961 103.115 105.003 102.77 105.094C102.57 105.147 102.461 105.433 102.255 105.438C102.049 105.443 101.931 105.12 101.726 105.12C101.52 105.12 101.402 105.443 101.197 105.438C100.991 105.433 100.878 105.163 100.683 105.099C100.501 105.041 100.286 105.014 100.11 105.088C99.5617 105.316 99.1581 105.931 98.5667 105.979C98.2377 106.011 97.9637 105.597 97.8648 105.279C97.8029 105.083 98.2298 104.95 98.1806 104.749C98.1393 104.574 97.8278 104.447 97.6892 104.558C97.1322 104.993 95.9093 105.624 96.3345 106.191C97.009 107.087 98.4657 106.928 99.5765 107.06C99.9563 107.108 100.286 106.716 100.668 106.71C100.874 106.71 100.986 106.991 101.182 107.049C101.36 107.108 101.564 107.113 101.74 107.049C101.935 106.986 102.045 106.753 102.24 106.689C102.416 106.625 102.63 106.61 102.798 106.689L103.971 107.516ZM94.7466 107.007C95.3099 106.339 95.9341 105.719 96.4356 104.998C96.5138 104.887 96.5731 104.611 96.4382 104.59C96.234 104.564 96.1277 104.924 95.9214 104.929C95.5855 104.94 95.2819 104.548 94.9571 104.638C94.6165 104.728 94.5403 105.258 94.2123 105.39C94.0568 105.454 93.9648 105.147 93.8045 105.099C93.6273 105.046 93.4247 105.041 93.248 105.099C93.0518 105.157 92.9386 105.433 92.7334 105.438C92.5281 105.443 92.4097 105.12 92.2044 105.12C91.9986 105.12 91.8701 105.502 91.6749 105.438C91.247 105.295 91.0476 104.728 90.6175 104.59C90.4208 104.526 90.3023 104.882 90.1023 104.935C89.7564 105.025 89.3866 105.056 89.0328 105.003C88.4774 104.929 87.969 104.495 87.4115 104.558C86.8191 104.622 86.0447 104.807 85.8109 105.353C85.658 105.714 86.4308 105.995 86.8185 105.952C87.174 105.915 87.2042 105.083 87.5517 105.168C88.1954 105.327 88.4001 106.297 89.0328 106.498C89.3078 106.583 88.7752 105.788 89.018 105.629C89.4147 105.375 89.9923 105.428 90.4313 105.597C90.8344 105.756 90.9228 106.398 91.3343 106.535C91.631 106.631 91.8913 106.201 92.2034 106.18C92.37 106.17 92.471 106.514 92.6249 106.451C92.9487 106.318 93.0254 105.804 93.3591 105.698C93.5152 105.645 93.4469 106.032 93.5665 106.143L94.7466 107.007ZM74.9021 105.825C74.671 105.761 74.4483 105.64 74.2092 105.634C74.132 105.634 73.995 105.767 74.06 105.809C74.2647 105.936 74.5229 105.979 74.7646 105.984L74.9021 105.825ZM63.6253 106.053C63.8728 105.973 64.1674 105.979 64.3674 105.814C64.7868 105.465 65.2544 105.078 65.4216 104.558C65.5168 104.261 65.0476 104.018 65.046 103.705C65.0445 103.329 65.3623 103.016 65.4137 102.645C65.4882 102.104 65.5649 101.532 65.419 101.012C65.2592 100.434 64.6774 100.042 64.5277 99.4645C64.4742 99.2577 64.8149 99.1358 64.8799 98.9344C64.9371 98.7542 64.9286 98.5527 64.8799 98.3725C64.78 98.0068 64.4679 97.7047 64.442 97.3283C64.3452 95.9131 64.2653 94.4661 64.5176 93.072C64.5615 92.8282 64.9947 92.8812 65.2407 92.9077C65.4052 92.9236 65.521 93.3105 65.6422 93.1992C66.4213 92.4784 66.8091 91.3865 67.6226 90.7027C68.6366 89.8546 69.8612 89.2875 71.0349 88.6779C71.1069 88.6408 71.2275 88.7521 71.2201 88.8369C71.1899 89.1709 70.8455 89.4783 70.9339 89.8017C71.027 90.1409 71.6543 90.1938 71.6871 90.5437C71.7146 90.8352 71.347 91.1055 71.0608 91.1479C70.6906 91.2062 70.3637 90.8193 69.9892 90.8087C69.8231 90.8034 69.6707 90.9678 69.5935 91.1162C69.2058 91.8529 69.1402 92.7752 68.6213 93.4272C68.1119 94.0738 67.1005 94.201 66.6234 94.8689C66.4414 95.1233 67.0106 95.4308 66.9725 95.7382C66.9487 95.929 66.6086 95.8972 66.479 96.0403C66.1494 96.406 65.7559 96.7665 65.6173 97.2329C65.4904 97.6676 65.4317 98.24 65.7321 98.574C65.977 98.8443 66.4737 98.6641 66.8281 98.574C67.1296 98.4997 67.4348 98.3407 67.6311 98.0969C68.2124 97.3813 68.8186 96.6287 69.1111 95.7541C69.2301 95.3937 68.717 95.0491 68.772 94.6781C68.7995 94.4926 69.1211 94.4343 69.2994 94.4873C69.5766 94.5774 69.6908 95.1339 69.968 95.0491C70.4266 94.906 70.6821 94.3866 70.9355 93.9785C71.4443 93.1569 71.667 92.171 72.2367 91.3918C72.3309 91.2646 72.5044 91.7469 72.6361 91.6568C73.1227 91.3229 73.5332 90.8511 73.8019 90.3264C73.8781 90.178 73.4729 90.0614 73.5332 89.9076C73.6972 89.4836 74.4044 89.2981 74.3774 88.8475C74.3494 88.3917 73.3994 88.3281 73.4099 87.867C73.42 87.4323 74.1875 87.4058 74.4187 87.0347C74.5081 86.8916 74.3864 86.6054 74.2214 86.5683C74.0188 86.5259 73.8886 86.8387 73.6876 86.8864C73.6146 86.9023 73.5062 86.8175 73.5163 86.7379C73.5655 86.3669 73.794 86.0383 73.8495 85.6619C73.8611 85.5877 73.7786 85.4976 73.7035 85.487C73.3412 85.434 72.9397 85.328 72.6043 85.4764C71.8358 85.8104 71.3444 86.7433 70.5171 86.8864C70.0712 86.9606 69.8977 86.1761 69.4734 86.0171C69.2185 85.9217 68.8694 86.0065 68.6758 86.1973C67.5311 87.3316 66.2425 88.4341 65.5602 89.8917C65.356 90.3317 66.3436 90.5967 66.397 91.079C66.4293 91.3653 66.0373 91.5932 65.757 91.6568C65.5554 91.6992 65.3671 91.1903 65.2254 91.3387C65.0281 91.5508 65.456 92.0119 65.2407 92.2027C65.0365 92.3829 64.6668 92.1869 64.4441 92.0278C64.0537 91.7522 63.6575 91.413 63.4824 90.9677C63.4068 90.7769 63.822 90.6603 63.822 90.4536C63.822 90.0773 63.4824 89.7539 63.4824 89.3776C63.4824 89.1709 63.7591 89.0596 63.8215 88.8635C63.8807 88.6779 63.8844 88.4712 63.8326 88.2856C63.5972 87.4429 63.3983 86.563 62.9683 85.7997C62.8387 85.5718 62.48 85.3492 62.2489 85.4711C61.8024 85.7202 61.4438 86.2026 61.3333 86.7008C61.1021 87.7397 61.1561 88.8422 61.2677 89.9023C61.6591 93.6339 62.3981 97.3178 62.8397 101.044C62.9228 101.744 62.9371 102.459 62.8392 103.159C62.7863 103.535 62.4737 103.832 62.3965 104.203C62.323 104.558 62.2648 104.956 62.397 105.295C62.5181 105.602 62.8181 105.82 63.1 105.995L63.6253 106.053ZM131.623 104.733C131.706 104.998 131.728 105.295 131.873 105.534C131.993 105.73 132.169 105.931 132.392 105.995C132.739 106.095 133.13 106.095 133.477 105.995C133.699 105.931 133.872 105.73 133.994 105.534C134.139 105.3 134.231 105.025 134.249 104.749C134.317 103.689 134.422 102.618 134.249 101.574C134.097 100.652 133.47 99.8567 133.289 98.9344C133.248 98.7277 133.631 98.6005 133.621 98.3885C133.604 98.0121 133.21 97.7047 133.215 97.3283C133.222 96.7665 133.74 96.2576 133.654 95.7064C133.401 94.0844 132.553 92.6003 132.228 90.989C132.183 90.7663 132.604 90.6391 132.585 90.4165C132.429 88.503 132.255 86.563 131.717 84.7185C131.627 84.411 131.141 84.3792 130.818 84.358C130.546 84.3421 130.268 84.464 130.035 84.6071C129.839 84.729 129.678 84.9145 129.575 85.1213C129.493 85.2856 129.481 85.487 129.505 85.6672C129.794 87.8934 130.715 90.0879 130.512 92.3194C130.453 92.9608 129.24 92.7699 128.814 93.2575C128.354 93.7823 127.989 94.4926 128 95.1922C128.007 95.6481 128.719 95.8283 128.861 96.2682C128.925 96.4644 128.56 96.581 128.516 96.7824C128.44 97.1375 128.385 97.5351 128.517 97.8743C128.638 98.1817 128.915 98.4414 129.217 98.574C129.5 98.6959 129.849 98.68 130.145 98.5846C130.356 98.521 130.474 97.9803 130.633 98.134C131.117 98.6058 131.441 99.2789 131.542 99.9468L131.623 104.733ZM87.4311 103.843C87.858 103.371 88.3552 102.963 88.7117 102.438C88.826 102.274 88.6308 101.95 88.7984 101.839C89.5014 101.357 90.398 101.23 91.1274 100.79C91.4364 100.604 91.6934 100.313 91.8606 99.9945C91.9907 99.7454 91.7786 99.3531 91.9801 99.157C92.4742 98.68 93.2417 98.574 93.7738 98.1393C94.1415 97.8372 94.2811 97.323 94.6239 96.9944C94.9979 96.634 95.3819 96.1623 95.896 96.0987C96.1404 96.0669 96.1954 96.5916 96.088 96.8142C95.8468 97.3072 95.2586 97.5615 94.9614 98.028C94.2727 99.0987 93.8029 100.302 93.1502 101.399C92.9952 101.664 92.6096 101.786 92.5477 102.083C92.4567 102.523 92.5689 102.995 92.7318 103.413C92.8164 103.631 93.0269 103.811 93.2486 103.874C93.5961 103.975 93.9986 104.012 94.334 103.874C94.6371 103.753 94.8963 103.466 95.0068 103.159C95.0624 103.005 94.636 102.873 94.7392 102.745C95.4189 101.892 96.4763 101.383 97.1232 100.509C97.2502 100.339 96.745 100.169 96.7921 99.9627C96.8958 99.5015 97.0767 98.9079 97.5205 98.7542C97.8352 98.6428 97.9018 99.5546 98.2219 99.4645C98.7133 99.3267 98.992 98.7489 99.192 98.2772C99.2576 98.1234 98.9476 98.0333 98.9 97.8743C98.8471 97.6941 98.7556 97.4237 98.9063 97.3124C99.0714 97.1958 99.3105 97.5085 99.5014 97.4396C99.8484 97.3177 100.057 96.9414 100.392 96.7877C100.556 96.7135 100.817 96.9255 100.934 96.7877C101.706 95.8707 102.109 94.6728 102.918 93.7876C103.158 93.5279 103.588 93.5067 103.943 93.5014C104.111 93.5014 104.231 93.8724 104.37 93.777C104.891 93.4219 105.153 92.7805 105.624 92.3671C105.706 92.2929 105.953 92.2611 105.955 92.3724C105.964 92.8918 105.93 93.4696 105.652 93.9149C105.305 94.4661 104.606 94.7046 104.179 95.1975C104.12 95.2664 104.299 95.4095 104.383 95.3777C104.888 95.1816 105.346 94.8742 105.793 94.5615C105.939 94.4608 106.08 94.3283 106.143 94.164C106.242 93.8989 106.062 93.5226 106.263 93.3264C107.075 92.5261 108.258 92.1551 109.031 91.3176C109.826 90.4536 110.384 89.3829 110.876 88.3175C110.945 88.1691 110.536 88.0471 110.606 87.8987C110.774 87.5436 111.32 87.4482 111.455 87.0772C111.618 86.6319 111.621 86.086 111.428 85.6513C111.326 85.4234 110.966 85.434 110.716 85.4128C110.36 85.3757 109.951 85.2962 109.646 85.4817C108.736 86.0383 107.973 86.8121 107.209 87.5595C106.854 87.9093 106.678 88.4129 106.31 88.7469C105.954 89.0649 105.392 89.1178 105.077 89.4783C104.618 90.003 104.512 90.7716 104.065 91.3017C103.732 91.6992 103.309 92.1338 102.795 92.1974C102.55 92.2292 102.557 91.7257 102.603 91.4819C102.664 91.1585 102.883 90.8776 103.09 90.6179C103.337 90.3052 103.754 90.1409 103.95 89.7963C104.013 89.685 103.684 89.6055 103.732 89.4889C103.917 89.0436 104.565 88.7892 104.566 88.3016C104.568 87.8245 104.213 87.2097 103.74 87.1196C103.237 87.0242 102.801 87.5595 102.419 87.8987C101.903 88.3599 101.635 89.0701 101.082 89.4889C100.95 89.5896 100.827 89.2503 100.665 89.2185C100.593 89.2079 100.493 89.3034 100.51 89.3776C100.557 89.579 100.845 89.7009 100.826 89.9076C100.798 90.2098 100.631 90.5225 100.388 90.7027C99.7722 91.1639 98.8556 91.1904 98.3404 91.7628C98.1436 91.9801 98.6445 92.277 98.7111 92.5632C98.7281 92.6374 98.6382 92.7116 98.5657 92.7381C98.2779 92.8229 97.9463 92.7487 97.6739 92.8759C97.3057 93.0508 97.0555 93.4166 96.7006 93.618C96.6466 93.6498 96.5948 93.4643 96.5509 93.512C96.2367 93.8194 96.106 94.3071 95.7442 94.5615C95.2137 94.9325 94.4403 94.8901 93.9585 95.3194C93.5152 95.717 93.5496 96.4802 93.1296 96.9043C92.991 97.0421 92.7471 96.6128 92.5757 96.7082C92.0991 96.9732 91.7569 97.4344 91.411 97.8584C91.338 97.9485 91.4443 98.1287 91.3538 98.1976C90.6244 98.7701 89.5607 98.9609 89.0301 99.7242C88.8222 100.021 89.676 100.238 89.6749 100.604C89.6744 100.827 89.2496 100.752 89.0275 100.763C88.6704 100.784 88.2584 100.885 87.9579 100.689C87.75 100.556 87.6686 100.18 87.7918 99.9627C88.38 98.9344 89.293 98.1288 89.977 97.1588C90.471 96.4644 90.7916 95.6428 91.32 94.9696C92.0743 94.0103 92.937 93.1356 93.8061 92.2823C94.1526 91.9377 94.653 91.7628 94.9566 91.3812C95.0291 91.2911 94.6561 91.1745 94.7466 91.1003C95.2385 90.7027 95.9362 90.602 96.4186 90.1886C97.1105 89.5949 97.7458 88.9111 98.2171 88.1267C98.325 87.9518 98.1515 87.6973 98.023 87.533C97.7278 87.1514 97.4136 86.7432 96.9788 86.5418C96.6509 86.3881 96.1965 86.3457 95.8934 86.5418C95.3115 86.9182 95.0582 87.6655 94.5424 88.1267C93.96 88.6514 93.1856 88.9429 92.6249 89.4889C92.5366 89.579 92.9333 89.7115 92.8413 89.791C92.059 90.4907 91.064 90.92 90.2653 91.5985C89.8945 91.9165 89.7209 92.4201 89.365 92.7487C89.284 92.8229 89.1195 92.8123 89.0344 92.7434C88.9423 92.6692 88.8942 92.5102 88.9381 92.4042C89.1179 91.9483 89.3533 91.5031 89.6733 91.1321C90.6879 89.9607 92.0685 89.0967 92.919 87.8033C93.2147 87.3528 93.0338 86.7114 92.919 86.1814C92.8704 85.9587 92.6456 85.7997 92.4562 85.6672C92.3419 85.5877 92.1785 85.5241 92.0484 85.5718C91.5972 85.7467 91.1158 85.9375 90.7942 86.298C89.6987 87.5277 88.9021 89.0012 87.859 90.2733C87.2904 90.9677 86.5562 91.5137 85.9706 92.1922C85.3951 92.8601 84.8667 93.5756 84.3837 94.3124C84.0193 94.8689 83.8521 95.5527 83.4359 96.0721C83.1259 96.4591 82.5234 96.5598 82.2536 96.9785C81.6622 97.8955 81.1074 98.8867 80.9222 99.9627C80.8651 100.291 81.2962 100.583 81.6115 100.694C82.0526 100.853 82.598 100.927 83.018 100.721C83.4581 100.503 83.5448 99.8726 83.9177 99.5492C84.3256 99.1994 84.7995 98.6005 85.3163 98.7489C85.7247 98.8655 85.6242 99.597 85.5194 100.005C85.3729 100.583 84.7609 100.964 84.6075 101.542C84.4393 102.168 84.3298 102.899 84.5884 103.493C84.7932 103.965 85.329 104.383 85.8421 104.389C86.2996 104.399 86.4816 103.678 86.9143 103.53L87.4311 103.843ZM87.2724 101.044C87.3877 101.039 87.5914 100.911 87.6194 101.023C87.6786 101.256 87.6855 101.717 87.4438 101.728L87.2724 101.044ZM76.5758 101.049C77.0614 100.652 77.6638 100.371 78.0325 99.862C78.1336 99.7242 77.6797 99.5863 77.7522 99.4326C78.2478 98.3619 78.945 97.3973 79.6231 96.4326C79.9389 95.9821 80.4758 95.7011 80.7249 95.2081C80.7995 95.0597 80.3584 94.9272 80.4573 94.7947C80.872 94.2381 81.6051 93.989 82.0405 93.4536C82.7498 92.5791 83.1798 91.5031 83.8548 90.602C84.3372 89.9554 85.4041 89.632 85.4988 88.8316C85.5818 88.1267 84.8228 87.5383 84.269 87.0983C84.1076 86.9711 83.9553 87.3952 83.7548 87.4429C83.293 87.5595 82.7699 87.3846 82.3346 87.5807C81.9743 87.7344 81.8992 88.5136 81.5152 88.4288C80.8672 88.2857 80.6419 87.3793 80.0526 87.0772C79.8109 86.95 79.465 87.0825 79.255 87.2574C78.2362 88.1055 77.2713 89.0331 76.4493 90.072C74.5715 92.4466 72.8387 94.9378 71.1798 97.4715C70.8069 98.0439 70.2822 98.6747 70.3743 99.3479C70.4383 99.8249 71.1143 99.968 71.5464 100.169C71.7194 100.249 71.9743 100.286 72.1193 100.159C73.7844 98.7224 75.0487 96.8142 76.8672 95.5792C77.2105 95.3459 77.2068 96.4273 77.0503 96.8142C76.5827 97.9591 75.3264 98.7489 75.0809 99.9627C74.9751 100.487 75.7469 100.816 76.1785 101.129L76.5758 101.049ZM90.4425 99.9892C90.6805 99.9256 90.9111 99.8037 91.1571 99.8037C91.2332 99.8037 91.3454 99.9097 91.3052 99.9786C91.1322 100.254 90.9402 100.662 90.6149 100.668L90.4425 99.9892ZM113.276 98.7595C113.544 98.452 113.681 97.7471 114.079 97.8319C114.437 97.9114 114.256 98.6164 114.073 98.9344C113.949 99.1464 113.591 99.1464 113.351 99.0934L113.276 98.7595ZM67.7189 98.9079C67.8622 99.0881 67.9569 99.3213 68.15 99.4486C68.2648 99.5228 68.5663 99.5864 68.5594 99.4486C68.5478 99.2206 68.3155 99.0404 68.123 98.9185L67.7189 98.9079ZM82.8545 98.3831C82.7392 98.3884 82.5356 98.5157 82.5075 98.4044C82.4483 98.1711 82.4414 97.71 82.6831 97.6994L82.8545 98.3831ZM111.765 97.4821C111.945 97.339 112.178 97.2435 112.303 97.0527C112.376 96.9361 112.443 96.634 112.307 96.6393C112.078 96.6499 111.9 96.8831 111.776 97.0792L111.765 97.4821ZM86.5403 97.8478C86.3964 98.028 86.3018 98.2612 86.1082 98.3885C85.9891 98.4627 85.7326 98.5369 85.6824 98.3991C85.5956 98.1711 85.6353 97.816 85.8416 97.6835L86.5403 97.8478ZM130.579 96.8089C130.422 96.634 130.202 96.5015 130.108 96.2842C130.034 96.1145 130.015 95.8866 130.109 95.7223C130.272 95.4414 130.536 94.8901 130.821 95.0491C131.182 95.2505 131.074 95.8495 131.074 96.2682C131.073 96.5121 130.985 96.7771 130.819 96.9573L130.579 96.8089ZM125.171 130.716C125.056 130.722 124.852 130.849 124.824 130.737C124.765 130.504 124.758 130.043 125 130.032L125.171 130.716ZM98.5736 96.9679C98.3361 96.9096 97.868 97.0421 97.8616 96.7983C97.8558 96.5598 98.3292 96.5704 98.5646 96.6234L98.5736 96.9679ZM110.909 96.3053C111.026 96.0562 110.988 95.5474 111.26 95.5633C112.013 95.6057 112.595 96.3636 113.345 96.4431C113.638 96.4749 114.1 96.1304 114.002 95.8495C113.845 95.4095 113.302 95.1605 112.849 95.0386C112.644 94.9803 112.521 95.3247 112.319 95.3883C112.142 95.4466 111.922 95.4838 111.761 95.3883C111.479 95.224 111.144 95.0014 111.089 94.6781C111.056 94.482 111.457 94.5138 111.588 94.3707C111.866 94.0633 112.081 93.6975 112.291 93.3371C112.711 92.6162 112.994 91.8158 113.475 91.1373C113.844 90.6126 114.462 90.2946 114.817 89.7645C115.186 89.208 115.236 88.4818 115.611 87.9306C116.036 87.3104 116.921 87.0135 117.178 86.3033C117.304 85.9587 116.681 85.7467 116.525 85.4128C116.461 85.275 116.693 85.01 116.549 84.9569C116.105 84.8032 115.455 84.5806 115.139 84.9305C113.876 86.3139 113.341 88.238 112.203 89.7327C111.846 90.1992 111.08 90.2257 110.731 90.7027C110.568 90.9253 110.976 91.2487 110.888 91.5137C110.739 91.959 110.456 92.3936 110.075 92.6692C109.94 92.7646 109.819 92.4307 109.657 92.3988C109.585 92.3882 109.484 92.4837 109.502 92.5579C109.554 92.7646 109.887 92.8971 109.834 93.1039C109.7 93.618 109.437 94.1533 109.008 94.4608C108.824 94.5933 108.484 93.9042 108.419 94.1215C108.307 94.4925 108.87 94.853 108.776 95.2241C108.497 96.3372 107.609 97.2382 107.356 98.3619C107.269 98.7436 107.574 99.1411 107.822 99.4486C107.913 99.5599 108.173 99.5811 108.251 99.4645C108.414 99.2153 108.191 98.8019 108.391 98.5846C108.82 98.1128 109.523 97.9803 109.994 97.551L110.909 96.3053ZM98.9275 96.2842C99.1586 96.2206 99.3813 96.0987 99.6204 96.0934C99.6977 96.0934 99.8347 96.2258 99.7696 96.2682C99.5649 96.3955 99.3068 96.4378 99.065 96.4431L98.9275 96.2842ZM117.599 95.9078C117.592 95.7965 117.466 95.5898 117.578 95.5633C117.813 95.505 118.269 95.4944 118.283 95.7382L117.599 95.9078ZM87.7987 95.7647C87.7961 95.399 87.6099 94.9855 87.7908 94.6675C87.913 94.4502 88.3382 94.3283 88.5149 94.5032C88.6874 94.6728 88.315 94.9696 88.3435 95.2081C88.3673 95.4149 88.8053 95.5951 88.6604 95.7435L87.7987 95.7647ZM67.868 96.0987C67.8749 96.21 68.0008 96.4166 67.8881 96.4431C67.6533 96.5014 67.1978 96.5121 67.1836 96.2682L67.868 96.0987ZM100.682 95.3619C100.595 95.134 100.424 94.9272 100.421 94.6834C100.419 94.4343 100.422 93.989 100.668 93.989C100.912 93.9837 100.913 94.4343 100.915 94.6781L100.682 95.3619ZM95.7527 95.2188C95.9754 94.9802 96.1171 94.6198 96.4218 94.4979C96.6461 94.4078 97.1163 94.4343 97.1237 94.6728C97.1348 95.0014 96.7545 95.2664 96.4509 95.3883L95.7527 95.2188ZM77.4052 95.3619C77.3422 95.1287 77.0889 94.8689 77.2153 94.6675C77.3449 94.4555 77.7051 94.4184 77.9357 94.5032C78.0685 94.5509 77.9971 94.8106 77.9225 94.9272L77.4052 95.3619ZM98.0468 94.3176C97.8093 94.2646 97.3396 94.3972 97.3337 94.1533C97.3258 93.8247 97.7077 93.3847 98.0256 93.459L98.0468 94.3176ZM101.74 93.7717C101.676 93.5385 101.554 93.3159 101.55 93.0773C101.549 92.9978 101.685 92.86 101.726 92.9289C101.855 93.1303 101.898 93.3901 101.901 93.6339L101.74 93.7717ZM128.724 118.7C128.487 118.642 128.019 118.774 128.012 118.53C128.007 118.292 128.48 118.302 128.715 118.355L128.724 118.7ZM105.943 118.154C106.007 117.921 106.129 117.698 106.133 117.46C106.134 117.38 105.998 117.242 105.957 117.311C105.828 117.513 105.785 117.772 105.782 118.016L105.943 118.154ZM119.028 92.0438C119.259 91.9802 119.482 91.8582 119.721 91.8529C119.798 91.8529 119.935 91.9854 119.87 92.0278C119.665 92.1551 119.407 92.1974 119.165 92.2027L119.028 92.0438ZM91.1682 92.1974C90.9307 92.1391 90.4626 92.2717 90.4562 92.0278C90.4504 91.7893 90.9243 91.7999 91.1592 91.8529L91.1682 92.1974ZM105.786 90.973C105.901 90.9677 106.105 90.8405 106.133 90.9518C106.192 91.185 106.199 91.6409 105.957 91.6568L105.786 90.973ZM107.53 90.814C107.593 91.0472 107.716 91.2699 107.72 91.5084C107.721 91.5879 107.585 91.7204 107.544 91.6568C107.415 91.4554 107.372 91.1956 107.369 90.9518L107.53 90.814ZM70.3245 87.7874C70.4425 87.9623 70.7725 88.1267 70.6784 88.3175C70.57 88.5348 70.1256 88.6832 69.9728 88.4924C69.7088 88.169 69.7437 87.6602 69.8098 87.2468C69.8289 87.1249 70.0881 87.1567 70.1711 87.2468L70.3245 87.7874ZM50.9413 86.0277C50.9482 86.139 51.0741 86.3457 50.9614 86.3722C50.7271 86.4305 50.2711 86.4411 50.2569 86.1973L50.9413 86.0277ZM88.4969 84.7767C90.4308 84.4852 92.3467 84.0241 94.298 83.8968C94.6847 83.8703 94.991 84.3209 95.3782 84.3262C95.7559 84.3315 96.0589 83.9393 96.4361 83.9181C96.6413 83.9075 96.7593 84.2361 96.9651 84.2361C97.1708 84.2361 97.2888 83.9128 97.494 83.9181C97.7008 83.9234 97.8093 84.2096 98.0092 84.2626C98.3541 84.3527 98.7223 84.3739 99.0772 84.3368C101.546 84.0718 103.988 83.5576 106.464 83.3668C106.679 83.3509 106.785 83.7273 107.001 83.7273C107.376 83.7326 107.698 83.3933 108.073 83.388C108.278 83.388 108.397 83.706 108.602 83.706C108.807 83.706 108.926 83.3774 109.131 83.388C109.508 83.4092 109.811 83.812 110.189 83.7961C110.744 83.7749 111.224 83.3403 111.778 83.2926C113.182 83.1654 114.601 83.176 116.005 83.2873C116.394 83.3244 116.699 83.7432 117.088 83.7273C120.619 83.5682 124.116 82.9269 127.646 82.7679C128.022 82.752 128.317 83.1442 128.689 83.2025C129.39 83.3138 130.114 83.3774 130.817 83.2714C131.208 83.2184 131.608 83.0329 131.878 82.7413C132.064 82.5399 132.222 82.1583 132.057 81.941C131.624 81.3791 130.97 80.9869 130.318 80.706C129.982 80.5575 129.576 80.6318 129.218 80.7113C129.016 80.7537 128.909 81.0558 128.703 81.0558C128.497 81.0558 128.394 80.7165 128.188 80.7165C127.813 80.7165 127.491 81.0505 127.116 81.0558C126.911 81.0558 126.792 80.7378 126.587 80.7378C126.381 80.7378 126.263 81.0611 126.058 81.0558C125.853 81.0505 125.739 80.7748 125.543 80.7165C125.366 80.6582 125.163 80.6582 124.986 80.7165C124.789 80.7748 124.676 81.0505 124.471 81.0558C124.266 81.0611 124.147 80.7378 123.942 80.7378C123.736 80.7378 123.618 81.0558 123.413 81.0558C123.201 81.0505 123.075 80.6741 122.869 80.7272C122.319 80.865 121.933 81.4056 121.39 81.5646C120.99 81.6866 120.55 81.6176 120.139 81.5434C119.802 81.4798 119.519 81.2201 119.179 81.1724C118.826 81.1194 118.456 81.1512 118.11 81.2413C117.91 81.2943 117.801 81.5964 117.594 81.5858C117.216 81.5699 116.913 81.1989 116.535 81.1724C115.129 81.0558 113.715 81.1459 112.305 81.1618C111.947 81.1671 111.579 81.1459 111.233 81.2413C111.033 81.2943 110.924 81.5911 110.718 81.5858C110.34 81.5699 110.038 81.1777 109.66 81.1777C109.282 81.1777 108.979 81.5646 108.602 81.5858C108.397 81.5964 108.278 81.2678 108.073 81.2678C107.868 81.2678 107.749 81.5911 107.544 81.5858C107.339 81.5805 107.226 81.3049 107.03 81.2466C106.852 81.1883 106.651 81.1989 106.472 81.2466C106.109 81.342 105.804 81.6759 105.428 81.6759C105.041 81.6759 104.734 81.2148 104.349 81.2466C102.569 81.4003 100.846 81.9622 99.0772 82.2166C98.7239 82.2643 98.3536 82.2378 98.0092 82.1424C97.8029 82.0894 97.686 81.7342 97.4787 81.7873C96.9016 81.9304 96.498 82.5081 95.9225 82.6565C95.7172 82.7095 95.5903 82.3332 95.3782 82.3279C95.1729 82.3279 95.0545 82.6565 94.8492 82.6459C94.4705 82.6247 94.1663 82.2696 93.7892 82.2272C93.0841 82.153 92.3615 82.1848 91.6617 82.3014C91.4575 82.3332 91.3676 82.6566 91.1608 82.6672C90.8334 82.6884 90.508 82.2272 90.2192 82.3809C89.6818 82.6724 89.585 83.4887 89.0603 83.8014C88.7445 83.9923 88.3139 83.8332 87.959 83.7325C87.759 83.6795 87.6649 83.3774 87.4581 83.3668C87.1195 83.3509 86.8212 83.706 86.4858 83.6636C86.2176 83.6265 86.1293 83.1389 85.859 83.1442C85.5834 83.1495 85.5073 83.7272 85.2348 83.6848C84.6736 83.6053 84.307 82.9799 83.7564 82.8474C83.5501 82.7943 83.4284 83.1336 83.2264 83.1972C83.0497 83.2555 82.8482 83.2449 82.6689 83.1972C82.3044 83.0965 81.9955 82.8262 81.6231 82.7626C81.2713 82.699 80.8799 82.6831 80.5535 82.8315C80.1388 83.017 79.9627 83.6901 79.5094 83.706C79.0963 83.7219 78.9746 82.9004 78.561 82.9057C78.0844 82.911 77.8564 83.6106 77.3978 83.7378C77.1931 83.7961 77.0772 83.3933 76.8646 83.388C76.6593 83.3827 76.5292 83.7749 76.3351 83.706C75.9082 83.5576 75.731 82.9481 75.292 82.8367C74.9286 82.7466 74.5948 83.1707 74.2198 83.176C74.014 83.176 73.8855 82.7944 73.6903 82.858C73.2624 83.0011 73.0614 83.5629 72.6334 83.706C72.4383 83.7696 72.3039 83.4304 72.1029 83.388C72.0251 83.3721 71.8982 83.4887 71.9341 83.5576C72.1669 84.0188 72.4779 84.4375 72.827 84.8192C72.8979 84.8934 73.036 84.8827 73.1365 84.8562C73.5094 84.7608 73.8342 84.464 74.2198 84.4481C74.425 84.4375 74.5287 84.7874 74.7345 84.7874C75.109 84.7874 75.4316 84.464 75.8056 84.4481C75.9749 84.4428 76.0701 84.7608 76.2357 84.7237C76.5001 84.6601 76.5932 84.2043 76.8646 84.2043C77.1359 84.2043 77.2248 84.7661 77.493 84.7237C77.8675 84.6601 77.9653 83.987 78.3441 83.9658C78.7085 83.9446 78.8582 84.6283 79.2232 84.6177C79.5813 84.6124 79.6924 84.0135 80.0378 83.9181C80.2367 83.8651 80.3472 84.252 80.553 84.2573C80.8915 84.2679 81.1899 83.9181 81.5258 83.9605C81.7908 83.9976 81.8786 84.4852 82.1457 84.4746C82.5578 84.4534 82.8217 83.8439 83.2327 83.881C84.1457 83.9605 84.9138 84.6972 85.8246 84.7979C86.38 84.8615 86.8847 84.3633 87.4438 84.358L88.4969 84.7767ZM69.6385 84.6442C69.649 84.3421 69.8289 83.9923 69.6691 83.7378C69.4242 83.3509 69.0148 82.9746 68.5583 82.9269C68.2066 82.8898 67.8088 83.2025 67.6866 83.5311C67.5401 83.9339 67.4988 84.5912 67.8717 84.7926C68.2277 84.9888 68.5351 84.2467 68.9381 84.2149L69.6385 84.6442ZM71.0418 84.2467C71.0487 84.1354 71.1746 83.9287 71.0619 83.9022C70.827 83.8438 70.3716 83.8333 70.3573 84.0771L71.0418 84.2467ZM66.5377 83.5576C66.6826 83.3774 66.8921 83.2343 66.973 83.017C67.0011 82.9428 66.8741 82.8103 66.8027 82.8474C66.3499 83.0806 65.9257 83.3827 65.5644 83.7431C65.4861 83.8227 65.4814 84.0082 65.5697 84.0771C65.6861 84.1619 65.8786 84.146 66.0077 84.0771L66.5377 83.5576ZM100.153 83.1707C100.09 82.9375 99.9674 82.7148 99.9632 82.4763C99.9621 82.3968 100.098 82.2643 100.139 82.3279C100.268 82.5293 100.311 82.7891 100.314 83.0329L100.153 83.1707ZM89.1841 83.0329C88.9529 82.9693 88.7302 82.8474 88.4911 82.842C88.4139 82.842 88.2769 82.9746 88.3419 83.017C88.5467 83.1442 88.8048 83.1866 89.0465 83.1919L89.1841 83.0329ZM75.4454 83.5258C75.3951 83.7697 75.5025 84.1195 75.2946 84.2573C75.0915 84.3845 74.6757 84.305 74.5895 84.0824C74.5086 83.8651 74.8344 83.6742 75.027 83.547L75.4454 83.5258ZM50.57 93.072C50.3388 93.1356 50.1162 93.2575 49.8771 93.2628C49.7998 93.2628 49.6628 93.1303 49.7279 93.0879C49.9326 92.9554 50.1907 92.9184 50.4325 92.913L50.57 93.072ZM51.6586 76.1475C51.5142 76.1369 51.3624 76.0786 51.2254 76.1263C51.1032 76.1634 51.0365 76.3012 50.945 76.3913C50.5906 76.7465 50.1791 77.0539 49.8882 77.4621C49.8046 77.584 49.7422 77.8437 49.8749 77.8967C50.2103 78.0292 50.6514 78.0875 50.9582 77.8967C51.1307 77.7854 50.7583 77.4886 50.8339 77.2977L51.6586 76.1475ZM49.446 109.149C49.1778 109.456 48.9482 110.346 48.6419 110.076C48.2357 109.716 48.5092 108.968 48.6509 108.449C48.6885 108.306 48.9731 108.364 49.0804 108.459L49.446 109.149ZM51.2762 75.2782C51.5824 74.8648 52.0267 74.5203 52.1944 74.0326C52.37 73.5238 52.3526 72.9492 52.26 72.4175C52.1918 72.0274 52.0178 71.6251 51.7284 71.3543C51.529 71.1682 51.1883 71.0855 50.9313 71.1746C50.6213 71.2817 50.3949 71.5838 50.2357 71.8711C50.1458 72.0338 50.1204 72.284 50.2362 72.4292C50.6298 72.9238 51.2423 73.2041 51.6676 73.6722C51.7416 73.7517 51.7263 73.9107 51.6676 74.0008C51.5089 74.2552 51.3492 74.674 51.0529 74.6475C50.7033 74.621 50.6694 73.9319 50.3214 73.8895C50.1019 73.863 50.1558 74.3135 50.1691 74.5362C50.1833 74.7853 50.1944 75.1086 50.4007 75.2464L51.2762 75.2782ZM63.146 73.3276C63.4391 73.2375 63.8495 73.3011 64.0257 73.0472C64.4748 72.4016 64.735 71.6193 64.8741 70.8454C64.9122 70.6339 64.5827 70.5146 64.5171 70.31C64.4605 70.133 64.3589 69.8372 64.524 69.7524C64.744 69.639 65.0058 70.0084 65.2428 69.9369C65.812 69.7646 66.2235 69.2128 66.799 69.0644C67.0042 69.0114 67.1312 69.3962 67.3433 69.3941C67.5485 69.392 67.6543 69.0824 67.858 69.0538C68.1034 69.0194 68.4885 68.9913 68.5821 69.2208C68.7863 69.7201 68.6683 70.3064 68.5874 70.8396C68.5409 71.1465 68.0865 71.4046 68.2082 71.6903C68.3859 72.1096 68.8921 72.3073 69.2978 72.5124C69.5094 72.619 69.786 72.6916 70.0034 72.5967C70.3049 72.4653 70.6292 72.2209 70.7027 71.8997C70.9011 71.0346 70.8609 70.1208 70.7736 69.2372C70.736 68.8609 70.3531 68.5678 70.3356 68.1898C70.3187 67.8146 70.8307 67.4573 70.6752 67.1149C69.7913 65.1686 68.7493 63.2487 67.3555 61.6289C67.0471 61.2706 66.2769 61.2796 65.9384 61.6103C65.1243 62.4049 64.8165 63.5922 64.3039 64.6088C63.9849 65.2412 63.6776 65.8836 63.4475 66.5536C63.3481 66.8414 63.4787 67.197 63.3232 67.4584C63.0995 67.8347 62.4525 67.9323 62.3721 68.3627C62.1219 69.7 62.1823 71.0998 62.3917 72.444L63.146 73.3276ZM51.6459 72.4112C51.5306 72.4181 51.3269 72.5448 51.2989 72.4319C51.2397 72.1965 51.2328 71.7401 51.4745 71.7258L51.6459 72.4112ZM88.7492 71.3707C88.9143 71.2817 89.2132 71.288 89.2438 71.103C89.7162 68.2508 89.0523 65.1283 90.2208 62.4854C90.7164 61.3639 92.59 61.7757 93.6437 61.1518C93.9325 60.9812 94.0076 60.5592 94.0388 60.2248C94.0616 59.982 94.014 59.6407 93.7945 59.5357C93.6077 59.4461 93.4686 59.8585 93.2623 59.8532C93.0555 59.8479 92.9487 59.5521 92.7471 59.5082C92.3874 59.4297 91.9997 59.408 91.6437 59.5002C90.2647 59.8564 88.9254 60.3536 87.5877 60.8423C86.5313 61.2281 85.4152 61.5181 84.4652 62.1208C84.0283 62.398 83.6242 62.875 83.5707 63.3902C83.5358 63.7231 83.9759 63.9399 84.2563 64.1212C84.4091 64.2198 84.6186 64.2086 84.799 64.1837C85.0703 64.1461 85.347 64.0756 85.5829 63.9362C85.8865 63.757 86.0373 63.1946 86.3859 63.2466C86.8577 63.3166 87.2248 63.7883 87.4438 64.2134C87.5649 64.4498 87.2486 64.7318 87.2856 64.9952C87.338 65.3716 87.658 65.6795 87.7003 66.0569C87.7982 66.9336 87.805 67.8278 87.7003 68.7035C87.6554 69.0798 87.3475 69.3825 87.2586 69.7508C87.1899 70.036 87.0672 70.3901 87.2343 70.6313C87.5274 71.0542 88.0277 71.3029 88.4901 71.5281L88.7492 71.3707ZM116.52 70.4707C117.897 70.1844 119.323 70.0795 120.649 69.612C121.033 69.4763 121.267 69.065 121.483 68.7194C121.579 68.5646 121.57 68.3563 121.545 68.1755C121.511 67.928 121.488 67.6412 121.312 67.4637C121.182 67.3333 120.95 67.3889 120.766 67.3889C120.233 67.3873 119.691 67.3571 119.168 67.4589C118.796 67.531 118.499 67.8755 118.121 67.9026C117.529 67.945 116.664 68.1692 116.355 67.6603C115.89 66.8918 116.162 65.8439 116.342 64.9629C116.639 63.5175 117.436 62.2109 117.769 60.7728C117.817 60.5645 117.439 60.4384 117.436 60.2248C117.433 60.0186 117.813 59.8914 117.753 59.6942C117.658 59.3841 117.375 59.1005 117.066 59.0062C116.869 58.9458 116.742 59.3232 116.537 59.3232C116.332 59.3237 116.214 59.0125 116.009 59.0072C115.847 59.003 115.681 59.1488 115.623 59.2998C115.194 60.422 114.874 61.5859 114.577 62.751C114.21 64.1943 113.85 65.6451 113.635 67.1192C113.557 67.6471 113.629 68.1898 113.706 68.7183C113.721 68.8248 113.812 68.9176 113.904 68.9743L116.52 70.4707ZM99.2549 69.7906C98.9613 68.5524 98.5355 67.3381 98.3747 66.076C98.3472 65.8624 98.7122 65.7405 98.7101 65.5253C98.7085 65.318 98.4176 65.2094 98.3652 65.009C98.2753 64.6624 98.2361 64.2903 98.2959 63.9367C98.3604 63.5535 98.7831 63.2397 98.7291 62.8544C98.589 61.8536 98.2837 60.8412 97.7437 59.9873C97.6019 59.7631 97.1862 59.9205 96.9492 60.0398C96.6551 60.1882 96.4234 60.4601 96.2504 60.741C96.1536 60.8969 96.1827 61.1031 96.1796 61.2865C96.1589 62.522 96.0727 63.7623 96.1796 64.9931C96.2123 65.3721 96.571 65.6758 96.5943 66.0553C96.607 66.261 96.2779 66.3797 96.2779 66.5854C96.2779 66.7916 96.598 66.9098 96.5943 67.1154C96.5911 67.3301 96.2245 67.4536 96.2599 67.6651C96.4065 68.5317 96.7588 69.3549 97.1084 70.1611C97.174 70.3116 97.3221 70.4463 97.4818 70.4812C97.8347 70.5592 98.2293 70.6127 98.5657 70.4818L99.2549 69.7906ZM52.6948 69.7683C52.2077 68.8164 51.7908 67.8241 51.2328 66.9124C51.1836 66.8324 51.0074 66.8456 50.9524 66.9209C50.8017 67.1276 50.6784 67.39 50.6975 67.6455C50.7393 68.1973 51.0884 68.6971 51.1265 69.2489C51.1381 69.4143 50.7398 69.516 50.8355 69.6512C51.1079 70.0355 51.5195 70.4367 51.9892 70.4664L52.6948 69.7683ZM128.567 69.3464C127.912 69.0475 127.145 68.9213 126.602 68.4485C126.333 68.2142 126.043 67.6026 126.343 67.4107C127.433 66.7131 128.853 66.7507 130.044 66.2451C130.765 65.9392 131.597 65.6451 132.033 64.9936C132.216 64.7217 131.636 64.4562 131.361 64.2786C131.207 64.1795 131 64.2081 130.817 64.2081C130.107 64.2081 129.389 64.1652 128.689 64.2786C128.315 64.339 128.018 64.6698 127.643 64.7222C127.114 64.7959 126.534 64.8574 126.043 64.647C125.812 64.5479 125.819 64.1837 125.802 63.933C125.746 63.1406 125.182 62.0132 125.826 61.5499C127.62 60.2613 130.172 60.4977 132.094 59.4106C132.45 59.2092 131.846 58.6039 131.573 58.2991C131.224 57.909 130.809 57.336 130.29 57.3954C129.145 57.5273 128.242 58.492 127.134 58.809C126.921 58.87 126.786 58.4178 126.569 58.4602C125.873 58.5954 125.227 58.942 124.615 59.2988C124.096 59.6009 123.546 59.9253 123.204 60.4193C123.036 60.6605 123.159 61.0146 123.228 61.2997C123.317 61.6681 123.641 61.9692 123.67 62.3471C123.811 64.2224 123.448 66.1295 123.731 67.989C123.797 68.4178 124.564 68.4718 124.665 68.8937C124.779 69.3687 124.217 69.8272 124.29 70.31C124.339 70.635 124.664 70.9424 124.986 71.0071C125.353 71.0813 125.683 70.6551 126.058 70.6673C126.436 70.679 126.738 71.0744 127.116 71.0744C127.493 71.0744 127.796 70.6822 128.174 70.6673C128.38 70.6588 128.485 70.9795 128.689 71.0124C129.22 71.0988 129.773 71.1057 130.303 71.0124C130.508 70.9763 130.608 70.7102 130.804 70.6392C131.093 70.5348 131.436 70.6286 131.716 70.5014C131.991 70.3763 132.103 69.9035 132.405 69.9115C132.809 69.9215 133.059 70.4097 133.441 70.5448C133.619 70.609 133.849 70.5867 134.007 70.4807C134.458 70.1786 134.75 69.6782 135.196 69.3681C135.863 68.9033 137.092 68.9536 137.323 68.1729C137.501 67.5707 136.43 67.285 135.919 66.9214C135.822 66.852 135.673 66.8758 135.561 66.9172C134.894 67.1642 134.235 67.4404 133.609 67.778C133.352 67.9163 133.221 68.281 132.935 68.334C132.726 68.3727 132.597 67.9571 132.391 68.0048L128.567 69.3464ZM82.8487 69.2404C82.5731 68.5805 82.4435 67.8379 82.0214 67.2612C81.5956 66.6792 80.7995 66.4423 80.3742 65.8597C80.252 65.6922 80.4536 65.4421 80.5673 65.2693C80.7625 64.9725 81.1899 64.8224 81.2819 64.479C81.4665 63.7925 81.3983 63.0563 81.3523 62.3471C81.3359 62.089 81.2507 61.8229 81.0957 61.6162C80.7149 61.1062 80.3272 60.5534 79.7749 60.2375C79.5364 60.1007 79.2285 60.476 78.9651 60.396C78.3906 60.2216 77.9907 59.452 77.3941 59.5156C76.2923 59.6332 75.3126 60.3112 74.3658 60.8873C73.6395 61.3289 72.936 61.861 72.4234 62.5395C72.2425 62.7786 72.3774 63.1448 72.4377 63.4385C72.69 64.6655 73.1217 65.8523 73.357 67.0826C73.4263 67.4446 73.421 67.8268 73.3481 68.1877C73.3147 68.3515 72.9582 68.4533 73.0518 68.5911C73.3168 68.9807 73.7606 69.2351 74.1902 69.4264C74.4419 69.5388 74.8175 69.6581 75.0159 69.4662C75.6009 68.9022 75.493 67.4859 76.2991 67.3921C77.7448 67.2235 79.0799 68.2688 80.4197 68.8376C80.6906 68.9521 80.8069 69.3178 81.0825 69.4217C81.4163 69.5484 81.7966 69.5282 82.1515 69.4916L82.8487 69.2404ZM109.132 68.9028C109.772 68.5582 110.489 68.3303 111.052 67.8697C111.453 67.5421 111.893 67.1154 111.946 66.6002C111.981 66.2674 111.541 66.0506 111.261 65.8693C111.108 65.7702 110.898 65.7813 110.718 65.8067C110.447 65.8444 110.168 65.9106 109.934 66.0537C109.631 66.2398 109.452 66.5918 109.145 66.7714C108.988 66.8637 108.78 66.8721 108.602 66.834C108.233 66.7545 107.922 66.4428 107.544 66.4269C107.339 66.4179 107.226 66.7052 107.03 66.7672C106.852 66.8234 106.648 66.8276 106.472 66.7666C106.164 66.6606 105.854 66.5107 105.623 66.2811C105.255 65.9175 104.941 65.4887 104.711 65.0244C104.624 64.8484 104.63 64.6141 104.711 64.4355C104.962 63.8816 105.255 63.3256 105.68 62.8904C106.184 62.3747 106.941 62.1557 107.443 61.6373C107.816 61.2515 108.215 60.776 108.244 60.2396C108.262 59.9057 107.867 59.6359 107.558 59.5087C107.219 59.3687 106.806 59.3868 106.458 59.5028C105.944 59.6741 105.491 60.0064 105.063 60.3387C104.657 60.6541 104.263 61.005 103.974 61.4307C103.442 62.2151 102.931 63.0367 102.625 63.9346C102.559 64.1297 102.948 64.259 102.942 64.4652C102.936 64.6719 102.63 64.7768 102.597 64.9814C102.511 65.5131 102.363 66.1136 102.598 66.5981C102.858 67.1329 103.584 67.2914 103.949 67.761C104.025 67.858 103.656 67.9646 103.734 68.06C104.03 68.4257 104.406 68.8249 104.871 68.8969L109.132 68.9028ZM66.5753 67.1255C66.4182 66.9516 66.1976 66.8186 66.104 66.6034C66.0278 66.4269 66.0156 66.2 66.0976 66.0262C66.297 65.6021 66.6186 64.5176 66.9143 64.8813C67.3867 65.4622 67.1048 66.3871 66.9931 67.1281L66.5753 67.1255ZM89.0523 66.7534C88.8148 66.6978 88.3467 66.8308 88.3404 66.587C88.3345 66.3453 88.8085 66.3559 89.0433 66.4105L89.0523 66.7534ZM50.9561 65.7866C50.9524 65.9382 50.8572 66.119 50.9456 66.2425C51.0117 66.3347 51.2153 66.3347 51.2851 66.2451C51.8374 65.5369 52.4446 64.8193 52.7207 63.9643C52.8382 63.6017 52.3759 63.2561 52.3743 62.875C52.3732 62.6694 52.6869 62.5633 52.7139 62.3593C52.7451 62.1192 52.7758 61.6347 52.5351 61.6554C52.122 61.6914 51.9955 62.4261 51.5819 62.4573C51.2296 62.4844 50.9297 61.4805 50.7588 61.79C50.4113 62.4197 50.6668 63.2349 50.7588 63.9489C50.7858 64.154 51.0984 64.2579 51.1037 64.4652C51.1095 64.6708 50.7869 64.7896 50.7874 64.9952C50.7874 65.202 51.0625 65.3255 51.1058 65.5274L50.9561 65.7866ZM76.6012 64.4774C76.3409 64.5336 76.087 64.6464 75.8209 64.6464C75.5734 64.647 75.2211 64.6942 75.0968 64.48C74.9148 64.1668 75.0106 63.7454 75.0926 63.3924C75.1322 63.219 75.2973 63.0929 75.4417 62.99C75.8839 62.6762 76.3441 62.38 76.836 62.1531C77.0069 62.0741 77.2084 62.0874 77.3967 62.0879C77.7538 62.0895 78.1394 62.0132 78.4652 62.1584C78.7731 62.2957 79.3052 62.5697 79.1735 62.8798C78.8476 63.6462 78.115 64.2076 77.4084 64.6464L76.6012 64.4774ZM51.9987 60.9313C52.0008 60.7893 52.0765 60.6287 52.0061 60.5057C51.8908 60.3054 51.7136 60.0976 51.4893 60.0435C51.2492 59.9863 50.8995 60 50.7689 60.2094C50.6372 60.4198 50.717 60.8105 50.9307 60.9361L51.9987 60.9313ZM147.195 59.5267C147.432 59.5818 147.9 59.4488 147.907 59.6931C147.912 59.9348 147.438 59.9242 147.204 59.8691L147.195 59.5267ZM52.2796 59.1763C52.1341 58.9961 51.7861 58.861 51.8437 58.6368C51.9564 58.1973 52.6123 58.0192 52.6906 57.5724C52.7308 57.3397 52.2209 57.8194 52.0019 57.733C51.8342 57.6668 51.7332 57.3879 51.8125 57.2257C51.9823 56.8775 52.4896 56.7704 52.644 56.4153C52.7028 56.2807 52.3288 56.3469 52.2468 56.225C51.867 55.6589 51.3333 55.0934 51.3005 54.4117C51.2804 53.9914 52.2119 53.8567 52.114 53.4475C51.976 52.8719 51.0349 52.8072 50.7874 52.2703C50.6864 52.0508 51.2497 52.0604 51.4888 52.0922C51.6935 52.1198 51.8078 52.3774 52.0067 52.433C52.0797 52.4537 52.1738 52.3625 52.1823 52.2867C52.2405 51.745 52.3092 51.1853 52.1981 50.6515C52.0104 49.7542 51.3523 48.9681 51.2984 48.0527C51.2788 47.7204 51.6861 47.4452 52.0029 47.3451C52.1992 47.2825 52.3267 47.662 52.5324 47.662C52.7382 47.662 52.8556 47.3451 53.0614 47.3451C53.2666 47.3451 53.3851 47.6668 53.5904 47.662C53.7956 47.6578 53.9088 47.3838 54.105 47.3217C54.2822 47.2656 54.4859 47.264 54.6626 47.3217C54.8657 47.388 54.9863 47.7198 55.1952 47.6779C55.9331 47.5306 56.5303 46.9067 57.2751 46.7991C57.6565 46.744 57.9659 47.2194 58.351 47.2221C58.7287 47.2247 59.0312 46.8309 59.4089 46.815C59.6141 46.806 59.7178 47.1553 59.9236 47.1553C60.2986 47.1553 60.6208 46.8203 60.9958 46.815C61.201 46.8118 61.319 47.132 61.5248 47.132C61.7305 47.132 61.8485 46.8102 62.0537 46.815C62.2589 46.8193 62.3721 47.0933 62.5684 47.1553C62.7456 47.2115 62.9498 47.2136 63.1259 47.1553C63.3306 47.0875 63.448 46.7742 63.6623 46.7938C65.4285 46.955 67.1418 47.5237 68.9085 47.6832C69.1238 47.7028 69.2333 47.361 69.4454 47.3164C69.9685 47.2078 70.5118 47.239 71.046 47.239C71.4041 47.239 71.7733 47.2189 72.1177 47.317C72.3171 47.3732 72.4113 47.6912 72.6186 47.6854C73.1709 47.6689 73.667 47.255 74.2198 47.255C74.5959 47.255 74.8873 47.6689 75.2634 47.6854C75.6379 47.7013 75.9611 47.3318 76.3356 47.3451C76.7149 47.3583 77.0164 47.7495 77.3951 47.7606C81.977 47.8915 86.5631 47.7898 91.1465 47.7681C91.5046 47.7665 91.8722 47.7829 92.2182 47.6901C92.4181 47.6371 92.5266 47.3504 92.7334 47.3451C92.9386 47.3392 93.0571 47.6748 93.2623 47.662C93.6411 47.6387 93.9479 47.308 94.3224 47.247C94.6752 47.1898 95.0439 47.2359 95.3919 47.317C95.6982 47.388 95.9521 47.7781 96.2552 47.6959C96.6313 47.5942 96.6852 46.8691 97.0745 46.8617C97.4877 46.8537 97.6173 47.5825 98.0224 47.662C98.3938 47.7347 98.7032 47.2417 99.0809 47.255C99.6347 47.2735 100.113 47.7405 100.668 47.7521C101.22 47.7638 101.716 47.3201 102.269 47.3217C102.647 47.3233 102.939 47.7219 103.314 47.7606C104.373 47.8698 105.455 47.9191 106.507 47.759C106.91 47.6981 107.139 47.1288 107.545 47.1182C107.955 47.1071 108.217 47.724 108.625 47.7028C110.397 47.6122 112.104 46.9608 113.87 46.7938C114.084 46.7731 114.191 47.1622 114.406 47.1553C114.959 47.1373 115.455 46.7398 116.008 46.7249C116.346 46.7154 116.629 47.1686 116.957 47.0853C117.304 46.9979 117.332 46.2887 117.689 46.2993C118.412 46.32 118.955 47.167 119.678 47.1643C122.518 47.1542 125.317 46.4562 128.15 46.2627C128.328 46.2505 128.429 46.6199 128.594 46.5558C128.924 46.4281 128.986 45.7851 129.339 45.8005C129.755 45.819 129.919 46.4132 130.276 46.6295C130.432 46.7249 130.637 46.7005 130.82 46.7005C131.354 46.7005 131.895 46.7334 132.419 46.63C132.622 46.5903 132.727 46.2903 132.934 46.285C133.14 46.2791 133.258 46.6019 133.463 46.6019C133.669 46.6019 133.787 46.2802 133.992 46.285C134.197 46.2892 134.311 46.5633 134.507 46.6253C134.684 46.6815 134.887 46.6815 135.064 46.6253C135.261 46.5633 135.373 46.2892 135.579 46.285C135.784 46.2802 135.903 46.6067 136.108 46.6019C136.313 46.5977 136.418 46.2526 136.623 46.2616C137.175 46.285 137.671 46.7037 138.224 46.692C138.778 46.6804 139.257 46.2076 139.811 46.1949C140.187 46.1859 140.485 46.559 140.855 46.63C141.379 46.7302 141.92 46.7212 142.452 46.7005C142.689 46.692 142.933 46.6486 143.144 46.5431C143.643 46.295 144.233 46.1053 144.559 45.6526C144.823 45.2853 144.893 44.7388 144.752 44.3084C144.675 44.0699 144.291 44.0805 144.04 44.0667C142.809 43.9989 141.57 43.9591 140.341 44.0662C139.964 44.099 139.661 44.4648 139.282 44.4817C139.076 44.4908 138.967 44.1886 138.767 44.1361C138.421 44.046 138.05 44.0095 137.697 44.0667C137.323 44.1277 137.016 44.4648 136.637 44.4817C136.431 44.4908 136.327 44.1632 136.122 44.1361C135.243 44.0211 134.347 43.984 133.465 44.0662C133.087 44.1012 132.784 44.4637 132.405 44.4817C132.2 44.4918 132.096 44.1414 131.891 44.1414C131.516 44.1414 131.194 44.4764 130.818 44.4817C130.613 44.4849 130.495 44.16 130.29 44.1648C130.084 44.169 129.981 44.5051 129.775 44.5051C129.4 44.5051 129.077 44.1531 128.703 44.1648C128.325 44.1764 128.022 44.5745 127.645 44.5718C127.26 44.5692 126.95 44.0927 126.569 44.1489C125.816 44.2597 125.228 45.0399 124.468 45.0394C123.376 45.0388 122.409 44.1526 121.317 44.1457C120.857 44.1425 120.677 44.8687 120.239 45.0118C120.043 45.0759 119.924 44.7197 119.724 44.6662C119.378 44.5745 119.011 44.5893 118.652 44.5893C118.294 44.5893 117.927 44.5739 117.581 44.6662C117.381 44.7197 117.272 45.0107 117.066 45.0118C116.86 45.0129 116.757 44.6683 116.551 44.6715C116.178 44.6768 115.866 45.0309 115.493 45.0351C115.118 45.0388 114.795 44.6826 114.421 44.6948C114.043 44.7065 113.74 45.1072 113.363 45.1019C112.803 45.0945 112.302 44.6312 111.743 44.6583C108.567 44.8098 105.434 45.6319 102.255 45.633C99.2433 45.6346 96.2838 44.6832 93.2724 44.6667C92.6688 44.663 92.2541 45.3256 91.704 45.5752C91.5337 45.6526 91.3284 45.6722 91.1454 45.6325C90.7762 45.5524 90.4657 45.2397 90.0886 45.2249C89.8823 45.2164 89.7733 45.518 89.5734 45.5699C89.2274 45.6606 88.8556 45.7009 88.5038 45.6399C88.1314 45.5747 87.8357 45.2121 87.4581 45.2015C86.9064 45.1862 86.3943 45.5652 85.8426 45.5652C85.6363 45.5652 85.5369 45.2683 85.3422 45.2015C85.1666 45.1411 84.964 45.1528 84.7847 45.2015C84.4202 45.3012 84.1161 45.6113 83.7389 45.6404C82.1574 45.7618 80.5668 45.6669 78.9804 45.6479C78.6223 45.6436 78.2531 45.6675 77.9087 45.5699C77.7093 45.5132 77.6147 45.1946 77.4078 45.2015C76.8545 45.2201 76.3536 45.5641 75.8045 45.6399C75.4507 45.6887 75.0809 45.6606 74.735 45.5699C74.535 45.518 74.4266 45.2302 74.2198 45.2249C74.0145 45.219 73.8961 45.5466 73.6908 45.5418C73.4856 45.5376 73.3819 45.2015 73.1761 45.2015C72.8011 45.2015 72.479 45.5365 72.1039 45.5418C71.8982 45.545 71.7802 45.2206 71.575 45.2243C71.3602 45.2286 71.238 45.5895 71.0249 45.562C69.7802 45.3992 68.6102 44.8295 67.3645 44.6747C67.1497 44.6482 67.0423 45.0102 66.8281 45.0399C65.95 45.1618 65.0561 45.1178 64.1695 45.1178C63.8114 45.1178 63.4422 45.1374 63.0979 45.0399C62.8985 44.9832 62.8043 44.6752 62.597 44.6715C62.2225 44.6651 61.8993 45.024 61.5248 45.0118C61.1476 44.9996 60.8456 44.5835 60.4684 44.6042C57.6813 44.7537 54.8323 44.7605 52.1442 45.5148C51.5322 45.6871 51.6977 46.7588 51.2349 47.1956C51.0323 47.3869 50.6689 47.2343 50.4013 47.159C50.2024 47.1028 50.0844 46.8707 49.8855 46.815C49.8146 46.7954 49.7131 46.8998 49.7295 46.9714C49.7766 47.1723 50.0506 47.2968 50.0458 47.5036C50.0416 47.7092 49.7681 47.8227 49.7062 48.0193C49.6501 48.1969 49.6501 48.4004 49.7062 48.578C49.7681 48.7746 50.0416 48.888 50.0458 49.0937C50.0506 49.2999 49.584 49.4801 49.7295 49.6259C49.8961 49.7923 50.2103 49.3518 50.4171 49.4653C50.9281 49.7451 51.7041 50.1061 51.6676 50.6886C51.6226 51.4042 50.3214 51.5828 50.2394 52.2952C50.1156 53.3749 51.008 54.3529 51.1228 55.4336C51.164 55.8206 50.7414 56.1312 50.689 56.516C50.6176 57.0461 50.6562 57.5936 50.7588 58.1184C50.799 58.3214 51.0984 58.4274 51.1037 58.6346C51.1095 58.8408 50.6419 59.021 50.7874 59.1668C50.954 59.3332 51.2561 58.9198 51.475 59.0062C51.8956 59.171 52.0923 59.7594 52.5346 59.8527L52.2796 59.1763ZM50.9572 49.2485C50.7779 49.1043 50.5435 49.0094 50.4187 48.8154C50.342 48.6962 50.2706 48.4391 50.4034 48.3887C50.6329 48.3013 50.9895 48.3416 51.1222 48.5483L50.9572 49.2485ZM84.2557 107.023C84.3192 106.79 84.4414 106.567 84.4456 106.329C84.4467 106.249 84.3107 106.111 84.27 106.18C84.1404 106.382 84.0981 106.641 84.0944 106.885L84.2557 107.023ZM48.6583 106.875C48.7736 106.869 48.9773 106.742 49.0053 106.853C49.0646 107.087 49.0715 107.542 48.8297 107.558L48.6583 106.875ZM61.5105 45.7597C61.5739 45.9913 61.6961 46.2145 61.7004 46.4541C61.7014 46.5309 61.5655 46.6687 61.5248 46.6035C61.3952 46.3984 61.3528 46.1397 61.3491 45.897L61.5105 45.7597ZM134.164 140.787C134.048 140.793 133.845 140.92 133.817 140.808C133.757 140.575 133.75 140.114 133.992 140.103L134.164 140.787ZM122.731 89.3935C122.962 89.3299 123.185 89.208 123.424 89.2027C123.501 89.2027 123.638 89.3352 123.573 89.3776C123.368 89.5048 123.11 89.5472 122.868 89.5525L122.731 89.3935ZM122.531 88.8422C122.413 88.8475 122.251 88.9536 122.175 88.8635C122.059 88.7203 122.081 88.4977 122.1 88.3175C122.141 87.904 122.066 87.3952 122.355 87.0983C122.526 86.9181 122.586 87.5436 122.611 87.7874L122.531 88.8422ZM118.631 119.951C118.898 120.009 119.195 119.983 119.433 120.115C119.633 120.232 119.95 120.439 119.869 120.651C119.785 120.879 119.392 120.921 119.167 120.831C118.862 120.714 118.663 120.396 118.492 120.115L118.631 119.951ZM146.841 88.8316C146.61 88.8952 146.387 89.0171 146.147 89.0224C146.07 89.0224 145.933 88.8899 145.999 88.8475C146.203 88.715 146.461 88.6779 146.703 88.6726L146.841 88.8316Z" fill="black"/>
</svg>
