<svg width="200" height="200" viewBox="0 0 200 200" fill="none" xmlns="http://www.w3.org/2000/svg">
<ellipse cx="99.5" cy="109.5" rx="70.5" ry="53.5" fill="#E9E9E9"/>
<path d="M104.093 163C105.271 162.473 106.909 162.494 107.644 161.419C109.075 159.315 109.433 156.642 110.083 154.179C110.252 153.546 110.215 152.853 110.073 152.213C109.998 151.851 109.461 151.661 109.461 151.291C109.461 150.923 109.96 150.722 110.064 150.371C110.168 150.054 110.168 149.69 110.064 149.374C109.951 149.013 109.348 148.794 109.442 148.426C109.697 147.395 110.808 146.69 110.987 145.643C111.109 144.966 110.243 144.411 110.243 143.724C110.243 143.049 110.94 142.508 110.968 141.832C110.977 141.463 110.412 141.276 110.356 140.911C110.158 139.657 110.215 138.373 110.215 137.103C110.215 136.462 110.186 135.804 110.356 135.186C110.46 134.813 111.053 134.61 110.996 134.228C110.685 131.98 109.659 129.876 109.282 127.637C109.132 126.697 109.226 125.716 109.414 124.781C109.48 124.418 110.083 124.224 110.026 123.859C109.942 123.365 109.169 123.191 109.075 122.699C107.681 115.489 107.324 108.082 105.6 100.944C103.698 93.0634 100.713 85.4885 98.236 77.7698C98.1418 77.469 98.0948 77.1322 97.897 76.8853C97.4544 76.332 96.6539 76.0633 96.362 75.4191C96.2396 75.1476 96.8328 74.9878 96.8893 74.6946C97.0117 74.0608 97.0965 73.3684 96.8893 72.7554C96.7292 72.2579 96.1077 72.0327 95.8534 71.574C95.279 70.5363 95.0812 69.3085 94.4409 68.3106C93.6592 67.0979 92.3597 66.2692 91.6534 65.014C91.5027 64.7454 92.2372 64.5344 92.1524 64.2374C91.8887 63.3076 91.3238 62.4657 90.7023 61.7222C90.3632 61.3155 89.7322 61.2606 89.365 60.8794C88.847 60.3459 88.4704 59.6875 88.1125 59.0377C87.2367 57.4599 86.7 55.6816 85.6547 54.2088C85.1461 53.487 84.1761 53.2222 83.5545 52.5988C82.3586 51.406 81.5958 49.7516 80.2115 48.7849C79.816 48.5086 79.298 49.5596 78.8742 49.3288C78.1303 48.9286 77.6877 48.065 77.4241 47.2686C77.3299 46.9763 78.1491 46.7019 77.9231 46.4938C76.793 45.4514 75.4276 44.6285 73.9868 44.0969C73.6289 43.9663 73.3746 44.8073 73.0168 44.6853C72.254 44.4251 71.8679 43.5189 71.1616 43.133C70.8697 42.9741 70.4364 42.9381 70.1633 43.133C69.0144 43.9692 68.1857 45.196 67.0745 46.0909C65.4735 47.382 63.6655 48.4017 62.0457 49.6749C61.3489 50.2245 60.6896 50.8403 60.1529 51.5441C59.4466 52.4475 59.117 53.6176 58.3448 54.4595C57.0076 55.9218 55.4442 57.1562 53.8904 58.3878C53.1088 59.0046 52.1577 59.3669 51.3855 59.9883C50.5756 60.6353 50.0105 61.5538 49.1818 62.1715C47.5715 63.3719 45.6787 64.1599 44.1155 65.4161C42.5334 66.6855 41.4127 68.4818 39.7929 69.7058C38.8229 70.4436 37.4952 70.5618 36.4593 71.2145C35.8284 71.6099 35.527 72.4073 34.896 72.8008C34.6323 72.9673 34.2368 72.6381 33.9637 72.78C33.5965 72.9673 33.2198 73.2974 33.135 73.7013C32.9278 74.6406 32.9843 75.6358 33.135 76.5855C33.1821 76.8692 33.4175 77.1445 33.6906 77.2438C35.4422 77.888 37.2314 78.5029 39.0772 78.7725C39.4539 78.8273 39.6894 78.0564 40.0566 78.1727C40.8194 78.4168 41.1773 79.4374 41.9401 79.6843C42.2885 79.7969 42.5051 79.1877 42.8535 79.077C43.1737 78.9767 43.5693 78.8954 43.8518 79.078C44.8971 79.7657 45.5374 81.0029 46.6487 81.5761C46.9783 81.7445 47.2608 80.8478 47.5904 81.0105C50.0671 82.2392 52.4873 83.6903 54.578 85.5064C54.9546 85.8365 54.7757 86.5848 54.5214 87.0218C53.5514 88.6952 51.7999 89.8747 51.0182 91.6464C50.7451 92.2698 51.7057 92.9158 51.6398 93.5931C51.6021 93.9355 50.99 93.8731 50.764 94.1314C50.1518 94.8247 49.4362 95.5152 49.1725 96.4015C49.0595 96.7752 49.9164 97.0353 49.7751 97.4005C48.9087 99.7161 47.2137 101.653 46.3474 103.969C46.2155 104.323 46.8558 104.553 46.9688 104.913C47.0818 105.24 47.0536 105.607 46.9971 105.947C46.4603 109.221 45.9235 112.498 45.1984 115.734C45.0759 116.272 44.4922 116.663 44.4639 117.213C44.4357 117.59 45.0478 117.806 45.0478 118.184C45.0384 118.552 44.5487 118.754 44.4451 119.105C44.3415 119.421 44.3415 119.785 44.4451 120.099C44.5392 120.374 44.737 120.649 45.0006 120.766C46.4321 121.392 47.9011 122.021 49.4361 122.283C49.8128 122.346 50.0294 121.691 50.4155 121.685C50.7828 121.678 50.99 122.255 51.3572 122.251C51.7339 122.247 51.96 121.568 52.3272 121.662C53.3537 121.928 54.0694 122.963 55.0958 123.219C55.4725 123.314 55.7174 122.517 56.0941 122.603C58.6556 123.178 61.0004 124.546 63.5619 125.121C63.948 125.207 64.1835 124.402 64.5696 124.5C65.5961 124.766 66.3399 125.686 67.3099 126.094C67.8184 126.304 68.4589 126.053 68.9297 126.323C69.5419 126.67 69.749 127.553 70.3893 127.843C70.6718 127.97 70.8697 127.233 71.1616 127.339C72.7249 127.913 74.1374 128.841 75.5499 129.737C79.0437 131.964 82.7447 133.949 85.8524 136.7C89.6098 140.026 92.9812 143.822 95.9947 147.843C96.3714 148.35 96.2301 149.774 95.5991 149.704C93.5556 149.478 92.0112 147.332 89.9583 147.175C87.717 147.004 85.6452 148.556 83.4134 148.772C82.7259 148.839 82.1703 148.089 81.4922 147.995C80.5505 147.866 79.5711 147.936 78.6388 148.12C78.2809 148.192 78.0926 148.753 77.7254 148.736C77.0473 148.706 76.5105 148.082 75.8419 147.995C74.9002 147.872 73.9208 147.936 72.9885 148.12C72.6306 148.192 72.4423 148.735 72.075 148.736C71.7078 148.738 71.51 148.24 71.1616 148.129C70.8414 148.029 70.4553 147.967 70.1633 148.13C69.457 148.53 69.1087 149.513 68.3365 149.732C66.9804 150.113 65.1158 150.823 64.1176 149.832C62.6202 148.356 62.6202 145.864 62.3094 143.783C61.9798 141.583 61.8009 139.297 62.1964 137.108C62.6767 134.49 64.0893 132.133 64.8803 129.593C64.9839 129.265 65.0215 128.867 64.8615 128.561C64.626 128.101 64.3058 127.385 63.7973 127.444C62.9498 127.54 62.5637 128.955 61.7161 128.922C61.1982 128.901 62.0175 127.788 61.7256 127.362C61.5466 127.117 61.1229 127.632 61.0099 127.907C60.0116 130.29 58.8062 132.659 58.4296 135.216C57.9304 138.645 58.213 142.155 58.4296 145.612C58.4766 146.288 59.0605 146.826 59.2206 147.483C59.3712 148.105 59.3618 148.759 59.3618 149.4C59.3618 150.04 59.3901 150.697 59.2206 151.316C59.1264 151.674 58.4578 151.902 58.6084 152.238C59.1735 153.474 60.0964 154.562 61.1229 155.448C61.4336 155.712 61.9799 155.644 62.3377 155.444C62.9498 155.099 63.1664 154.228 63.7973 153.93C64.061 153.805 64.2494 154.368 64.5413 154.409C64.7296 154.437 64.8992 154.25 65.0122 154.106C65.8409 153.109 66.3023 151.744 67.3759 151.009C67.7243 150.765 67.7431 151.835 67.6866 152.263C67.6395 152.627 67.1781 152.829 67.0839 153.185C67.0556 153.323 67.2535 153.543 67.3853 153.488C68.3647 153.075 69.1086 152.13 70.1445 151.895C71.6889 151.543 73.3181 151.625 74.9002 151.779C75.5782 151.845 76.1339 152.657 76.8119 152.543C77.8572 152.366 78.554 151.251 79.5805 150.986C79.9478 150.891 80.1738 151.57 80.5505 151.574C80.9178 151.579 81.125 151.009 81.4922 151.009C81.8595 151.009 82.0667 151.574 82.4339 151.574C82.8012 151.574 83.0084 151.009 83.3757 151.009C83.7429 151.009 83.9501 151.574 84.3174 151.574C84.6847 151.574 84.9107 150.892 85.2591 151.009C86.0219 151.263 86.3797 152.275 87.1425 152.52C87.491 152.633 87.6981 151.952 88.056 151.903C89.3179 151.74 90.6269 151.65 91.8794 151.904C92.3785 152.007 92.548 152.734 93.0188 152.919C94.6951 153.578 96.5409 153.738 98.2172 154.392C98.6127 154.548 98.9611 154.906 99.1212 155.302C100.053 157.586 100.543 160.035 101.457 162.325C101.579 162.627 101.871 162.893 102.191 162.973L104.093 163ZM103.717 157.288C103.425 156.874 102.907 156.55 102.85 156.048C102.813 155.669 103.397 155.471 103.481 155.1C103.623 154.459 103.736 153.741 103.491 153.132C103.048 152.004 102.059 151.167 101.504 150.087C100.506 148.128 99.9123 145.966 98.8387 144.046C98.4903 143.427 97.6051 143.218 97.3037 142.579C97.1719 142.312 97.784 142.128 97.784 141.832C97.784 141.534 97.1907 141.355 97.3037 141.08C97.5391 140.497 98.4054 140.33 98.6409 139.746C98.7539 139.471 98.1418 139.291 98.1606 138.993C98.1888 138.626 98.6597 138.424 98.7633 138.074C98.8669 137.758 98.9705 137.339 98.7633 137.079C98.1135 136.247 96.6257 136.036 96.362 135.008C96.1831 134.292 97.4637 133.993 97.8216 133.346C97.9911 133.046 97.9723 132.636 97.8404 132.317C96.2207 128.261 94.535 124.23 92.6233 120.304C91.5121 118.02 90.3067 115.756 88.7905 113.717C87.5851 112.085 85.7676 110.977 84.5151 109.378C82.3115 106.558 80.6353 103.354 78.4599 100.505C78.1397 100.087 77.4617 100.074 77.1321 99.6688C75.8702 98.1563 75.0132 96.3429 73.7513 94.8294C73.4217 94.4255 72.7907 94.366 72.4235 93.9933C71.7925 93.3671 71.5383 92.3946 70.8226 91.8801C64.3907 87.2696 57.8362 82.8351 51.103 78.6949C48.8993 77.3441 46.3662 76.6451 44.0778 75.4428C43.202 74.9821 41.1584 74.5801 41.6575 73.724C43.2773 70.9506 46.3474 69.3378 48.8241 67.3079C51.0559 65.4832 53.6361 64.1002 55.7738 62.1715C58.0622 60.1066 59.8045 57.4835 62.0646 55.377C62.3565 55.1027 62.9498 55.4517 63.2512 55.184C64.5601 54.0177 65.436 52.4267 66.7167 51.2273C67.8468 50.1669 69.0615 49.1623 70.427 48.4396C71.8114 47.7103 73.3181 46.7152 74.8719 46.9262C75.9266 47.069 76.4917 48.3829 76.9814 49.3307C77.1132 49.5936 76.5482 49.7847 76.5011 50.0779C76.4822 50.2662 76.6518 50.4554 76.8119 50.5585C77.7631 51.1761 78.9684 51.4297 79.7971 52.2082C80.0043 52.4011 79.3733 52.6385 79.3262 52.9185C79.298 53.0926 79.4864 53.2363 79.6088 53.365C80.4563 54.2816 81.4452 55.0771 82.2268 56.0467C82.9425 56.9132 83.5452 57.8628 84.082 58.8485C84.6376 59.8937 84.8824 61.0979 85.4945 62.1147C85.8524 62.7107 86.5304 63.0522 86.9354 63.6141C87.8959 64.9317 88.5927 66.4253 89.5721 67.7298C89.9959 68.2973 90.8058 68.5556 91.1071 69.195C91.239 69.4627 90.5892 69.6509 90.6268 69.9442C90.7116 70.5297 91.0883 71.0471 91.4556 71.5134C91.8888 72.0725 92.6892 72.3355 92.9906 72.9787C93.1224 73.2587 92.3974 73.4602 92.4915 73.7543C93.1978 76.0075 94.5821 78.01 95.2884 80.2651C96.6539 84.622 97.3696 89.1662 98.7069 93.5344C99.771 97.0069 101.071 100.403 102.464 103.756C102.662 104.228 103.35 104.436 103.434 104.94C103.491 105.306 102.888 105.499 102.822 105.863C102.634 106.798 102.474 107.792 102.69 108.719C103.01 110.06 104.169 111.123 104.395 112.481C104.508 113.159 103.651 113.714 103.651 114.401C103.651 115.076 104.348 115.617 104.376 116.292C104.395 116.676 103.726 116.895 103.773 117.277C104.065 119.812 105.073 122.231 105.355 124.767C105.393 125.149 104.837 125.359 104.715 125.724C104.602 126.05 104.583 126.428 104.696 126.753C105.12 128.027 106.005 129.136 106.288 130.449C106.363 130.822 105.676 131.046 105.694 131.427C105.732 132.104 106.325 132.653 106.429 133.323C106.532 133.953 106.467 134.617 106.306 135.235C106.212 135.593 105.694 135.787 105.694 136.157C105.694 136.524 106.193 136.726 106.297 137.077C106.401 137.394 106.457 137.783 106.297 138.074C105.902 138.798 104.715 139.151 104.724 139.975C104.724 141.611 106.071 142.996 106.325 144.612C106.617 146.519 106.711 148.511 106.325 150.4L103.717 157.288ZM91.8606 149.706C91.8511 149.499 91.6251 149.136 91.8228 149.086C92.2372 148.98 93.0472 148.966 93.0754 149.399L91.8606 149.706ZM79.7689 144.818C80.4093 144.072 81.4545 143.538 81.69 142.581C81.8124 142.08 81.0591 141.694 80.5788 141.509C80.1833 141.356 79.7029 141.481 79.3168 141.663C78.6482 141.979 77.424 142.228 77.5276 142.959L79.7689 144.818ZM72.3763 144.713C72.3858 144.061 72.5365 143.396 72.4046 142.757C72.3293 142.393 71.7266 142.195 71.7925 141.829C71.8584 141.49 72.4423 141.547 72.6683 141.291C73.2899 140.604 74.0056 139.923 74.2975 139.045C74.5235 138.364 74.7496 137.248 74.128 136.896C73.563 136.577 73.158 137.796 72.5648 138.068C72.2822 138.2 71.8679 137.845 71.6325 138.049C70.5683 138.958 69.6266 140.036 68.8826 141.223C68.666 141.563 68.6283 142.115 68.8826 142.429C69.6171 143.354 70.6342 144.025 71.6325 144.67L72.3763 144.713ZM95.6463 142.107C95.5333 141.693 95.3167 141.295 95.3073 140.867C95.3073 140.729 95.5427 140.484 95.618 140.601C95.844 140.967 95.9193 141.428 95.9287 141.861L95.6463 142.107ZM94.6951 140.216C93.8099 139.396 92.8305 138.672 92.0489 137.755C91.4556 137.051 91.2391 136.055 90.5987 135.392C89.7794 134.556 88.4421 134.289 87.7641 133.343C87.4816 132.949 87.8206 132.325 88.0843 131.918C88.6681 131.018 90.2503 130.611 90.2503 129.535C90.2503 128.51 89.0448 127.698 88.0843 127.361C87.604 127.192 86.9071 127.869 86.9448 128.376C86.9919 128.916 88.5457 128.901 88.2444 129.351C87.6323 130.262 86.3421 130.447 85.3157 130.824C84.9955 130.942 84.581 130.978 84.2891 130.804C82.8483 129.959 81.6899 128.7 80.2585 127.845C76.0396 125.327 71.9903 122.345 67.3665 120.702C66.3588 120.344 65.6243 122.118 64.5696 122.273C64.0611 122.348 63.8539 121.473 63.3736 121.286C60.0493 119.992 56.7721 118.387 53.2501 117.86C52.2425 117.709 51.602 119.531 50.5944 119.375C49.7469 119.243 49.0877 118.087 49.1442 117.222C49.455 112.756 51.0653 108.468 51.668 104.032C51.7245 103.652 51.0088 103.427 51.0747 103.049C51.1594 102.545 51.8375 102.331 52.0447 101.863C52.8828 99.9648 53.3631 97.9273 54.1635 96.0118C54.7097 94.7027 55.3313 93.4209 56.0564 92.2045C56.7627 91.0296 57.4878 89.8378 58.439 88.8607C58.6556 88.6478 59.0887 88.6989 59.3336 88.8607C60.021 89.2977 60.4071 90.0979 61.0757 90.5529C62.3659 91.4364 63.9481 91.8763 65.1817 92.8439C66.4907 93.8665 68.4305 94.802 68.6095 96.4536C68.8261 98.4126 67.31 100.224 66.1893 101.842C64.8803 103.734 62.8273 105.008 61.4336 106.836C61.1793 107.166 62.2152 106.511 62.6296 106.509C63.0628 106.508 64.014 106.415 63.8821 106.827C63.5996 107.722 62.3659 108.008 61.9044 108.823C61.7726 109.054 62.526 109.24 62.3753 109.462C61.9609 110.094 60.5202 110.085 60.5861 110.839C60.6615 111.787 61.8103 112.361 62.6579 112.79C62.9215 112.924 63.2229 112.51 63.3642 112.248C64.24 110.599 64.6919 108.725 65.6807 107.139C66.2834 106.167 67.47 105.653 68.0727 104.68C69.0615 103.094 69.5041 101.219 70.3893 99.5722C70.54 99.2932 70.8226 99.0567 71.1333 98.9858C71.3123 98.9432 71.4912 99.139 71.6042 99.2885C72.2822 100.18 72.6966 101.265 73.4688 102.077C75.4464 104.179 77.8948 105.816 79.8065 107.983C79.9949 108.205 79.3733 108.436 79.3262 108.728C79.298 108.901 79.5052 109.032 79.6088 109.172C82.6694 113.233 86.3892 116.864 88.8282 121.327C91.87 126.882 94.0453 132.909 95.9287 138.962L94.6951 140.216ZM85.7677 132.4C85.9089 131.98 85.9183 130.791 86.2008 131.138C86.6623 131.717 86.6246 132.607 86.521 133.341C86.4833 133.553 86.0125 133.504 85.8807 133.338L85.7677 132.4ZM96.9834 121.04C97.4637 120.611 97.7933 119.88 98.4149 119.753C99.0741 119.619 99.7051 120.597 100.327 120.358C100.722 120.208 99.9687 119.543 100.044 119.13C100.157 118.548 100.505 118.023 100.873 117.559C101.306 117.006 102.267 116.808 102.417 116.119C102.502 115.723 101.588 115.803 101.212 115.957C100.44 116.274 99.7239 116.794 99.1966 117.445C99.0553 117.615 99.7144 117.806 99.5732 117.978C99.0929 118.598 98.4619 119.376 97.6803 119.376C97.0399 119.376 97.0117 118.073 96.3902 117.978C96.0041 117.918 96.1548 118.77 96.2396 119.158C96.3149 119.516 96.8329 119.709 96.8423 120.076C96.8517 120.444 96.2207 120.662 96.2772 121.026L96.9834 121.04ZM73.9396 121.296C73.8549 120.888 73.4499 120.422 73.6759 120.07C73.9114 119.707 74.4953 119.709 74.9285 119.753C75.2204 119.783 75.4464 120.491 75.6442 120.274C76.6801 119.143 77.5087 117.779 78.0644 116.344C78.2433 115.882 77.9702 115.323 77.7254 114.893C77.5276 114.539 77.1509 113.945 76.7836 114.118C75.7101 114.62 74.8625 115.575 74.1939 116.553C73.4782 117.594 72.772 118.78 72.706 120.044L73.9396 121.296ZM74.5989 118.227C74.6931 117.802 74.4576 116.962 74.8908 116.952C75.4746 116.938 76.2563 117.62 76.1245 118.189L74.5989 118.227ZM75.8513 116.599C75.8419 116.392 75.6159 116.028 75.8136 115.978C76.228 115.872 77.0379 115.859 77.0662 116.291L75.8513 116.599ZM79.0908 113.473C79.3639 113.151 79.7313 112.894 79.8914 112.508C79.9479 112.383 79.7689 112.199 79.6276 112.197C79.1945 112.19 78.5824 112.11 78.3563 112.481C78.1209 112.848 78.4034 113.395 78.6671 113.741L79.0908 113.473ZM89.4497 104.961C91.1825 103.853 93.0942 102.98 94.6574 101.637C95.0341 101.314 95.0906 100.673 94.9964 100.186C94.9211 99.7832 94.5633 99.4134 94.1866 99.263C93.452 98.9716 92.5197 98.5384 91.8228 98.9338C90.4574 99.717 89.3744 101.037 88.6493 102.438C88.2632 103.186 88.4516 104.161 88.7058 104.964L89.4497 104.961ZM66.387 102.75C66.8108 102.848 67.6396 102.611 67.649 103.047C67.6679 103.478 66.8202 103.459 66.4059 103.361L66.387 102.75ZM78.1491 91.7174C78.5069 91.1962 78.7612 90.5955 79.2038 90.1537C79.7971 89.5739 80.4375 88.9798 81.2097 88.6989C81.5487 88.5759 81.9254 89.2476 82.2268 89.0574C82.8954 88.6422 83.0179 87.6291 83.6677 87.176C84.6188 86.5034 85.9277 86.4552 86.8788 85.7864C87.8582 85.1063 88.6775 84.1906 89.3461 83.2107C89.5345 82.9373 89.5721 82.4464 89.3367 82.2118C89.0353 81.9025 88.3667 81.6168 88.056 81.9271C87.7546 82.2335 88.574 82.8096 88.3668 83.1908C88.1596 83.573 87.5757 83.6269 87.1425 83.6269C86.7093 83.6269 86.1066 83.5834 85.9183 83.1908C85.7582 82.8569 86.408 82.5987 86.4834 82.2373C86.5116 82.0983 86.3138 81.8807 86.182 81.9346C85.2873 82.3016 84.421 82.7774 83.6677 83.3904C83.2815 83.7044 83.272 84.3704 82.8577 84.6466C81.3509 85.6568 79.5522 86.1704 78.0267 87.1646C77.3863 87.5837 76.8684 88.19 76.4541 88.8361C76.2751 89.1104 76.294 89.484 76.3411 89.8066C76.407 90.2909 76.52 90.7941 76.7836 91.2065C77.0002 91.5518 77.3487 91.8413 77.7254 91.9841L78.1491 91.7174ZM78.7048 89.1605C78.281 89.0612 77.4522 89.2986 77.4428 88.8635C77.424 88.4322 78.2716 88.4511 78.6859 88.5495L78.7048 89.1605ZM65.8032 80.3852C66.0103 79.9056 66.0575 79.3248 66.4153 78.9465C68.2422 77.0168 70.5023 75.5232 72.2728 73.5443C72.4517 73.3476 71.7266 73.411 71.5571 73.2085C70.8696 72.3808 70.5683 71.241 69.7679 70.525C69.5419 70.3254 68.9674 70.5647 68.9392 70.8636C68.8638 71.5314 69.7208 72.1415 69.5325 72.7857C69.41 73.2 68.7131 73.1612 68.2799 73.1045C67.922 73.0562 67.7337 72.4631 67.3665 72.4972C66.9615 72.535 66.5472 72.8869 66.4247 73.2776C66.2835 73.7307 66.9051 74.2424 66.7073 74.6709C66.34 75.4447 65.1534 75.6774 64.9086 76.4975C64.7767 76.9307 66.114 77.0565 65.8786 77.4415C65.0781 78.7535 63.3359 79.2605 62.4507 80.5215C62.2247 80.845 63.2418 80.7551 63.6279 80.6709C63.9857 80.5933 64.174 80.0712 64.5413 80.0645C64.9086 80.057 65.1346 80.5432 65.4924 80.634L65.8032 80.3852ZM74.2975 72.8055C75.8419 71.2202 77.8572 69.982 78.9496 68.0504C79.2416 67.533 78.3092 66.7252 77.7159 66.7602C76.8684 66.8113 76.4447 67.9634 75.6442 68.25C75.3617 68.3493 75.1827 67.6957 74.9002 67.7695C74.5894 67.848 74.6365 68.3739 74.3916 68.5726C73.5441 69.2536 72.414 69.5715 71.6795 70.3679C71.4346 70.6413 71.4723 71.1984 71.7078 71.4841C72.2916 72.1907 73.1298 72.6713 73.9396 73.0875L74.2975 72.8055Z" fill="black"/>
</svg>
