<svg width="200" height="200" viewBox="0 0 200 200" fill="none" xmlns="http://www.w3.org/2000/svg">
<path d="M21.5 117.426L60.6421 44.3999L188 98.7315L103.874 177.6L21.5 117.426Z" fill="#E9E9E9"/>
<path d="M72.8968 103.682C73.3558 103.681 73.8205 103.761 74.2727 103.686C74.744 103.606 75.1525 103.255 75.6285 103.221C76.2986 103.169 76.9825 103.271 77.6289 103.45C77.8919 103.522 77.9979 103.957 78.2708 103.956C80.7202 103.929 83.1457 103.393 85.5954 103.353C85.8667 103.346 85.9858 103.821 86.2569 103.827C86.7335 103.841 87.1486 103.443 87.6237 103.403C88.0716 103.361 88.5336 103.441 88.9597 103.585C89.2059 103.669 89.3161 104.044 89.5757 104.062C89.8332 104.08 90.0002 103.738 90.2516 103.683C90.4791 103.625 90.734 103.643 90.9512 103.732C91.1923 103.823 91.3099 104.178 91.5669 104.203C91.824 104.228 92.0018 103.827 92.2589 103.851C92.516 103.876 92.6334 104.225 92.8733 104.322C93.0978 104.412 93.3571 104.423 93.5965 104.387C95.172 104.145 96.6992 103.518 98.2933 103.484C99.2123 103.469 100.026 104.268 100.945 104.246C104.517 104.159 108.047 103.427 111.611 103.172C112.294 103.12 112.995 103.163 113.66 103.331C113.921 103.396 114.027 103.817 114.296 103.83C114.815 103.846 115.278 103.452 115.795 103.395C118.631 103.095 121.476 102.802 124.328 102.757C124.608 102.75 124.733 103.293 125.008 103.246C125.745 103.125 126.302 102.423 127.038 102.295C127.301 102.247 127.406 102.762 127.672 102.78C128.142 102.82 128.577 102.417 129.048 102.45C129.305 102.469 129.422 102.824 129.662 102.921C129.886 103.011 130.148 103.036 130.385 102.986C131.511 102.758 132.573 102.206 133.718 102.094C133.987 102.066 134.101 102.508 134.357 102.593C134.78 102.743 135.245 102.829 135.691 102.774C137.278 102.593 138.808 102.007 140.401 101.892C140.671 101.878 140.772 102.373 141.041 102.392C141.511 102.432 141.946 102.028 142.417 102.062C142.686 102.081 142.807 102.55 143.077 102.536C144.653 102.441 146.174 101.634 147.75 101.745C148.34 101.787 148.46 102.917 149.05 102.959C150.626 103.07 152.146 102.257 153.723 102.168C154.004 102.155 154.126 102.691 154.407 102.67C155.768 102.573 157.055 101.93 158.417 101.833C158.687 101.819 158.795 102.267 159.057 102.339C159.703 102.518 160.385 102.546 161.055 102.574C161.353 102.581 161.668 102.557 161.94 102.429C162.465 102.193 163.042 101.953 163.401 101.498C163.627 101.214 163.599 100.778 163.535 100.419C163.448 99.9324 163.29 99.4138 162.963 99.0435C162.738 98.7805 162.346 98.686 162.003 98.6617C161.659 98.6374 161.306 98.7458 160.997 98.9043C160.6 99.1031 160.37 99.6611 159.928 99.6965C159.455 99.7364 159.111 99.118 158.637 99.091C157.943 99.0486 157.284 99.516 156.589 99.4868C156.319 99.481 156.219 98.9733 155.95 98.9876C154.589 99.0915 153.304 99.7683 151.941 99.8186C151.454 99.8376 151.11 99.2124 150.625 99.1914C149.927 99.162 149.284 99.724 148.586 99.6813C147.668 99.6296 146.852 98.9309 145.932 98.9258C144.14 98.9325 142.401 99.6105 140.61 99.6907C140.339 99.6981 140.23 99.2632 139.969 99.1847C139.527 99.0465 139.041 98.9988 138.586 99.0733C137.454 99.2736 136.397 99.7996 135.265 99.9999C134.809 100.074 134.324 100.027 133.881 99.8885C133.621 99.81 133.512 99.3684 133.241 99.3825C131.663 99.4712 130.146 100.085 128.568 100.173C128.297 100.187 128.188 99.7458 127.928 99.6673C127.485 99.5292 126.997 99.4679 126.545 99.556C125.62 99.7509 124.807 100.368 123.872 100.502C123.606 100.536 123.483 100.06 123.215 100.035C122.958 100.01 122.781 100.405 122.523 100.386C122.265 100.368 122.146 99.9589 121.887 99.9406C121.63 99.9224 121.453 100.317 121.195 100.292C120.938 100.267 120.821 99.9186 120.581 99.8215C120.357 99.7322 120.098 99.7138 119.86 99.757C119.355 99.8481 118.899 100.15 118.39 100.207C115.426 100.558 112.433 100.62 109.471 100.984C109.11 101.032 108.839 101.447 108.476 101.428C108.001 101.408 107.637 100.915 107.164 100.874C106.693 100.834 106.259 101.231 105.788 101.204C105.53 101.186 105.402 100.696 105.152 100.759C104.602 100.9 104.313 101.654 103.75 101.728C103.277 101.788 102.927 101.195 102.456 101.115C101.145 100.889 99.8049 100.894 98.4773 100.82C98.0275 100.795 97.568 100.736 97.1255 100.825C96.8698 100.873 96.7077 101.222 96.4484 101.211C96.1904 101.199 96.0713 100.77 95.8129 100.765C95.3357 100.758 94.9211 101.149 94.446 101.189C93.9981 101.231 93.5354 101.151 93.11 101.008C92.8638 100.923 92.7539 100.535 92.4941 100.53C92.0174 100.516 91.6046 100.948 91.1272 100.954C89.5657 100.99 88.004 100.472 86.4532 100.65C85.8471 100.72 85.5356 101.559 84.936 101.671C84.5176 101.748 84.2031 101.158 83.7792 101.135C83.3043 101.114 82.8728 101.678 82.4148 101.552C81.8686 101.4 81.6906 100.606 81.1632 100.395C80.922 100.298 80.7437 100.753 80.4862 100.781C79.8196 100.868 79.141 100.786 78.4706 100.739C78.0212 100.707 77.5578 100.694 77.1329 100.544C76.8772 100.452 76.7639 100.017 76.4938 100.045C75.3456 100.15 74.2934 100.804 73.1461 100.916C72.8779 100.944 72.7557 100.474 72.4874 100.449C72.2303 100.424 72.0536 100.819 71.7954 100.8C71.5379 100.782 71.4174 100.373 71.1599 100.355C70.9023 100.336 70.7254 100.725 70.4679 100.706C70.2104 100.688 70.0899 100.279 69.8324 100.261C69.5748 100.242 69.3975 100.637 69.1404 100.612C68.8833 100.587 68.7657 100.232 68.5247 100.141C68.3075 100.053 68.0511 100.028 67.8251 100.092C67.5752 100.154 67.4162 100.43 67.1665 100.499C66.9325 100.563 66.6757 100.525 66.4403 100.468C64.2585 99.9461 62.132 99.1813 59.9274 98.7649C58.622 98.5189 57.2797 98.4639 55.951 98.49C55.5239 98.4931 55.1419 98.9601 54.7245 98.8638C54.2732 98.7651 54.0686 98.1965 53.6652 97.9676C53.3663 97.7996 53.0106 97.6876 52.6688 97.7101C52.1929 97.7432 51.7793 98.1479 51.302 98.1341C48.4204 98.0836 45.5384 97.8796 42.6778 97.5234C42.204 97.4699 41.8609 96.9449 41.385 96.9112C40.9091 96.8775 40.4947 97.3221 40.0182 97.3351C39.1263 97.3721 38.2177 97.2878 37.3547 97.0597C36.9481 96.9508 36.5941 96.6654 36.3076 96.3581C36.0382 96.0653 35.8572 95.6919 35.7304 95.3158C35.3651 94.2284 34.9024 93.1407 34.8397 92.0013C34.8136 91.5121 35.3951 91.166 35.4786 90.6845C35.7063 89.372 35.7966 88.0298 35.7608 86.6987C35.7477 86.2237 35.3298 85.8136 35.3345 85.3332C35.3369 85.073 35.7601 84.9561 35.7785 84.697C35.7968 84.4379 35.4102 84.2637 35.4286 84.0046C35.4469 83.7455 35.9368 83.62 35.8726 83.3684C35.7314 82.8176 35.0471 82.5155 34.9059 81.9647C34.8417 81.7131 35.3316 81.5876 35.3499 81.3285C35.3683 81.0694 34.9764 80.8948 35 80.6361C35.0239 80.364 35.4868 80.2432 35.4711 79.9751C35.3651 78.1649 34.6985 76.4153 34.6461 74.6023C34.6324 74.1273 35.2297 73.8024 35.2784 73.3318C35.3264 72.8612 34.8895 72.4363 34.9171 71.971C34.9459 71.499 35.4053 71.1242 35.4387 70.6526C35.4571 70.3935 35.1185 70.2293 35.0582 69.978C35.0039 69.7472 35.0191 69.4945 35.1081 69.2738C35.2103 69.0274 35.6207 68.9029 35.607 68.6348C35.5288 67.1004 35.2107 65.5824 34.8442 64.0876C34.797 63.8973 34.5916 63.6892 34.3953 63.702C34.0178 63.7287 33.5713 63.864 33.3659 64.1833C32.6647 65.2686 31.9002 66.4363 31.797 67.7242C31.5822 70.3995 32.363 73.0719 32.4365 75.7544C32.4422 75.9751 31.9654 76.0682 32.0311 76.2798C32.1614 76.7097 32.8423 76.8446 32.91 77.2834C32.9746 77.7086 32.4339 78.0242 32.3627 78.4464C32.214 79.3305 32.1852 80.2365 32.2607 81.1298C32.2833 81.3851 32.6596 81.5452 32.6479 81.8048C32.6368 82.0644 32.2222 82.1819 32.2039 82.441C32.1855 82.7001 32.5781 82.8748 32.5538 83.1334C32.5292 83.4054 32.0809 83.5273 32.0794 83.7942C32.0575 87.665 32.2358 91.5432 32.4826 95.4062C32.5452 96.3787 32.4583 97.4742 33.0062 98.2808C33.6476 99.2275 34.7234 99.8711 35.792 100.267C36.2441 100.439 36.695 99.7905 37.1753 99.8378C37.8688 99.907 38.4293 100.527 39.1223 100.603C39.5953 100.65 40.0122 100.152 40.4861 100.186C40.96 100.219 41.3034 100.758 41.7774 100.791C42.2513 100.825 42.666 100.367 43.1411 100.374C43.3996 100.379 43.5184 100.801 43.7766 100.819C44.0342 100.838 44.2104 100.449 44.4686 100.468C44.7261 100.486 44.8457 100.908 45.1041 100.913C45.5813 100.92 45.9959 100.529 46.471 100.489C46.9189 100.448 47.3809 100.527 47.807 100.671C48.0532 100.755 48.1638 101.123 48.4229 101.148C48.68 101.173 48.8578 100.772 49.1149 100.797C49.3719 100.822 49.4721 101.263 49.7306 101.268C50.4272 101.283 51.0855 100.91 51.781 100.865C52.2298 100.83 52.6909 100.903 53.117 101.047C53.3632 101.131 53.4731 101.519 53.7329 101.524C54.2096 101.538 54.623 101.127 55.0991 101.1C55.7696 101.061 56.4518 101.149 57.0995 101.329C57.3505 101.393 57.4564 101.781 57.7155 101.806C57.9725 101.831 58.1504 101.43 58.4074 101.455C58.6645 101.479 58.7645 101.914 59.0232 101.926C59.5011 101.959 59.9573 101.451 60.4189 101.584C61.1387 101.782 61.618 102.483 62.276 102.837C62.4827 102.952 62.7429 103.017 62.9705 102.959C63.9061 102.719 64.7259 101.909 65.6911 101.957C66.2675 101.985 66.3928 102.975 66.9412 103.154C67.3887 103.306 67.8477 102.777 68.3167 102.824C68.7912 102.877 69.1407 103.35 69.6095 103.436L72.8968 103.682ZM42.7125 161.09C42.9401 160.966 43.1362 160.693 43.3957 160.711C43.8787 160.759 44.2557 161.266 44.7406 161.267C48.0841 161.283 51.4168 160.852 54.7597 160.755C55.2079 160.746 55.6696 160.792 56.0933 160.942C56.3481 161.027 56.4606 161.436 56.7297 161.442C57.3126 161.443 57.8359 161.053 58.4117 160.966C60.5215 160.648 62.639 160.298 64.7712 160.228C65.0532 160.222 65.1749 160.744 65.4565 160.724C66.8171 160.634 68.1045 160.004 69.4658 159.893C69.7348 159.872 69.8559 160.348 70.1254 160.367C70.3842 160.385 70.5451 160.016 70.8024 159.981C71.2535 159.913 71.7281 159.946 72.1645 160.078C72.4238 160.156 72.5334 160.604 72.8035 160.577C73.9517 160.471 74.9991 159.764 76.1513 159.706C76.6381 159.68 76.9866 160.259 77.4672 160.339C78.5657 160.531 79.6945 160.557 80.8074 160.489C81.0666 160.474 81.2249 160.085 81.4845 160.103C81.744 160.121 81.847 160.523 82.1004 160.581C82.97 160.782 83.8722 160.9 84.7646 160.856C85.4625 160.825 86.1037 160.343 86.8025 160.366C87.2778 160.38 87.6213 160.918 88.0938 160.972C88.3522 160.997 88.5135 160.621 88.7708 160.586C89.222 160.517 89.6972 160.551 90.1329 160.682C90.3928 160.761 90.5023 161.202 90.7728 161.188C92.143 161.085 93.4369 160.248 94.8069 160.345C95.9672 160.428 96.8934 161.421 98.0241 161.695C98.2857 161.76 98.4572 161.278 98.7254 161.297C99.2044 161.324 99.5838 161.892 100.06 161.832C100.809 161.738 101.356 160.816 102.11 160.869C102.875 160.93 103.268 162.086 104.035 162.134C110.905 162.593 117.805 162.208 124.689 162.368C125.803 162.393 126.924 162.466 128.014 162.697C128.282 162.749 128.383 163.197 128.656 163.203C134.034 163.35 139.417 163.244 144.796 163.144C146.081 163.121 147.355 162.778 148.639 162.828C148.923 162.842 149.042 163.338 149.326 163.331C151.516 163.293 153.708 163.06 155.87 162.699C156.214 162.644 156.375 162.128 156.723 162.092C156.981 162.07 157.099 162.473 157.34 162.563C157.557 162.652 157.827 162.711 158.039 162.613C158.415 162.439 158.836 162.188 158.98 161.805C159.251 161.07 159.638 160.115 159.203 159.464C158.639 158.616 156.907 159.001 156.491 158.07C155.295 155.408 155.125 152.385 154.729 149.486C154.69 149.21 155.24 149.088 155.22 148.807C155.121 147.444 154.487 146.158 154.39 144.795C154.37 144.514 154.904 144.391 154.885 144.109C154.797 142.781 154.047 141.52 154.084 140.187C154.098 139.721 154.863 139.595 155.026 139.159C155.149 138.827 154.787 138.454 154.858 138.105C154.953 137.638 155.468 137.307 155.5 136.836C155.561 135.912 155.006 135.011 155.126 134.099C155.5 131.221 156.512 128.455 156.965 125.583C157.208 124.045 157.519 122.444 157.205 120.913C156.925 119.551 156.165 118.269 155.247 117.223C154.947 116.881 154.337 117.065 153.887 117.126C153.415 117.186 153.009 117.538 152.535 117.585C151.874 117.651 151.206 117.524 150.545 117.457C150.097 117.412 149.633 117.413 149.207 117.262C148.961 117.178 148.851 116.803 148.591 116.785C148.333 116.766 148.167 117.109 147.916 117.164C147.688 117.221 147.437 117.19 147.216 117.115C146.769 116.963 146.419 116.471 145.946 116.484C143.776 116.537 141.608 116.844 139.486 117.308C138.65 117.49 137.999 118.225 137.161 118.399C136.897 118.454 136.771 117.957 136.503 117.932C136.246 117.907 136.068 118.308 135.811 118.283C135.554 118.258 135.436 117.903 135.195 117.812C134.978 117.724 134.708 117.664 134.495 117.763C133.97 117.999 133.664 118.819 133.089 118.772C132.344 118.719 131.914 117.82 131.231 117.518C130.816 117.329 130.324 117.247 129.878 117.342C128.928 117.536 128.117 118.259 127.153 118.351C126.672 118.397 126.325 117.772 125.844 117.731C125.37 117.698 124.955 118.162 124.48 118.149C124.221 118.137 124.111 117.749 123.864 117.671C123.429 117.527 122.949 117.399 122.499 117.488C121.992 117.585 121.644 118.228 121.129 118.205C120.416 118.175 119.884 117.369 119.172 117.346C116.285 117.248 113.409 117.845 110.52 117.855C110.249 117.855 110.129 117.406 109.859 117.38C109.601 117.356 109.425 117.75 109.167 117.732C108.909 117.714 108.789 117.298 108.531 117.286C108.271 117.275 108.11 117.624 107.854 117.672C107.411 117.761 106.952 117.709 106.502 117.677C105.611 117.614 104.706 117.596 103.837 117.388C103.572 117.329 103.468 116.868 103.197 116.882C101.605 116.996 100.083 117.696 98.4895 117.757C98.0171 117.777 97.6898 117.18 97.22 117.127C96.7514 117.073 96.3151 117.49 95.8445 117.456C95.4495 117.428 95.1676 116.888 94.775 116.94C94.2721 117.005 93.97 117.577 93.502 117.771C93.1761 117.908 92.7931 117.995 92.4509 117.91C91.1333 117.563 89.9499 116.772 88.6154 116.504C88.1448 116.404 87.6958 116.866 87.2157 116.845C86.9577 116.834 86.8377 116.418 86.5801 116.4C86.3219 116.382 86.1457 116.77 85.8881 116.751C85.6224 116.726 85.4966 116.243 85.2343 116.291C84.499 116.426 83.9397 117.108 83.2044 117.242C82.9422 117.291 82.8163 116.808 82.5506 116.782C82.293 116.764 82.1168 117.152 81.8586 117.134C81.6011 117.116 81.4815 116.693 81.2231 116.688C80.7479 116.681 80.3328 117.146 79.8593 117.106C79.3739 117.065 79.0294 116.466 78.5427 116.472C76.5337 116.496 74.5664 117.138 72.5575 117.19C72.0775 117.196 71.6991 116.688 71.2197 116.647C70.9615 116.629 70.802 117.045 70.5438 117.027C70.0732 116.994 69.6993 116.526 69.2284 116.507C68.7536 116.486 68.3386 116.958 67.8647 116.924C67.3908 116.89 67.0459 116.372 66.5734 116.319C66.3168 116.287 66.1489 116.642 65.8975 116.698C65.6699 116.755 65.4126 116.744 65.1979 116.648C64.9586 116.551 64.8602 116.171 64.602 116.152C64.1318 116.112 63.697 116.515 63.2264 116.482C62.9682 116.464 62.8518 116.102 62.6107 116.011C62.3935 115.922 62.1404 115.918 61.9111 115.962C61.4467 116.049 61.0344 116.454 60.5634 116.407C59.8699 116.338 59.312 115.691 58.6164 115.642C57.9208 115.592 57.2777 116.148 56.5809 116.125C56.106 116.105 55.7621 115.573 55.2896 115.52C55.033 115.488 54.8723 115.911 54.6137 115.899C54.1919 115.883 53.8435 115.357 53.4302 115.448C52.9898 115.544 52.8897 116.411 52.4419 116.366C51.534 116.282 50.8847 115.361 50.0035 115.125C49.7445 115.054 49.5709 115.555 49.3036 115.523C48.6121 115.454 48.0257 114.898 47.3326 114.843C46.8591 114.803 46.4428 115.294 45.9688 115.26C45.4929 115.227 45.1453 114.728 44.6753 114.648C43.5871 114.444 42.4658 114.311 41.3637 114.407C40.0353 114.533 38.6799 114.757 37.463 115.306C37.0818 115.479 36.9661 116.011 36.8911 116.42C36.6922 117.514 36.6112 118.63 36.6559 119.742C36.6756 120.217 37.0936 120.627 37.0823 121.107C37.0765 121.367 36.6288 121.462 36.6105 121.721C36.5771 122.193 36.9891 122.629 36.9411 123.1C36.8931 123.571 36.3707 123.921 36.3373 124.393C36.3039 124.864 36.7665 125.284 36.753 125.757C36.7459 126.017 36.2996 126.112 36.2812 126.371C36.2479 126.843 36.6386 127.278 36.6119 127.75C36.5975 128.01 36.1863 128.127 36.1679 128.386C36.1496 128.645 36.5521 128.821 36.5178 129.079C36.4547 129.555 35.968 129.901 35.9034 130.371C35.602 132.572 35.4137 134.789 35.4328 137.007C35.4578 139.913 36.0037 142.802 36.0347 145.709C36.0382 145.989 35.5225 146.113 35.5339 146.394C35.605 148.189 36.2014 149.94 36.2738 151.734C36.2849 152.002 35.7965 152.108 35.7743 152.373C35.735 152.845 36.1317 153.28 36.105 153.752C36.0906 154.012 35.5287 154.165 35.661 154.388C36.2258 155.343 37.1202 156.061 37.9258 156.819C38.0237 156.906 38.1867 156.911 38.3201 156.893C38.6726 156.852 39.0467 156.825 39.357 156.653C39.7736 156.422 40.1943 156.125 40.4375 155.715C40.723 155.234 40.8345 154.648 40.874 154.09C40.8985 153.744 40.8135 153.371 40.6237 153.084C40.415 152.762 39.8048 152.732 39.7395 152.354C39.2588 149.589 39.1006 146.774 39.0388 143.972C39.0327 143.691 39.5544 143.568 39.5397 143.286C39.4562 141.705 38.8386 140.186 38.754 138.611C38.7393 138.329 39.2583 138.206 39.2542 137.925C39.2195 135.466 38.4646 133.022 38.6413 130.564C38.8194 128.087 40.1278 125.776 40.3065 123.298C40.42 121.724 39.6123 120.205 39.502 118.635C39.4864 118.413 39.7441 118.231 39.9454 118.139C40.7639 117.763 41.6009 117.181 42.5005 117.251C45.3882 117.469 48.1472 118.572 51.0139 118.982C51.284 119.021 51.4532 118.62 51.7207 118.572C52.162 118.483 52.6303 118.483 53.069 118.58C53.681 118.717 54.1935 119.261 54.8209 119.265C55.2032 119.266 55.3683 118.61 55.75 118.59C56.1145 118.576 56.3244 119.098 56.6821 119.17C57.028 119.241 57.3816 118.939 57.7292 119.004C57.9836 119.049 58.0879 119.45 58.345 119.475C58.602 119.5 58.7804 119.092 59.037 119.123C59.5083 119.183 59.8539 119.702 60.3283 119.729C61.0223 119.771 61.6811 119.304 62.3755 119.333C62.6347 119.338 62.7126 119.811 62.9715 119.829C63.4409 119.869 63.8764 119.466 64.347 119.499C64.6065 119.517 64.712 119.912 64.9629 119.977C65.6106 120.156 66.2928 120.244 66.9626 120.205C67.4395 120.179 67.8524 119.774 68.3295 119.781C68.5873 119.786 68.704 120.155 68.9432 120.252C69.1684 120.341 69.4252 120.333 69.6673 120.323C72.5492 120.18 75.4217 119.803 78.3069 119.793C78.5784 119.792 78.6972 120.188 78.9479 120.293C79.1644 120.381 79.4222 120.406 79.6482 120.342C79.8999 120.273 80.0543 119.977 80.3092 119.928C80.7498 119.839 81.221 119.826 81.6574 119.937C82.1317 120.051 82.4873 120.597 82.9741 120.571C84.3545 120.502 85.6366 119.691 87.0187 119.656C87.715 119.638 88.2713 120.345 88.9637 120.421C89.4367 120.468 89.8521 119.99 90.3275 120.003C90.586 120.008 90.7021 120.384 90.9432 120.474C91.1604 120.563 91.4152 120.581 91.6428 120.524C91.8942 120.468 92.0605 120.126 92.3187 120.144C92.5783 120.163 92.6885 120.538 92.9347 120.622C93.3594 120.765 93.82 120.818 94.2682 120.81C98.0662 120.712 101.856 120.392 105.654 120.294C106.103 120.286 106.563 120.338 106.988 120.482C107.234 120.566 107.344 120.941 107.604 120.96C107.862 120.978 108.028 120.636 108.28 120.58C108.507 120.523 108.765 120.534 108.979 120.63C109.218 120.727 109.336 121.029 109.574 121.126C109.795 121.222 110.064 121.267 110.293 121.19C111 120.953 111.565 120.292 112.307 120.211C112.788 120.158 113.135 120.79 113.617 120.831C114.091 120.865 114.505 120.407 114.98 120.414C115.239 120.419 115.358 120.848 115.616 120.859C115.874 120.871 116.034 120.462 116.292 120.48C116.763 120.513 117.137 120.96 117.607 121C117.865 121.019 118.043 120.617 118.299 120.649C118.771 120.709 119.116 121.227 119.591 121.254C120.285 121.297 120.943 120.829 121.638 120.858C121.907 120.864 122.009 121.385 122.275 121.351C123.22 121.231 124.031 120.354 124.981 120.427C125.747 120.482 126.14 121.638 126.906 121.692C128.273 121.789 129.563 120.905 130.934 120.849C131.419 120.83 131.764 121.442 132.249 121.483C132.722 121.523 133.137 121.052 133.613 121.065C133.871 121.07 133.987 121.446 134.228 121.536C134.446 121.625 134.702 121.65 134.928 121.586C135.18 121.517 135.334 121.221 135.589 121.172C136.03 121.083 136.5 121.076 136.937 121.181C137.401 121.287 137.759 121.713 138.229 121.793C138.435 121.827 138.596 121.391 138.779 121.491C139.21 121.722 139.274 122.441 139.735 122.607C140.107 122.747 140.473 122.205 140.867 122.247C141.339 122.293 141.693 122.752 142.157 122.852C142.447 122.913 142.766 122.842 143.039 122.727C143.972 122.326 144.959 121.962 145.742 121.317C145.908 121.175 145.346 120.948 145.429 120.747C145.616 120.299 145.938 119.701 146.421 119.689C147.336 119.674 148.098 120.449 148.986 120.672C149.422 120.783 149.892 120.763 150.334 120.68C150.59 120.632 150.751 120.283 151.011 120.294C151.269 120.306 151.389 120.728 151.647 120.74C152.037 120.754 152.423 120.181 152.761 120.371C153.314 120.698 153.689 121.358 153.801 121.994C153.997 123.096 153.828 124.246 153.645 125.355C153.567 125.823 153.087 126.17 153.03 126.646C152.998 126.918 153.455 127.104 153.404 127.367C153.024 129.363 152.099 131.234 151.772 133.24C151.379 135.643 151.271 138.099 151.255 140.541C151.253 141.015 151.637 141.423 151.718 141.889C151.794 142.335 151.752 142.793 151.72 143.244C151.688 143.696 151.677 144.156 151.527 144.586C151.439 144.84 150.987 144.955 151.032 145.219C151.159 145.955 151.858 146.512 151.987 147.249C152.032 147.513 151.597 147.635 151.497 147.882C151.41 148.103 151.351 148.373 151.448 148.586C151.684 149.104 152.303 149.421 152.445 149.972C152.513 150.231 151.94 150.364 151.975 150.633C152.243 152.682 153.061 154.636 153.323 156.691C153.357 156.953 152.931 157.077 152.83 157.323C152.742 157.544 152.683 157.814 152.781 158.028C152.999 158.497 153.856 158.765 153.727 159.27C153.581 159.84 152.81 160.126 152.223 160.211C151.74 160.271 151.355 159.623 150.868 159.655C149.717 159.734 148.668 160.42 147.52 160.526C147.25 160.554 147.137 160.112 146.881 160.027C146.458 159.877 145.995 159.804 145.548 159.839C143.524 160.009 141.537 160.536 139.51 160.633C139.24 160.647 139.119 160.185 138.85 160.159C138.592 160.134 138.415 160.536 138.158 160.511C137.9 160.486 137.783 160.13 137.542 160.04C137.325 159.951 137.068 159.926 136.842 159.99C136.592 160.053 136.432 160.335 136.182 160.397C135.956 160.462 135.704 160.424 135.483 160.348C135.035 160.196 134.683 159.751 134.211 159.717C133.739 159.684 133.336 160.183 132.864 160.163C132.38 160.148 132.005 159.621 131.522 159.614C127.532 159.531 123.542 159.963 119.552 159.888C119.28 159.882 119.181 159.407 118.91 159.388C118.442 159.355 118.019 159.766 117.55 159.746C117.128 159.729 116.779 159.204 116.367 159.295C115.927 159.391 115.836 160.265 115.387 160.227C112.535 159.998 109.805 158.937 106.972 158.543C106.702 158.504 106.536 158.919 106.265 158.954C105.599 159.047 104.921 158.952 104.25 158.911C100.93 158.703 97.5986 158.594 94.2963 158.193C93.8105 158.138 93.467 157.553 92.9775 157.552C90.5317 157.546 88.1117 158.156 85.6654 158.176C85.1878 158.176 84.8242 157.649 84.3474 157.609C83.8773 157.569 83.4425 157.972 82.9719 157.939C82.7137 157.92 82.5972 157.558 82.3561 157.468C82.139 157.379 81.8858 157.374 81.6566 157.418C81.1921 157.505 80.7808 157.897 80.3089 157.863C79.8223 157.829 79.479 157.224 78.9916 157.229C73.8738 157.248 68.7714 157.868 63.6543 157.933C63.3834 157.934 63.2833 157.452 63.0132 157.433C62.5431 157.393 62.1083 157.797 61.6377 157.763C61.3702 157.744 61.2494 157.302 60.981 157.296C60.4239 157.297 59.925 157.682 59.3728 157.756C57.0206 158.077 54.6628 158.458 52.2896 158.483C51.5776 158.486 50.9617 157.849 50.2495 157.845C47.35 157.84 44.4726 158.457 41.574 158.459C41.099 158.459 40.7578 157.814 40.284 157.854C39.8742 157.885 39.4767 158.25 39.3282 158.634C39.0823 159.271 38.9368 160.035 39.1933 160.661C39.3095 160.943 39.7962 160.456 40.0965 160.511C40.3504 160.562 40.474 160.945 40.7321 160.956C40.9901 160.968 41.1566 160.633 41.408 160.577C41.6355 160.52 41.8904 160.538 42.1076 160.627L42.7125 161.09ZM161.915 94.9835C161.828 94.6636 161.808 94.3149 161.654 94.0169C161.606 93.9268 161.39 94.0116 161.361 93.916C161.03 92.791 160.797 91.6462 160.611 90.4913C160.198 87.9384 159.743 85.3826 159.565 82.8063C159.547 82.538 160.018 82.4178 160.036 82.1453C160.054 81.8862 159.716 81.7221 159.656 81.4708C159.602 81.2399 159.614 80.9804 159.706 80.7665C159.809 80.5268 160.124 80.4157 160.211 80.1748C160.362 79.7515 160.439 79.2829 160.394 78.8324C160.346 78.3617 159.927 77.9581 159.938 77.4849C159.95 77.0117 160.42 76.6377 160.46 76.1665C160.482 75.9077 160.091 75.7332 160.11 75.4741C160.128 75.215 160.541 75.0974 160.554 74.8379C160.567 74.5785 160.155 74.4225 160.173 74.1634C160.207 73.6917 160.655 73.3162 160.695 72.845C160.717 72.5862 160.327 72.4117 160.345 72.1526C160.363 71.8935 160.853 71.7679 160.789 71.5164C160.648 70.9656 159.896 70.6787 159.822 70.1127C159.76 69.6409 160.366 69.2899 160.437 68.8209C160.7 67.0636 160.826 65.2833 160.813 63.5064C160.809 63.0321 160.382 62.6213 160.387 62.141C160.389 61.8808 160.953 61.7337 160.831 61.5048C160.344 60.589 159.799 59.4154 158.796 59.1575C158.093 58.9808 157.519 59.9484 157.129 60.555C156.884 60.9382 156.976 61.4655 157.033 61.9168C157.058 62.1189 157.523 62.3054 157.363 62.4276C156.739 62.9042 155.964 63.2098 155.188 63.3284C154.923 63.3698 154.799 62.8869 154.532 62.8613C154.274 62.8365 154.098 63.2313 153.84 63.213C153.581 63.1947 153.462 62.7789 153.204 62.7673C152.945 62.7557 152.787 63.1584 152.528 63.1468C152.106 63.1302 151.759 62.6117 151.344 62.6958C150.908 62.7784 150.785 63.6242 150.343 63.5729C149.824 63.5161 149.74 62.6156 149.241 62.4601C148.792 62.3148 148.337 62.8167 147.866 62.79C147.608 62.7718 147.488 62.356 147.23 62.3444C146.97 62.3326 146.809 62.6817 146.553 62.7304C146.111 62.8192 145.651 62.7667 145.201 62.7348C144.752 62.703 144.289 62.6903 143.864 62.54C143.617 62.4558 143.5 62.0002 143.247 62.0623C142.696 62.1969 142.397 62.8968 141.845 63.0314C141.592 63.0936 141.475 62.6379 141.229 62.5537C140.803 62.4101 140.34 62.3239 139.893 62.3724C139.42 62.419 139.017 62.8444 138.542 62.8241C138.073 62.811 137.715 62.3116 137.247 62.2785C136.777 62.2385 136.342 62.6417 135.871 62.6084C135.614 62.5901 135.496 62.228 135.255 62.1375C135.038 62.0486 134.785 62.0441 134.556 62.0879C134.091 62.1752 133.681 62.56 133.208 62.5332C132.734 62.5063 132.389 61.9812 131.917 61.9277C131.658 61.9028 131.497 62.2853 131.24 62.3138C130.573 62.4001 129.884 62.3981 129.227 62.2581C128.749 62.1641 128.398 61.6118 127.909 61.6173C125.896 61.635 123.923 62.2563 121.911 62.3142C121.64 62.3217 121.521 61.9127 121.27 61.8148C121.053 61.7261 120.799 61.7214 120.57 61.7653C120.105 61.8526 119.694 62.244 119.222 62.2106C118.737 62.1763 118.392 61.5711 117.906 61.5766C116.111 61.6098 114.365 62.2472 112.57 62.3205C112.3 62.3281 112.181 61.9191 111.93 61.8212C111.713 61.7324 111.456 61.7075 111.23 61.7716C110.979 61.8406 110.824 62.1368 110.569 62.1855C110.129 62.2744 109.657 62.2878 109.221 62.1768C108.746 62.0631 108.391 61.5172 107.904 61.5361C106.543 61.5933 105.268 62.3175 103.908 62.3881C103.431 62.4145 103.067 61.8613 102.59 61.8275C101.899 61.7719 101.223 62.1913 100.531 62.1357C100.271 62.1173 100.186 61.704 99.9351 61.6328C99.2905 61.447 98.6072 61.3652 97.9378 61.3979C95.4754 61.524 93.0378 62.0057 90.5744 62.0983C90.3519 62.1026 90.2561 61.6285 90.044 61.6936C89.6192 61.8238 89.4811 62.5016 89.042 62.5707C88.6192 62.6342 88.3051 62.0779 87.8803 62.0278C85.2292 61.6999 82.5564 61.3303 79.8887 61.4619C79.2796 61.4922 78.9713 62.3784 78.3716 62.4828C77.9512 62.5598 77.635 62.0034 77.2132 61.9401C76.1114 61.7686 74.9851 61.7156 73.8731 61.7904C73.6132 61.8054 73.4723 62.2227 73.2121 62.2043C72.7435 62.1711 72.372 61.7643 71.9163 61.6519C71.4666 61.5399 70.9904 61.4728 70.532 61.5405C69.1863 61.7323 67.9038 62.3024 66.5486 62.4201C65.0547 62.548 63.5453 62.1207 62.0523 62.262C61.674 62.302 61.5127 62.9782 61.1341 62.9447C60.628 62.8955 60.3591 62.2556 59.893 62.0557C59.6683 61.9597 59.3877 61.9932 59.157 62.077C58.4557 62.3345 57.8715 62.8873 57.1438 63.0561C56.9313 63.1078 56.8277 62.5931 56.6218 62.6653C56.1962 62.8155 56.0806 63.6284 55.6329 63.5834C54.7156 63.4984 54.09 62.3859 53.1702 62.3275C52.0115 62.2521 50.9556 63.0986 49.7996 63.2104C49.5315 63.2382 49.4296 62.7369 49.1607 62.7179C48.6935 62.6848 48.2697 63.1021 47.8013 63.0756C47.3302 63.0489 46.9565 62.5885 46.4859 62.5551C46.2264 62.5368 46.0645 62.8925 45.8089 62.9412C45.3668 63.0234 44.897 63.0436 44.4606 62.9325C43.987 62.8189 43.6313 62.2663 43.146 62.2987C42.2014 62.3654 41.3971 63.0962 40.458 63.2166C40.1821 63.2505 40.0561 62.6942 39.7802 62.728C38.8958 62.839 38.0695 63.2411 37.256 63.6041C37.063 63.6906 36.8791 63.8578 36.8079 64.0531C36.6829 64.4048 36.514 64.8401 36.6986 65.1536C37.0221 65.7106 37.6163 66.0799 38.1704 66.4129C38.3846 66.5348 38.6671 66.5014 38.9132 66.4654C40.4737 66.2555 41.998 65.7559 43.5711 65.6603C43.8535 65.6469 43.9739 66.1695 44.2566 66.1628C46.7203 66.1035 49.1536 65.4947 51.6178 65.4756C52.1038 65.47 52.4463 66.1351 52.9316 66.1027C55.6354 65.9403 58.2699 65.1188 60.9698 64.8893C61.2388 64.8683 61.361 65.3376 61.63 65.3634C61.887 65.3882 62.0649 64.9868 62.322 65.0117C62.591 65.0374 62.7125 65.5067 62.982 65.4791C65.6819 65.2496 68.3158 64.4347 71.0202 64.2657C71.5056 64.24 71.8514 64.8586 72.3361 64.8996C72.8089 64.9397 73.2233 64.495 73.6985 64.4819C73.9123 64.477 74.0027 64.8974 74.2137 64.8656C74.5499 64.8093 74.707 64.2396 75.045 64.2702C75.3905 64.308 75.4236 65.0181 75.7709 65.0226C77.5343 65.0273 79.2472 64.314 81.0097 64.2853C81.7128 64.275 82.3249 64.8724 83.0273 64.9021C83.5017 64.9291 83.9051 64.497 84.3781 64.4504C84.8251 64.4019 85.2898 64.4815 85.7141 64.6317C85.9715 64.7167 86.0833 65.1452 86.3547 65.1377C88.1454 65.0576 89.8859 64.4264 91.6768 64.3729C92.1686 64.361 92.5479 64.9487 93.0406 64.9435C95.4899 64.9367 97.9159 64.3273 100.365 64.3405C100.855 64.3418 101.203 64.8939 101.684 64.9813C102.561 65.1503 103.471 65.1613 104.36 65.084C104.619 65.0623 104.777 64.6862 105.037 64.698C105.295 64.7096 105.415 65.132 105.673 65.1436C105.931 65.1552 106.091 64.7459 106.349 64.7642C106.819 64.7975 107.194 65.2513 107.664 65.2846C107.922 65.3029 108.089 64.9608 108.34 64.9052C108.568 64.8479 108.823 64.866 109.04 64.9547C109.291 65.0526 109.41 65.4416 109.68 65.454C110.871 65.4916 112.046 65.1409 113.237 65.0917C117.734 64.9094 122.239 64.9546 126.735 64.7522C127.516 64.714 128.27 64.3135 129.05 64.3753C129.536 64.4098 129.885 64.9351 130.366 65.0093C131.897 65.2646 133.457 65.3683 135.008 65.3379C135.486 65.3317 135.899 64.8803 136.375 64.914C136.851 64.9477 137.204 65.42 137.668 65.5263C138.106 65.6307 138.575 65.6172 139.017 65.535C139.272 65.4863 139.434 65.1372 139.694 65.1489C139.952 65.1605 140.071 65.5763 140.329 65.5946C140.587 65.6128 140.764 65.2181 141.021 65.2429C141.278 65.2678 141.396 65.6233 141.637 65.7138C141.854 65.8026 142.107 65.8139 142.337 65.7634C142.803 65.6695 143.214 65.3582 143.687 65.3116C144.134 65.2631 144.597 65.3493 145.023 65.493C145.27 65.5772 145.38 65.9456 145.639 65.9706C145.896 65.9955 146.074 65.594 146.331 65.6189C146.6 65.6446 146.722 66.1072 146.991 66.0929C148.321 65.9934 149.577 65.2479 150.909 65.2888C151.374 65.3017 151.498 66.0849 151.94 66.2297C152.28 66.3406 152.623 65.9576 152.979 65.9695C154.536 66.013 156.515 65.3052 157.633 66.3925C158.485 67.2206 157.084 68.7237 157.044 69.9159C157.028 70.3888 157.481 70.8015 157.47 71.2814C157.464 71.5414 157.094 71.6553 156.998 71.8956C156.912 72.1165 156.894 72.3689 156.949 72.5998C157.009 72.8511 157.349 73.0153 157.329 73.2743C157.309 73.5333 156.933 73.6468 156.851 73.888C156.706 74.3251 156.54 74.8141 156.668 75.2571C156.838 75.8434 157.705 76.1651 157.689 76.7782C157.677 77.298 156.793 77.4091 156.603 77.8963C156.508 78.1366 157.002 78.3118 156.983 78.5709C156.95 79.0426 156.495 79.4176 156.462 79.8893C156.443 80.1484 156.782 80.3125 156.842 80.5638C156.897 80.7946 156.869 81.0464 156.792 81.268C156.638 81.7111 156.141 82.0631 156.16 82.5385C156.224 84.132 156.919 85.6566 157.031 87.2469C157.05 87.5287 156.491 87.656 156.54 87.9265C157.001 90.5696 157.684 93.1683 158.513 95.7173C158.706 96.3118 159.19 96.7667 159.575 97.2613C159.717 97.4383 159.866 97.7759 160.088 97.7182C160.713 97.5622 161.381 97.2423 161.739 96.7069L161.915 94.9835ZM64.4172 87.3791C64.5876 87.4312 64.7582 87.6036 64.928 87.5421C65.5898 87.3153 66.325 87.0869 66.7834 86.5585C67.0027 86.307 66.6186 85.8993 66.6415 85.5671C66.6636 85.2548 66.6124 84.7438 66.9138 84.6784C67.3736 84.564 67.761 85.159 68.231 85.1922C68.4971 85.2111 68.6914 84.7375 68.9431 84.8287C69.649 85.0723 70.0908 85.8513 70.8003 86.0818C71.3099 86.2514 72.2301 86.4835 72.4068 85.9753C73.0661 84.0791 72.9004 81.991 72.9258 79.9832C72.9313 79.5096 72.4889 79.0977 72.4995 78.6178C72.5044 78.3511 73.0173 78.2204 72.9679 77.9566C72.6965 76.4953 72.7445 74.6493 71.5905 73.7063C70.929 73.1655 69.8781 74.3462 69.4166 75.0613C69.1586 75.4636 69.8015 75.9565 69.8422 76.4267C69.8979 77.0916 69.8172 77.7602 69.7005 78.4196C69.6458 78.7295 69.6261 79.1687 69.3348 79.2883C68.8249 79.4992 67.9694 79.719 67.6817 79.2514C66.9015 77.9743 67.3263 76.2152 66.6407 74.8848C66.4169 74.455 65.6817 74.3161 65.2305 74.4978C64.6328 74.7426 64.2488 75.3897 63.973 75.9777C63.7756 76.391 63.8156 76.9013 63.8812 77.36C63.9177 77.6163 64.2793 77.7754 64.2676 78.0349C64.2566 78.2945 63.842 78.412 63.8237 78.6711C63.8047 78.9302 64.1872 79.1041 64.1722 79.3634C64.161 79.5696 63.9398 79.7342 63.7573 79.8348C62.8489 80.3313 61.4682 80.2535 60.9369 81.1439C60.6039 81.7012 61.7838 82.1653 61.9964 82.7812C62.1575 83.2466 61.7802 83.8275 62.0145 84.258C62.3433 84.8621 63.146 85.0859 63.5471 85.6484C63.6767 85.8245 63.383 86.1108 63.4826 86.3048L64.4172 87.3791ZM80.7584 86.8937C81.6612 86.9176 82.5766 87.1226 83.4657 86.9652C83.7102 86.9225 83.6814 86.4998 83.8744 86.3466C84.6238 85.7387 85.3606 85.0565 86.2579 84.7061C86.584 84.5756 87.0039 84.7789 87.2598 85.0173C87.7499 85.4727 87.9458 86.1742 88.3825 86.6858C88.4688 86.7854 88.6376 86.7573 88.769 86.7666C89.6782 86.8243 90.5952 86.9961 91.4989 86.8864C92.5813 86.7494 93.6802 86.5201 94.6586 86.042C95.1536 85.7966 95.2013 84.8319 95.7514 84.7974C96.2725 84.7676 96.341 85.7872 96.8469 85.9165C98.3695 86.298 99.9813 86.3988 101.546 86.2559C102.224 86.1971 102.828 85.7458 103.369 85.3301C104.1 84.7743 104.92 84.2048 105.314 83.3781C105.667 82.6353 105.624 81.7242 105.465 80.9185C105.29 80.0248 104.94 79.1187 104.342 78.4421C103.59 77.5811 102.624 76.8518 101.555 76.4557C101.103 76.2834 100.654 76.9059 100.172 76.8851C99.7476 76.8684 99.4345 76.2788 99.0152 76.3492C98.2757 76.4771 97.6563 77.0007 97.0344 77.4174C96.5829 77.7259 96.3533 78.6043 95.8168 78.5129C94.0557 78.2012 92.5847 76.9688 90.9113 76.3429C90.5602 76.2045 90.0876 76.0108 89.7894 76.2367C88.7215 77.0558 88.4298 79.018 87.1058 79.2514C86.1652 79.4118 86.0363 77.6334 85.3032 77.0207C84.621 76.4516 83.8009 76.013 82.946 75.7722C82.0733 75.5302 81.1373 75.5307 80.2337 75.5936C79.9731 75.6085 79.8239 75.9451 79.5728 76.0141C79.2148 76.1156 78.7734 75.9041 78.4586 76.1021C77.9706 76.408 77.5506 76.8857 77.3389 77.4248C77.2266 77.7106 77.6855 78.0236 77.5898 78.3106C77.5124 78.5454 77.0954 78.4625 76.9359 78.6515C76.1933 79.5202 75.442 80.4084 74.9269 81.4268C74.7151 81.8458 74.7269 82.3674 74.825 82.8284C75.0178 83.7233 75.1828 84.7096 75.7832 85.4064C76.5484 86.2818 77.601 86.9706 78.7176 87.31L80.7584 86.8937ZM93.2478 147.817C93.3918 147.32 93.2034 146.532 93.6792 146.332C94.0871 146.167 94.2341 147.426 94.6376 147.248C95.0587 147.057 94.9088 146.292 94.7342 145.866C94.3402 144.91 93.3202 144.27 93.0107 143.28C92.4509 141.491 92.28 139.59 92.1829 137.72C92.169 137.446 92.6104 137.337 92.6884 137.082C92.8195 136.644 92.9467 136.139 92.7847 135.713C92.5697 135.151 92.0844 134.722 91.6374 134.317C91.4449 134.143 91.1382 133.888 90.9154 134.019C90.3674 134.354 89.9189 134.903 89.6829 135.494C89.5841 135.74 90.1462 135.96 90.0467 136.207C89.8347 136.733 89.1033 136.935 88.8919 137.461C88.7956 137.701 89.2122 137.884 89.2725 138.135C89.3268 138.366 89.3109 138.619 89.2226 138.839C89.1218 139.086 88.6974 139.209 88.7295 139.472C89.0209 141.876 89.2214 144.367 90.1629 146.597C90.4934 147.375 91.5227 147.648 92.3113 147.958L93.2478 147.817ZM109.1 87.2447C109.28 84.8006 109.319 82.3464 109.64 79.9123C109.732 79.2244 110.259 78.6341 110.332 77.9383C110.359 77.6798 109.987 77.5333 109.916 77.2813C109.814 76.9202 110.036 76.4753 109.828 76.1668C109.468 75.6272 108.923 75.2014 108.336 74.9328C108.154 74.8465 107.883 75.0609 107.827 75.2506C107.16 77.5668 106.572 79.9153 106.215 82.3002C106.143 82.7758 106.592 83.2215 106.56 83.7C106.543 83.9592 106.141 84.0642 106.081 84.3137C105.926 84.977 105.875 85.6678 105.939 86.3399C105.959 86.555 106.141 86.7415 106.32 86.8543C107.076 87.3284 107.817 87.955 108.7 88.0776L109.1 87.2447ZM81.1602 145.839C81.7105 145.491 82.3214 145.221 82.8112 144.795C82.9203 144.696 82.8966 144.494 82.8476 144.357C82.5362 143.487 81.9581 142.711 81.7465 141.808C81.3196 139.989 80.989 138.13 80.9462 136.257C80.9347 135.769 81.5063 135.422 81.5884 134.941C81.7751 133.839 81.8033 132.706 81.7367 131.593C81.7214 131.338 81.3385 131.177 81.3502 130.918C81.3613 130.658 81.964 130.474 81.7935 130.282C81.6001 130.054 81.2071 130.48 80.9179 130.42C80.6658 130.362 80.5432 130.04 80.3021 129.949C80.0843 129.86 79.7147 129.7 79.6012 129.899C79.2727 130.497 79.2407 131.222 79.2204 131.895C79.205 132.415 79.3114 132.937 79.4944 133.424C79.6199 133.753 80.1085 133.928 80.1227 134.283C80.132 134.49 79.6905 134.366 79.5397 134.508C79.0693 134.962 78.542 135.419 78.3051 136.023C78.2075 136.27 78.685 136.471 78.6688 136.737C78.6538 136.996 78.2432 137.114 78.2248 137.373C78.2058 137.632 78.5798 137.805 78.5741 138.065C78.5694 138.272 78.1317 138.368 78.1984 138.566C78.3385 138.99 78.9438 139.146 79.0773 139.57C79.1408 139.774 78.7125 139.851 78.6662 140.061C78.5172 140.725 78.4188 141.426 78.5107 142.107C78.6595 143.199 79.0048 144.258 79.378 145.299C79.4478 145.491 79.6213 145.67 79.8178 145.731L81.1602 145.839ZM82.0753 84.2163C81.0453 84.1701 80.0083 84.2034 78.9863 84.071C78.6733 84.0355 78.1825 84.0141 78.1134 83.7088C77.9184 82.827 78.0699 81.883 78.305 81.0117C78.3644 80.7956 78.7649 80.8773 78.9229 80.7083C79.4475 80.1579 79.6129 79.1882 80.3151 78.8907C81.0458 78.5753 81.9751 78.7546 82.688 79.1055C83.3431 79.4256 83.8817 80.0713 84.1221 80.7559C84.3454 81.3993 84.3177 82.2052 83.9722 82.7883L82.0753 84.2163ZM87.4249 145.395C87.6454 145.003 88.1457 144.665 88.0869 144.213C87.9729 143.337 87.1353 142.684 86.956 141.823C86.3823 139.045 86.4813 136.148 85.8484 133.386C85.7332 132.884 85.2836 132.318 84.7705 132.282C84.1798 132.24 83.6266 132.741 83.2504 133.202C83.1185 133.36 83.5334 133.529 83.5802 133.726C83.6319 133.957 83.62 134.21 83.531 134.431C83.4289 134.677 83.0204 134.802 83.0315 135.069C83.1039 136.864 83.6685 138.613 83.7707 140.409C83.7838 140.631 83.324 140.718 83.3673 140.935C83.4562 141.395 83.9609 141.671 84.1069 142.116C84.1663 142.294 83.8852 142.467 83.9374 142.645C84.1102 143.238 84.4233 143.781 84.7478 144.304C84.9652 144.653 85.2221 144.992 85.551 145.236C85.8273 145.442 86.1693 145.587 86.512 145.618L87.4249 145.395ZM71.5536 143.597C72.5157 142.69 73.7087 141.98 74.4392 140.877C74.7666 140.38 74.6866 139.673 74.5341 139.094C74.4277 138.693 74.0543 138.4 73.7167 138.155C73.5307 138.022 73.2689 137.997 73.0413 138.027C72.615 138.084 72.2301 138.471 71.8068 138.401C71.47 138.343 71.4042 137.718 71.0637 137.694C70.7258 137.67 70.5259 138.477 70.2417 138.29C69.9095 138.073 69.8598 137.361 70.159 137.102C71.0888 136.293 72.5236 136.248 73.4789 135.475C73.7687 135.235 73.7013 134.689 73.5345 134.35C73.2103 133.7 72.7606 133.014 72.1019 132.707C71.6754 132.503 71.197 133.07 70.7264 133.037C70.4682 133.018 70.3517 132.656 70.1106 132.566C69.8934 132.477 69.6371 132.452 69.4111 132.516C69.1605 132.578 69.0093 132.942 68.7511 132.923C68.2801 132.897 67.9067 132.423 67.4358 132.403C66.9585 132.389 66.5458 132.801 66.069 132.827C65.3991 132.866 64.5207 133.091 64.071 132.592C63.6899 132.171 64.8156 131.196 64.3295 130.901C63.8562 130.614 63.4068 131.543 63.0643 131.98C62.0671 133.251 60.4541 134.372 60.3383 135.98C60.2674 136.963 62.0557 137.049 62.6417 137.845C62.8616 138.141 62.8646 138.796 62.5267 138.952C62.0433 139.165 61.4975 138.499 60.9756 138.595C60.5703 138.667 60.2664 139.059 60.0412 139.404C59.91 139.608 59.8892 139.9 59.9811 140.12C60.2275 140.719 60.4614 141.43 61.0142 141.763C61.639 142.134 62.5261 141.729 63.1819 142.049C63.6757 142.291 63.7351 143.084 64.2296 143.325C64.7637 143.584 65.436 143.584 66.0062 143.418C66.5548 143.263 66.824 142.381 67.394 142.415C67.9613 142.448 68.1401 143.315 68.6483 143.572C68.8022 143.649 68.7558 143.212 68.6823 143.053C68.4912 142.652 67.8592 142.421 67.8914 141.976C67.9137 141.67 68.4718 141.73 68.7797 141.725C69.2284 141.71 69.7974 141.597 70.1139 141.913C70.3288 142.128 69.7551 142.495 69.8365 142.788C69.9452 143.183 70.2464 143.565 70.6171 143.738L71.5536 143.597ZM119.552 85.5412C120.115 85.1939 120.728 84.9101 121.243 84.4926C121.345 84.413 121.355 84.2401 121.322 84.111C121.063 83.1246 120.877 82.0966 120.377 81.2066C120.279 81.0328 120.051 81.4773 119.852 81.5033C119.759 81.5167 119.63 81.3941 119.652 81.3021C119.757 80.8489 120.102 80.4661 120.198 80.0122C120.339 79.3412 120.446 78.641 120.353 77.9601C120.206 76.8681 119.935 75.7741 119.489 74.7677C119.277 74.2921 118.895 73.8578 118.431 73.6247C118.026 73.4157 117.483 73.3439 117.068 73.5348C116.78 73.6613 116.756 74.0936 116.703 74.4036C116.624 74.8587 116.626 75.3262 116.681 75.7774C116.878 77.4004 117.121 79.0199 117.456 80.6192C117.72 81.873 117.969 83.1592 118.473 84.3432L119.552 85.5412ZM112.016 85.4082C112.574 85.9885 112.957 86.8168 113.691 87.1425C114.302 87.4128 115.144 87.419 115.691 87.0371C116.065 86.7765 115.935 86.1063 115.794 85.6691C115.616 85.129 114.937 84.834 114.792 84.2828C114.725 84.0311 115.168 83.9089 115.263 83.6686C115.35 83.4477 115.358 83.1946 115.313 82.9644C115.22 82.4972 114.879 82.0925 114.856 81.6169C114.804 80.5049 114.882 79.3888 115.092 78.2953C115.181 77.8277 115.594 77.4764 115.738 77.0259C115.85 76.6733 116.027 76.2452 115.847 75.9253C115.55 75.3902 115.047 74.5801 114.46 74.7388C113.582 74.9771 113.074 75.9826 112.654 76.7874C112.53 77.0257 113.097 77.2461 113.022 77.5012C112.759 78.4106 111.897 79.0905 111.717 80.0192C111.583 80.7107 112.095 81.388 112.134 82.0918L112.016 85.4082ZM100.532 145.282C100.559 144.883 100.254 144.254 100.614 144.079C101.037 143.869 101.47 144.494 101.931 144.593C102.021 144.613 102.153 144.502 102.14 144.407C102.074 143.935 101.758 143.519 101.715 143.042C101.675 142.592 101.759 142.13 101.898 141.706C101.963 141.504 102.374 141.419 102.309 141.215C102.173 140.798 101.448 140.673 101.424 140.231C101.409 139.956 101.977 140.036 102.248 140.095C102.711 140.202 103.067 140.641 103.538 140.701C103.794 140.732 104.009 140.213 104.23 140.349C104.992 140.81 105.237 142.043 106.101 142.258C106.728 142.416 107.157 141.505 107.739 141.225C107.867 141.161 108.159 141.115 108.165 141.262C108.192 141.798 107.705 142.318 107.818 142.84C107.953 143.477 108.354 144.073 108.852 144.482C109.142 144.723 109.669 144.84 109.971 144.615C110.71 144.073 111.34 143.296 111.64 142.43C111.798 141.973 111.22 141.525 111.206 141.043C111.197 140.736 111.289 140.315 111.574 140.202C111.816 140.105 111.954 140.636 112.214 140.648C112.472 140.659 112.638 140.324 112.89 140.268C113.117 140.211 113.374 140.222 113.589 140.318C113.828 140.415 113.946 140.717 114.185 140.814C114.4 140.909 114.659 140.927 114.885 140.863C115.136 140.794 115.286 140.464 115.546 140.449C116.442 140.386 117.354 140.457 118.233 140.64C118.442 140.681 118.591 140.899 118.684 141.092C119.242 142.233 119.419 143.575 120.168 144.602C120.388 144.905 120.937 144.79 121.287 144.661C121.677 144.516 122.038 144.214 122.227 143.847C122.439 143.435 122.54 142.921 122.412 142.478C122.242 141.892 121.34 141.567 121.39 140.957C121.435 140.406 122.095 140.005 122.627 139.849C123.087 139.715 123.56 140.309 124.025 140.189C124.501 140.069 124.647 139.311 125.129 139.219C125.548 139.141 125.866 139.691 126.287 139.761C127.168 139.91 128.088 140.036 128.964 139.864C129.369 139.786 129.741 139.432 129.899 139.049C130.033 138.725 129.955 138.278 129.729 138.009C129.229 137.419 128.614 136.808 127.861 136.635C127.361 136.519 126.972 137.306 126.461 137.27C125.951 137.234 125.677 136.42 125.166 136.444C124.414 136.477 123.883 137.354 123.134 137.428C122.717 137.472 122.35 137.072 122.073 136.759C121.643 136.268 121.213 135.717 121.065 135.085C121.003 134.827 121.588 134.688 121.525 134.43C121.405 133.928 120.389 133.642 120.609 133.17C120.994 132.349 121.972 131.878 122.841 131.619C123.698 131.366 124.641 131.553 125.517 131.722C125.985 131.808 126.326 132.26 126.791 132.359C127.126 132.43 127.5 132.356 127.807 132.204C128.072 132.076 128.448 131.856 128.415 131.56C128.341 130.887 127.975 130.247 127.533 129.735C127.063 129.194 126.447 128.737 125.767 128.508C125.507 128.416 125.296 128.969 125.035 128.883C124.317 128.652 123.888 127.534 123.141 127.641C121.675 127.851 120.405 128.843 119.214 129.72C118.637 130.146 118.312 130.844 117.958 131.474C117.841 131.679 117.819 131.931 117.826 132.172C117.874 133.631 118.633 135.18 118.121 136.559C117.825 137.353 116.634 137.435 115.803 137.61C115.133 137.743 114.422 137.613 113.757 137.452C113.504 137.394 113.399 137.013 113.142 136.974C112.937 136.947 112.758 137.408 112.596 137.276C112.136 136.903 111.817 136.34 111.651 135.767C111.522 135.324 111.626 134.831 111.755 134.386C111.827 134.137 112.193 134.03 112.232 133.772C112.263 133.567 111.8 133.388 111.933 133.23C112.312 132.77 112.873 132.422 113.452 132.31C113.714 132.255 113.839 132.697 114.085 132.795C114.302 132.884 114.576 132.95 114.785 132.845C115.163 132.658 115.708 132.416 115.714 131.996C115.728 131.102 115.201 130.284 114.838 129.463C114.752 129.27 114.596 129.052 114.387 129.018C113.285 128.819 112.14 128.598 111.035 128.78C110.517 128.864 110.126 129.357 109.815 129.775C109.289 130.493 108.868 131.297 108.57 132.137C108.415 132.574 108.411 133.068 108.481 133.527C108.522 133.79 108.945 133.96 108.889 134.23C108.617 135.519 108.088 136.75 107.547 137.954C107.464 138.135 107.249 138.373 107.059 138.306C105.179 137.686 103.168 137.183 101.591 135.99C101.2 135.688 101.932 135.006 102.325 134.713C103.203 134.054 104.451 133.969 105.268 133.239C105.572 132.967 105.487 132.393 105.337 132.009C105.181 131.617 104.831 131.258 104.431 131.103C103.736 130.84 102.933 130.623 102.218 130.826C101.347 131.072 100.8 131.981 99.9832 132.377C99.8433 132.441 99.7514 131.987 99.6242 132.078C99.1365 132.418 98.5111 132.847 98.4674 133.445C98.4235 134.056 99.5772 134.418 99.4121 135.007C99.1459 135.95 98.1522 136.521 97.4172 137.17C96.9116 137.621 96.185 137.783 95.7202 138.271C95.4792 138.528 95.2137 138.99 95.4139 139.271C95.5874 139.524 96.0284 139.014 96.3124 139.121C96.6507 139.252 97.097 139.544 97.0644 139.909C97.0254 140.347 95.9786 140.473 96.1559 140.879C96.3391 141.306 97.0761 141.044 97.5319 140.977C97.7885 140.941 97.951 140.626 98.207 140.59C98.3416 140.573 98.4886 140.711 98.5339 140.834C99.0978 142.443 99.3114 144.174 100.009 145.725L100.532 145.282ZM99.7257 83.5365C99.2723 83.4777 98.7722 83.5692 98.3658 83.3535C97.9948 83.167 97.7379 82.7816 97.5451 82.4141C97.4398 82.2063 97.438 81.9392 97.5153 81.7243C97.6821 81.2621 97.9356 80.8194 98.2532 80.4413C98.5394 80.101 98.8974 79.8126 99.2944 79.6137C99.4993 79.508 99.753 79.5527 99.9797 79.5821C100.274 79.6229 100.602 79.6462 100.834 79.8361C101.36 80.2606 101.896 80.7392 102.178 81.3534C102.334 81.6916 102.281 82.1819 102.044 82.4655C101.631 82.9638 100.99 83.2388 100.403 83.5044L99.7257 83.5365ZM89.3453 82.4811C89.2128 82.2514 88.9943 82.049 88.9485 81.7921C88.9275 81.6637 89.0784 81.5676 89.1735 81.4875C89.3905 81.2959 89.5877 80.9894 89.8749 80.983C90.1337 80.9746 90.2503 81.3634 90.4913 81.4539C90.7085 81.5428 91.0565 81.6876 91.1901 81.4967C91.4007 81.1978 90.9769 80.6538 91.2343 80.3916C91.4415 80.1793 91.8546 80.4021 92.11 80.5537C92.6079 80.8427 93.1148 81.1924 93.4237 81.6816C93.575 81.9193 93.5823 82.3538 93.36 82.525C92.4669 83.2296 91.46 83.9127 90.3407 84.1005C89.9247 84.1712 89.7003 83.5344 89.4794 83.1783L89.3453 82.4811ZM103.588 82.181C103.678 81.8869 103.553 81.2905 103.859 81.3055C104.163 81.3137 104.108 81.9107 104.018 82.1981L103.588 82.181ZM71.955 140.962C72.0452 140.668 71.92 140.071 72.2269 140.079C72.5301 140.094 72.4744 140.691 72.3847 140.979L71.955 140.962ZM67.3773 139.316C67.2578 138.987 67.2044 138.629 67.0182 138.329C66.6046 137.679 65.7353 137.256 65.5968 136.499C65.5226 136.086 66.1324 135.776 66.5362 135.677C66.7881 135.615 66.9142 136.105 67.1724 136.123C67.4384 136.135 67.6335 135.668 67.8839 135.76C68.4401 135.959 68.9476 136.376 69.2585 136.885C69.3675 137.06 68.8899 137.173 68.8859 137.379C68.8809 137.639 69.3942 137.869 69.2351 138.072L67.3773 139.316ZM84.7969 138.533C84.8255 138.081 84.7894 137.611 84.8838 137.163C84.9042 137.065 85.0981 136.898 85.122 136.993C85.2505 137.496 85.3438 138.044 85.2365 138.55L84.7969 138.533ZM114.325 139.475C114.032 139.381 113.433 139.505 113.447 139.199C113.461 138.9 114.054 138.955 114.345 139.043L114.325 139.475ZM114.83 138.65C115.126 138.59 115.416 138.457 115.716 138.472C115.813 138.479 115.973 138.657 115.888 138.704C115.62 138.846 115.292 138.876 114.988 138.861L114.83 138.65ZM85.2029 136.058C84.9187 135.757 84.4964 135.54 84.3509 135.156C84.1935 134.731 84.2803 134.25 84.3587 133.801C84.4122 133.498 84.4298 132.939 84.7372 132.96C85.1447 132.989 85.4498 133.485 85.5415 133.885C85.5998 134.136 85.1099 134.262 85.0976 134.521C85.0845 134.781 85.4601 134.941 85.4774 135.196L85.2029 136.058ZM80.7951 132.407C80.7362 132.11 80.602 131.82 80.6185 131.52C80.6242 131.421 80.807 131.26 80.852 131.35C80.9968 131.614 81.0268 131.943 81.0098 132.249L80.7951 132.407ZM57.1266 118.047C56.9143 117.851 56.6287 117.711 56.489 117.461C56.4036 117.301 56.3365 116.976 56.5078 116.921C56.8034 116.835 57.2475 116.913 57.3958 117.184L57.1266 118.047ZM102.356 138.628C102.357 138.487 102.217 138.217 102.36 138.194C102.66 138.142 103.233 138.169 103.23 138.476L102.356 138.628ZM69.7545 63.929C69.6956 63.6311 69.562 63.3412 69.5779 63.0419C69.5836 62.9421 69.7659 62.7881 69.8114 62.8714C69.9561 63.1354 69.9862 63.4647 69.9692 63.7706L69.7545 63.929ZM102.824 131.557C103.117 131.651 103.716 131.527 103.702 131.833C103.688 132.132 103.094 132.077 102.804 131.99L102.824 131.557Z" fill="black"/>
</svg>
