<svg width="200" height="200" viewBox="0 0 200 200" fill="none" xmlns="http://www.w3.org/2000/svg">
<path d="M182 75.5L138.5 158.5L37.5 168.5L18 75.5L64.5 31L182 75.5Z" fill="#E9E9E9"/>
<path d="M93.7897 160.153C94.3185 160.146 94.8597 160.234 95.3761 160.128C95.5751 160.09 95.7369 159.916 95.8302 159.736C96.7135 157.982 96.6327 155.443 98.275 154.361C99.177 153.77 98.7539 156.526 99.3822 157.397C99.8985 158.106 100.776 158.479 101.547 158.89C101.746 158.989 102.007 158.952 102.225 158.877C102.406 158.815 102.58 158.685 102.661 158.51C103.27 157.148 103.905 155.773 104.272 154.33C104.334 154.087 103.787 153.919 103.886 153.689C104.141 153.117 104.732 151.873 105.168 152.321C106.225 153.422 106.051 155.269 106.729 156.644C107.146 157.478 107.675 158.305 108.409 158.877C108.664 159.076 109.074 158.828 109.348 158.666C109.665 158.485 109.964 158.212 110.126 157.888C110.592 156.955 110.785 155.904 111.208 154.958C111.32 154.703 111.693 154.585 111.724 154.311C111.749 154.063 111.289 153.913 111.339 153.671C111.419 153.291 111.811 152.433 112.054 152.744C113.08 154.031 113.329 155.792 114.157 157.223C114.405 157.658 114.791 158.062 115.251 158.262C115.65 158.436 116.141 158.405 116.545 158.268C117.149 158.075 117.827 157.832 118.175 157.304C119.594 155.126 120.346 152.57 121.709 150.361C121.814 150.181 122.25 150.374 122.3 150.579C122.356 150.821 121.833 150.983 121.914 151.22C122.262 152.259 122.847 153.223 123.488 154.112C123.954 154.759 124.508 155.388 125.205 155.773C125.578 155.978 126.113 155.978 126.486 155.773C127.17 155.394 127.743 154.797 128.178 154.137C128.999 152.899 128.974 151.014 130.194 150.156C130.785 149.739 131.338 151.039 131.836 151.556C132.24 151.979 132.458 152.563 132.894 152.949C133.366 153.366 133.908 153.77 134.523 153.913C135.345 154.106 136.24 154.112 137.061 153.907C137.435 153.814 137.708 153.434 137.883 153.086C138.019 152.8 138.194 152.314 137.939 152.134C136.806 151.344 135.164 151.394 134.15 150.461C132.993 149.409 132.67 147.686 131.712 146.454C131.338 145.969 130.828 145.409 130.219 145.403C129.709 145.397 129.41 146.025 129.086 146.417C128.614 146.996 128.222 147.636 127.842 148.283C127.102 149.559 126.915 151.288 125.733 152.159C125.236 152.532 125.031 151.126 124.788 150.548C123.973 148.576 123.407 146.498 122.58 144.532C122.499 144.352 122.306 144.147 122.113 144.171C121.733 144.221 121.373 144.445 121.099 144.713C120.664 145.142 120.228 145.627 120.048 146.206C119.973 146.442 120.527 146.616 120.433 146.846C120.004 147.879 119.121 148.669 118.617 149.664C117.715 151.456 117.105 153.384 116.234 155.195C116.191 155.282 116.029 155.251 115.93 155.226C115.637 155.164 115.214 155.207 115.083 154.94C114.978 154.716 115.444 154.566 115.488 154.33C115.612 153.714 115.662 153.067 115.575 152.451C115.307 150.573 114.66 148.756 114.437 146.871C114.405 146.622 114.897 146.467 114.835 146.224C114.735 145.851 114.368 145.59 114.045 145.385C113.864 145.266 113.609 145.26 113.404 145.31C112.832 145.453 112.228 145.608 111.762 145.963C111.363 146.262 111.14 146.747 110.928 147.195C110.082 148.955 109.951 151.17 108.583 152.563C108.073 153.092 107.755 151.313 107.6 150.598C107.544 150.349 108.073 150.187 108.004 149.938C107.656 148.694 107.065 147.518 106.418 146.399C106.157 145.951 105.74 145.602 105.317 145.31C105.205 145.235 105.018 145.266 104.925 145.36C104.427 145.857 103.899 146.374 103.606 147.021C102.717 149.011 102.256 151.17 101.416 153.185C101.367 153.304 101.174 153.042 101.143 152.918C100.546 150.753 100.178 148.532 99.544 146.374C99.488 146.193 99.2952 146.044 99.1085 146.007C98.698 145.92 98.194 145.776 97.8395 146.007C97.3231 146.343 97.0495 146.958 96.8006 147.518C96.359 148.489 95.9484 149.503 95.7804 150.554C95.7369 150.815 96.2283 150.965 96.1909 151.226C96.023 152.445 95.6684 153.652 95.1894 154.784C94.9903 155.244 94.4554 156.333 94.2003 155.91C93.2423 154.28 93.2796 152.234 92.6264 150.454C92.1412 149.123 91.6498 147.742 90.7975 146.61C90.586 146.33 90.0884 146.535 89.7462 146.629C89.5596 146.685 89.3792 146.834 89.2983 147.021C88.4896 148.949 87.9858 151.008 87.1086 152.912C86.8847 153.397 86.5674 154.05 86.0324 154.1C85.597 154.143 85.317 153.509 85.2113 153.086C85.1491 152.831 85.6779 152.675 85.6157 152.42C85.0433 150.143 84.2968 147.904 83.3699 145.752C83.1833 145.31 82.7665 144.943 82.3187 144.769C82.0201 144.65 81.6592 144.825 81.3793 144.98C81.1118 145.123 80.8692 145.347 80.7323 145.621C79.8869 147.276 79.6816 149.316 78.4555 150.709C78.0823 151.139 77.5355 149.882 77.4832 149.322C77.4223 148.663 78.2154 148.103 78.1538 147.444C78.0437 146.262 77.7936 144.955 76.9949 144.078C76.5719 143.612 75.4553 143.574 75.11 144.103C73.8534 146.013 73.306 148.327 72.7442 150.542C72.6347 150.977 73.1461 151.375 73.1548 151.823C73.1598 152.066 72.7828 152.202 72.7828 152.445C72.7828 152.688 73.255 152.849 73.1548 153.067C72.8052 153.839 72.3735 154.741 71.5915 155.064C71.1698 155.238 70.8363 154.504 70.6092 154.112C70.0002 153.049 69.6849 151.842 69.1206 150.753C68.748 150.038 68.0762 149.478 67.8062 148.713C67.7253 148.482 68.2678 148.315 68.1782 148.091C67.7794 147.089 67.3017 146.025 66.4656 145.341C66.0532 145.005 65.3876 145.266 64.8669 145.385C64.6616 145.428 64.4824 145.608 64.3928 145.801C63.4093 147.891 63.0946 150.355 61.6731 152.178C61.2824 152.675 60.9689 151.114 60.7008 150.535C60.2871 149.646 60.1304 148.638 59.6346 147.792C59.234 147.108 58.7276 146.43 58.0545 146.013C57.7827 145.845 57.3932 146.063 57.1176 146.224C56.7861 146.417 56.4825 146.703 56.3046 147.045C55.4797 148.626 55.9033 151.68 54.1379 151.941C52.5945 152.171 52.9721 149.042 52.2841 147.643C52.1964 147.462 52.0266 147.294 51.8325 147.251C51.4188 147.157 50.9081 147.008 50.5591 147.251C50.0117 147.63 49.7205 148.302 49.4412 148.906C48.8222 150.243 48.225 151.612 47.881 153.049C47.8201 153.297 48.3414 153.453 48.2891 153.708C48.1809 154.243 47.7977 155.537 47.4599 155.108C46.3445 153.708 46.1896 151.755 45.4413 150.131C45.3579 149.951 45.1849 149.776 44.9896 149.739C44.4465 149.627 43.8425 149.503 43.3287 149.708C42.8553 149.901 42.7924 150.828 42.2829 150.828C41.7218 150.828 41.5302 149.951 41.0232 149.708C40.7091 149.565 40.2973 149.596 39.9813 149.739C39.6279 149.901 39.2373 150.181 39.1576 150.56C38.9424 151.593 38.9554 152.688 39.1489 153.727C39.3113 154.591 40.0235 155.294 40.2033 156.159C40.2543 156.402 39.8637 156.545 39.7853 156.781C39.7156 156.992 39.6901 157.248 39.7766 157.453C40.0229 158.044 40.3601 158.597 40.7545 159.095C41.0637 159.487 41.3666 160.09 41.8649 160.097C42.3539 160.103 42.6543 159.499 42.9554 159.114C43.4251 158.517 43.4668 156.843 44.1548 157.173C45.4394 157.783 45.3871 159.817 46.4415 160.775C46.8515 161.148 47.6054 160.999 48.1019 160.75C48.8054 160.401 49.3572 159.767 49.7964 159.114C50.569 157.969 50.3196 155.605 51.69 155.425C52.89 155.269 52.6449 157.677 53.3647 158.647C53.5619 158.915 53.978 158.933 54.3083 158.964C54.7257 159.014 55.16 158.996 55.5649 158.884C55.7509 158.834 55.927 158.685 56.0041 158.51C56.4153 157.565 56.8358 156.594 57.0019 155.58C57.0436 155.319 56.5229 155.164 56.5901 154.915C56.8564 153.901 56.9043 152.296 57.9251 152.084C58.8091 151.898 59.1257 153.478 59.4691 154.311C59.5612 154.535 59.005 154.709 59.0965 154.933C59.4467 155.792 60.0831 156.507 60.661 157.229C60.9739 157.621 61.2955 158.062 61.7552 158.262C62.1447 158.429 62.6927 158.523 63.0305 158.262C63.6961 157.751 64.1639 156.98 64.4606 156.196C64.5484 155.96 64.1241 155.811 64.0463 155.574C63.9767 155.356 63.9636 155.108 64.0351 154.896C64.506 153.49 65.0348 152.097 65.6606 150.753C65.744 150.573 65.9679 150.28 66.1309 150.392C66.3642 150.554 66.3766 150.94 66.3387 151.22C66.307 151.456 65.8435 151.599 65.9399 151.823C66.1919 152.408 66.8743 152.7 67.214 153.235C68.0245 154.517 68.5427 155.966 69.3701 157.229C69.706 157.745 70.185 158.162 70.6733 158.529C71.1797 158.921 71.7041 159.618 72.3293 159.487C73.1156 159.331 73.5698 158.461 74.0842 157.845C74.3772 157.49 74.5321 157.042 74.7194 156.632C75.0584 155.873 75.5087 155.145 75.6618 154.33C75.7084 154.087 75.3271 153.932 75.2718 153.689C75.25 153.59 75.4098 153.384 75.4658 153.465C76.4748 154.933 77.1691 156.613 78.2515 158.031C78.4512 158.293 78.8605 158.336 79.1896 158.336C79.5199 158.336 79.9311 158.286 80.1289 158.025C80.6764 157.31 81.1118 156.476 81.2798 155.593C81.3668 155.145 80.7696 154.741 80.8505 154.286C81.0185 153.322 81.4477 152.395 81.9952 151.574C82.0947 151.425 82.4617 151.643 82.4866 151.823C82.5177 152.072 82.0263 152.221 82.1009 152.464C82.667 154.33 83.4819 156.109 84.3217 157.87C84.4524 158.15 84.7261 158.349 84.9811 158.529C85.4726 158.884 85.9827 159.68 86.5363 159.45C87.4943 159.052 87.992 157.951 88.5207 157.061C89.1864 155.929 89.4788 154.61 90.0822 153.44C90.1257 153.353 90.3621 153.36 90.3745 153.459C90.4119 153.751 90.0511 154.063 90.1879 154.33M121.516 149.534C121.236 149.465 120.688 149.621 120.676 149.335C120.67 149.055 121.23 149.067 121.503 149.129M46.5068 114.505C47.0767 113.531 47.5731 112.511 48.2169 111.585C48.4764 111.211 48.7513 110.547 49.1967 110.636C49.7392 110.744 49.9401 111.476 50.1765 111.976C50.3277 112.296 50.1118 112.744 50.3252 113.026C50.6897 113.507 51.2297 113.86 51.7839 114.1C52.1068 114.241 52.587 114.364 52.8408 114.119C53.6775 113.311 54.2853 112.269 54.7736 111.214C55.6128 109.399 55.0343 106.513 56.7954 105.565C57.9854 104.925 57.573 108.173 58.2081 109.366C58.7294 110.345 59.4299 111.241 60.228 112.011C60.4582 112.234 60.9105 112.417 61.1649 112.222C61.8287 111.713 62.2884 110.946 62.6187 110.177C62.842 109.659 62.5758 109.02 62.7705 108.49C62.9347 108.041 63.4535 107.794 63.652 107.359C63.7229 107.204 63.4659 107.033 63.5101 106.869C63.7141 106.116 64.024 105.392 64.3742 104.696C64.7655 103.916 65.1232 103.085 65.7272 102.456C65.8715 102.306 66.2678 102.473 66.3113 102.677C66.3629 102.915 65.9462 103.044 65.9063 103.285C65.8031 103.916 65.7334 104.586 65.8983 105.204C66.2815 106.638 66.8973 108.005 67.5262 109.35C67.9256 110.204 68.3654 111.06 68.9732 111.78C69.3651 112.246 69.8665 112.715 70.4631 112.832C70.8469 112.908 71.2133 112.545 71.4963 112.275C72.0189 111.777 72.4102 111.158 72.8338 110.574C73.3781 109.825 74.0487 109.135 74.399 108.278C74.491 108.054 73.9056 107.863 74.027 107.654C74.4848 106.865 75.1542 105.162 75.9112 105.67C77.1778 106.521 76.8481 108.581 77.4783 109.97C77.7837 110.643 78.2384 111.242 78.7013 111.817C79.0154 112.208 79.3128 112.712 79.7955 112.85C80.6079 113.084 81.5099 113.048 82.3311 112.857C82.9469 112.715 83.513 112.334 83.9609 111.89C84.7136 111.145 85.2984 110.243 85.8707 109.355C86.2253 108.808 86.0947 107.619 86.7416 107.602C87.3886 107.586 87.2642 108.787 87.6374 109.31C87.9111 109.69 88.4523 109.854 88.6514 110.274C88.7385 110.45 88.2533 110.59 88.3341 110.767C88.5705 111.275 89.0184 111.675 89.4663 112.011C89.7214 112.206 90.0697 112.279 90.387 112.311C90.81 112.352 91.2641 112.401 91.6498 112.228C91.9982 112.07 92.3341 111.758 92.4398 111.388C92.5083 111.156 91.9671 110.985 92.0666 110.765C92.5207 109.782 93.4227 109.065 93.9515 108.119C94.3807 107.354 94.1568 105.223 94.9095 105.672C96.2594 106.476 96.0914 108.61 96.9685 109.914C97.3107 110.425 97.8581 110.972 98.474 110.976C99.1521 110.98 99.8488 110.501 100.222 109.934C101.404 108.133 101.914 105.963 102.984 104.094C103.457 103.274 103.942 101.555 104.813 101.923C105.752 102.321 104.832 103.986 105.074 104.977C105.161 105.328 105.752 105.44 105.777 105.8C105.802 106.114 105.093 106.227 105.18 106.528C105.485 107.524 106.194 108.353 106.81 109.191C107.146 109.65 107.581 110.039 108.023 110.391C108.122 110.469 108.272 110.445 108.402 110.444C108.832 110.436 109.342 110.622 109.69 110.362C110.791 109.53 111.78 108.504 112.514 107.333C113.304 106.067 113.335 104.41 114.175 103.177C114.362 102.902 114.772 103.597 114.835 103.922C114.878 104.16 114.511 104.297 114.437 104.527C114.368 104.741 114.337 104.996 114.424 105.201C114.872 106.203 115.401 107.176 116.023 108.081C116.309 108.495 116.657 108.916 117.118 109.118C117.51 109.288 118.026 109.323 118.399 109.118C119.083 108.74 119.681 108.153 120.091 107.484C121.068 105.888 120.651 102.169 122.511 102.415C124.464 102.675 123.469 106.277 124.34 108.048C124.607 108.593 125.267 108.851 125.814 109.121C126.013 109.221 126.3 109.241 126.486 109.112C127.139 108.657 127.793 108.134 128.203 107.455C129.043 106.075 129.466 104.478 130.188 103.032C130.492 102.428 130.785 100.847 131.27 101.318C132.352 102.371 132.203 104.197 132.813 105.581C132.956 105.91 133.422 106.06 133.497 106.411C133.547 106.647 133.024 106.812 133.124 107.034C133.528 107.954 134.144 108.787 134.853 109.503C135.463 110.126 136.215 110.623 137.005 110.987C137.267 111.106 137.603 111.019 137.852 110.882C138.629 110.453 139.438 109.995 140.023 109.328C141.005 108.214 141.752 106.911 142.486 105.62C143.089 104.548 143.394 103.322 144.016 102.258C144.246 101.863 144.558 101.187 144.999 101.305C145.628 101.475 145.876 102.288 146.218 102.848C147.002 104.134 147.444 105.63 148.358 106.825C148.769 107.357 149.441 107.66 150.075 107.881C150.48 108.023 150.984 108.072 151.369 107.874C152.222 107.432 152.912 106.719 153.609 106.054C154.361 105.336 154.697 103.468 155.705 103.738C157.31 104.17 157.677 106.472 158.99 107.5C160.004 108.301 161.267 108.809 162.529 109.1C162.971 109.201 163.338 108.607 163.792 108.608C164.246 108.609 164.607 109.16 165.055 109.104C165.882 109.002 166.629 108.538 167.375 108.165C168.576 107.565 169.851 107.053 170.878 106.189C171.139 105.97 170.977 105.506 170.934 105.167C170.896 104.882 170.896 104.481 170.641 104.358C170.417 104.255 170.256 104.736 170.013 104.731C169.77 104.726 169.64 104.405 169.41 104.332C169.192 104.264 168.949 104.256 168.738 104.324C168.346 104.447 168.035 104.768 167.649 104.888C166.187 105.336 164.707 105.726 163.207 106.019C162.784 106.102 162.299 106.199 161.907 106.008C160.738 105.432 159.63 104.688 158.685 103.792C158.536 103.65 159.058 103.479 159.021 103.276C158.816 102.018 158.175 100.854 157.982 99.5927C157.945 99.342 158.48 99.1753 158.38 98.9427C158.262 98.6789 157.858 98.6453 157.571 98.6453C156.844 98.6459 156.029 98.5675 155.407 98.9451C154.561 99.4577 154.013 100.363 153.422 101.157C152.819 101.963 152.445 102.923 151.842 103.726C151.543 104.125 151.195 104.55 150.729 104.73C150.536 104.805 150.355 104.52 150.237 104.348C149.571 103.354 148.956 102.326 148.396 101.265C147.83 100.174 147.506 98.9563 146.865 97.9032C146.61 97.4746 146.225 97.0602 145.752 96.8941C145.522 96.8133 145.379 97.2207 145.149 97.2991C144.819 97.4117 144.358 97.2046 144.116 97.4534C142.897 98.6951 141.839 100.103 140.943 101.593C140.402 102.49 140.29 103.59 139.848 104.538C139.568 105.14 139.208 105.712 138.772 106.218C138.262 106.821 137.82 107.975 137.043 107.841C136.128 107.683 135.693 106.492 135.345 105.631C134.561 103.702 134.138 101.641 133.702 99.6064C133.541 98.8562 133.889 98.0015 133.559 97.3085C133.298 96.7641 132.639 96.506 132.097 96.2366C131.898 96.1365 131.618 96.129 131.425 96.2453C130.946 96.5358 130.555 96.957 130.2 97.3899C129.727 97.9747 129.304 98.6111 128.956 99.278C128.085 100.926 128.247 105.076 126.548 104.321C124.408 103.371 125.634 99.7184 124.919 97.4882C124.695 96.7816 124.309 96.0817 123.755 95.5915C123.494 95.3595 123.002 95.3545 122.704 95.5362C122.02 95.9523 121.385 96.5383 121.024 97.2518C120.079 99.1144 119.674 101.211 118.847 103.13C118.611 103.677 118.237 105.065 117.846 104.614C116.825 103.442 116.645 101.73 116.309 100.214C116.253 99.9604 116.775 99.803 116.713 99.5504C116.57 98.9302 116.122 98.4195 115.755 97.8951C115.637 97.7234 115.475 97.5679 115.283 97.4839C115.09 97.3987 114.86 97.3812 114.648 97.4105C114.331 97.4546 113.958 97.4777 113.727 97.701C113.161 98.2447 112.676 98.8997 112.353 99.6151C111.451 101.596 110.996 103.763 110.07 105.734C109.87 106.164 109.398 107.01 109.031 106.709C108.278 106.097 108.216 104.943 107.961 104.008C107.494 102.286 107.395 100.472 106.872 98.7666C106.717 98.264 106.406 97.7495 105.951 97.4839C105.584 97.2699 105.049 97.278 104.676 97.4839C103.986 97.8683 103.451 98.5122 102.965 99.1392C102.051 100.31 101.23 101.559 100.496 102.849C99.7928 104.085 99.8737 105.966 98.6544 106.701C97.9826 107.107 97.8084 105.337 97.6467 104.567C97.5907 104.312 98.1069 104.157 98.0572 103.902C97.8768 103.037 97.2921 102.307 96.9997 101.472C96.8877 101.137 97.0681 100.704 96.8566 100.418C96.5207 99.9598 96.0479 99.4596 95.4756 99.4061C95.0464 99.3657 94.8162 99.984 94.4305 100.19C94.3683 100.225 94.2874 99.9989 94.2501 100.063C92.9375 102.473 92.2345 105.268 90.499 107.395C90.1133 107.871 89.7027 106.408 89.5596 105.81C89.5036 105.565 89.9266 105.429 89.9826 105.183C90.0759 104.762 90.107 104.304 89.9951 103.886C89.5534 102.259 88.9873 100.665 88.3528 99.105C88.2781 98.929 88.0853 98.7349 87.8987 98.7616C87.513 98.8151 87.1522 99.0472 86.866 99.3122C86.5612 99.5977 86.3746 99.9921 86.1755 100.362C85.5099 101.595 84.838 102.83 84.2782 104.115C83.7121 105.409 83.4011 106.804 82.8101 108.085C82.5301 108.689 82.2689 109.405 81.6903 109.734C81.3544 109.927 80.8132 109.67 80.5893 109.35C79.8558 108.283 79.342 107.054 78.9893 105.807C78.9183 105.556 79.4309 105.4 79.3992 105.142C79.2126 103.629 78.8238 102.14 78.3572 100.688C78.132 99.9865 77.8975 99.2064 77.3377 98.7287C77.0148 98.4525 76.4524 98.5576 76.063 98.728C75.6021 98.9296 75.2369 99.3408 74.9663 99.765C74.1277 101.083 73.3221 102.444 72.7679 103.905C72.6795 104.139 73.189 104.299 73.1542 104.546C73.1256 104.752 72.748 104.712 72.6304 104.883C72.208 105.501 72.0164 106.26 71.571 106.861C71.138 107.445 70.409 109.016 70.0239 108.399C68.6174 106.143 68.628 103.265 67.7602 100.752C67.4877 99.9616 67.051 99.2338 66.6143 98.5203C66.5048 98.3417 66.3449 98.1545 66.1409 98.106C65.7278 98.0083 65.2047 97.849 64.8669 98.106C64.1104 98.6826 63.6588 99.5821 63.1487 100.385C62.7002 101.091 62.3195 101.843 62.0016 102.616C61.3776 104.135 61.0859 105.793 60.3276 107.25C60.2249 107.446 59.7814 107.252 59.693 107.049C59.5232 106.659 59.596 106.189 59.6862 105.773C59.7391 105.529 60.1739 105.39 60.1055 105.15C59.7522 103.902 59.1027 102.756 58.5055 101.606C58.3475 101.302 57.9189 101.149 57.8523 100.813C57.8057 100.576 58.2977 100.421 58.2249 100.19C58.1086 99.8192 57.787 99.3464 57.3994 99.3675C56.7624 99.4018 56.2505 99.938 55.7435 100.324C55.2632 100.691 54.7873 101.097 54.462 101.606C54.0309 102.282 53.7012 103.037 53.514 103.817C53.3603 104.455 53.3696 105.135 53.4586 105.786C53.4928 106.033 53.8928 106.164 53.8698 106.413C53.8511 106.61 53.4741 106.57 53.3702 106.74C52.9304 107.46 53.0443 108.674 52.276 109.022C51.7491 109.259 51.1538 108.353 51.0642 107.782C50.9977 107.361 51.9867 107.266 51.9338 106.843C51.7255 105.187 50.6624 103.733 50.3482 102.095C50.2624 101.647 50.8745 101.24 50.7743 100.795C50.6418 100.207 50.2088 99.6798 49.7236 99.3209C49.4505 99.1199 49.0437 99.2226 48.7078 99.268C48.3812 99.3116 48.0216 99.3694 47.7697 99.5828C47.2963 99.9834 47.226 100.951 46.612 101.04C45.9656 101.134 45.608 99.923 44.9585 99.9902C43.6777 100.121 42.5168 100.874 41.4344 101.572C41.0979 101.789 40.9946 102.251 40.8646 102.63C40.441 103.87 39.7841 105.097 39.7803 106.407C39.7778 107.3 40.5965 108.007 40.8485 108.863C41.0065 109.4 40.6942 110.065 40.9952 110.538C41.4587 111.265 42.3937 111.566 42.9753 112.203C43.3815 112.648 43.4475 113.372 43.9234 113.741C44.5753 114.246 45.4114 114.471 46.202 114.705M139.55 107.213C139.475 106.942 139.332 106.68 139.326 106.398C139.326 106.308 139.481 106.147 139.531 106.223C139.68 106.464 139.73 106.768 139.736 107.052M46.0173 105.172C46.1535 105.164 46.393 105.016 46.426 105.148C46.4956 105.424 46.5037 105.96 46.2195 105.977M77.9703 104.12C77.6916 104.055 77.1411 104.211 77.1336 103.925C77.1268 103.641 77.6835 103.654 77.9604 103.718M68.8948 62.8789C69.5667 62.4155 70.3169 62.0491 70.9097 61.488C71.9635 60.4895 72.7909 59.274 73.8018 58.2314C74.0972 57.9266 74.4338 57.2715 74.8151 57.4588C75.6015 57.8457 75.8216 58.9032 76.4363 59.5272C76.863 59.9608 77.3557 60.3527 77.9106 60.6015C78.2154 60.7384 78.7093 60.9038 78.9121 60.6382C80.3218 58.7962 80.6266 56.0828 82.4555 54.6551C83.1211 54.135 83.7245 55.8594 84.0045 56.655C84.1102 56.9667 83.3326 57.1596 83.4446 57.4706C83.9298 58.841 84.5208 60.3098 85.6343 61.2435C86.2128 61.7325 87.2953 61.6597 87.9174 61.218C89.4041 60.158 90.4741 58.581 91.5005 57.0669C92.3963 55.7474 92.7944 54.1443 93.628 52.7851C93.7027 52.6632 93.8955 52.9363 93.9453 53.0688C94.7291 55.0009 95.2392 57.0432 96.1163 58.9337C96.4211 59.5863 96.8815 60.1972 97.46 60.6252C97.7337 60.8267 98.1381 60.7234 98.474 60.678C98.8037 60.6345 99.1769 60.5965 99.4133 60.3632C100.203 59.5701 100.869 58.6494 101.454 57.6927C102.474 56.0162 103.164 54.1537 104.203 52.4871C104.471 52.0629 104.825 51.3817 105.317 51.4825C106.076 51.6374 106.654 52.3776 107.009 53.0619C107.762 54.5008 107.818 56.232 108.552 57.6808C109.211 58.9928 110.213 60.1095 111.146 61.2472C111.22 61.3424 111.388 61.3007 111.506 61.2995C112.353 61.2914 113.236 61.4662 114.045 61.218C114.524 61.0706 114.797 60.553 115.139 60.1835C115.544 59.7468 115.967 59.3157 116.265 58.8037C117.715 56.3284 118.94 53.7244 120.377 51.2436C120.489 51.0576 120.688 50.7584 120.887 50.8461C122.15 51.4115 123.276 52.252 124.408 53.0464C124.794 53.317 125.012 53.7966 125.422 54.028C126.548 54.6626 127.668 55.4806 128.95 55.6137C129.553 55.6765 129.995 54.9742 130.424 54.5493C130.517 54.4591 130.53 54.2445 130.424 54.1643C129.236 53.2131 127.824 52.5537 126.679 51.5509C126.069 51.0202 125.864 50.1021 125.223 49.6169C125.03 49.4719 124.825 50.0816 124.601 49.9882C123.693 49.6082 123.083 48.6421 122.144 48.3329C121.342 48.0673 120.421 48.1033 119.606 48.3397C118.959 48.5288 118.343 48.9786 117.97 49.5459C116.408 51.9329 115.376 54.6333 113.895 57.07C113.634 57.4973 113.273 57.9695 112.782 58.0753C112.409 58.1568 112.048 57.796 111.768 57.5322C111.37 57.1577 110.972 56.7278 110.81 56.2078C110.723 55.9341 111.158 55.6803 111.102 55.3991C111.059 55.1944 110.667 55.2461 110.573 55.0601C109.304 52.591 108.297 49.9957 107.052 47.5155C106.959 47.3257 106.773 47.1814 106.573 47.0956C106.381 47.0091 106.144 46.973 105.939 47.0222C105.547 47.1149 105.093 47.1988 104.832 47.5068C103.973 48.517 103.463 49.7767 102.692 50.8536C102.424 51.2355 101.976 51.475 101.715 51.865C100.726 53.3487 99.9359 54.9587 98.9592 56.4516C98.8473 56.6233 98.642 56.9512 98.474 56.8292C97.9763 56.4622 97.6031 55.8949 97.4103 55.3083C96.6638 53.0738 96.4398 50.6843 95.6746 48.4567C95.544 48.0735 95.1707 47.6685 94.7664 47.6436C94.1692 47.6069 93.4911 47.8477 93.093 48.2974C91.8986 49.6585 90.9095 51.2256 90.163 52.8784C90.0013 53.2423 90.6732 53.6554 90.5176 54.023C90.3123 54.5014 89.6156 54.5736 89.2797 54.9711C88.4772 55.9185 88.3279 57.6504 87.1459 58.0174C86.387 58.2519 86.0884 56.7894 85.8334 56.0411C85.7463 55.7953 86.2813 55.6342 86.2377 55.3779C86.0698 54.3602 85.6592 53.3923 85.2424 52.4486C85.1055 52.1406 84.6639 51.9994 84.6017 51.6691C84.5581 51.4314 84.9998 51.2871 84.9749 51.0464C84.9376 50.6644 84.7012 50.3043 84.4337 50.0305C84.0045 49.597 83.5379 48.871 82.9407 48.9798C82.1507 49.1217 81.709 50.0094 81.1927 50.6172C80.7137 51.1783 80.2969 51.8029 79.9678 52.4616C79.37 53.6535 79.2151 55.0812 78.4145 56.1474C78.2154 56.4118 77.821 55.7263 77.7588 55.4009C77.7122 55.1546 78.2198 54.9985 78.1501 54.7577C77.7482 53.3711 77.2419 51.9758 76.4226 50.7876C76.2366 50.5182 75.6606 50.5867 75.4403 50.8293C74.57 51.7916 73.9237 52.9555 73.3906 54.1381C73.3078 54.3216 73.8279 54.474 73.7203 54.6445C73.4397 55.0905 72.8002 55.2 72.4668 55.6081C71.7956 56.4292 71.4503 57.4911 70.7455 58.283C70.1421 58.9611 69.4864 59.7742 68.5975 59.9558C68.055 60.0665 67.4665 59.5042 67.2407 58.999C67.0783 58.6364 67.6258 58.2818 67.6718 57.8874C67.744 57.2641 67.7104 56.6227 67.5891 56.0068C67.5424 55.7686 67.1841 55.6442 67.1841 55.4009C67.1841 55.1577 67.5374 55.0327 67.5891 54.795C67.6805 54.3726 67.7141 53.9142 67.5972 53.498C67.3589 52.6482 66.7244 51.9322 66.5434 51.0675C66.4899 50.8144 67.0398 50.6483 66.949 50.4063C66.6541 49.6225 66.2336 48.7764 65.5188 48.3397C65.0653 48.0635 64.3543 48.2371 63.9437 48.5724C63.1636 49.21 62.605 50.1208 62.2069 51.0458C62.1073 51.2778 62.6492 51.4445 62.6019 51.6927C62.3786 52.8504 61.991 53.9913 61.4386 55.0327C61.3546 55.1913 60.9801 54.958 60.9646 54.7801C60.9428 54.5394 61.2887 54.405 61.3621 54.1748C61.4311 53.9596 61.4417 53.7126 61.3733 53.498C60.8961 51.9951 60.4495 50.466 59.7372 49.0588C59.6545 48.8959 59.4641 49.3761 59.2812 49.3649C59.0411 49.3506 58.8986 49.0383 58.6616 48.9948C58.5403 48.9724 58.4222 49.0949 58.3494 49.1945C58.0825 49.564 57.8156 49.9472 57.6613 50.3758C57.2358 51.5608 57.0778 52.8343 56.6212 54.0075C56.4993 54.3204 56.0439 54.4392 55.9537 54.7627C55.8013 55.3101 55.8038 55.9148 55.9363 56.4678C56.0047 56.7527 56.6735 56.8759 56.5198 57.126C56.1951 57.6547 55.5531 58.074 54.9335 58.1008C54.4788 58.1207 53.9593 57.689 53.8729 57.2423C53.7852 56.7894 54.4707 56.4834 54.5317 56.0261C54.5653 55.7792 54.1217 55.6504 54.1205 55.4009C54.1192 55.1577 54.4744 55.0327 54.5254 54.795C54.6144 54.3795 54.7475 53.8812 54.5242 53.5198C54.1335 52.8871 53.2701 52.665 52.8359 52.061C52.7152 51.893 52.8583 51.526 53.0598 51.4825C53.2968 51.4315 53.4269 51.8539 53.6676 51.8819C53.9569 51.9154 54.5273 51.9428 54.5111 51.6517C54.4651 50.8187 53.9282 50.0822 53.5264 49.3512C53.4287 49.1733 53.239 48.9263 53.043 48.9798C52.429 49.1484 51.9127 49.5739 51.3889 49.9372C51.2191 50.0554 50.992 50.2016 50.9839 50.4087C50.9684 50.8019 51.435 51.1596 51.3267 51.5378C51.1861 52.0311 50.3102 52.1954 50.3277 52.7086C50.3482 53.3114 51.2894 53.5645 51.415 54.1543C51.4741 54.4317 50.8745 53.9459 50.5908 53.9434C50.3009 53.9409 49.8822 53.8843 49.7435 54.1387C49.5874 54.4261 49.764 54.8367 49.9656 55.0936C50.3208 55.5465 51.0804 55.6367 51.3255 56.1568C51.4605 56.4436 51.1084 56.7913 50.8564 56.9835C50.253 57.4438 49.5177 58.4024 48.8453 58.0504C48.0191 57.6174 47.9899 56.3502 47.8785 55.4239C47.8244 54.9729 48.3737 54.6109 48.3774 54.1568C48.3812 53.7126 47.9246 53.3562 47.8997 52.9126C47.886 52.6713 48.2854 52.5319 48.2717 52.2905C48.2468 51.847 47.7902 51.4906 47.7939 51.0464C47.7995 50.3963 48.4745 49.7885 48.2984 49.1627C48.1143 48.5096 47.4182 48.1077 46.8583 47.7233C46.6779 47.5995 46.3911 47.6132 46.202 47.7233C45.779 47.9696 45.3946 48.3161 45.1308 48.7292C44.5168 49.6934 44.5013 51.0918 43.6043 51.7997C43.2142 52.107 42.8976 51.0899 42.4814 50.8193C42.3732 50.749 42.1847 50.7266 42.0945 50.8187C41.4668 51.4613 40.566 52.0436 40.4198 52.9301C40.306 53.6199 41.3019 54.0765 41.4438 54.7608C41.5197 55.1285 40.8565 55.4613 41.0145 55.8015C41.3921 56.6134 42.6792 56.8902 42.8416 57.7711C42.9523 58.3707 41.7107 58.5387 41.631 59.1434C41.5707 59.6 42.0733 60.0908 42.5206 60.2015C43.0351 60.329 43.6092 60.0454 44.0434 59.7406C44.5137 59.4102 44.589 58.1418 45.1097 58.385C45.9414 58.7732 45.8829 60.0566 46.3768 60.8305C46.8795 61.618 47.2913 62.561 48.0869 63.0512C48.4135 63.2522 48.8253 62.7751 49.1015 62.5088C49.825 61.8127 50.462 61.0245 51.0424 60.2053C51.4673 59.6056 51.6726 58.8678 52.1031 58.2725C52.1671 58.1841 52.4017 58.1804 52.4315 58.2855C52.4969 58.5201 52.2032 58.7863 52.3084 59.0059C52.4875 59.381 53.0399 59.4967 53.1942 59.8824C53.267 60.0646 52.9074 60.1729 52.8496 60.3608C52.783 60.576 52.7531 60.828 52.8384 61.0364C53.1351 61.7642 53.3516 62.6195 53.9693 63.106C54.2436 63.3218 54.5789 62.7073 54.9273 62.6805C55.1201 62.6656 55.2657 63.1178 55.4163 62.9953C56.0701 62.4603 56.6362 61.7716 56.9808 60.9996C57.0828 60.7726 56.5192 60.5978 56.5945 60.3601C57.0791 58.8199 57.3503 56.9929 58.5733 55.9397C59.112 55.4756 59.3521 57.1689 59.489 57.8668C59.5394 58.1213 59.0224 58.2768 59.0822 58.5294C59.229 59.1496 59.6526 59.6777 60.0389 60.1847C60.3431 60.5835 60.7101 60.948 61.1332 61.218C61.3136 61.3331 61.5593 61.3206 61.7714 61.2914C62.0899 61.2472 62.4184 61.1701 62.6921 61.0015C62.9222 60.8597 63.2084 60.6637 63.2283 60.3943C63.2606 59.9545 62.7954 59.572 62.8302 59.1315C62.8464 58.925 63.2389 58.9679 63.3534 58.795C63.7957 58.1281 64.2628 57.4407 64.4644 56.6662C64.5272 56.4236 64.0551 56.2725 64.075 56.0224C64.0886 55.8464 64.47 55.6006 64.5359 55.7636C65.2749 57.5925 65.2949 59.7032 66.2585 61.4245C66.725 62.2581 67.7801 62.5922 68.6168 63.0537M69.2525 61.8021C69.1785 61.5303 69.0342 61.2684 69.0298 60.9866C69.028 60.8964 69.1884 60.7353 69.2363 60.8118C69.3887 61.0525 69.4385 61.3561 69.4429 61.6404M71.7352 59.9365C71.525 59.7673 71.2506 59.6566 71.1051 59.4289C71.0143 59.287 70.9228 58.958 71.0877 58.9231C71.5642 58.8236 72.2714 58.7197 72.5333 59.1303M50.1323 56.6575C49.9631 56.4467 49.8524 56.1717 49.6253 56.0255C49.4903 55.9391 49.1358 55.8606 49.1438 56.0205C49.1575 56.2899 49.4306 56.4989 49.6571 56.6445M44.9815 56.8367C44.4895 56.4883 43.9371 56.2134 43.5053 55.7929C43.4127 55.702 43.3853 55.4345 43.5115 55.4041C43.7902 55.3362 44.0683 55.6243 44.3532 55.5869C44.594 55.5558 44.7426 55.2709 44.9784 55.2137C45.0655 55.1931 45.1849 55.2964 45.1849 55.386M61.7969 56.2202C61.5176 56.1549 60.9671 56.311 60.9596 56.0249C60.9521 55.7406 61.5101 55.7537 61.7863 55.8184M57.4424 54.9761C57.1631 54.9108 56.6125 55.0675 56.6051 54.7807C56.5976 54.4964 57.155 54.5095 57.4318 54.5736M43.7573 54.354C43.4767 54.3248 43.1713 54.3845 42.915 54.2663C42.4745 54.0622 41.6266 53.8911 41.7311 53.4171C41.8319 52.9624 42.6842 53.1664 43.1252 53.3163C43.4916 53.4408 43.7187 53.8314 43.9196 54.1618M66.1421 53.7145C66.0681 53.4433 65.9238 53.1814 65.9194 52.8996C65.9182 52.8094 66.0781 52.6482 66.126 52.7248C66.2784 52.9655 66.3281 53.2691 66.3325 53.5534M47.4885 53.7319C47.2098 53.6666 46.6593 53.8227 46.6518 53.5366C46.645 53.2523 47.2017 53.2653 47.4785 53.3294M45.0008 53.7319C44.7215 53.6666 44.171 53.8227 44.1635 53.5366C44.156 53.2523 44.7134 53.2653 44.9902 53.3294M51.8349 53.093C51.7603 52.8212 51.616 52.5593 51.6116 52.2781C51.6098 52.1873 51.7703 52.0262 51.8182 52.1027C51.9706 52.3434 52.0203 52.647 52.0247 52.9313" fill="black"/>
</svg>
