<svg width="698" height="392" viewBox="0 0 698 392" fill="none" xmlns="http://www.w3.org/2000/svg">
<path d="M69.8304 391.328C70.5599 390.909 71.1887 390.208 72.0187 390.073C72.3903 390.012 72.508 390.686 72.854 390.833C73.4515 391.09 74.1111 391.257 74.7612 391.249C75.7735 391.236 76.7548 390.652 77.7596 390.773C78.4564 390.855 78.8809 391.82 79.5827 391.825C80.9531 391.834 82.1974 390.875 83.5663 390.81C83.9686 390.791 84.0904 391.644 84.4892 391.59C89.858 390.861 95.1532 389.651 100.451 388.516C101.681 388.254 102.87 387.825 104.054 387.401C107.932 386.015 111.816 384.639 115.632 383.09C117.769 382.223 119.941 381.375 121.9 380.158C122.96 379.5 123.473 378.127 124.571 377.535C124.9 377.357 125.129 378.457 125.439 378.247C128.988 375.849 131.904 372.594 135.446 370.186C137.61 368.715 140.21 367.998 142.466 366.673C143.953 365.8 145.27 364.664 146.637 363.614C146.963 363.364 147.416 363.169 147.542 362.778C147.635 362.493 146.959 362.167 147.173 361.957C148.07 361.075 149.491 360.863 150.387 359.98C152.354 358.042 153.805 355.636 155.662 353.591C156.926 352.2 158.534 351.14 159.733 349.694C162.753 346.047 165.662 342.293 168.286 338.352C170.516 335.004 172.489 331.478 174.266 327.869C174.406 327.584 173.703 327.273 173.871 327.004C174.248 326.403 175.308 326.402 175.594 325.753C175.83 325.213 174.959 324.586 175.173 324.038C176.042 321.817 177.782 320.014 178.698 317.813C178.852 317.441 178.107 317.087 178.225 316.702C178.805 314.818 180.004 313.173 180.695 311.326C180.929 310.699 181.026 310.004 180.979 309.336C180.951 308.949 180.328 308.642 180.48 308.283C180.902 307.289 182.213 306.789 182.498 305.747C182.849 304.463 182.19 303.09 182.266 301.761C182.357 300.16 182.573 298.551 182.996 297.003C183.183 296.323 184.048 295.882 184.068 295.177C184.115 293.508 183.141 291.915 183.188 290.245C183.209 289.54 184.062 289.097 184.261 288.419C184.533 287.486 184.612 286.491 184.568 285.521C184.551 285.144 184.034 284.872 184.087 284.499C184.142 284.112 184.862 283.991 184.843 283.6C184.46 275.782 183.759 267.979 182.898 260.198C182.841 259.686 182.114 259.386 182.103 258.871C182.096 258.482 182.868 258.364 182.851 257.976C182.722 254.974 182.192 252 181.683 249.038C181.066 245.442 180.283 241.874 179.475 238.315C179.242 237.286 179.014 236.239 178.563 235.286C178.255 234.634 177.438 234.269 177.235 233.576C177.149 233.286 177.738 233.201 177.87 232.929C178.02 232.615 178.099 232.242 178.039 231.9C177.637 229.626 177.141 227.363 176.496 225.145C175.834 222.865 174.776 220.713 174.122 218.43C173.343 215.71 173.009 212.875 172.209 210.161C171.505 207.775 170.273 205.562 169.622 203.162C166.666 192.258 164.328 181.195 161.401 170.284C161.081 169.091 160.154 168.106 159.895 166.898C159.829 166.589 160.561 166.502 160.523 166.188C160.442 165.523 159.771 165.052 159.59 164.407C159.503 164.1 159.827 163.775 159.754 163.463C159.675 163.129 159.249 162.949 159.168 162.615C157.358 155.17 155.937 147.635 154.097 140.198C153.517 137.852 152.454 135.64 151.911 133.285C151.386 131.012 151.402 128.64 150.906 126.361C150.322 123.683 149.122 121.152 148.68 118.448C148.614 118.05 149.511 117.924 149.46 117.525C149.194 115.454 148.056 113.559 147.787 111.488C147.737 111.106 148.39 110.976 148.563 110.631C148.72 110.319 148.784 109.944 148.736 109.598C148.373 106.95 147.934 104.31 147.339 101.706C147.015 100.296 146.202 99.0106 145.986 97.5791C145.939 97.2691 146.693 97.1772 146.611 96.8745C146.426 96.189 145.367 95.8793 145.334 95.1699C145.292 94.2674 146.392 93.5874 146.417 92.6842C146.46 91.0901 146.025 89.4997 145.532 87.9836C145.003 86.352 144.778 84.2994 143.375 83.3124C142.584 82.7568 141.582 84.0837 140.81 84.6639C140.056 85.2294 139.001 85.7758 138.856 86.7058C138.727 87.5319 140.139 88.0146 140.154 88.8509C140.173 89.8572 139.106 90.6238 138.947 91.6179C138.839 92.2972 139.497 92.9537 139.392 93.6334C139.286 94.316 138.569 94.7721 138.358 95.43C138.159 96.0499 138.118 96.7286 138.193 97.375C138.238 97.7657 138.815 98.0621 138.702 98.4387C138.137 100.332 136.827 101.947 136.262 103.84C136.149 104.217 136.726 104.513 136.771 104.904C136.846 105.549 136.81 106.229 136.607 106.846C135.789 109.34 134.444 111.65 133.728 114.174C133.622 114.551 134.163 114.849 134.23 115.234C134.291 115.58 134.204 115.945 134.096 116.278C132.609 120.861 130.508 125.264 129.452 129.964C129.309 130.601 130.631 130.837 130.679 131.489C130.713 131.941 129.872 131.971 129.629 132.353C128.773 133.702 127.913 135.088 127.428 136.609C127.31 136.983 127.891 137.281 127.936 137.671C128.01 138.316 127.997 139.003 127.772 139.613C126.515 143.026 124.685 146.217 123.518 149.662C123.393 150.03 123.947 150.333 124.012 150.715C124.071 151.061 124.019 151.438 123.875 151.757C123.192 153.276 122.08 154.602 121.556 156.183C121.433 156.553 121.988 156.856 122.054 157.239C122.114 157.586 122.056 157.961 121.918 158.283C118.677 165.897 115.044 173.345 111.933 181.013C111.561 181.932 111.492 182.965 111.505 183.957C111.511 184.333 112.059 184.609 111.987 184.979C111.853 185.656 111.118 186.103 110.952 186.774C110.564 188.347 109.921 190.036 110.354 191.598C110.525 192.218 111.384 190.723 112.019 190.622C112.319 190.574 112.408 191.286 112.706 191.223C113.282 191.1 113.88 190.708 114.127 190.172C114.289 189.822 113.531 189.458 113.682 189.103C114.105 188.106 115.256 187.536 115.672 186.536C115.825 186.169 115.056 185.803 115.209 185.436C115.625 184.437 116.775 183.866 117.199 182.87C117.35 182.514 116.693 182.181 116.754 181.8C116.814 181.43 117.341 181.302 117.505 180.965C117.655 180.661 117.71 180.296 117.657 179.961C117.599 179.591 117.081 179.3 117.186 178.94C117.277 178.629 117.881 178.804 118.072 178.542C119.394 176.727 120.712 174.873 121.641 172.827C121.801 172.474 121.211 172.157 121.146 171.774C121.086 171.428 121.122 171.043 121.282 170.732C122.374 168.619 123.846 166.712 124.867 164.565C125.153 163.961 125.203 163.248 125.156 162.582C125.129 162.192 124.519 161.892 124.652 161.524C125.668 158.711 127.456 156.216 128.471 153.402C128.61 153.019 127.847 152.663 127.988 152.279C129.013 149.473 130.803 146.989 131.837 144.187C132.292 142.956 132.386 141.605 132.412 140.294C132.419 139.918 131.859 139.641 131.933 139.272C131.988 138.998 132.593 139.171 132.689 138.908C135.192 132.025 137.655 125.115 139.644 118.067C139.837 117.386 139.144 116.709 139.154 116.002C139.168 115.03 139.387 114.057 139.713 113.141C139.841 112.786 140.415 112.679 140.474 112.307C140.537 111.921 139.888 111.594 140.019 111.227C140.528 109.804 140.767 107.463 142.268 107.291C143.519 107.146 143.475 109.561 143.646 110.808C143.699 111.191 143.04 111.321 142.868 111.667C142.717 111.97 142.575 112.364 142.719 112.67C143.114 113.51 144.189 113.99 144.389 114.896C144.499 115.395 143.449 115.622 143.482 116.13C143.524 116.785 144.431 117.13 144.573 117.771C144.716 118.414 144.515 119.11 144.279 119.725C144.14 120.087 143.4 120.207 143.492 120.584C144.121 123.161 145.617 125.466 146.305 128.028C146.935 130.374 146.911 132.854 147.426 135.227C148.92 142.099 150.468 148.964 152.326 155.746C152.844 157.636 154.097 159.282 154.541 161.189C154.626 161.554 153.954 161.688 153.79 162.025C153.641 162.329 153.541 162.705 153.639 163.03C153.793 163.54 154.35 163.867 154.501 164.379C155.13 166.508 155.35 168.742 155.957 170.877C157.276 175.52 158.966 180.054 160.272 184.701C161.067 187.529 161.452 190.463 162.256 193.29C162.71 194.886 163.581 196.342 164.035 197.938C165.508 203.125 166.587 208.417 168.027 213.614C168.263 214.463 168.839 215.196 169.056 216.05C169.463 217.652 169.474 219.34 169.89 220.94C171.339 226.516 173.322 231.949 174.646 237.555C176.212 244.186 177.44 250.897 178.551 257.619C179.228 261.717 179.331 265.897 180.005 269.996C180.09 270.51 180.796 270.818 180.808 271.339C180.817 271.713 180.223 271.838 180.058 272.172C179.901 272.487 179.848 272.861 179.88 273.209C180.057 275.168 180.725 277.088 180.683 279.055C180.668 279.766 179.706 280.244 179.715 280.956C179.762 284.271 181.245 287.548 180.848 290.841C180.117 296.924 177.588 302.664 176.381 308.671C176.242 309.36 177.064 310.054 176.854 310.724C175.865 313.873 173.966 316.676 172.888 319.795C172.76 320.164 173.467 320.504 173.343 320.875C173.179 321.37 172.428 321.462 172.182 321.921C170.301 325.429 168.889 329.175 167.012 332.685C166.402 333.826 165.605 334.868 164.744 335.835C164.272 336.366 163.46 336.551 163.05 337.132C161.769 338.945 160.994 341.079 159.744 342.913C158.293 345.038 156.67 347.045 154.97 348.975C152.691 351.564 150.356 354.118 147.821 356.456C144.94 359.113 141.952 361.678 138.751 363.938C137.096 365.106 135.056 365.624 133.328 366.683C131.661 367.707 130.114 368.924 128.602 370.166C128.29 370.423 128.22 370.91 127.895 371.149C125.533 372.883 123.156 374.618 120.595 376.042C117.574 377.722 114.411 379.15 111.201 380.435C109.431 381.143 107.458 381.261 105.7 382.003C104.328 382.581 103.295 383.826 101.904 384.357C101.606 384.47 101.51 383.708 101.192 383.721C99.5332 383.782 97.9015 384.194 96.2833 384.563C93.9678 385.091 91.6619 385.679 89.4028 386.408C88.898 386.571 88.5668 387.211 88.0367 387.224C87.6454 387.235 87.529 386.476 87.1373 386.469C84.8561 386.434 82.6021 387.033 80.3214 387.104C79.1125 387.142 77.9081 386.658 76.7074 386.797C76.1521 386.861 75.8434 387.695 75.2848 387.685C74.7562 387.675 74.5142 386.895 74.0064 386.749C73.5153 386.606 72.9705 387.003 72.476 386.871C72.1144 386.774 72.0121 386.173 71.6412 386.119C71.2685 386.065 70.9958 386.595 70.62 386.6C69.628 386.614 68.6181 386.482 67.6759 386.173C65.5073 385.461 63.5433 384.187 61.3498 383.557C60.9593 383.446 60.599 384.208 60.2311 384.037C55.3816 381.786 50.5232 379.458 46.0883 376.472C44.1841 375.189 43.143 372.931 41.4437 371.387C40.549 370.575 39.2338 370.31 38.3727 369.462C37.1517 368.262 36.4018 366.656 35.3007 365.345C35.0403 365.037 34.5574 364.964 34.317 364.639C33.5172 363.559 33.102 362.209 32.2235 361.192C31.2623 360.078 29.8271 359.439 28.867 358.324C28.7202 358.154 29.4597 358.03 29.3383 357.841C28.4169 356.397 26.946 355.355 26.0419 353.901C25.2201 352.579 24.9504 350.974 24.2172 349.601C23.4945 348.249 22.6281 346.971 21.6905 345.758C21.4377 345.432 20.93 345.368 20.686 345.035C20.3022 344.51 20.0775 343.881 19.866 343.268C19.4391 342.034 19.2726 340.715 18.7775 339.507C18.5472 338.947 17.9594 338.588 17.7176 338.033C16.2899 334.758 14.928 331.448 13.7899 328.061C13.6132 327.534 14.005 326.912 13.8057 326.392C13.549 325.723 12.7017 325.372 12.4974 324.684C12.4116 324.394 13.1942 324.289 13.0961 324.002C11.7644 320.11 9.63457 316.517 8.36348 312.603C8.2445 312.236 9.11766 312.098 9.10387 311.712C9.08561 311.18 8.40931 310.858 8.28467 310.34C7.29326 306.2 6.76326 301.959 5.7739 297.819C5.65259 297.312 4.98388 296.997 4.9718 296.476C4.96116 296.088 5.72516 295.97 5.71752 295.581C5.64782 291.971 4.81293 288.402 4.74623 284.791C4.73902 284.4 5.46325 284.281 5.50248 283.891C5.57288 283.204 4.99008 282.559 5.04333 281.87C5.21693 279.612 5.19638 277.214 6.17257 275.171C7.95758 271.433 10.6011 268.153 13.1532 264.891C14.613 263.026 16.3336 261.358 18.1613 259.851C20.1104 258.244 22.5977 257.332 24.4311 255.594C24.9086 255.14 25.0359 254.212 24.7121 253.639C24.4953 253.254 23.8172 253.875 23.3921 253.754C23.0201 253.65 22.8873 252.993 22.5011 253.014C21.5959 253.067 20.7426 253.519 19.9464 253.953C17.6338 255.212 15.2517 256.416 13.2079 258.076C11.424 259.525 10.0066 261.386 8.57786 263.186C7.77567 264.198 6.98147 265.266 6.54055 266.478C6.40749 266.844 7.09892 267.182 6.9891 267.555C6.89872 267.864 6.31667 267.705 6.10905 267.952C4.84632 269.446 3.71571 271.052 2.64928 272.692C2.46274 272.98 2.43391 273.345 2.37914 273.683C1.8657 276.851 1.21614 280.004 0.945816 283.201C0.887802 283.889 1.46583 284.534 1.40496 285.222C1.37212 285.595 0.747457 285.719 0.691757 286.089C0.635105 286.458 1.15465 286.754 1.11719 287.125C1.08626 287.428 0.476612 287.51 0.516944 287.811C0.60614 288.474 1.37929 288.922 1.44952 289.588C1.50438 290.109 0.830482 290.521 0.856848 291.044C0.940262 292.708 1.73234 294.292 1.76874 295.958C1.77709 296.361 0.932832 296.481 0.984384 296.883C1.54153 301.189 2.41228 305.464 3.54184 309.657C4.48172 313.143 5.78875 316.526 7.17751 319.859C7.4551 320.525 8.30433 320.877 8.50678 321.57C8.59479 321.871 7.83453 321.964 7.88133 322.274C8.07386 323.55 8.54812 324.793 9.16545 325.926C9.56623 326.661 10.6382 326.963 10.8737 327.766C10.9959 328.184 9.95619 328.288 9.98528 328.722C10.0665 329.929 10.6386 331.065 11.1704 332.152C11.4877 332.801 12.2881 333.172 12.4997 333.862C12.5877 334.151 11.995 334.257 11.901 334.544C11.8453 334.713 12.0299 334.879 12.1164 335.035C13.2031 337.004 14.6143 338.817 15.4194 340.916C15.5536 341.267 14.6175 341.421 14.7058 341.785C15.0435 343.177 15.8285 344.433 16.5711 345.66C17.4089 347.044 18.6463 348.167 19.4265 349.585C19.9825 350.595 19.9344 351.878 20.5361 352.863C22.6305 356.29 24.9944 359.552 27.4565 362.725C28.2968 363.808 29.5509 364.517 30.4099 365.586C31.0835 366.424 31.2946 367.583 32.006 368.389C34.8558 371.627 37.7272 374.889 41.0356 377.657C43.9183 380.069 47.1423 382.084 50.4686 383.835C54.5975 386.006 58.9341 387.789 63.3202 389.378C63.7027 389.517 64.0516 388.779 64.4411 388.896L69.8304 391.328ZM61.7787 387.182C61.3661 387.017 60.487 387.129 60.5416 386.689C60.5966 386.253 61.4473 386.401 61.8554 386.563L61.7787 387.182ZM449.965 347.162C452.69 346.544 455.461 346.107 458.139 345.309C459.456 344.917 460.551 343.896 461.895 343.61C462.263 343.531 462.39 344.325 462.765 344.322C463.087 344.32 463.112 343.739 463.401 343.599C465.581 342.539 467.99 341.96 470.096 340.761C470.539 340.509 470.701 339.898 470.782 339.395C470.86 338.903 470.746 338.376 470.551 337.917C470.387 337.533 470.102 337.176 469.746 336.957C469.449 336.774 469.051 336.694 468.713 336.783C464.19 337.978 459.781 339.572 455.263 340.784C453.038 341.381 450.796 342.001 448.502 342.203C448.114 342.237 447.917 341.226 447.603 341.456C447.181 341.766 447.915 343.091 447.399 343.011C443.244 342.371 439.425 340.192 435.268 339.556C434.437 339.43 433.919 340.701 433.087 340.824C432.766 340.871 432.95 340.128 432.688 339.939C430.953 338.676 428.958 337.801 427.212 336.552C426.185 335.817 425.44 334.729 424.4 334.012C423.949 333.701 423.259 333.869 422.829 333.528C422.267 333.082 422.179 332.173 421.583 331.775C421.33 331.607 421.002 332.321 420.754 332.146C419.107 330.985 417.635 329.568 416.304 328.055C416.162 327.894 416.904 327.762 416.759 327.604C416.057 326.839 414.889 326.592 414.226 325.791C413.636 325.081 413.693 323.984 413.144 323.241C412.583 322.482 411.629 322.098 410.987 321.406C410.278 320.642 409.677 319.778 409.116 318.9C407.892 316.987 406.982 314.872 405.636 313.044C404.858 311.985 403.494 311.424 402.8 310.31C401.956 308.958 401.812 307.27 401.137 305.826C400.828 305.167 400.199 304.699 399.871 304.051C398.309 300.968 396.798 297.852 395.478 294.658C395.016 293.54 395.071 292.24 394.541 291.152C393.7 289.425 392.203 288.063 391.412 286.311C391.283 286.025 392.11 285.912 392.038 285.607C391.677 284.08 391.015 282.621 390.222 281.268C390.117 281.087 389.763 281.756 389.672 281.569C389.15 280.496 389.196 279.208 388.691 278.128C388.611 277.956 388.268 278.599 388.202 278.422C387.731 277.167 387.878 275.719 387.329 274.497C387 273.769 385.981 273.507 385.661 272.775C385.54 272.498 386.165 272.402 386.294 272.13C386.44 271.824 386.601 271.428 386.445 271.128C385.65 269.59 384.21 268.419 383.546 266.82C383.398 266.464 384.368 266.307 384.287 265.929C383.084 260.349 380.896 255.005 379.795 249.403C378.198 241.28 377.113 233.057 376.207 224.829C376.163 224.429 377.018 224.308 376.987 223.906C376.676 219.911 375.518 216.013 375.211 212.017C375.18 211.611 375.998 211.495 376.004 211.087C376.039 208.72 375.672 206.358 375.331 204.014C375.239 203.387 374.714 202.85 374.711 202.215C374.706 200.906 374.94 199.588 375.305 198.331C375.414 197.958 376.119 197.86 376.091 197.474C375.907 194.793 374.88 192.215 374.7 189.535C374.672 189.127 375.51 189.012 375.495 188.603C375.32 183.672 374.332 178.792 374.141 173.861C374.126 173.471 374.828 173.349 374.892 172.964C374.955 172.595 374.402 172.294 374.466 171.925C374.529 171.557 375.053 171.427 375.217 171.091C375.367 170.787 375.484 170.404 375.368 170.085C375.087 169.311 373.967 168.786 374.088 167.971C374.21 167.144 375.81 167.096 375.931 166.267C376.128 164.912 374.981 163.653 374.916 162.284C374.896 161.881 375.715 161.763 375.696 161.361C375.63 159.992 374.746 158.746 374.681 157.377C374.662 156.99 375.289 156.863 375.464 156.516C375.622 156.204 375.684 155.828 375.641 155.481C375.436 153.828 374.775 152.233 374.729 150.568C374.718 150.178 375.416 150.056 375.48 149.671C375.542 149.302 374.977 148.999 375.054 148.632C375.194 147.96 376.021 147.526 376.073 146.84C376.415 142.311 375.999 137.751 376.221 133.213C376.284 131.923 376.525 130.632 376.925 129.404C377.042 129.046 377.678 128.976 377.724 128.602C377.881 127.29 377.401 125.963 377.499 124.645C377.667 122.404 378.004 120.169 378.517 117.982C378.659 117.378 379.442 116.988 379.439 116.368C379.437 115.699 378.521 115.261 378.507 114.593C378.488 113.767 379.276 113.085 379.349 112.262C379.41 111.574 378.82 110.928 378.891 110.241C378.928 109.869 379.477 109.743 379.642 109.406C379.791 109.102 379.846 108.737 379.793 108.402C379.735 108.032 379.273 107.754 379.321 107.383C379.369 107.012 379.988 106.887 380.035 106.516C380.083 106.146 379.621 105.868 379.563 105.497C379.51 105.163 379.565 104.797 379.714 104.493C379.879 104.157 380.402 104.027 380.465 103.659C380.53 103.29 379.983 102.99 380.039 102.62C380.095 102.25 380.697 102.124 380.752 101.753C380.808 101.383 380.262 101.083 380.326 100.715C380.39 100.347 380.913 100.217 381.078 99.8803C381.227 99.5764 381.291 99.209 381.229 98.8763C381.159 98.5053 380.724 98.2507 380.703 97.8744C380.648 96.9055 380.757 95.9166 381.008 94.9792C382.084 90.9706 383.318 87.0025 384.673 83.0798C385.025 82.0622 385.528 81.0916 386.116 80.1894C386.352 79.8294 386.922 79.7457 387.101 79.3539C387.376 78.7552 387.438 78.0573 387.397 77.3993C387.374 77.0237 386.75 76.7153 386.917 76.378C387.28 75.6407 388.353 75.4352 388.726 74.7032C388.896 74.3693 388.176 74.0174 388.299 73.6627C388.466 73.1794 389.217 73.0967 389.442 72.6365C391.852 67.6921 393.724 62.4971 396.149 57.5608C396.381 57.0901 397.204 57.0475 397.35 56.5444C397.54 55.8882 396.849 55.1781 397.03 54.5196C397.168 54.0162 397.957 53.9373 398.194 53.4722C400.101 49.7088 401.567 45.7346 403.41 41.939C403.733 41.2717 404.482 40.8274 404.678 40.1125C404.783 39.726 404.044 39.3711 404.21 39.0074C405.076 37.1075 406.712 35.6268 407.588 33.7314C407.75 33.3807 407.017 33.0267 407.143 32.6618C407.317 32.161 408.008 32.0226 408.326 31.599C409.097 30.5704 409.989 29.5611 410.386 28.3378C410.601 27.6776 409.874 26.9523 410.054 26.2809C410.188 25.778 410.969 25.695 411.215 25.2361C413.548 20.8753 416.004 16.5428 417.741 11.912C418.544 9.77276 418.805 7.41749 418.756 5.13326C418.734 4.09438 418.16 3.09686 417.535 2.26615C416.94 1.476 416.19 0.559355 415.21 0.420352C413.924 0.23827 412.656 0.949254 411.439 1.4041C410.986 1.57351 410.588 1.90031 410.273 2.26683C408.599 4.21929 406.915 6.17998 405.501 8.32845C402.892 12.2949 400.385 16.346 398.226 20.5752C398.045 20.9289 398.869 21.32 398.689 21.6738C397.871 23.2778 396.275 24.3982 395.459 26.0036C395.277 26.3601 396.066 26.7332 395.927 27.1088C394.666 30.5215 392.771 33.6691 391.382 37.0313C389.874 40.6825 388.373 44.3513 387.241 48.136C387.123 48.5256 387.851 48.871 387.722 49.2569C387.197 50.8378 385.981 52.1219 385.398 53.6824C385.052 54.6103 384.971 55.6327 384.971 56.6235C384.97 56.9303 385.551 57.1737 385.397 57.4399C385.075 57.9963 384.163 58.0215 383.839 58.5767C383.685 58.8399 384.211 59.0888 384.256 59.3906C384.305 59.7244 384.24 60.0829 384.106 60.3929C383.831 61.0208 383.159 61.4797 383.049 62.1559C382.939 62.8349 383.739 63.5293 383.493 64.1713C383.199 64.9414 381.954 65.05 381.647 65.8153C381.385 66.4637 382.159 67.2027 382 67.8841C381.115 71.6662 379.41 75.2283 378.558 79.0183C378.404 79.7053 379.205 80.392 379.035 81.0757C378.387 83.6961 377.244 86.1738 376.177 88.6531C374.892 91.6365 373.073 94.3883 371.987 97.4494C371.754 98.105 372.5 98.836 372.322 99.5098C372.192 100.008 371.406 100.085 371.173 100.545C369.742 103.361 368.812 106.412 367.385 109.229C367.178 109.635 366.312 109.644 366.331 110.099C366.359 110.736 367.332 111.005 367.488 111.624C367.55 111.867 366.904 111.636 366.772 111.849C364.903 114.888 362.914 117.901 361.587 121.213C361.209 122.156 362.082 123.275 361.804 124.252C361.709 124.587 361.063 123.637 360.826 123.891C359.85 124.933 359.235 126.281 358.673 127.595C358.409 128.211 358.341 128.915 358.388 129.584C358.414 129.971 359.043 130.281 358.886 130.635C357.545 133.679 355.805 136.538 354.071 139.376C353.799 139.821 353.073 139.928 352.908 140.423C352.785 140.794 353.506 141.14 353.364 141.505C352.389 144.009 350.664 146.175 349.694 148.681C349.55 149.054 350.311 149.414 350.162 149.785C348.503 153.898 346.225 157.735 344.412 161.782C342.963 165.017 341.482 168.253 340.379 171.622C340.256 171.993 340.958 172.331 340.833 172.702C340.669 173.198 339.938 173.302 339.671 173.75C338.334 175.989 336.956 178.243 336.064 180.694C335.827 181.346 336.576 182.08 336.396 182.751C336.262 183.255 335.47 183.333 335.233 183.799C332.862 188.473 330.928 193.359 328.624 198.066C328.301 198.726 327.557 199.164 327.366 199.872C327.261 200.26 327.968 200.601 327.836 200.981C325.632 207.309 323.057 213.504 320.468 219.684C319.722 221.463 319.714 225.285 317.838 224.838C315.843 224.362 316.822 220.837 316.71 218.789C316.689 218.4 317.405 218.278 317.461 217.892C317.515 217.521 317.048 217.243 316.99 216.873C316.937 216.538 316.984 216.169 317.141 215.869C317.317 215.535 317.808 215.42 317.939 215.066C318.277 214.156 318.582 213.176 318.499 212.209C318.38 210.81 317.455 209.559 317.348 208.161C317.318 207.775 317.953 207.648 318.126 207.302C318.277 206.999 318.338 206.63 318.277 206.298C318.209 205.928 317.828 205.667 317.76 205.298C317.699 204.965 317.758 204.596 317.911 204.294C318.086 203.944 318.7 203.819 318.702 203.427C318.716 201.452 317.947 199.522 317.961 197.546C317.964 197.156 318.574 197.03 318.751 196.682C318.911 196.369 318.938 195.995 318.931 195.645C318.873 192.741 318.318 189.836 318.555 186.943C318.662 185.615 319.743 184.514 319.947 183.198C320.053 182.518 319.366 181.88 319.443 181.196C319.522 180.502 320.367 180.023 320.386 179.325C320.437 177.35 319.641 175.42 319.645 173.444C319.646 173.053 320.342 172.932 320.398 172.545C320.453 172.175 319.865 171.896 319.926 171.526C320.037 170.857 320.758 170.39 320.867 169.72C320.975 169.045 320.442 168.372 320.546 167.697C320.603 167.324 321.159 167.208 321.306 166.862C321.563 166.264 321.73 165.605 321.722 164.955C321.714 164.264 321.194 163.62 321.264 162.934C321.302 162.561 321.851 162.435 322.015 162.099C322.164 161.795 322.229 161.428 322.167 161.095C322.097 160.724 321.686 160.467 321.641 160.093C321.562 159.447 321.606 158.768 321.805 158.148C322.015 157.49 322.733 157.034 322.839 156.351C322.944 155.671 322.268 155.012 322.394 154.336C322.578 153.343 323.547 152.608 323.718 151.613C323.889 150.621 323.259 149.611 323.379 148.612C323.425 148.238 324.021 148.154 324.177 147.81C324.446 147.215 324.51 146.546 324.607 145.901C324.704 145.256 324.816 144.6 324.759 143.95C324.699 143.266 324.167 142.632 324.26 141.952C324.353 141.27 325.148 140.833 325.279 140.157C325.351 139.79 324.865 139.508 324.807 139.138C324.754 138.804 324.823 138.444 324.958 138.134C325.233 137.506 325.912 137.048 326.015 136.371C326.121 135.675 325.328 134.983 325.54 134.312C326.535 131.171 328.557 128.415 329.531 125.267C329.835 124.285 328.974 123.17 329.29 122.192C330.207 119.349 332.112 116.904 333.136 114.098C333.276 113.716 332.532 113.365 332.652 112.976C334.474 107.062 337.036 101.392 338.868 95.4805C338.984 95.1063 338.352 94.785 338.412 94.3985C338.469 94.0281 338.998 93.9004 339.163 93.5638C339.312 93.2599 339.37 92.8936 339.314 92.5598C339.25 92.175 338.697 91.8725 338.815 91.5006C339.309 89.9559 340.719 88.7614 341.037 87.1708C341.17 86.5089 340.123 86.0793 340.037 85.4097C339.921 84.5105 340.704 83.6006 340.466 82.726C340.368 82.3643 339.759 83.3199 339.423 83.1514C338.751 82.8143 338.684 81.5202 337.934 81.4558C337.131 81.3875 336.512 82.2655 335.963 82.8551C335.121 83.7599 334.281 84.7332 333.821 85.8797C333.67 86.2554 334.416 86.6084 334.3 86.9972C333.638 89.2102 332.184 91.1423 331.58 93.3719C331.4 94.0356 332.183 94.7155 332.026 95.3856C331.908 95.8929 331.146 95.9926 330.864 96.4313C330.003 97.7717 329.087 99.132 328.638 100.66C328.438 101.342 329.186 102.075 329.004 102.762C327.582 108.099 325.46 113.227 323.879 118.52C323.693 119.142 323.641 119.816 323.715 120.462C323.76 120.854 324.333 121.147 324.227 121.527C323.609 123.728 322.258 125.678 321.639 127.879C321.533 128.255 322.074 128.553 322.14 128.939C322.2 129.283 322.174 129.674 322.001 129.978C320.978 131.795 319.482 133.338 318.598 135.226C318.434 135.575 319.095 135.912 319.042 136.294C318.991 136.665 318.378 136.791 318.328 137.161C318.275 137.546 318.911 137.871 318.778 138.236C318.127 140.025 316.856 141.533 316.098 143.279C315.014 145.78 313.932 148.307 313.262 150.95C313.089 151.638 313.895 152.392 313.623 153.047C311.813 157.398 308.982 161.274 307.16 165.622C306.891 166.262 307.583 166.989 307.492 167.678C307.444 168.049 306.835 168.175 306.779 168.545C306.722 168.915 307.321 169.229 307.204 169.586C307.101 169.898 306.525 169.746 306.304 169.989C305.724 170.629 305.267 171.383 304.876 172.153C304.009 173.864 303.579 175.802 302.539 177.414C302.013 178.227 300.803 178.435 300.294 179.257C300.097 179.575 300.705 179.906 300.765 180.275C300.82 180.618 300.82 181.023 300.622 181.31C299.935 182.317 298.822 183 298.19 184.043C297.234 185.619 296.823 187.479 295.91 189.079C295.548 189.715 294.993 190.242 294.407 190.679C293.698 191.211 292.713 191.337 292.074 191.95C291.241 192.746 291.027 194.094 290.112 194.792C289.818 195.016 289.38 193.767 289.241 194.11C288.984 194.748 289.654 195.469 289.562 196.151C289.512 196.523 288.84 196.646 288.848 197.022C288.855 197.27 289.356 197.222 289.586 197.128C290.185 196.886 290.572 196.189 291.205 196.066C291.637 195.982 292.273 196.163 292.422 196.576C292.551 196.931 291.846 197.102 291.706 197.453C291.657 197.577 291.813 197.794 291.945 197.776C292.51 197.695 293.091 197.523 293.556 197.191C295.219 196.003 296.807 194.698 298.263 193.265C299.721 191.829 301.188 190.349 302.268 188.611C302.509 188.225 301.787 187.688 301.985 187.279C303.085 185.004 304.787 183.064 306.02 180.857C309.214 175.138 310.811 168.32 315.26 163.51C316.73 161.92 316.102 167.789 316.099 169.956C316.098 171.568 315.705 173.171 315.251 174.718C315.059 175.376 314.231 175.793 314.185 176.477C313.71 183.571 314.116 190.704 313.706 197.802C313.684 198.196 313.047 198.302 312.904 198.669C312.66 199.293 312.532 199.987 312.591 200.654C312.735 202.315 313.472 203.903 313.506 205.569C313.515 205.977 312.735 206.093 312.71 206.499C312.522 209.724 313.064 212.963 312.886 216.187C312.865 216.58 312.194 216.702 312.128 217.088C312.065 217.457 312.618 217.758 312.555 218.127C312.49 218.513 311.816 218.635 311.798 219.027C311.665 221.937 312.261 224.852 312.116 227.763C312.095 228.173 311.345 228.288 311.313 228.697C310.986 232.867 311.375 237.071 311.061 241.242C311.031 241.633 310.359 241.754 310.301 242.143C310.246 242.513 310.715 242.792 310.773 243.162C310.826 243.496 310.771 243.862 310.622 244.166C310.457 244.503 309.934 244.631 309.871 245.001C309.807 245.369 310.361 245.671 310.297 246.039C310.234 246.408 309.71 246.537 309.546 246.874C309.397 247.178 309.332 247.545 309.394 247.878C309.463 248.248 309.845 248.508 309.92 248.877C310.022 249.377 309.59 250.01 309.908 250.41C310.674 251.372 311.754 252.101 312.881 252.594C313.19 252.729 313.562 252.365 313.76 252.091C314.769 250.699 315.655 249.212 316.44 247.681C317.762 245.102 319.17 242.534 320.071 239.778C320.292 239.103 319.517 238.361 319.708 237.677C320.326 235.452 321.832 233.534 322.427 231.302C322.608 230.624 321.714 229.909 321.954 229.249C325.004 220.881 329.024 212.892 332.171 204.559C332.313 204.182 331.54 203.818 331.697 203.447C332.119 202.453 333.342 201.925 333.715 200.91C333.955 200.26 333.202 199.526 333.387 198.858C333.529 198.342 334.265 198.215 334.578 197.782C335.075 197.095 335.449 196.323 335.787 195.544C337.051 192.634 338 189.586 339.381 186.73C340.227 184.979 341.739 183.578 342.446 181.767C342.698 181.121 341.861 180.359 342.117 179.714C342.42 178.95 343.56 178.775 343.926 178.04C344.098 177.694 343.334 177.328 343.482 176.971C344.184 175.278 345.519 173.912 346.323 172.266C347.726 169.392 349.126 166.491 350.086 163.441C350.295 162.777 349.572 162.053 349.751 161.38C349.884 160.877 350.628 160.772 350.912 160.334C352.172 158.395 353.455 156.441 354.345 154.307C354.497 153.94 353.745 153.581 353.883 153.208C354.585 151.318 355.914 149.715 356.733 147.871C358.205 144.552 359.655 141.208 360.748 137.744C360.868 137.361 360.123 137.006 360.276 136.635C360.69 135.634 361.85 135.068 362.267 134.068C362.42 133.701 361.63 133.327 361.804 132.969C364.046 128.355 367.086 124.158 369.326 119.543C369.501 119.183 368.723 118.815 368.858 118.438C369.303 117.192 370.572 116.326 370.93 115.053C371.06 114.591 369.988 114.293 370.15 113.841C370.364 113.244 371.41 113.335 371.737 112.792C372.751 111.111 372.867 108.945 374.044 107.375C374.346 106.973 374.88 108.155 374.841 108.656C374.788 109.345 373.964 109.779 373.807 110.452C373.223 112.954 372.994 115.524 372.645 118.068C372.557 118.714 372.422 119.371 372.493 120.019C372.535 120.393 373.021 120.666 372.975 121.04C372.93 121.411 372.309 121.536 372.262 121.907C372.213 122.278 372.675 122.556 372.733 122.926C372.786 123.26 372.731 123.626 372.582 123.93C372.417 124.267 371.87 124.393 371.831 124.765C371.757 125.449 372.384 126.101 372.275 126.78C372.164 127.476 371.253 127.904 371.215 128.608C371.094 130.891 371.861 133.155 371.816 135.44C371.808 135.832 371.126 135.954 371.061 136.34C370.997 136.708 371.543 137.008 371.487 137.378C371.431 137.749 370.829 137.874 370.774 138.245C370.718 138.615 371.256 138.913 371.2 139.283C371.144 139.654 370.542 139.779 370.487 140.15C370.431 140.521 370.976 140.82 370.913 141.188C370.847 141.575 370.169 141.697 370.154 142.089C369.84 150.49 370.263 158.906 369.937 167.306C369.922 167.715 369.148 167.83 369.139 168.239C369.091 170.52 369.856 172.774 369.77 175.053C369.744 175.76 368.788 176.241 368.815 176.947C368.856 178.029 369.859 178.909 369.96 179.986C369.996 180.37 369.356 180.498 369.183 180.842C369.025 181.156 368.984 181.529 369.006 181.879C369.338 187.111 370.103 192.317 370.244 197.557C370.256 197.964 369.441 198.079 369.454 198.487C369.554 201.785 370.467 205.024 370.571 208.323C370.584 208.725 369.756 208.844 369.793 209.244C369.894 210.323 370.839 211.205 370.939 212.283C370.974 212.671 370.291 212.78 370.152 213.142C369.912 213.765 369.785 214.456 369.844 215.121C369.904 215.795 370.415 216.371 370.498 217.042C371.382 224.283 371.594 231.605 372.736 238.808C374.159 247.774 375.767 256.742 378.184 265.493C379.971 271.959 382.701 278.134 385.306 284.316C386.485 287.111 388.204 289.65 389.521 292.383C390.453 294.315 391.446 296.242 392.05 298.3C392.134 298.588 391.332 298.702 391.455 298.977C391.784 299.712 392.768 299.996 393.131 300.714C393.72 301.879 393.724 303.269 394.234 304.471C394.647 305.446 395.436 306.227 395.876 307.191C396.592 308.753 396.878 310.503 397.689 312.019C397.795 312.218 398.161 311.528 398.294 311.71C401.06 315.501 403.2 319.73 406.039 323.465C408.506 326.712 411.388 329.622 414.171 332.603C414.949 333.436 415.799 334.211 416.711 334.897C417.74 335.671 418.832 336.368 419.973 336.965C420.458 337.219 421.159 337.047 421.552 337.432C422.375 338.239 422.544 339.593 423.42 340.342C423.705 340.584 424.104 339.802 424.46 339.918C424.77 340.018 424.617 340.593 424.861 340.81C425.568 341.441 426.391 341.944 427.23 342.385C428.941 343.282 430.603 344.418 432.493 344.815L449.965 347.162ZM275.795 242.015C278.087 241.202 280.332 240.24 282.672 239.575C283.204 239.424 283.816 239.8 284.327 239.593C285.146 239.26 285.822 238.633 286.47 238.034C287.316 237.253 288.118 236.41 288.785 235.472C289.674 234.227 290.633 232.969 291.115 231.517C291.333 230.857 290.655 230.142 290.78 229.459C290.903 228.779 291.638 228.33 291.814 227.662C292.146 226.405 292.322 225.088 292.279 223.787C292.256 223.112 291.742 222.534 291.621 221.87C291.269 219.949 291.388 217.943 290.866 216.062C289.99 212.908 288.78 209.846 287.45 206.856C286.574 204.886 285.134 203.2 284.267 201.227C284.05 200.732 284.536 200.076 284.268 199.608C283.612 198.461 282.328 197.767 281.644 196.637C280.297 194.403 279.024 192.081 278.225 189.597C277.964 188.784 277.933 187.635 278.563 187.057C280.036 185.707 282.217 185.413 283.923 184.373C284.247 184.175 284.656 183.774 284.538 183.413C284.233 182.486 283.608 181.625 282.829 181.037C282.473 180.769 281.921 180.987 281.494 181.116C279.868 181.603 278.395 182.649 276.712 182.871C276.088 182.953 275.352 182.521 275.055 181.965C273.963 179.929 273.896 177.431 272.727 175.438C272.174 174.493 270.764 174.346 270.085 173.487C269.906 173.26 270.577 173.137 270.703 172.876C270.855 172.562 270.934 172.188 270.878 171.845C270.673 170.583 270.366 169.331 269.931 168.13C268.168 163.27 266.312 158.439 264.289 153.681C264.011 153.027 263.325 152.601 263.052 151.945C262.59 150.829 262.58 149.559 262.118 148.443C261.51 146.974 260.725 145.576 259.863 144.24C258.95 142.824 258.084 141.314 256.808 140.213C256.31 139.783 255.514 139.883 254.857 139.92C254.572 139.936 254.236 140.102 254.126 140.365C253.024 142.993 251.964 145.661 251.291 148.43C251.123 149.121 251.856 149.849 251.655 150.531C251.184 152.133 249.876 153.396 249.361 154.985C249.241 155.358 249.848 155.654 249.869 156.046C249.921 157.017 249.719 157.987 249.574 158.95C249.477 159.594 249.404 160.261 249.143 160.858C248.994 161.204 248.449 161.322 248.383 161.693C248.317 162.061 248.865 162.362 248.809 162.731C248.754 163.101 248.152 163.227 248.096 163.598C248.041 163.968 248.587 164.268 248.522 164.636C248.459 165.005 247.936 165.135 247.771 165.471C247.622 165.775 247.558 166.142 247.62 166.475C247.69 166.846 248.1 167.103 248.146 167.477C248.225 168.123 248.18 168.802 247.981 169.422C247.77 170.08 247.093 170.543 246.948 171.219C246.869 171.585 247.43 171.888 247.374 172.257C247.318 172.627 246.717 172.753 246.661 173.124C246.605 173.494 247.151 173.794 247.087 174.163C247.023 174.531 246.502 174.66 246.336 174.995C246.182 175.308 246.102 175.685 246.163 176.029C246.399 177.376 247.411 178.641 247.212 179.994C247.089 180.824 245.592 180.868 245.332 181.665C245.019 182.624 245.719 183.663 245.684 184.671C245.65 185.642 245.462 186.621 245.124 187.531C244.993 187.885 244.37 187.959 244.326 188.334C244.209 189.335 244.691 190.33 244.678 191.34C244.67 191.99 244.519 192.648 244.262 193.247C244.115 193.593 243.568 193.71 243.502 194.081C243.436 194.449 243.984 194.749 243.929 195.12C243.873 195.489 243.248 195.613 243.215 195.986C243.154 196.675 243.689 197.317 243.675 198.007C243.654 198.979 243.442 199.953 243.114 200.868C242.988 201.222 242.42 201.331 242.354 201.702C242.288 202.07 242.836 202.371 242.78 202.741C242.724 203.111 242.146 203.241 242.067 203.607C241.97 204.049 242.564 205.309 242.298 204.943C241.55 203.909 240.81 202.782 240.563 201.53C239.788 197.601 239.339 193.589 239.272 189.586C239.26 188.882 240.287 188.463 240.333 187.761C240.548 184.517 239.887 181.259 240.04 178.012C240.059 177.62 240.658 177.494 240.835 177.144C240.988 176.841 241.043 176.473 240.986 176.139C240.92 175.752 240.396 175.458 240.48 175.074C241.447 170.678 243.103 166.453 244.08 162.06C244.166 161.676 243.564 161.364 243.619 160.975C243.675 160.591 244.408 160.466 244.367 160.08C244.237 158.857 244.011 157.48 243.155 156.597C242.581 156.005 241.523 156.257 240.698 156.296C240.411 156.309 240.079 156.482 239.964 156.745C238.417 160.284 236.926 163.863 235.778 167.551C235.657 167.936 236.335 168.27 236.253 168.665C236.089 169.452 235.346 170.018 235.106 170.785C232.465 179.205 230.205 187.742 227.625 196.183C226.516 199.812 225.332 203.42 224.042 206.989C223.756 207.779 223.715 209.452 222.903 209.238C221.979 208.995 222.116 207.437 222.118 206.481C222.119 206.074 222.894 205.958 222.91 205.552C223.009 202.955 222.288 200.362 222.45 197.767C222.495 197.065 223.408 196.636 223.512 195.94C223.613 195.262 222.949 194.626 223.021 193.944C223.094 193.265 223.813 192.779 223.924 192.105C223.985 191.736 223.442 191.436 223.498 191.067C223.554 190.696 224.155 190.569 224.211 190.2C224.267 189.83 223.721 189.53 223.785 189.161C223.848 188.793 224.371 188.663 224.536 188.327C224.685 188.023 224.749 187.655 224.687 187.323C224.618 186.952 224.208 186.695 224.161 186.321C224.079 185.674 224.227 185.016 224.312 184.37C224.521 182.779 224.625 181.161 225.043 179.612C225.222 178.945 225.974 178.499 226.077 177.816C226.18 177.133 225.574 176.484 225.618 175.794C225.798 173.009 226.671 170.287 226.743 167.496C226.758 166.945 225.792 166.638 225.87 166.092C225.973 165.37 227.138 165.077 227.194 164.35C227.241 163.741 226.626 163.206 226.117 162.869C225.674 162.573 225.021 162.351 224.542 162.585C223.576 163.057 222.642 163.813 222.187 164.786C219.858 169.761 217.958 174.941 216.306 180.179C216.092 180.857 216.867 181.597 216.669 182.28C215.49 186.344 213.383 190.104 212.247 194.181C211.97 195.172 212.796 196.276 212.49 197.259C211.461 200.56 211.782 206.686 208.325 206.759C205.163 206.824 207.11 200.531 206.924 197.375C206.9 196.968 207.714 196.852 207.717 196.444C207.732 194.469 206.973 192.54 206.977 190.563C206.977 190.172 207.665 190.05 207.73 189.665C207.792 189.296 207.239 188.994 207.304 188.626C207.367 188.257 207.89 188.128 208.055 187.791C208.204 187.488 208.259 187.122 208.206 186.787C208.148 186.417 207.66 186.135 207.734 185.768C207.869 185.091 208.607 184.644 208.769 183.972C209.295 181.789 209.632 179.552 209.773 177.31C209.816 176.621 209.243 175.977 209.313 175.29C209.351 174.917 209.9 174.792 210.065 174.455C210.214 174.151 210.277 173.784 210.216 173.451C210.108 172.858 209.875 172.283 209.572 171.762C209.209 171.137 208.378 170.762 208.24 170.052C208.146 169.569 209.169 169.241 208.993 168.781C208.662 167.917 207.921 166.67 207.01 166.836C205.732 167.068 204.955 168.514 204.297 169.634C204.102 169.966 204.772 170.318 204.741 170.701C204.717 170.991 204.003 171.104 204.158 171.35C204.636 172.116 205.694 172.365 206.233 173.089C206.367 173.27 205.693 173.074 205.583 173.271C204.53 175.157 203.521 177.094 202.85 179.148C202.728 179.52 203.365 179.843 203.307 180.23C203.248 180.618 202.561 180.738 202.549 181.13C202.45 184.178 202.71 187.231 202.981 190.269C203.033 190.847 203.56 191.347 203.513 191.926C203.482 192.31 202.828 192.433 202.775 192.815C202.724 193.185 203.187 193.463 203.247 193.832C203.303 194.177 203.267 194.56 203.109 194.871C202.486 196.089 201.409 197.067 200.938 198.35C200.798 198.732 201.522 199.076 201.42 199.47C200.656 202.395 199.639 205.264 198.412 208.026C197.341 210.435 195.589 212.506 194.549 214.93C194.397 215.285 195.165 215.653 194.993 215.998C194.628 216.734 193.595 216.96 193.185 217.671C193.035 217.932 193.779 218.294 193.554 218.493C192.102 219.777 190.365 220.706 188.676 221.656C187.817 222.139 186.924 222.726 185.94 222.774C185.311 222.805 184.714 222.329 184.28 221.872C183.633 221.191 183.212 220.316 182.809 219.468C182.211 218.214 181.568 216.948 181.289 215.588C180.509 211.779 180.297 207.874 179.648 204.041C179.524 203.31 178.947 202.662 178.973 201.92C178.989 201.516 179.731 201.399 179.758 200.996C179.992 197.514 179.964 194.009 179.74 190.525C179.712 190.089 178.898 189.854 179.013 189.432C179.19 188.787 180.161 188.624 180.428 188.011C180.634 187.542 180.165 186.972 180.306 186.48C180.409 186.119 181.033 186.047 181.095 185.677C181.206 185.003 180.673 184.329 180.774 183.654C180.83 183.283 181.361 183.156 181.526 182.819C181.675 182.515 181.734 182.148 181.677 181.814C181.611 181.428 181.064 181.129 181.174 180.751C182.441 176.38 184.448 172.246 185.72 167.876C185.832 167.489 185.063 167.124 185.245 166.764C186.059 165.158 187.658 164.038 188.475 162.434C188.65 162.09 188.047 161.767 187.984 161.385C187.929 161.051 187.905 160.628 188.137 160.381C188.854 159.613 189.678 158.846 190.674 158.508C191.144 158.348 191.675 158.737 192.062 159.049C192.513 159.412 192.946 159.889 193.088 160.451C194.146 164.651 195.074 168.898 195.628 173.194C195.678 173.58 194.905 173.673 194.843 174.057C194.734 174.73 195.265 175.405 195.163 176.08C195.108 176.45 194.545 176.564 194.413 176.913C194.27 177.291 193.99 178.062 194.389 178.124C195.046 178.226 195.507 177.366 196.146 177.182C196.454 177.093 196.79 177.452 197.091 177.345C197.483 177.204 197.913 176.913 198.021 176.512C198.119 176.149 197.531 175.842 197.595 175.472C197.658 175.104 198.182 174.974 198.346 174.638C198.495 174.334 198.612 173.952 198.497 173.633C198.216 172.858 197.359 172.33 197.217 171.518C197.151 171.148 197.873 171.046 197.977 170.684C198.34 169.423 198.667 168.103 198.576 166.795C198.395 164.192 198.03 161.558 197.171 159.095C196.72 157.806 195.736 156.731 194.737 155.801C193.793 154.923 192.732 153.656 191.448 153.766C189.531 153.931 187.716 155.14 186.372 156.517C184.766 158.16 183.76 160.345 182.929 162.488C182.679 163.135 183.519 163.899 183.263 164.544C182.96 165.309 181.819 165.484 181.453 166.22C181.281 166.564 181.977 166.91 181.896 167.286C181.779 167.836 181.133 168.142 180.93 168.664C179.702 171.812 178.39 174.956 177.622 178.246C176.524 182.956 175.884 187.769 175.352 192.575C175.276 193.262 175.881 193.91 175.811 194.597C175.773 194.968 175.226 195.094 175.061 195.429C174.905 195.743 174.866 196.115 174.882 196.467C175.057 200.386 175.226 204.31 175.633 208.212C175.974 211.463 176.103 214.798 177.121 217.903C177.985 220.539 179.534 222.936 181.188 225.163C181.924 226.157 183.057 226.828 184.161 227.386C184.758 227.689 185.51 227.874 186.148 227.673C187.4 227.278 188.307 226.11 189.549 225.689C189.837 225.592 189.954 226.403 190.234 226.287C191.439 225.788 192.395 224.826 193.459 224.07C194.138 223.588 194.866 223.158 195.458 222.573C195.962 222.075 196.362 221.473 196.709 220.856C198.795 217.15 200.649 213.316 202.751 209.619C202.859 209.427 203.172 209.082 203.301 209.259C204.403 210.773 204.723 212.839 206.054 214.156C206.661 214.756 207.74 214.54 208.591 214.492C208.916 214.474 209.222 214.23 209.413 213.966C211.002 211.774 212.66 209.601 213.886 207.188C214.062 206.842 213.456 206.517 213.391 206.135C213.331 205.789 213.409 205.421 213.525 205.09C214.383 202.647 215.658 200.345 216.306 197.838C216.483 197.15 215.741 196.419 215.941 195.737C216.413 194.136 217.717 192.872 218.235 191.284C218.361 190.898 217.683 190.565 217.757 190.166C217.886 189.478 218.723 187.632 218.786 188.331C219.282 193.861 219.317 199.436 219.088 204.983C219.059 205.687 218.191 206.124 218.022 206.806C217.585 208.569 217.136 210.397 217.297 212.206C217.361 212.927 218.755 213.184 218.654 213.9C218.509 214.917 217.25 215.417 216.718 216.295C216.531 216.601 216.482 217.006 216.554 217.357C217.001 219.552 217.46 221.764 218.26 223.856C218.576 224.68 219.167 225.414 219.85 225.973C220.17 226.235 220.694 226.315 221.076 226.158C221.87 225.831 222.702 225.358 223.144 224.622C224.775 221.905 226.073 218.982 227.17 216.009C227.304 215.644 226.66 215.317 226.721 214.934C226.778 214.564 227.307 214.436 227.472 214.099C227.621 213.795 227.676 213.43 227.623 213.095C227.565 212.725 227.079 212.443 227.151 212.076C227.282 211.4 228.071 210.962 228.17 210.281C228.27 209.589 227.499 208.903 227.708 208.236C228.247 206.509 229.625 205.146 230.298 203.467C231.734 199.883 230.788 190.38 234.016 192.499C238.199 195.242 235.299 202.427 236.21 207.345C236.305 207.859 236.998 208.169 237.012 208.69C237.023 209.077 236.206 209.201 236.272 209.581C236.569 211.258 237.202 212.885 238.018 214.38C238.495 215.253 239.488 215.74 240.073 216.545C240.462 217.079 240.724 217.708 240.898 218.345C241.479 220.473 241.482 222.77 242.329 224.808C243.301 227.15 244.773 229.27 246.279 231.311C246.957 232.23 247.86 232.991 248.823 233.608C252.218 235.782 255.672 237.893 259.301 239.649C259.651 239.819 259.991 239.146 260.376 239.199C260.747 239.249 260.872 239.867 261.243 239.912C261.616 239.959 261.89 239.473 262.264 239.431C262.912 239.36 263.57 239.487 264.215 239.584C264.86 239.681 265.53 239.745 266.124 240.014C266.468 240.169 266.554 240.749 266.927 240.812C267.599 240.925 268.274 240.389 268.95 240.491C269.319 240.547 269.448 241.078 269.784 241.242C270.088 241.392 270.452 241.433 270.788 241.394C271.472 241.314 272.107 240.805 272.789 240.89L275.795 242.015ZM274.389 237.045C273.775 236.695 273.247 236.098 272.549 235.997C271.554 235.851 270.548 236.456 269.55 236.336C269.175 236.29 269.091 235.692 268.747 235.538C268.153 235.272 267.49 235.115 266.84 235.122C266.149 235.13 265.507 235.641 264.819 235.58C264.445 235.547 264.322 234.916 263.952 234.866C263.564 234.815 263.246 235.431 262.871 235.322C260.966 234.767 259.183 233.841 257.407 232.958C256.034 232.276 254.641 231.585 253.438 230.634C252.101 229.577 250.971 228.274 249.856 226.984C248.947 225.932 248.012 224.864 247.379 223.625C246.734 222.359 246.364 220.959 246.074 219.569C245.682 217.686 244.927 215.723 245.342 213.846C245.976 210.982 247.45 208.315 249.098 205.888C251.213 202.773 253.836 200.013 256.523 197.376C257.386 196.53 258.678 196.257 259.649 195.538C260.158 195.163 260.371 194.449 260.915 194.128C262.253 193.339 263.847 193.051 265.192 192.273C266.69 191.404 267.82 189.939 269.394 189.215C269.833 189.013 270.284 189.812 270.758 189.712C271.561 189.542 272.312 187.894 272.889 188.477C274.79 190.397 275.506 193.21 276.646 195.659C277.124 196.687 277.145 197.91 277.73 198.881C278.424 200.032 279.709 200.749 280.405 201.899C281.599 203.869 282.526 206.001 283.347 208.154C284.024 209.929 284.208 211.868 284.888 213.643C285.141 214.3 285.895 214.694 286.114 215.363C286.831 217.558 287.536 219.81 287.659 222.116C287.764 224.077 287.457 226.097 286.787 227.942C286.009 230.082 284.917 232.18 283.39 233.869C282.506 234.846 281.089 235.182 279.846 235.62L274.389 237.045ZM402.237 237.55C402.513 237.089 402.692 236.554 403.065 236.169C403.628 235.591 404.461 235.316 404.995 234.712C405.94 233.643 406.789 232.469 407.453 231.206C408.965 228.325 408.787 224.125 411.497 222.325C412.944 221.363 412.586 225.727 413.729 227.036C414.742 228.198 416.218 228.967 417.691 229.424C418.277 229.605 418.891 229.105 419.424 228.801C420.196 228.362 420.964 227.871 421.566 227.218C423.184 225.46 424.815 223.67 426.038 221.617C426.244 221.271 425.448 220.891 425.564 220.506C426.233 218.292 427.64 216.347 428.299 214.129C428.848 212.286 429.069 210.344 429.158 208.423C429.19 207.736 428.582 207.107 428.653 206.422C428.724 205.743 429.444 205.257 429.556 204.583C429.617 204.214 429.074 203.914 429.129 203.545C429.184 203.175 429.768 203.046 429.841 202.68C429.901 202.382 429.313 202.107 429.47 201.847C429.802 201.296 430.706 201.266 431.029 200.709C431.183 200.443 430.632 200.199 430.602 199.893C430.537 199.244 430.657 198.588 430.754 197.944C430.851 197.299 430.915 196.629 431.184 196.035C431.339 195.691 431.936 195.607 431.981 195.233C432.102 194.234 431.501 193.229 431.643 192.233C431.74 191.552 432.521 191.111 432.662 190.438C432.738 190.071 432.18 189.769 432.235 189.399C432.291 189.03 432.902 188.903 432.949 188.532C432.997 188.162 432.535 187.884 432.477 187.513C432.424 187.179 432.472 186.809 432.628 186.509C432.802 186.176 433.244 186.039 433.416 185.706C433.573 185.407 433.608 185.039 433.568 184.702C433.488 184.019 433.08 183.389 433.065 182.701C433.05 182.05 433.224 181.391 433.48 180.793C433.628 180.447 434.174 180.33 434.241 179.959C434.307 179.59 433.837 179.292 433.816 178.918C433.807 178.765 434.079 178.494 434.165 178.621C434.849 179.617 435.15 180.841 435.825 181.845C436.274 182.513 437.173 182.848 437.503 183.584C437.626 183.858 436.907 183.96 436.908 184.26C436.909 184.862 437.209 185.441 437.505 185.966C437.86 186.595 438.632 186.983 438.836 187.676C438.922 187.965 438.332 188.051 438.201 188.323C438.051 188.637 437.912 189.026 438.031 189.352C439.1 192.269 440.725 194.968 441.714 197.913C443.1 202.041 443.75 206.393 445.138 210.52C445.457 211.47 446.537 212.058 446.794 213.026C446.895 213.403 446.035 213.534 446.043 213.923C446.072 215.523 446.445 217.109 446.896 218.644C447.444 220.511 448.599 222.18 449.025 224.078C449.107 224.444 448.296 224.572 448.311 224.947C448.332 225.467 448.979 225.785 449.114 226.288C449.582 228.053 449.241 230.064 450.1 231.675C451.394 234.105 453.4 236.111 455.371 238.034C455.679 238.333 456.243 238.18 456.661 238.077C457.835 237.788 459.046 237.493 460.086 236.876C461.023 236.318 461.846 235.527 462.467 234.629C464.447 231.765 466.198 228.741 467.836 225.669C469.166 223.173 470.011 220.438 471.354 217.948C471.811 217.102 472.683 216.541 473.199 215.73C474.381 213.872 475.235 211.818 476.433 209.971C476.684 209.581 477.521 209.547 477.505 209.084C477.483 208.442 476.152 208.152 476.349 207.54C476.636 206.651 477.993 206.559 478.558 205.815C481.447 202.005 483.743 197.769 486.642 193.967C488.932 190.962 491.143 187.786 494.097 185.429C496.217 183.737 499.094 183.305 501.522 182.095C502.142 181.785 502.533 181.015 503.214 180.884C508.38 179.884 513.609 179.174 518.853 178.744C519.254 178.711 519.375 179.565 519.776 179.524C520.85 179.415 521.715 178.401 522.795 178.344C523.486 178.307 523.975 179.147 524.658 179.263C525.027 179.325 525.329 178.77 525.697 178.837C526.067 178.902 526.185 179.447 526.531 179.596C527.129 179.857 527.795 179.93 528.44 180.027C529.402 180.172 530.372 180.368 531.344 180.322C531.719 180.304 531.992 179.785 532.365 179.841C532.737 179.898 532.853 180.454 533.199 180.601C533.797 180.858 534.456 181.028 535.106 181.017C535.813 181.005 536.489 180.34 537.168 180.532C538.77 180.985 540.001 182.364 541.594 182.851C542.258 183.055 542.963 182.427 543.652 182.517C544.023 182.565 544.152 183.155 544.517 183.229C544.815 183.288 545.074 182.729 545.35 182.857C545.957 183.139 546.201 183.929 546.774 184.274C547.01 184.417 547.35 184.093 547.598 184.214C551.384 186.064 555.155 187.966 558.768 190.134C559.849 190.783 560.5 192.034 561.613 192.626C561.945 192.802 562.305 192.066 562.655 192.2C562.987 192.327 562.816 192.932 563.068 193.182C564.244 194.343 565.422 195.564 566.869 196.364C567.218 196.557 567.597 195.76 567.974 195.895C569.189 196.328 570.302 197.07 571.263 197.93C572.131 198.706 572.523 199.916 573.367 200.72C574.6 201.891 575.944 202.983 577.437 203.801C577.71 203.95 578.052 203.209 578.288 203.413C578.907 203.946 578.963 204.921 579.476 205.558C580.761 207.151 582.147 208.671 583.649 210.061C585.669 211.93 588.119 213.321 590.019 215.313C590.88 216.216 590.924 217.716 591.799 218.607C592.06 218.873 592.504 218.009 592.835 218.181C593.881 218.723 594.482 219.9 595.485 220.515C597.688 221.869 600.166 222.733 602.392 224.049C602.85 224.321 602.958 225.064 603.462 225.236C603.816 225.358 604.11 224.825 604.48 224.765C604.825 224.708 605.203 224.757 605.521 224.902C607.032 225.591 608.331 226.761 609.92 227.246C610.598 227.453 611.34 226.675 612.018 226.885C615.468 227.952 618.606 229.88 622.04 230.996C622.415 231.118 622.712 230.505 623.104 230.484C624.075 230.435 625.069 230.525 626.003 230.792C626.668 230.982 627.122 231.693 627.8 231.827C628.185 231.903 628.5 231.284 628.885 231.366C633.903 232.45 638.751 234.246 643.78 235.277C644.777 235.48 645.822 234.868 646.826 235.043C647.504 235.162 647.919 235.962 648.589 236.115C651.404 236.76 654.271 237.239 657.153 237.407C660.717 237.616 664.297 237.047 667.861 237.241C668.27 237.264 668.384 238.032 668.794 238.043C671.505 238.116 674.216 237.79 676.91 237.487C677.511 237.42 678.035 236.886 678.638 236.936C679.036 236.968 679.159 237.757 679.555 237.707C683.857 237.172 688.096 236.201 692.322 235.234C693.706 234.918 695.05 234.424 696.355 233.863C696.649 233.737 697.101 233.519 697.053 233.202C696.965 232.613 696.584 231.965 696.035 231.734C694.828 231.226 693.452 230.994 692.15 231.138C688.779 231.511 685.573 232.929 682.198 233.264C681.496 233.334 681.009 232.387 680.308 232.316C679.675 232.252 679.12 232.822 678.488 232.892C674.513 233.329 670.526 233.827 666.528 233.83C665.832 233.83 665.346 233.01 664.658 232.902C664.289 232.843 664.01 233.316 663.639 233.374C663.305 233.427 662.938 233.375 662.635 233.223C662.285 233.046 662.159 232.44 661.768 232.429C659.482 232.372 657.221 233.076 654.936 233.031C654.544 233.022 654.423 232.332 654.036 232.275C653.666 232.221 653.387 232.689 653.017 232.747C652.683 232.8 652.313 232.752 652.012 232.596C651.68 232.422 651.543 231.981 651.211 231.807C650.91 231.65 650.54 231.598 650.206 231.655C649.82 231.721 649.522 232.261 649.143 232.159C646.639 231.482 644.379 230.043 641.866 229.402C641.195 229.232 640.511 229.877 639.824 229.785C639.147 229.694 638.661 228.984 637.986 228.882C637.615 228.827 637.337 229.296 636.967 229.354C636.632 229.407 636.266 229.352 635.962 229.203C635.626 229.038 635.497 228.508 635.128 228.452C634.741 228.392 634.422 229.016 634.046 228.908C631.848 228.278 629.892 226.95 627.694 226.32C627.318 226.213 627 226.828 626.612 226.777C626.241 226.729 626.116 226.112 625.746 226.063C625.357 226.012 625.038 226.635 624.662 226.522C620.606 225.293 616.79 223.353 612.736 222.122C612.363 222.009 612.044 222.627 611.658 222.575C611.286 222.526 611.159 221.797 610.79 221.861C609.98 222.001 609.473 223.019 608.653 223.096C608.296 223.13 608.463 222.38 608.235 222.102C607.816 221.591 607.315 221.136 606.756 220.784C604.82 219.563 602.878 218.317 600.78 217.402C600.489 217.274 600.203 217.927 599.912 217.797C599.3 217.525 599.061 216.726 598.487 216.38C598.255 216.239 597.917 216.571 597.675 216.448C596.955 216.08 596.305 215.562 595.747 214.979C593.778 212.925 592.169 210.534 590.118 208.561C587.282 205.833 584.017 203.581 581.126 200.911C580.036 199.904 579.363 198.477 578.202 197.551C577.966 197.363 577.589 198.133 577.373 197.921C576.49 197.059 576.22 195.706 575.382 194.8C574.244 193.568 572.975 192.406 571.513 191.586C571.176 191.397 570.774 192.23 570.443 192.031C568.167 190.656 566.415 188.517 564.143 187.134C561.711 185.653 558.942 184.807 556.416 183.493C555.304 182.914 554.377 182.011 553.248 181.467C550.331 180.059 547.24 179.038 544.311 177.653C543.7 177.363 543.295 176.718 542.668 176.462C542.05 176.21 541.352 176.13 540.686 176.173C540.311 176.196 540.038 176.699 539.665 176.653C539.294 176.608 539.169 175.987 538.798 175.94C538.427 175.892 538.149 176.353 537.779 176.412C537.445 176.465 537.079 176.409 536.774 176.26C536.438 176.096 536.309 175.572 535.94 175.509C535.572 175.445 535.27 176.001 534.902 175.935C534.532 175.87 534.427 175.288 534.068 175.174C532.835 174.787 531.546 174.525 530.254 174.471C529.564 174.442 528.881 175.172 528.234 174.93C527.448 174.637 527.356 173.212 526.528 173.083C524.949 172.839 523.353 173.513 521.812 173.932C521.309 174.07 520.991 174.724 520.47 174.735C520.093 174.742 519.994 174.09 519.635 173.973C518.691 173.669 517.687 173.498 516.696 173.515C514.476 173.551 512.238 173.675 510.066 174.131C508.875 174.381 507.927 175.411 506.726 175.609C506.331 175.675 506.208 174.818 505.807 174.836C504.518 174.892 503.267 175.352 502.061 175.812C500.744 176.316 499.586 177.177 498.281 177.711C496.493 178.444 494.563 178.806 492.803 179.603C491.977 179.977 491.259 180.576 490.596 181.194C488.931 182.745 487.364 184.402 485.841 186.094C484.6 187.471 483.4 188.892 482.31 190.392C480.765 192.516 479.497 194.834 477.945 196.954C477.658 197.346 477.074 197.47 476.824 197.886C476.428 198.547 476.467 199.411 476.072 200.074C475.537 200.972 474.503 201.54 474.079 202.496C473.922 202.85 474.65 203.201 474.524 203.567C474.351 204.068 473.646 204.196 473.341 204.631C471.153 207.748 469.053 210.931 467.072 214.184C466.208 215.603 465.064 216.987 464.818 218.629C464.694 219.46 466.098 219.97 466.081 220.809C466.072 221.248 465.196 221.047 464.77 220.939C464.49 220.868 464.35 220.103 464.157 220.32C462.452 222.247 460.947 224.374 459.724 226.637C459.541 226.978 460.355 227.369 460.169 227.708C459.41 229.09 458.716 231.298 457.139 231.341C455.721 231.38 455.217 229.175 454.693 227.857C454.553 227.509 455.424 227.363 455.406 226.988C455.383 226.459 454.76 226.126 454.59 225.623C453.717 223.042 452.76 220.464 452.291 217.779C452.225 217.4 452.895 217.267 453.068 216.923C453.225 216.61 453.329 216.227 453.241 215.889C452.149 211.635 450.948 207.406 449.552 203.242C448.713 200.737 447.336 198.429 446.545 195.909C445.167 191.511 444.346 186.953 443.058 182.528C442.758 181.497 442.118 180.589 441.786 179.567C441.229 177.852 440.97 176.047 440.399 174.336C440.23 173.832 439.606 173.501 439.582 172.971C439.565 172.595 440.319 172.475 440.296 172.101C440.275 171.751 439.679 171.719 439.489 171.425C438.978 170.633 438.36 169.828 438.226 168.896C438.168 168.503 439.044 168.376 438.991 167.982C438.709 165.916 437.569 164.029 437.279 161.964C437.141 160.983 437.424 159.967 437.734 159.027C437.858 158.653 438.524 158.554 438.537 158.16C438.606 155.92 437.627 153.677 437.967 151.461C438.1 150.599 439.468 150.423 439.849 149.636C440.017 149.288 439.29 148.962 439.361 148.581C439.486 147.904 440.277 147.466 440.38 146.786C440.482 146.106 439.833 145.451 439.935 144.77C440.038 144.09 440.858 143.657 440.954 142.976C441.052 142.277 440.317 141.601 440.477 140.915C441.138 138.077 442.625 135.481 443.356 132.661C443.454 132.281 442.846 131.966 442.897 131.577C442.946 131.207 443.555 131.081 443.611 130.711C443.666 130.341 443.118 130.04 443.185 129.672C443.25 129.301 443.811 129.189 443.945 128.838C444.183 128.212 444.285 127.522 444.261 126.851C444.175 124.56 443.276 122.27 443.616 120.003C443.821 118.636 445.375 117.798 445.814 116.487C446.035 115.828 445.391 115.12 445.482 114.431C445.53 114.06 446.139 113.934 446.195 113.564C446.251 113.194 445.713 112.895 445.769 112.526C445.824 112.156 446.426 112.028 446.482 111.659C446.538 111.288 446 110.99 446.055 110.62C446.111 110.25 446.734 110.126 446.769 109.754C446.833 109.069 446.222 108.418 446.325 107.738C446.427 107.058 447.203 106.617 447.343 105.943C447.42 105.577 446.86 105.274 446.917 104.905C446.973 104.534 447.575 104.408 447.63 104.038C447.686 103.668 447.149 103.369 447.204 103C447.26 102.63 447.862 102.502 447.917 102.133C447.973 101.763 447.427 101.463 447.491 101.094C447.555 100.726 448.078 100.596 448.243 100.26C448.392 99.9557 448.455 99.5883 448.394 99.2556C448.326 98.8859 447.943 98.6246 447.876 98.2559C447.815 97.9233 447.878 97.5558 448.028 97.2519C448.192 96.9153 448.715 96.7855 448.779 96.4172C448.843 96.0489 448.288 95.7471 448.353 95.3788C448.416 95.0103 448.939 94.8806 449.104 94.544C449.253 94.2401 449.308 93.8744 449.255 93.54C449.197 93.1698 448.71 92.8878 448.783 92.5209C448.919 91.8438 449.606 91.3822 449.817 90.7243C450.016 90.1044 450.037 89.4276 449.981 88.7792C449.924 88.0954 449.389 87.4614 449.483 86.7809C449.576 86.0993 450.372 85.6621 450.501 84.986C450.572 84.6166 450.062 84.3391 450.02 83.9646C449.949 83.3167 450.076 82.6587 450.173 82.0138C450.27 81.3689 450.343 80.7028 450.602 80.1046C450.752 79.759 451.321 79.644 451.363 79.2704C451.439 78.5862 450.816 77.9351 450.918 77.2549C451.021 76.5738 452.044 76.1367 451.937 75.456C451.87 75.0309 450.976 75.8411 450.651 75.5584C450.311 75.2637 450.315 74.6223 450.512 74.2174C450.983 73.245 452.106 72.6748 452.53 71.6806C452.681 71.3254 451.979 71.0121 452.039 70.6305C452.144 69.9604 452.879 69.4954 452.98 68.8238C453.13 67.8302 452.59 66.8059 452.765 65.8161C452.884 65.1423 453.792 64.7394 453.822 64.0561C453.944 61.26 453.646 58.4453 453.207 55.6805C453.022 54.5108 452.463 53.4271 451.965 52.3524C451.772 51.9375 451.533 51.4973 451.149 51.2465C449.805 50.3696 448.458 49.2801 446.87 49.0292C445.882 48.8734 444.936 49.6174 444.074 50.1286C443.02 50.755 441.91 51.4168 441.189 52.4071C440.961 52.7186 441.789 53.1219 441.634 53.4766C441.202 54.4667 439.989 54.9989 439.615 56.0132C439.376 56.6631 440.127 57.3969 439.945 58.0659C439.805 58.5769 439.081 58.7054 438.763 59.129C437.992 60.1576 437.09 61.1634 436.702 62.3899C436.488 63.0669 437.234 63.8001 437.067 64.4909C436.379 67.3226 434.908 69.9213 434.188 72.7453C434.091 73.1252 434.746 73.4198 434.692 73.8092C434.599 74.4849 433.889 74.9721 433.79 75.6479C433.735 76.0205 434.229 76.2948 434.27 76.6692C434.343 77.3173 434.217 77.9754 434.119 78.6203C433.974 79.5824 433.876 80.5671 433.545 81.4817C433.418 81.8357 432.851 81.9451 432.785 82.3161C432.719 82.6842 433.267 82.984 433.211 83.3546C433.155 83.7242 432.554 83.8508 432.498 84.2213C432.442 84.5909 432.988 84.8915 432.924 85.2598C432.861 85.6282 432.337 85.7579 432.173 86.0945C432.024 86.3984 431.969 86.7642 432.021 87.0985C432.08 87.4687 432.551 87.7473 432.493 88.1176C432.435 88.4898 431.861 88.598 431.732 88.9518C431.403 89.8666 431.303 90.8512 431.158 91.8133C430.965 93.0926 430.708 94.376 430.72 95.6696C430.724 96.0462 431.248 96.3171 431.201 96.691C431.156 97.0622 430.533 97.1866 430.488 97.5577C430.441 97.9317 430.952 98.2034 430.968 98.579C431.012 99.5501 430.933 100.545 430.661 101.477C430.463 102.155 429.617 102.599 429.587 103.305C429.502 105.279 430.342 107.211 430.328 109.186C430.324 109.577 429.715 109.703 429.538 110.05C429.378 110.363 429.351 110.737 429.358 111.088C429.408 113.996 429.828 116.901 429.705 119.807C429.688 120.199 429.004 120.319 428.948 120.707C428.894 121.08 429.436 121.352 429.428 121.729C429.401 123.036 429.641 124.571 428.845 125.609C428.453 126.119 428.18 124.102 427.543 124.186C426.346 124.343 425.665 125.8 424.518 126.176C424.163 126.293 424.007 125.585 423.653 125.464C423.469 125.403 423.239 125.549 423.119 125.704C422.314 126.74 421.741 127.944 420.927 128.973C420.738 129.212 420.452 129.504 420.15 129.456C419.476 129.349 418.963 128.756 418.31 128.556C418.182 128.516 417.936 128.67 417.987 128.794C418.211 129.347 418.508 129.933 419.003 130.265C419.453 130.568 420.076 130.669 420.604 130.549C421.326 130.385 421.836 129.689 422.54 129.463C422.845 129.365 423.195 129.763 423.485 129.627C425.43 128.715 427.133 127.343 429.066 126.404C429.252 126.313 429.676 126.432 429.641 126.635C429.468 127.636 428.53 128.459 428.537 129.475C428.555 132.765 429.65 135.986 429.714 139.276C429.728 139.98 428.837 140.464 428.766 141.165C428.702 141.793 429.259 142.342 429.339 142.967C430.107 148.968 431.433 154.961 431.304 161.009C431.261 162.997 429.413 164.538 428.84 166.442C428.727 166.819 429.305 167.115 429.349 167.506C429.423 168.152 429.383 168.831 429.185 169.451C428.974 170.109 428.286 170.57 428.151 171.247C428.077 171.614 428.679 171.896 428.623 172.267C428.521 172.942 427.832 173.431 427.721 174.105C427.659 174.474 428.223 174.777 428.147 175.144C428.006 175.817 427.23 176.259 427.128 176.939C427.025 177.619 427.637 178.269 427.572 178.954C427.538 179.327 426.914 179.451 426.859 179.821C426.803 180.191 427.341 180.489 427.285 180.859C427.23 181.229 426.619 181.355 426.572 181.726C426.524 182.097 426.986 182.375 427.044 182.745C427.097 183.079 427.042 183.445 426.893 183.749C426.728 184.086 426.205 184.214 426.141 184.584C426.077 184.952 426.632 185.254 426.568 185.622C426.504 185.991 425.981 186.12 425.816 186.457C425.667 186.761 425.612 187.127 425.665 187.461C425.723 187.831 426.195 188.11 426.137 188.48C426.079 188.852 425.503 188.96 425.376 189.314C425.049 190.23 424.848 191.204 424.816 192.174C424.784 193.196 425.408 194.221 425.188 195.218C424.492 198.361 422.88 201.248 422.118 204.375C421.954 205.052 422.545 205.745 422.457 206.436C422.41 206.807 421.799 206.933 421.743 207.303C421.688 207.672 422.225 207.972 422.17 208.341C422.114 208.711 421.491 208.835 421.456 209.208C421.392 209.893 422.011 210.544 421.901 211.223C421.791 211.9 420.992 212.317 420.844 212.986C420.712 213.584 421.315 214.225 421.111 214.803C420.887 215.433 420.041 215.655 419.695 216.228C419.594 216.397 420.029 216.608 419.924 216.774C419.643 217.213 419.195 217.968 418.714 217.766C418.077 217.501 417.934 216.578 417.824 215.897C417.164 211.83 416.622 207.731 416.419 203.616C416.4 203.225 417.107 203.103 417.172 202.717C417.234 202.348 416.69 202.049 416.746 201.678C416.802 201.308 417.403 201.181 417.459 200.812C417.515 200.441 416.977 200.143 417.033 199.773C417.088 199.404 417.69 199.276 417.746 198.906C417.802 198.536 417.243 198.234 417.32 197.868C417.46 197.195 418.246 196.755 418.339 196.073C418.432 195.393 417.846 194.761 417.84 194.075C417.829 192.782 417.953 191.471 418.291 190.223C418.471 189.56 419.228 189.135 419.363 188.46C419.495 187.79 418.95 187.114 419.043 186.437C419.093 186.065 419.83 185.937 419.756 185.569C419.604 184.814 419.006 184.202 418.479 183.639C417.806 182.92 417.144 182.026 416.195 181.764C415.314 181.52 414.305 181.832 413.501 182.264C412.671 182.709 411.959 183.443 411.519 184.275C411.282 184.723 411.46 185.315 411.635 185.789C411.834 186.329 412.693 186.649 412.603 187.217C412.5 187.878 411.456 188.025 411.189 188.638C410.984 189.107 411.453 189.677 411.312 190.169C411.121 190.83 410.421 191.269 410.239 191.933C409.815 193.479 409.577 195.087 409.522 196.689C409.499 197.395 410.201 198.071 410.009 198.751C409.555 200.354 408.313 201.633 407.685 203.177C407.433 203.798 407.351 204.499 407.4 205.167C407.429 205.558 408.028 205.855 407.908 206.228C407.393 207.816 406.13 209.093 405.613 210.681C405.493 211.052 406.046 211.354 406.112 211.737C406.172 212.084 406.108 212.456 405.976 212.781C405.236 214.608 404.086 216.271 403.511 218.156C403.396 218.53 403.945 218.831 404.012 219.216C404.07 219.559 404.059 219.958 403.868 220.25C403.17 221.325 402.678 223.408 401.412 223.21C400.185 223.018 400.759 220.799 400.217 219.681C400.067 219.368 399.459 219.383 399.395 219.042C398.748 215.611 398.288 212.131 398.138 208.643C398.122 208.259 398.741 208.132 398.913 207.787C399.071 207.475 399.133 207.1 399.09 206.752C398.885 205.099 398.21 203.504 398.178 201.839C398.171 201.447 398.833 201.34 398.976 200.974C399.22 200.35 399.33 199.657 399.29 198.989C399.175 197.02 398.438 195.094 398.515 193.124C398.543 192.418 399.44 191.987 399.59 191.295C400.198 188.462 400.951 185.572 400.757 182.682C400.687 181.634 399.704 180.783 398.844 180.179C398.538 179.963 398.139 180.773 397.804 180.605C397.134 180.269 397.053 178.751 396.32 178.912C395.038 179.196 394.284 180.588 393.419 181.576C393.2 181.826 393.194 182.207 393.145 182.537C392.904 184.133 392.581 185.727 392.549 187.341C392.542 187.717 393.101 187.993 393.031 188.362C392.901 189.038 392.114 189.477 392.012 190.157C391.909 190.837 392.562 191.493 392.456 192.173C392.351 192.855 391.6 193.301 391.422 193.968C391.008 195.517 390.78 197.123 390.705 198.725C390.677 199.349 391.161 199.93 391.114 200.553C391.06 201.246 390.79 201.934 390.413 202.518C390.1 203.003 389.287 203.11 389.11 203.659C388.931 204.214 389.577 204.789 389.494 205.366C389.44 205.735 388.907 205.864 388.743 206.2C388.594 206.504 388.53 206.871 388.591 207.204C388.661 207.575 389.072 207.832 389.118 208.206C389.197 208.852 389.146 209.53 388.953 210.151C388.687 211.008 387.743 211.669 387.764 212.566C387.78 213.27 388.862 213.567 389.044 214.248C389.113 214.507 388.457 214.285 388.276 214.483C387.055 215.816 386.155 217.421 384.926 218.747C383.912 219.841 382.308 220.413 381.577 221.712C381.319 222.17 382.871 221.469 383.139 221.921C383.475 222.487 383.079 223.254 382.859 223.874C382.757 224.159 382.091 224.242 382.217 224.518C382.552 225.249 383.144 226.052 383.932 226.214C384.591 226.349 385.029 225.319 385.696 225.233C386.204 225.167 386.659 226.016 387.124 225.8C388.768 225.04 389.708 222.918 391.484 222.555C392.295 222.389 392.584 223.844 392.856 224.627C393.388 226.163 393.419 227.835 393.858 229.401C394.366 231.218 394.802 233.092 395.691 234.757C395.835 235.025 396.244 234.272 396.524 234.388C396.82 234.512 396.681 235.049 396.917 235.267C397.789 236.068 398.607 237.172 399.772 237.374C400.412 237.485 400.504 235.954 401.151 236L402.237 237.55ZM241.618 208.693C241.566 208.26 241.406 207.825 241.464 207.394C241.483 207.255 241.765 207.045 241.821 207.173C241.999 207.577 242.005 208.053 241.946 208.489L241.618 208.693ZM249.744 198.219C249.276 196.778 248.456 195.407 248.34 193.896C248.286 193.202 249.16 192.714 249.266 192.027C249.323 191.655 248.809 191.381 248.785 191.006C248.744 190.348 248.838 189.663 249.08 189.051C249.22 188.701 249.815 188.621 249.878 188.249C249.991 187.575 249.435 186.897 249.557 186.226C249.681 185.549 250.474 185.111 250.576 184.431C250.679 183.751 250.067 183.1 250.132 182.415C250.166 182.042 250.789 181.919 250.845 181.548C250.901 181.178 250.355 180.878 250.419 180.51C250.482 180.141 251.114 180.046 251.17 179.675C251.272 179 250.727 178.324 250.849 177.652C250.973 176.975 251.766 176.537 251.868 175.857C251.971 175.177 251.35 174.526 251.424 173.842C251.463 173.47 252.01 173.344 252.175 173.007C252.324 172.703 252.379 172.337 252.326 172.003C252.268 171.633 251.806 171.355 251.854 170.984C251.901 170.613 252.512 170.487 252.568 170.117C252.623 169.747 252.075 169.447 252.141 169.079C252.207 168.708 252.774 168.598 252.901 168.244C253.232 167.33 253.318 166.343 253.477 165.383C253.791 163.483 254.235 161.593 254.323 159.668C254.356 158.962 253.654 158.288 253.834 157.604C254.434 155.325 255.561 153.214 256.585 151.091C256.764 150.721 257.028 150.045 257.415 150.18C258.069 150.408 258.407 151.189 258.686 151.823C259.219 153.029 259.342 154.383 259.814 155.615C260.85 158.32 261.961 161.001 263.204 163.618C263.509 164.261 264.196 164.688 264.44 165.356C265.315 167.74 265.698 170.284 266.528 172.685C266.801 173.47 267.427 174.095 267.734 174.868C268.414 176.59 268.726 178.451 269.477 180.145C269.885 181.065 270.773 181.718 271.182 182.638C271.319 182.948 271.187 183.343 271.031 183.643C270.769 184.143 270.466 184.696 269.967 184.96C267.934 186.033 265.599 186.466 263.587 187.575C261.759 188.583 260.299 190.159 258.53 191.265C257.782 191.732 256.792 191.745 256.083 192.267C255.324 192.828 254.969 193.815 254.247 194.423C253.834 194.771 253.174 194.719 252.761 195.067L249.744 198.219ZM391.707 214.752C391.422 214.444 391.026 214.21 390.854 213.827C390.748 213.592 390.689 213.111 390.942 213.056C391.379 212.962 392.01 213.13 392.193 213.538L391.707 214.752ZM293.21 196.011C292.926 195.703 292.53 195.469 292.358 195.087C292.252 194.852 292.193 194.37 292.446 194.316C292.883 194.222 293.514 194.39 293.697 194.798L293.21 196.011ZM221.923 184.319C221.5 184.162 220.839 184.26 220.653 183.849C220.471 183.448 220.728 182.721 221.159 182.627C221.567 182.539 221.825 183.178 221.997 183.559L221.923 184.319ZM293.656 193.18C293.243 193.016 292.364 193.129 292.418 192.688C292.473 192.252 293.323 192.399 293.732 192.562L293.656 193.18ZM449.934 209.911C449.522 209.747 448.643 209.86 448.697 209.419C448.751 208.983 449.602 209.131 450.011 209.294L449.934 209.911ZM196.973 168.868C196.56 168.703 195.681 168.816 195.736 168.375C195.791 167.939 196.641 168.087 197.05 168.25L196.973 168.868ZM481.096 197.071C480.684 196.907 479.805 197.02 479.859 196.579C479.913 196.143 480.764 196.291 481.173 196.454L481.096 197.071ZM441.661 187.232C441.249 187.067 440.37 187.179 440.424 186.739C440.479 186.303 441.329 186.451 441.738 186.613L441.661 187.232ZM318.743 168.715C318.762 168.504 318.591 168.104 318.8 168.084C319.239 168.041 320.063 168.153 320.023 168.592L318.743 168.715ZM315.961 161.443C315.909 161.009 315.749 160.575 315.807 160.143C315.826 160.004 316.108 159.794 316.164 159.922C316.342 160.326 316.348 160.802 316.289 161.239L315.961 161.443ZM434.696 177.096C434.486 177.077 434.086 177.25 434.066 177.039C434.023 176.6 434.133 175.778 434.572 175.818L434.696 177.096ZM435.503 133.343C435.399 131.44 435.192 129.54 435.192 127.633C435.192 121.451 435.115 115.261 435.503 109.092C435.548 108.38 436.426 107.899 436.479 107.188C436.744 103.651 436.15 100.082 436.446 96.548C436.504 95.8418 437.302 95.3901 437.524 94.7173C437.728 94.099 437.758 93.4188 437.689 92.7722C437.65 92.398 437.152 92.1233 437.209 91.7509C437.265 91.3784 437.819 91.2622 437.969 90.9165C438.228 90.3185 438.302 89.6525 438.399 89.0076C438.544 88.0455 438.74 87.0755 438.694 86.104C438.676 85.7282 438.157 85.4551 438.213 85.0827C438.27 84.7102 438.861 84.6074 438.973 84.2483C439.362 83.016 439.627 81.7271 439.678 80.4351C439.704 79.7337 438.979 79.0507 439.2 78.3834C439.542 77.3458 441.034 76.8711 441.208 75.7917C441.375 74.7655 440.007 73.9164 440.088 72.8804C440.142 72.2094 441.268 72.0967 441.548 71.4841C441.76 71.0182 441.293 70.4471 441.425 69.9526C441.521 69.5911 442.113 69.4863 442.176 69.1178C442.24 68.7495 441.694 68.449 441.75 68.0794C441.806 67.7088 442.412 67.583 442.463 67.2126C442.517 66.8301 441.864 66.4969 442.019 66.1431C442.45 65.1531 443.709 64.6364 444.037 63.6064C444.348 62.6304 443.432 61.4966 443.805 60.5416C444.475 58.8198 445.289 56.7114 446.999 56.0085C447.927 55.6272 448.278 57.6246 448.547 58.5917C448.629 58.8857 448.001 58.9517 447.902 59.2407C447.586 60.1586 447.351 61.1286 447.341 62.0984C447.335 62.7882 447.792 63.4162 447.855 64.1029C447.915 64.752 447.801 65.409 447.704 66.0539C447.463 67.6505 447.291 69.2701 446.842 70.8206C446.738 71.1819 446.121 71.2809 446.082 71.655C446.01 72.3416 446.577 72.9863 446.542 73.6756C446.442 75.5983 446.163 77.5222 445.681 79.3845C445.509 80.0512 444.736 80.4726 444.609 81.149C444.48 81.8368 445.117 82.5359 444.962 83.2179C444.11 86.9815 442.475 90.5386 441.629 94.3041C441.476 94.9796 442.105 95.6589 442.013 96.3455C441.922 97.0216 441.212 97.5089 441.11 98.1843C441.055 98.5539 441.638 98.8328 441.582 99.2033C441.48 99.8787 440.791 100.368 440.68 101.042C440.618 101.411 441.143 101.707 441.105 102.078C441.072 102.385 440.473 102.47 440.498 102.779C440.536 103.272 441.343 103.565 441.26 104.052C441.087 105.059 440.085 105.771 439.818 106.758C439.72 107.119 440.3 107.427 440.244 107.796C440.189 108.166 439.587 108.293 439.531 108.663C439.475 109.032 440.013 109.332 439.957 109.701C439.902 110.071 439.3 110.198 439.244 110.568C439.187 110.938 439.708 111.233 439.669 111.604C439.637 111.911 439.038 111.996 439.062 112.305C439.101 112.798 439.861 113.085 439.824 113.578C439.783 114.113 438.999 114.351 438.869 114.87C438.743 115.37 439.243 115.896 439.114 116.394C438.862 117.374 438.04 118.142 437.774 119.118C437.435 120.364 437.331 121.675 437.324 122.967C437.322 123.274 437.904 123.517 437.75 123.784C437.428 124.34 436.425 124.321 436.192 124.92C435.966 125.497 436.647 126.117 436.597 126.734L435.503 133.343ZM335.875 87.4791C335.824 87.0456 335.663 86.6113 335.721 86.1797C335.74 86.0403 336.022 85.8305 336.078 85.9587C336.256 86.3626 336.262 86.8389 336.203 87.2753L335.875 87.4791ZM391.723 53.026C391.671 52.5925 391.286 52.0581 391.569 51.7256C391.859 51.3836 392.518 51.4127 392.91 51.6296C393.136 51.7552 392.938 52.195 392.771 52.391L391.723 53.026ZM393.968 49.2979C394.137 47.6643 394.115 45.999 394.478 44.3964C394.7 43.4128 395.505 42.6183 395.701 41.6289C395.774 41.2609 395.072 40.9495 395.23 40.6089C395.477 40.0723 396.074 39.4686 396.658 39.5577C397.099 39.6261 396.957 40.4239 396.927 40.8696C396.863 41.8497 396.705 42.8391 396.379 43.7662L393.968 49.2979ZM397.779 38.7513C397.427 38.1459 396.575 37.619 396.722 36.9339C396.952 35.8667 398.306 35.3528 398.728 34.3457C398.882 33.9791 398.161 33.6298 398.265 33.2462C398.459 32.5388 399.193 32.0951 399.523 31.4396C401.737 27.0569 403.501 22.4467 405.885 18.154C406.867 16.3866 407.965 14.5617 409.576 13.3412C410.005 13.0161 410.641 14.1788 410.465 14.6851C409.679 16.937 407.856 18.7072 406.937 20.9079C406.783 21.2773 407.585 21.6553 407.406 22.0141C406.862 23.1022 405.599 23.7029 405.01 24.7687C403.728 27.0881 403.07 29.7118 401.852 32.0662L397.779 38.7513ZM410.423 12.9778C410.413 12.2164 410.096 11.3941 410.394 10.6928C410.729 9.90732 411.534 8.29847 412.181 8.85672C412.97 9.53773 412.279 11.009 411.87 11.9674" fill="#D1A391"/>
</svg>
