<svg width="24" height="24" viewBox="0 0 24 24" fill="none" xmlns="http://www.w3.org/2000/svg">
<path d="M12 2C6.47833 2 2 6.36116 2 11.7402C2 16.0437 4.865 19.6946 8.83917 20.9828C9.33833 21.0729 9.5 20.7709 9.5 20.5144V18.7011C6.71833 19.2904 6.13917 17.5518 6.13917 17.5518C5.68417 16.426 5.02833 16.1265 5.02833 16.1265C4.12083 15.5218 5.0975 15.5348 5.0975 15.5348C6.10167 15.6029 6.63 16.5388 6.63 16.5388C7.52167 18.0274 8.96917 17.5972 9.54 17.3481C9.62917 16.719 9.88833 16.2888 10.175 16.0461C7.95417 15.7986 5.61917 14.9633 5.61917 11.2321C5.61917 10.1679 6.01 9.29944 6.64917 8.61763C6.54583 8.37169 6.20333 7.38063 6.74667 6.03973C6.74667 6.03973 7.58667 5.77837 9.4975 7.0381C10.295 6.82219 11.15 6.71424 12 6.71018C12.85 6.71424 13.7058 6.82219 14.505 7.0381C16.4142 5.77837 17.2525 6.03973 17.2525 6.03973C17.7967 7.38144 17.4542 8.3725 17.3508 8.61763C17.9925 9.29944 18.38 10.1687 18.38 11.2321C18.38 14.9731 16.0408 15.7969 13.8142 16.038C14.1725 16.34 14.5 16.9325 14.5 17.8416V20.5144C14.5 20.7734 14.66 21.0777 15.1675 20.982C19.1383 19.6922 22 16.0421 22 11.7402C22 6.36116 17.5225 2 12 2Z" fill="currentColor" />
</svg>
