<svg width="24" height="24" viewBox="0 0 24 24" fill="none" xmlns="http://www.w3.org/2000/svg">
<path fill-rule="evenodd" clip-rule="evenodd" d="M16.7603 20C20.5445 19.875 22 17.2857 22 17.2857C22 11.5358 19.5342 6.87513 19.5342 6.87513C17.0685 4.94658 14.7226 5.00015 14.7226 5.00015L14.4829 5.28586C17.3938 6.21442 18.7466 7.55369 18.7466 7.55369C16.9658 6.53585 15.2192 6.03585 13.5925 5.83943C12.3596 5.69657 11.1781 5.73228 10.1336 5.87514L9.84247 5.91085C9.24315 5.96442 7.78767 6.19657 5.95548 7.03584C5.32192 7.33941 4.94521 7.55369 4.94521 7.55369C4.94521 7.55369 6.36644 6.14299 9.44863 5.21443L9.2774 5.00015C9.2774 5.00015 6.93151 4.94658 4.46575 6.87513C4.46575 6.87513 2 11.5358 2 17.2857C2 17.2857 3.43836 19.875 7.2226 20C7.2226 20 7.85616 19.1964 8.36986 18.5179C6.19521 17.8393 5.37329 16.4107 5.37329 16.4107L5.85274 16.7143L5.92123 16.7679L5.9883 16.8081L6.00828 16.817L6.07534 16.8572C6.50342 17.1072 6.93151 17.3036 7.32534 17.4643C8.0274 17.75 8.86644 18.0357 9.84247 18.2322C11.1267 18.4822 12.6336 18.5714 14.2774 18.25C15.0822 18.1072 15.9041 17.8572 16.7603 17.4822C17.3596 17.25 18.0274 16.9107 18.7295 16.4286C18.7295 16.4286 17.8733 17.8929 15.6301 18.5536C16.1438 19.2322 16.7603 20 16.7603 20ZM8.79795 11.6608C7.82192 11.6608 7.05137 12.5536 7.05137 13.6429C7.05137 14.7322 7.83904 15.625 8.79795 15.625C9.77397 15.625 10.5445 14.7322 10.5445 13.6429C10.5616 12.5536 9.77397 11.6608 8.79795 11.6608ZM15.0479 11.6608C14.0719 11.6608 13.3014 12.5536 13.3014 13.6429C13.3014 14.7322 14.089 15.625 15.0479 15.625C16.024 15.625 16.7945 14.7322 16.7945 13.6429C16.7945 12.5536 16.024 11.6608 15.0479 11.6608Z" fill="black"/>
</svg>
