<svg width="24" height="24" viewBox="0 0 24 24" fill="none" xmlns="http://www.w3.org/2000/svg">
<path d="M12 3C7.029 3 3 7.02975 3 12C3 16.9702 7.029 21 12 21C16.971 21 21 16.9702 21 12C21 7.02975 16.971 3 12 3ZM19.4138 11.5807C17.4825 11.2642 15.7065 11.247 14.0865 11.526C13.9035 11.1038 13.7138 10.6822 13.5113 10.266C15.2438 9.516 16.635 8.4975 17.6722 7.2045C18.6847 8.4 19.32 9.91875 19.4138 11.5807ZM16.5322 6.11925C15.6285 7.28475 14.3813 8.2065 12.7928 8.87925C12.0308 7.4835 11.1593 6.12225 10.1768 4.80075C10.761 4.653 11.37 4.56525 12 4.56525C13.7063 4.56525 15.276 5.1495 16.5322 6.11925ZM8.64525 5.3745C9.6435 6.681 10.5285 8.028 11.298 9.41025C9.4755 9.9465 7.29975 10.2218 4.785 10.239C5.304 8.11275 6.73575 6.34425 8.64525 5.3745ZM4.56525 12L4.575 11.808C7.46175 11.8043 9.95175 11.472 12.0375 10.8165C12.2123 11.1727 12.3795 11.5305 12.54 11.8905C10.005 12.6833 7.91625 14.307 6.28725 16.7505C5.21325 15.4612 4.56525 13.8053 4.56525 12ZM7.437 17.8575C8.91375 15.5415 10.7985 14.034 13.1355 13.3372C13.8315 15.1523 14.3423 17.0198 14.6678 18.9323C12.156 19.9005 9.453 19.4317 7.437 17.8575ZM16.1265 18.18C15.798 16.4152 15.3165 14.6903 14.6865 13.0073C16.0935 12.8085 17.6415 12.8602 19.3358 13.1542C19.008 15.2437 17.8148 17.0482 16.1265 18.18Z" fill="currentColor" />
</svg>
