<svg width="24" height="24" viewBox="0 0 24 24" fill="none" xmlns="http://www.w3.org/2000/svg">
<path d="M12 11.0982C11.185 9.5131 8.9654 6.55908 6.90173 5.1022C4.92485 3.70658 4.1707 3.9484 3.6763 4.1718C3.10405 4.43038 3 5.30892 3 5.82582C3 6.34271 3.28337 10.0636 3.46821 10.6847C4.07893 12.7369 6.25301 13.4303 8.2552 13.2078C8.35755 13.1926 8.46135 13.1786 8.56645 13.1656C8.46335 13.1821 8.3595 13.1962 8.2552 13.2078C5.32102 13.6423 2.71519 14.7116 6.13291 18.5165C9.8924 22.409 11.2853 17.6818 12 15.2851C12.7148 17.6818 13.538 22.2385 17.7997 18.5165C21 15.2851 18.679 13.6425 15.7448 13.2079C15.6405 13.1963 15.5367 13.1822 15.4336 13.1657C15.5387 13.1787 15.6424 13.1927 15.7448 13.2079C17.747 13.4305 19.921 12.737 20.5318 10.6848C20.7166 10.0637 21 6.34284 21 5.82595C21 5.30905 20.896 4.43051 20.3237 4.17193C19.8293 3.94853 19.0751 3.70671 17.0983 5.10233C15.0346 6.55921 12.8151 9.5131 12 11.0982Z" fill="currentColor"/>
</svg>
