<svg width="24" height="24" viewBox="0 0 24 24" fill="none" xmlns="http://www.w3.org/2000/svg">
<path d="M21.3267 8.566C21.3267 4.227 18.4837 2.956 18.4837 2.956C17.0507 2.298 14.5897 2.021 12.0327 2H11.9697C9.41266 2.021 6.95366 2.298 5.51966 2.956C5.51966 2.956 2.67666 4.228 2.67666 8.566C2.67666 9.559 2.65766 10.747 2.68866 12.007C2.79166 16.25 3.46666 20.432 7.38966 21.47C9.19866 21.949 10.7517 22.049 12.0017 21.98C14.2697 21.854 15.5427 21.171 15.5427 21.171L15.4677 19.525C15.4677 19.525 13.8467 20.036 12.0267 19.974C10.2227 19.912 8.31966 19.78 8.02766 17.565C8.00009 17.3592 7.98672 17.1517 7.98766 16.944C7.98766 16.944 9.75766 17.377 12.0017 17.48C13.3737 17.543 14.6597 17.4 15.9667 17.244C18.4727 16.945 20.6547 15.401 20.9287 13.99C21.3627 11.767 21.3267 8.566 21.3267 8.566ZM17.9737 14.156H15.8927V9.057C15.8927 7.982 15.4407 7.437 14.5357 7.437C13.5357 7.437 13.0347 8.084 13.0347 9.364V12.155H10.9657V9.364C10.9657 8.084 10.4647 7.437 9.46366 7.437C8.55866 7.437 8.10666 7.983 8.10666 9.057V14.156H6.02566V8.903C6.02566 7.829 6.29866 6.976 6.84866 6.345C7.41466 5.714 8.15566 5.39 9.07666 5.39C10.1417 5.39 10.9487 5.799 11.4817 6.618L11.9997 7.487L12.5187 6.618C13.0517 5.799 13.8587 5.39 14.9237 5.39C15.8437 5.39 16.5857 5.714 17.1517 6.345C17.7007 6.976 17.9737 7.829 17.9737 8.903V14.156Z" fill="var(--color-indigo)"/>
</svg>
