<svg width="24" height="24" viewBox="0 0 24 24" fill="none" xmlns="http://www.w3.org/2000/svg">
<path d="M16.7347 11.2695C16.6486 11.2282 16.5611 11.1884 16.4725 11.1504C16.3181 8.30596 14.7638 6.67753 12.1541 6.66086C12.1423 6.66079 12.1305 6.66079 12.1187 6.66079C10.5577 6.66079 9.25947 7.32709 8.46041 8.53955L9.8957 9.52412C10.4926 8.61846 11.4294 8.42539 12.1194 8.42539C12.1273 8.42539 12.1353 8.42539 12.1432 8.42547C13.0025 8.43094 13.6509 8.68078 14.0706 9.16801C14.376 9.52272 14.5803 10.0129 14.6815 10.6315C13.9196 10.502 13.0956 10.4622 12.2148 10.5127C9.73359 10.6556 8.13845 12.1027 8.24558 14.1135C8.29994 15.1335 8.80808 16.011 9.67633 16.5842C10.4104 17.0688 11.3559 17.3058 12.3385 17.2521C13.6362 17.181 14.6542 16.6859 15.3644 15.7806C15.9037 15.0931 16.2449 14.2022 16.3955 13.0796C17.0139 13.4528 17.4722 13.944 17.7254 14.5344C18.1558 15.538 18.1809 17.1872 16.8352 18.5318C15.6561 19.7097 14.2389 20.2193 12.097 20.235C9.72103 20.2174 7.92415 19.4554 6.75586 17.9703C5.66186 16.5795 5.09648 14.5708 5.07538 11.9998C5.09648 9.42881 5.66186 7.42008 6.75586 6.02938C7.92415 4.54422 9.721 3.78226 12.0969 3.76461C14.4901 3.7824 16.3183 4.54802 17.5313 6.04035C18.1261 6.77217 18.5745 7.69249 18.8701 8.76554L20.5521 8.31679C20.1938 6.99598 19.6299 5.85782 18.8626 4.91391C17.3076 3.00068 15.0332 2.02033 12.1028 2H12.0911C9.16661 2.02026 6.91774 3.00434 5.40695 4.92488C4.06256 6.63392 3.36908 9.01193 3.34578 11.9928L3.3457 11.9998L3.34578 12.0069C3.36908 14.9877 4.06256 17.3658 5.40695 19.0748C6.91774 20.9953 9.16661 21.9795 12.0911 21.9997H12.1028C14.7028 21.9816 16.5355 21.3009 18.0452 19.7925C20.0205 17.8191 19.961 15.3455 19.31 13.827C18.8429 12.738 17.9524 11.8536 16.7347 11.2695ZM12.2456 15.4901C11.1581 15.5513 10.0283 15.0632 9.97263 14.0177C9.93134 13.2425 10.5243 12.3775 12.3123 12.2745C12.5171 12.2627 12.718 12.2569 12.9154 12.2569C13.5649 12.2569 14.1725 12.32 14.7249 12.4408C14.5188 15.0138 13.3103 15.4317 12.2456 15.4901Z" fill="black"/>
</svg>
